<svg xmlns="http://www.w3.org/2000/svg" viewBox="0 0 1181.72 1192.39">
  <title>Aktiv 1ArtFarmLogo</title>
  <g>
    <path d="M488.19,381.92h693.53v17.94H947.36V1186.2h-18.1c-.35-14.73-.11-29.48-.15-44.24s0-29.66,0-44.5v-88.14c-.55-.31-.68-.45-.82-.45a.56.56,0,0,0-.44.16c-24.85,32.57-49.69,65.15-75,98.3l-76.54-99.2-.94.22c-.24,7.37-.08,14.75-.11,22.13s0,14.67,0,22v133.68H757.52V954.3c4.67,5.3,8.36,10.57,12.31,15.6s7.8,10.1,11.7,15.15l12,15.53,11.69,15.16q6,7.77,11.95,15.55c3.9,5,7.82,10.08,11.71,15.14s8,10.38,11.95,15.55c3.88,5,7.78,10,11.9,15.3,1.11-1.32,1.95-2.22,2.69-3.2q35.75-47,71.52-94.07c1.93-2.53,2.26-5.07,2.26-8q0-163.41,0-326.83V400.81c-3.63-1.11-170.56-1.45-178-.37,1.53,1,2.64,1.74,3.81,2.41,29.29,16.88,45.09,42.33,48.12,75.87,1.83,20.25,0,40.18-6.29,59.52-9.35,28.53-28.11,48.42-56,59.57-1.61.64-3.22,1.31-5.37,2.18,1.38.85,2.32,1.53,3.35,2,31.12,15.33,52.78,39.54,66.53,71.09,9.13,20.95,14,43,16,65.67.61,7,.94,14,1.33,21,.13,2.35,0,4.71,0,7.33H804.76c-.12-2.14-.31-4.17-.35-6.19-.45-21.29-2.85-42.3-9.06-62.76-6.05-19.94-15.22-38.23-29.55-53.54C744.42,621.78,718,609,686.85,606.14c-1.26-.11-2.5-.31-4.35-.55.17-2.9.34-5.7.51-8.49s.35-5.7.56-9.1c1.77,0,3.44-.06,5.1,0,18.48.72,36.26-2.25,52.89-10.55,17.49-8.72,29.65-22.5,36.42-40.73a122.52,122.52,0,0,0,5.53-66.4c-4.79-25.31-19.78-43-42.63-54.31-15-7.45-31.14-11.22-47.66-13.3a242.94,242.94,0,0,0-43-1.19c-.94.05-1.87.18-3.31.32-.63,10.24-.21,20.38-.29,30.5s0,20.1,0,30.15V767.06H627.86c-2.83-6.78-5.73-13.67-8.59-20.58Q580.6,653,542,559.6q-32.06-77.55-64.08-155.11c-2.26-5.47-1.84-4.58-6.89-4.58q-149.05,0-298.12,0H168L19.82,758.43c16.85,0,33,0,49.17,0H312.21v18H18.52V954.65H136v18H18.29v219.7H0V924.49q0-80.4,0-160.79A24.73,24.73,0,0,1,1.9,754Q28,691.06,54,628.06q40.08-97,80.15-194,42.47-102.73,85-205.45,40-96.76,80-193.55c4.32-10.46,8.74-20.88,12.95-31.38,1-2.53,2.2-3.93,5.17-3.68a58.68,58.68,0,0,0,9.56,0c2.94-.24,4.18,1.1,5.22,3.66,7.14,17.57,14.44,35.07,21.68,52.6q30.47,73.8,60.94,147.61Q448,285,481.56,366.06C483.69,371.2,485.85,376.32,488.19,381.92Zm-312.54-.5H468.33Q395.18,204.5,322.42,28.59l-1,.12Zm320,18.75q66.09,160,131.77,318.94c1.63-7.11,1.27-315.56.24-318.94Z"/>
    <path d="M541.42,1092.46l2.11-19.88h7.31A51.63,51.63,0,0,0,573,1067.4c10.54-5.06,17.15-13.6,20.31-24.71a67.85,67.85,0,0,0,1.81-30.77c-2.28-12.8-9.51-22-20.85-28.15-10.15-5.46-21.18-7.84-32.52-8.8-4.86-.41-9.79-.07-15.09-.07v211.4c-6.82.31-13.26.12-19.64.12-1.1-3.6-1.58-219.76-.51-230.62,5-.55,10.15-1.41,15.32-1.65,17.17-.8,34.09.75,50.42,6.47,15.7,5.51,28.59,14.63,36.73,29.57a60.3,60.3,0,0,1,7.12,24.62c.89,12,0,23.9-3.73,35.44-4.79,14.7-13.62,26.17-27.18,33.83-1.09.62-2.18,1.26-3.75,2.17,34.81,24.46,45.36,59.64,45.76,99.89h-20c-.46-6-.76-11.83-1.39-17.65-1.74-16.06-6.07-31.28-15.3-44.77-10.83-15.84-25.7-25.81-44.37-30.16Z"/>
    <path d="M321.9,1095.78H248.66q-18.93,45.12-37.92,90.41H189.52L286.59,955c2.38,3.09,89.17,224.18,90.84,231.15H357.38Q339.79,1141.33,321.9,1095.78Zm-7.63-19.51-27.48-70.12c-4.16,7-28.81,66.84-29,70.12Z"/>
  </g>
</svg>
