<?xml version="1.0" encoding="utf-8"?>
<!-- Generator: Adobe Illustrator 22.1.0, SVG Export Plug-In . SVG Version: 6.00 Build 0)  -->
<svg version="1.1" id="arcade" xmlns="http://www.w3.org/2000/svg" xmlns:xlink="http://www.w3.org/1999/xlink" x="0px" y="0px"
	 viewBox="0 0 3002.9 3003" enable-background="new 0 0 3002.9 3003" xml:space="preserve">
<mask id="rectangle-mask">
    <rect x="1171" y="880" width="662" height="590" fill="white" rx="20" ry="20" />
  </mask>

<g>
	<!-- background only activate to adjust svg box-->
	<!-- <g>
		<defs>
			<rect id="SVGID_1_" x="1" width="3002.9" height="3003"/>
		</defs>
		<clipPath id="SVGID_2_">
			<use xlink:href="#SVGID_1_"  overflow="visible"/>
		</clipPath>
		<rect x="2" y="1.2" clip-path="url(#SVGID_2_)" fill="#FFFFFF" width="3000" height="3000"/>
		<path clip-path="url(#SVGID_2_)" fill="#FEDEDE" d="M2,0C1.7,0,1.4,0.1,1.2,0.3C1,0.6,0.8,0.8,0.8,1.2v3000c0,0.6,0.5,1.2,1.2,1.2
			h3000c0.3,0,0.6-0.1,0.8-0.3c0.2-0.2,0.3-0.5,0.3-0.8V1.2c0-0.6-0.5-1.2-1.2-1.2H2z M2,0"/>
		<path clip-path="url(#SVGID_2_)" fill="#5BA7E8" d="M0.8,2539.6v461.6c0,0.6,0.5,1.2,1.2,1.2h3000c0.3,0,0.6-0.1,0.8-0.3
			c0.2-0.2,0.3-0.5,0.3-0.8v-447.8l-1565.3-7.2L0.8,2539.6z M0.8,2539.6"/>
	</g>
	<g id="arcadeShade">
	<path fill="#3988CB" d="M2120.1,2500.9l18.7,2.8c224.8,32.4,345.4,61.2,361.8,86.3c7.1,11.1-3,21-30.1,29.7
		c-49.7,14.5-125,30.6-225.9,48.4c-111.1,19.8-245.3,39-402.5,57.4c-98.1,11.2-196.5,18.7-295,22.4c-87.8,3.2-173.8,2.1-258-3.4
		c-99.7-7-204.9-18.5-315.6-34.5c-235.2-36.1-384.4-69.8-447.7-101c-42.6-22.1,35.4-52,233.9-89.7c141.7-24.5,254.4-41,338.2-49.5
		c148-15.2,263.4-22.8,346-22.9C1623.3,2443.2,1848.6,2461.2,2120.1,2500.9"/>
	<path fill="#CAA7A7" d="M2347.5,2537.9l-50.9-8.8c-193.4-32.9-339.7-61.1-438.7-84.6l-301-29l-241.7,27.4l-282.7,30.1
		c-37.2,4.2-72.6,8.6-106.2,13.3c-90.8,13.1-180.2,30.9-268.2,53.5L2347.5,2537.9"/>
	</g> -->
	
	<path fill="#629DA3" d="M2010.4,548.1l-77.7,0.2l-6.4,32.4l-853.8-1.2l-2.9-35.3l-82.1-0.7c-14.1,98.2-8.4,189.6,16.9,274.3
		l2.7,699.8l-38.4,246.6l30,94.3l3.4,706l26.5,35.9l951.2,2.7l23.5-57.8l2.2-687.2l31.1-89.3l-35.5-218.3l3.7-739.1l14.9-81.1
		l-1.1-117.2L2010.4,548.1"/>
	<path fill="#EFA72E" d="M1263.6,1656.1l-0.4,4.1c-1.9,8.3-7.4,14.9-16.4,19.8c-9.2,5-19.9,7-32.3,6c-11.8-1.3-21.3-5.1-28.4-11.5
		c-2.3-2.1-4.1-4.3-5.6-6.7l-1.9-3.7c-1-2.6-1.5-5.2-1.5-8c0.3-8.6,4.5-15.7,12.7-21.4c8.1-5.7,18.3-8.6,30.6-8.9
		c12.3,0.2,22.5,3.2,30.6,8.9C1259.1,1640.5,1263.3,1647.6,1263.6,1656.1"/>
	<polyline fill="#C52222" points="1404.8,2076.3 1603.5,2078.3 1607.9,2163.1 1508,2160.6 1396.4,2166.3 1395.4,2126.3 
		1404.8,2076.3 	"/>
	<path fill="#C52222" d="M1398.5,2199.8l-1.3,8.4c-4.9,33-6.1,52.7-3.7,59c1.7,11.6,7.3,18.8,16.8,21.8c3.7,1.5,10,2.2,18.9,2.1
		c8.9-0.3,20.8-1.8,35.5-4.5l96.8-2.9l40-2.7l7.4-81.9L1398.5,2199.8"/>
	<path fill="#3F686B" d="M1187.9,1687l3.2,3.2c6.2,6.7,13,12.4,20.3,17c4.9,3,10.4,5,16.3,5.9c7.6,0.8,14.6,0.3,21-1.6l5-1.5
		c3.3-1.1,6.6-2.5,9.7-4c3.1-1.5,6-3.3,8.6-5.2c5.4-3.8,9.2-8.1,11.4-12.8l1.2-3.6c0.5-2.5,0.6-5,0.2-7.6c-0.8-5.2-2.9-10.5-6.2-16
		c-2.3-4.1-7.2-11.1-14.8-21c0.2,13-0.7,22.4-2.6,28.2c-0.7,2.3-1.7,4.5-2.8,6.5l-2,2.8c-1.5,1.8-3.2,3.3-5.3,4.7
		c-5.2,3-11.9,4.9-20.3,5.5C1221.1,1688.5,1206.9,1688.3,1187.9,1687"/>
	<path fill="#3F676A" d="M1918.7,794.4l-418.5-0.3l-418.5-0.3c-3-10-6-20-9.1-30c284.1,0.9,568.2,1.9,852.3,2.8L1918.7,794.4"/>
	<path fill="#3F676A" d="M2009.2,787.3l-4.4,24.2l-0.2,35.8L2009.2,787.3z M2009.2,787.3"/>
	<polyline fill="#54898C" points="1926.7,787.1 1907.7,827.8 1911.2,931.2 2003.9,932.6 2005.7,810.4 2024.1,738.4 1928.7,737.1 
		1926.7,787.1 	"/>
	<polyline fill="#54898C" points="1077.3,787.1 1096.2,827.8 1092.8,931.2 1000.1,932.6 998.2,810.4 979.9,738.4 1075.3,737.1 
		1077.3,787.1 	"/>
	<path fill="#3F676A" d="M1926.3,785.8l42.5,0.2l42.5,0.2c-2.8,30.8-5.6,61.6-8.4,92.5c-31.3-0.1-62.7-0.1-94-0.2
		c0.8-17.1,1.7-34.1,2.5-51.2L1926.3,785.8"/>
	<path fill="#3F676A" d="M1077.7,785.8l-42.5,0.2l-42.5,0.2c2.8,30.8,5.6,61.6,8.4,92.5c31.3-0.1,62.7-0.1,94-0.2
		c-0.9-17.1-1.7-34.1-2.6-51.2L1077.7,785.8"/>
	<path fill="#3F676A" d="M1502.1,1546l409.6,1.2l28,216.4c-5.9-10.5-14.2-30.1-24.8-58.7c-23.5-65.2-37.4-108.4-41.6-129.6
		c-0.8-2-2.1-3.4-3.9-3.9c-2.1-2.7-27.7-4.1-76.7-4.5c-53.3-0.7-150.2-0.1-290.8,1.6L1502.1,1546"/>
	<path fill="#3F676A" d="M1501.9,1546l-409.6,1.2l-28,216.4c5.9-10.5,14.2-30.1,24.8-58.7c23.5-65.2,37.4-108.4,41.6-129.6
		c0.8-2,2.1-3.4,3.9-3.9c2.1-2.7,27.7-4.1,76.7-4.5c53.3-0.7,150.2-0.1,290.8,1.6L1501.9,1546"/>
	<polyline fill="#54888C" points="1940.6,1792.4 2031.4,1791.6 2003,1860.7 2003.6,1930.6 1910.6,1930.7 1918,1855.5 1940.6,1792.4 
			"/>
	<polyline fill="#54888C" points="1063.4,1792.4 972.6,1791.6 1001,1860.7 1000.4,1930.6 1093.4,1930.7 1086,1855.5 1063.4,1792.4 	
		"/>
	<path fill="#3F676A" d="M1934.1,1817.2l41.7,0.9l41.7,0.9c-5.1,29.5-10.2,58.9-15.3,88.4c-29.1,0.4-58.2,0.8-87.3,1.3
		c-0.2-17.5-0.4-35-0.5-52.5L1934.1,1817.2"/>
	<path fill="#3F676A" d="M1069.9,1817.2l-41.7,0.9l-41.7,0.9c5.1,29.5,10.2,58.9,15.3,88.4c29.1,0.4,58.2,0.8,87.3,1.3
		c0.2-17.5,0.4-35,0.5-52.5L1069.9,1817.2"/>
	<path fill="#54888C" d="M1905.2,2503.2l50.2,0.5l50.2,0.5c-1.8,24.4-3.7,48.8-5.5,73.3c-33.7,1.3-67.5,2.6-101.2,4L1905.2,2503.2"
		/>
	<path fill="#54888C" d="M1098.8,2503.2l-50.2,0.5l-50.2,0.5c1.8,24.4,3.7,48.8,5.5,73.3c33.7,1.3,67.5,2.6,101.2,4L1098.8,2503.2"
		/>
	<path fill="#3F676A" d="M1903.6,2529.9l50.5,0.1l50.5,0.1c-2.2,18.2-4.3,36.5-6.5,54.7c-34.9,2-69.9,3.9-104.8,5.9L1903.6,2529.9"
		/>
	<path fill="#3F676A" d="M1100.4,2529.9l-50.5,0.1l-50.5,0.1c2.2,18.2,4.3,36.5,6.5,54.7c34.9,2,69.9,3.9,104.8,5.9L1100.4,2529.9"
		/>
	<path fill="#54888C" d="M1909,574.3l-2.2,4.1c-4.5,8-8.4,17.2-11.9,27.7c-1.1,3.6-2.1,7.4-3,11.6l-1.2,6.5
		c-0.8,4.5-1.4,9.3-1.8,14.5c-0.4,5.2-0.7,10.9-0.8,16.9c-0.2,2.6-0.1,12.3,0.3,29.1c0.5,17.1,2.1,43.2,4.8,78.2l34.4-2.4l4-173.5
		L1909,574.3"/>
	<path fill="#54888C" d="M1095,574.3l2.2,4.1c4.5,8,8.4,17.2,11.9,27.7c1.1,3.6,2.1,7.4,3,11.6l1.2,6.5c0.8,4.5,1.4,9.3,1.8,14.5
		c0.4,5.2,0.7,10.9,0.8,16.9c0.2,2.6,0.1,12.3-0.3,29.1c-0.5,17.1-2.1,43.2-4.8,78.2l-34.4-2.4l-4-173.5L1095,574.3"/>
	<path fill="#3F676A" d="M1930.5,593.9l-2.4,1.2c-4.8,1.9-9.2,6-13.2,12.2c-1.3,2.2-2.5,4.9-3.5,8.1l-1.5,5.2
		c-1,3.7-1.8,8.1-2.5,13.2c-0.7,5.1-1.2,10.8-1.6,17.2l-0.5,10c-0.3,7-0.5,14.4-0.5,22.3c-0.3,19.5,0.2,50.5,1.3,92.9l25.4-14.7
		L1930.5,593.9"/>
	<path fill="#3F676A" d="M1073.5,593.9l2.4,1.2c4.8,1.9,9.2,6,13.2,12.2c1.3,2.2,2.5,4.9,3.5,8.1l1.5,5.2c1,3.7,1.8,8.1,2.5,13.2
		c0.7,5.1,1.2,10.8,1.6,17.2l0.5,10c0.3,7,0.5,14.4,0.5,22.3c0.2,19.5-0.2,50.5-1.3,92.9l-25.4-14.7L1073.5,593.9"/>
	<path fill="#54888C" d="M1910.1,1854.7l-0.2,63.3l-0.2,63.3c-271,0.5-542,1-813,1.6c-3-41.2-6-82.4-9-123.6L1910.1,1854.7"/>
	<path fill="#3F676A" d="M1912.1,1933.2l-410.2-0.9l-410.2-0.9c1.4-24.9,2.7-49.8,4.1-74.7c273.9,0.4,547.9,0.8,821.8,1.2
		L1912.1,1933.2"/>
	<path fill="#3F676A" d="M1943.7,1790.4l-11.5,36.5l-11.5,36.5c-278.8,0.6-557.5,1.2-836.3,1.9c-9-24.8-17.9-49.5-26.9-74.3
		L1943.7,1790.4"/>
	<path fill="#3F676A" d="M1118.7,1866l2,329l2,329c-9.5,0.7-19,1.4-28.6,2.2c-1.9-221.3-3.8-442.6-5.7-663.9L1118.7,1866"/>
	<path fill="#3F676A" d="M1907.2,2518.1l-406.4,2.4l-406.4,2.4c11.1,22.5,22.3,45.1,33.4,67.6c249.1-3.1,498.1-6.2,747.2-9.2
		L1907.2,2518.1"/>
	
	<path fill="#54888C" d="M1917.8,795l-9.6,81c-13.9-17.8-27-28.8-39.3-33c-14.1-5.7-33.7-8.7-58.9-8.9c-15.7-0.3-29.3-0.3-41.1-0.1
		c-75.6,1.5-200.8,3.3-375.8,5.6l-69.9,0.9c-34,0-66.2,0.2-96.6,0.4c-24.1,0.3-37.9,0.5-41.5,0.6c-25.5,0.5-44.4,1.5-56.5,2.9
		c-14.5,1.6-25,4.1-31.6,7.5l-9.8-56.8L1917.8,795"/>
	<path fill="#3F676A" d="M1908.7,850.7l-3.5-2.7c-16.1-12.8-27.8-20.4-35-22.8c-9-3.5-18.4-5.2-28.3-4.9c-4.4,0-10.9,0.3-19.7,1
		l-600.7,1.2c-18.4,0-36,0.2-52.6,0.6c-22.4,0.5-39.5,2.1-51.4,4.9c-9.6,1.9-18.4,6.7-26.4,14.4l-12.8-48.1l844.5-2L1908.7,850.7"/>
	<path fill="#3F676A" d="M1121.6,795.3l8.5,755c-12.1,42.2-20.5,62.3-25.2,60.3c-4.9,1.5-8.7-14.7-11.4-48.6
		c-3.3-46.3-4.6-130.6-3.9-253c0.4-97,2.5-257.7,6.3-482.1l-17.6-34.8L1121.6,795.3"/>
	<path d="M1500.6,565.7l431,4.3l-8.6,8.3l0.9-32.5c0.1-4.6,3.9-8.2,8.4-8.3l83.3-0.6c4.6,0,8.4,3.6,8.6,8.2
		c2.6,69.2,5.3,138.9,3.4,183.5c-1.9,45.2-8.5,65.1-15,84.6l0.4-2.7l-0.6,168.5v0l-3.5,539l0-0.8c1.4,16.9,2.9,33.6,5.9,55.2
		c1.9,13.4,4.4,28.7,7.3,46.4c1.8,11,3.8,23,5.8,35.9c5.3,33.6,11.2,73.6,17.1,113.7c0.2,1.4,0.1,2.9-0.5,4.2l-32.5,86.2l0.5-2.8
		l-1.4,56.2l0-0.2l0.1,653.5c0,1.7-0.5,3.3-1.4,4.7l-22.4,34.1c-1.6,2.4-4.3,3.9-7.1,3.8l-484.1-1.6c-4.7,0-8.5-3.8-8.5-8.5
		c0-4.7,3.8-8.5,8.5-8.5l484.1,1.6l-7.1,3.8l22.4-34.1l-1.4,4.7l-0.1-653.5c0-0.1,0-0.1,0-0.2l1.4-56.2c0-1,0.2-1.9,0.5-2.8
		l32.5-86.2l-0.5,4.2c-5.9-40.1-11.8-80-17.1-113.5c-2-12.8-4-24.8-5.8-35.8c-2.9-17.6-5.5-33.2-7.4-46.8c-3.1-22.2-4.6-39.3-6-56.2
		c0-0.3,0-0.5,0-0.8l3.5-539l0,0l0.6-168.5c0-0.9,0.2-1.8,0.4-2.7c6.2-18.6,12.3-36.8,14.1-80c1.8-43.8-0.8-112.7-3.4-182.1l8.6,8.2
		l-83.3,0.6l8.5-8.3l-0.9,32.5c-0.1,4.6-4,8.3-8.6,8.3l-431-4.3c-4.7,0-8.5-3.9-8.4-8.6C1492.1,569.4,1495.9,565.6,1500.6,565.7
		L1500.6,565.7z M1500.6,565.7"/>
	<path d="M1503.4,565.7l-431,4.3l8.6,8.3l-0.9-32.5c-0.1-4.6-3.9-8.2-8.5-8.3l-83.3-0.6c-4.6,0-8.4,3.6-8.6,8.2
		c-2.6,69.2-5.3,138.9-3.4,183.5c1.9,45.2,8.5,65.1,15,84.6l-0.4-2.7l0.6,168.5v0l3.5,539l0-0.8c-1.4,16.9-2.9,33.6-5.9,55.2
		c-1.9,13.4-4.4,28.7-7.3,46.4c-1.8,11-3.8,23-5.8,35.9c-5.3,33.6-11.2,73.6-17.1,113.7c-0.2,1.4-0.1,2.9,0.5,4.2l32.5,86.2
		l-0.5-2.8l1.4,56.2l0-0.2l-0.1,653.5c0,1.7,0.5,3.3,1.4,4.7l22.4,34.1c1.6,2.4,4.3,3.9,7.1,3.8l484.1-1.6c4.7,0,8.5-3.8,8.5-8.5
		c0-4.7-3.8-8.5-8.5-8.5l-484.1,1.6l7.1,3.8l-22.4-34.1l1.4,4.7l0.1-653.5c0-0.1,0-0.1,0-0.2l-1.4-56.2c0-1-0.2-1.9-0.5-2.8
		l-32.5-86.2l0.5,4.2c5.9-40.1,11.8-80,17.1-113.5c2-12.8,4-24.8,5.8-35.8c2.9-17.6,5.5-33.2,7.4-46.8c3.1-22.2,4.6-39.3,6-56.2
		c0-0.3,0-0.5,0-0.8l-3.5-539v0l-0.6-168.5c0-0.9-0.2-1.8-0.4-2.7c-6.2-18.6-12.3-36.8-14.1-80c-1.8-43.8,0.8-112.7,3.4-182.1
		l-8.6,8.2l83.3,0.6l-8.5-8.3l0.9,32.5c0.1,4.6,3.9,8.3,8.6,8.3l431-4.3c4.7,0,8.5-3.9,8.4-8.6
		C1511.9,569.4,1508.1,565.6,1503.4,565.7L1503.4,565.7z M1503.4,565.7"/>
	<path d="M1938.3,573.7c1.3,67.5,2.7,135.7-0.9,178.2c-3.6,43.3-12.4,60.6-21,77.5l0.9-4l0,0.6c0.5,31.8,1,64,0.9,181.3
		c-0.1,118-0.8,322.2-1.4,526.4l-0.1-1.4l39.9,242.1c0.2,1.5,0.1,3-0.5,4.5l-37.8,97.8l0.6-3.2c0.3,30.6,0.6,61.2,0.2,169.3
		c-0.4,108-1.6,293.7-2.8,479.2c0,4.7-3.8,8.4-8.5,8.5l-408.9,0.6c-4.7,0-8.5-3.8-8.5-8.5c0-4.7,3.8-8.5,8.5-8.5l408.9-0.6l-8.5,8.5
		c1.2-185.5,2.4-371.1,2.8-479.1c0.4-108,0.1-138.5-0.2-169.1c0-1.1,0.2-2.2,0.6-3.2l37.8-97.8l-0.5,4.5l-39.9-242.1
		c-0.1-0.5-0.1-0.9-0.1-1.4c0.7-204.1,1.3-408.3,1.4-526.3c0.1-117.2-0.4-149.4-0.9-181v0l0-0.6c0-1.4,0.3-2.8,0.9-4
		c7.9-15.5,15.8-30.6,19.2-71.2c3.4-41.4,2.1-108.6,0.8-176.5c-0.1-4.7,3.6-8.6,8.3-8.7C1934.3,565.2,1938.2,569,1938.3,573.7
		L1938.3,573.7z M1938.3,573.7"/>
	<path d="M1065.7,573.7c-1.3,67.5-2.7,135.7,0.9,178.2c3.6,43.3,12.3,60.6,21,77.5l-0.9-4l0,0.6c-0.5,31.8-1,64-0.9,181.3
		c0.1,118,0.8,322.2,1.4,526.4l0.1-1.4l-39.9,242.1c-0.2,1.5-0.1,3,0.5,4.5l37.8,97.8l-0.6-3.2c-0.3,30.6-0.6,61.2-0.2,169.3
		c0.4,108,1.6,293.7,2.8,479.2c0,4.7,3.8,8.4,8.5,8.5l408.9,0.6c4.7,0,8.5-3.8,8.5-8.5c0-4.7-3.8-8.5-8.5-8.5l-408.9-0.6l8.5,8.5
		c-1.2-185.5-2.4-371.1-2.8-479.1c-0.4-108-0.1-138.5,0.2-169.1c0-1.1-0.2-2.2-0.6-3.2l-37.8-97.8l0.5,4.5l39.9-242.1
		c0.1-0.5,0.1-0.9,0.1-1.4c-0.7-204.1-1.3-408.3-1.4-526.3c-0.1-117.2,0.4-149.4,0.9-181v0l0-0.6c0-1.4-0.3-2.8-0.9-4
		c-7.9-15.5-15.8-30.6-19.2-71.2c-3.4-41.4-2.1-108.6-0.8-176.5c0.1-4.7-3.6-8.6-8.3-8.7C1069.7,565.2,1065.8,569,1065.7,573.7
		L1065.7,573.7z M1065.7,573.7"/>
	<path d="M1927.2,774.2l-426.9-1.2c-4.7,0-8.5-3.8-8.5-8.5c0-4.7,3.8-8.5,8.5-8.5l426.9,1.2c4.7,0,8.5,3.8,8.5,8.5
		C1935.7,770.4,1931.9,774.2,1927.2,774.2L1927.2,774.2z M1927.2,774.2"/>
	<path d="M1076.8,774.2l426.9-1.2c4.7,0,8.5-3.8,8.5-8.5c0-4.7-3.8-8.5-8.5-8.5l-426.9,1.2c-4.7,0-8.5,3.8-8.5,8.5
		C1068.3,770.4,1072.1,774.2,1076.8,774.2L1076.8,774.2z M1076.8,774.2"/>
	<path d="M1497.2,617.3l335.7,0.2c0.1,0,0.2,0,0.2,0c8.9,0.5,19.1,1,28.9,9c9.5,7.8,18.3,22.4,19.1,39.8c0.7,17.2-6.4,37-15.7,47.3
		c-9.2,10.1-20.2,10.7-29.8,10.7c-0.7,0-1.5,0-2.2,0h0l-331.7,0c-2.3,0-4.2-1.9-4.2-4.2c0-2.3,1.9-4.2,4.2-4.2l331.7,0h0
		c0.7,0,1.4,0,2.2,0c9.3,0,16.9-0.6,23.5-7.9c7.7-8.4,14.2-26.1,13.5-41.2c-0.6-14.9-8.3-27.4-16-33.7c-7.4-6.1-15-6.6-24-7.1l0.2,0
		l-335.7-0.2c-2.3,0-4.2-1.9-4.2-4.2C1493,619.2,1494.9,617.3,1497.2,617.3L1497.2,617.3z M1497.2,617.3"/>
	<path d="M1506.8,617.3l-335.7,0.2c-0.1,0-0.2,0-0.2,0c-8.9,0.5-19.1,1-28.9,9c-9.5,7.8-18.3,22.4-19.1,39.8
		c-0.7,17.2,6.4,37,15.7,47.3c9.2,10.1,20.2,10.7,29.8,10.7c0.7,0,1.5,0,2.2,0h0l331.7,0c2.3,0,4.2-1.9,4.2-4.2
		c0-2.3-1.9-4.2-4.2-4.2l-331.7,0h0c-0.7,0-1.4,0-2.2,0c-9.3,0-16.9-0.6-23.5-7.9c-7.7-8.4-14.2-26.1-13.5-41.2
		c0.6-14.9,8.3-27.4,16-33.7c7.4-6.1,15-6.6,24-7.1l-0.2,0l335.7-0.2c2.3,0,4.2-1.9,4.2-4.2C1511,619.2,1509.1,617.3,1506.8,617.3
		L1506.8,617.3z M1506.8,617.3"/>
	<path d="M1907.5,1558l-406.4-1.2c-5.8,0-10.4-4.7-10.4-10.4c0-5.8,4.7-10.4,10.4-10.4l406.4,1.2c5.8,0,10.4,4.7,10.4,10.4
		C1918,1553.3,1913.3,1558,1907.5,1558L1907.5,1558z M1907.5,1558"/>
	<path d="M1096.5,1558l406.4-1.2c5.8,0,10.4-4.7,10.4-10.4c0-5.8-4.7-10.4-10.4-10.4l-406.4,1.2c-5.7,0-10.4,4.7-10.4,10.4
		C1086,1553.3,1090.7,1558,1096.5,1558L1096.5,1558z M1096.5,1558"/>
	<path d="M1914.6,804.1l-416.1-1.2c-5.8,0-10.4-4.7-10.4-10.4c0-5.8,4.7-10.4,10.4-10.4l416.1,1.2c5.8,0,10.4,4.7,10.4,10.4
		C1925,799.4,1920.4,804.1,1914.6,804.1L1914.6,804.1z M1914.6,804.1"/>
	<path d="M1089.4,804.1l416.1-1.2c5.8,0,10.4-4.7,10.4-10.4c0-5.8-4.7-10.4-10.4-10.4l-416.1,1.2c-5.8,0-10.4,4.7-10.4,10.4
		C1079,799.5,1083.6,804.1,1089.4,804.1L1089.4,804.1z M1089.4,804.1"/>
	<path d="M2003.9,819.7l-89.5-0.7c-2.3,0-4.1-1.9-4.1-4.1c0-2.3,1.9-4.1,4.1-4.1l89.5,0.7c2.3,0,4.1,1.9,4.1,4.1
		C2008,817.9,2006.2,819.7,2003.9,819.7L2003.9,819.7z M2003.9,819.7"/>
	<path d="M1000.1,819.7l89.5-0.7c2.3,0,4.1-1.9,4.1-4.1c0-2.3-1.9-4.1-4.1-4.1l-89.5,0.7c-2.3,0-4.1,1.9-4.1,4.1
		C996,817.9,997.8,819.7,1000.1,819.7L1000.1,819.7z M1000.1,819.7"/>
	<path d="M1940.3,1767.8l-441.9-2.4c-3.5,0-6.3-2.9-6.3-6.4c0-3.5,2.9-6.3,6.4-6.3l442,2.4c3.5,0,6.3,2.9,6.3,6.4
		C1946.6,1765,1943.8,1767.8,1940.3,1767.8L1940.3,1767.8z M1940.3,1767.8"/>
	<path d="M1063.7,1767.8l442-2.4c3.5,0,6.3-2.9,6.3-6.4c0-3.5-2.9-6.3-6.4-6.3l-442,2.4c-3.5,0-6.3,2.9-6.3,6.4
		C1057.4,1765,1060.2,1767.8,1063.7,1767.8L1063.7,1767.8z M1063.7,1767.8"/>
	<path d="M1943.7,1796.1l-442.3-2.6c-4.7,0-8.4-3.8-8.4-8.5c0-4.7,3.8-8.4,8.5-8.4l442.3,2.6c4.7,0,8.4,3.8,8.4,8.5
		C1952.2,1792.4,1948.4,1796.2,1943.7,1796.1L1943.7,1796.1z M1943.7,1796.1"/>
	<path d="M1060.3,1796.1l442.3-2.6c4.7,0,8.4-3.8,8.4-8.5c0-4.7-3.8-8.4-8.5-8.4l-442.3,2.6c-4.7,0-8.4,3.8-8.4,8.5
		C1051.8,1792.4,1055.6,1796.2,1060.3,1796.1L1060.3,1796.1z M1060.3,1796.1"/>
	<path d="M1932.2,1826.3l-431.6,0.6c-4.7,0-8.5-3.8-8.5-8.4c0-4.7,3.8-8.5,8.4-8.5l431.6-0.6c4.7,0,8.5,3.8,8.5,8.4
		C1940.6,1822.5,1936.8,1826.3,1932.2,1826.3L1932.2,1826.3z M1932.2,1826.3"/>
	<path d="M1071.8,1826.3l431.6,0.6c4.7,0,8.5-3.8,8.5-8.4c0-4.7-3.8-8.5-8.4-8.5l-431.6-0.6c-4.7,0-8.5,3.8-8.5,8.4
		C1063.4,1822.5,1067.2,1826.3,1071.8,1826.3L1071.8,1826.3z M1071.8,1826.3"/>
	<path d="M1998.6,1877l-80.6-1c-6.6-0.1-11.9-5.5-11.8-12.1c0.1-6.6,5.5-11.9,12.1-11.8l80.6,1c6.6,0.1,11.9,5.5,11.8,12.1
		C2010.7,1871.8,2005.2,1877.1,1998.6,1877L1998.6,1877z M1998.6,1877"/>
	<path d="M1005.4,1877l80.6-1c6.6-0.1,11.9-5.5,11.8-12.1c-0.1-6.6-5.5-11.9-12.1-11.8l-80.6,1c-6.6,0.1-11.9,5.5-11.8,12.1
		C993.3,1871.8,998.8,1877.1,1005.4,1877L1005.4,1877z M1005.4,1877"/>
	<path d="M1920,1873l-425.9-2c-7.8,0-14-6.4-14-14.1c0-7.8,6.4-14,14.1-14l425.9,2c7.8,0,14,6.4,14,14.1
		C1934.1,1866.7,1927.7,1873,1920,1873L1920,1873z M1920,1873"/>
	<path d="M1084,1873l425.9-2c7.8,0,14-6.4,14-14.1c0-7.8-6.4-14-14.1-14l-425.9,2c-7.8,0-14,6.4-14,14.1
		C1069.9,1866.7,1076.3,1873,1084,1873L1084,1873z M1084,1873"/>
	<path d="M1503.3,2027.3h86.6c0.5,0,0.9,0,1.4,0.1l0.2,0c14.8,2.6,33,5.7,44.9,17.5c11.8,11.7,16.3,31.1,20.3,47.1
		c0.2,0.6,0.2,1.3,0.2,1.9l-0.2,162.7c0,0.3,0,0.5,0,0.8c-1.7,16.7-3.5,37.2-14.6,50.3c-11.2,13.1-30.9,17.5-46.7,21.3
		c-0.6,0.1-1.2,0.2-1.9,0.2l-94.8-0.2c-4.4,0-7.9-3.6-7.9-7.9c0-4.4,3.6-7.9,7.9-7.9l94.8,0.2l-1.9,0.2c17.5-4.2,31.1-7.8,38.3-16.2
		c7.3-8.5,9-23.1,10.9-41.6l0,0.8l0.2-162.7l0.2,1.9c-4.4-17.6-8.2-31.8-16.1-39.6c-7.7-7.7-20.4-10.2-36.6-13.2l-0.2,0l1.4,0.1
		l-86.6,0c-4.4,0-7.9-3.5-7.9-7.9C1495.4,2030.9,1498.9,2027.3,1503.3,2027.3L1503.3,2027.3z M1503.3,2027.3"/>
	<path d="M1500.7,2027.3h-86.6c-0.5,0-0.9,0-1.4,0.1h0l-0.2,0c-14.8,2.6-33,5.7-44.9,17.5c-11.8,11.7-16.3,31.1-20.3,47.1
		c-0.2,0.6-0.2,1.3-0.2,1.9l0.2,162.7c0,0.3,0,0.5,0,0.8c1.7,16.7,3.5,37.2,14.6,50.3c11.2,13.1,30.9,17.5,46.7,21.3
		c0.6,0.1,1.2,0.2,1.9,0.2l94.8-0.2c4.4,0,7.9-3.6,7.9-7.9c0-4.4-3.6-7.9-7.9-7.9l-94.8,0.2l1.9,0.2c-17.5-4.2-31.1-7.8-38.3-16.2
		c-7.3-8.5-9-23.1-10.9-41.6l0,0.8l-0.2-162.7l-0.2,1.9c4.4-17.6,8.2-31.8,16.1-39.6c7.7-7.7,20.4-10.2,36.6-13.2h0l0.2,0l-1.4,0.1
		l86.6,0c4.4,0,7.9-3.5,7.9-7.9C1508.6,2030.9,1505.1,2027.3,1500.7,2027.3L1500.7,2027.3z M1500.7,2027.3"/>
	<path d="M1501.7,2069.5c23.3,0.1,46.7,0.3,63.5,0.3h0.1h0h4.1c13.7,0,24.6,0,31.8,3.4c9.7,4.7,11.6,14.7,12.4,29.7
		c0.7,13.7,0.4,34.6,0.2,56.9c0,3.3-0.1,6.9-0.1,10.3v0v0c-0.3,26.2-0.4,53.8-0.6,81.3l0-0.2l0,0.1v0c0.3,10.5,1.1,25.5-6,33.5
		c-6.4,7.3-17.8,7.5-30,7.5c-2.3,0-4.9,0-7.5,0l-1.2,0c-18.4-0.1-44.2-0.2-70.4-0.3h0h-0.3c-3.3,0-6-2.7-6-6c0-3.3,2.7-6,6-6h0.3
		c26.1,0.1,52,0.1,70.5,0.3l1.2,0c2.6,0,5.1,0,7.4,0c14.1,0,18.9-1.1,21-3.4c3.1-3.6,3.3-12.1,3-25.2v0l0-0.1c0-0.1,0-0.1,0-0.2
		c0.1-27.5,0.3-55,0.6-81.3v0v0c0-3.4,0.1-6.9,0.1-10.3c0.3-22.5,0.5-42.9-0.2-56.2c-0.8-16-3-18.2-5.6-19.5
		c-4.1-2-11.4-2.2-26.5-2.2h-0.2h0l-1.9,0h-2.2c-16.8,0-40.2-0.1-63.5-0.3c-3.3,0-6-2.7-6-6.1
		C1495.7,2072.1,1498.4,2069.4,1501.7,2069.5L1501.7,2069.5z M1501.7,2069.5"/>
	<path d="M1502.3,2069.5c-23.3,0.1-46.7,0.3-63.5,0.3h-4.2c-13.7,0-24.6,0-31.8,3.4c-9.7,4.7-11.6,14.7-12.4,29.7
		c-0.7,13.7-0.4,34.6-0.2,56.9c0,3.3,0.1,6.9,0.1,10.3v0v0c0.3,26.2,0.4,53.8,0.6,81.3v-0.2l0,0.1v0c-0.3,10.5-1.1,25.5,6,33.5
		c6.4,7.3,17.8,7.5,30,7.5c2.3,0,4.9,0,7.5,0l1.2,0c18.4-0.1,44.2-0.2,70.4-0.3h0h0.3c3.3,0,6-2.7,6-6c0-3.3-2.7-6-6-6h-0.3
		c-26.1,0.1-52,0.1-70.5,0.3l-1.2,0c-2.6,0-5.1,0-7.4,0c-14.1,0-18.9-1.1-21-3.4c-3.1-3.6-3.3-12.1-3-25.2v-0.1c0-0.1,0-0.1,0-0.2
		c-0.1-27.5-0.3-55-0.6-81.3v0l0,0v0c0-3.4-0.1-6.9-0.1-10.3c-0.3-22.5-0.5-42.9,0.2-56.2c0.8-16,3-18.2,5.6-19.5
		c4.1-2,11.4-2.2,26.5-2.2h0.2h0l1.9,0h2.2c16.8,0,40.2-0.1,63.5-0.3c3.3,0,6-2.7,6-6.1C1508.3,2072.1,1505.6,2069.4,1502.3,2069.5
		L1502.3,2069.5z M1502.3,2069.5"/>
	<path d="M1604.8,2171l-104.2-1c-3.3,0-6-2.8-6-6.1c0-3.3,2.8-6,6.1-6l104.2,1c3.3,0,6,2.8,6,6.1
		C1610.9,2168.4,1608.1,2171,1604.8,2171L1604.8,2171z M1604.8,2171"/>
	<path d="M1399.2,2171l104.2-1c3.3,0,6-2.8,6-6.1c0-3.3-2.8-6-6.1-6l-104.2,1c-3.3,0-6,2.8-6,6.1
		C1393.1,2168.4,1395.9,2171,1399.2,2171L1399.2,2171z M1399.2,2171"/>
	<path d="M1606.8,2207.5l-106,0.1c-3.3,0-6-2.7-6-6c0-3.3,2.7-6,6-6l106-0.1c3.3,0,6,2.7,6,6
		C1612.8,2204.8,1610.1,2207.5,1606.8,2207.5L1606.8,2207.5z M1606.8,2207.5"/>
	<path d="M1397.2,2207.5l106,0.1c3.3,0,6-2.7,6-6c0-3.3-2.7-6-6-6l-106-0.1c-3.3,0-6,2.7-6,6
		C1391.2,2204.8,1393.9,2207.5,1397.2,2207.5L1397.2,2207.5z M1397.2,2207.5"/>
	<path d="M1810.2,2069.4c-16.2,0-29.4,13-29.7,29.2l-0.6,34.8c-0.3,16.4,12.8,29.9,29.2,30.2c0.2,0,0.3,0,0.5,0
		c16.2,0,29.4-13,29.7-29.2l0.6-34.8c0.3-16.4-12.8-29.9-29.2-30.2C1810.6,2069.4,1810.4,2069.4,1810.2,2069.4L1810.2,2069.4z
		 M1810.2,2069.4"/>
	<path fill="#C52222" d="M1811,2082.2c-5.2,0.1-9.3,2.1-12.3,6c-1.4,1.9-2.3,4.1-2.9,6.6c-0.5,2-1,5.1-1.4,9.1l32.6,0.4
		c-0.3-4.7-0.8-8.2-1.3-10.5c-0.6-2.2-1.1-3.5-1.3-3.8c-0.4-0.8-0.8-1.5-1.3-2.2c-1.4-1.9-3.2-3.3-5.4-4.2
		C1815.5,2082.6,1813.3,2082.2,1811,2082.2L1811,2082.2z M1811,2082.2"/>
	<path d="M1498.8,644.1l147.9-0.2c12.8,0,23.3,10.4,23.3,23.2c0,12.8-10.4,23.3-23.2,23.3l-147.9,0.2c-12.8,0-23.3-10.4-23.3-23.2
		C1475.5,654.6,1485.9,644.2,1498.8,644.1L1498.8,644.1z M1498.8,644.1"/>
	<path d="M1505.2,644.1l-147.9-0.2c-12.8,0-23.3,10.4-23.3,23.2c0,12.8,10.4,23.3,23.2,23.3l147.9,0.2c12.8,0,23.3-10.4,23.3-23.2
		C1528.5,654.6,1518.1,644.2,1505.2,644.1L1505.2,644.1z M1505.2,644.1"/>
	<path d="M2005.4,2565.1l-9.8-0.2c-39.3-0.9-90.1-1.6-152.4-1.9c-46-0.3-159.7-0.4-341.3-0.2l0.1,32.9l472.9,12.2
		c7.3,0.1,12.8-0.5,16.4-1.7c4.4-1.2,8.2-3.9,11.4-8.2c3.9-5.1,6.9-13.7,9-25.9c0.3-4.1,0-6.4-0.9-7
		C2009.7,2564.2,2008,2564.1,2005.4,2565.1"/>
	<path d="M998.6,2565.1l9.8-0.2c39.3-0.9,90.1-1.6,152.4-1.9c46-0.3,159.7-0.4,341.3-0.2l-0.1,32.9l-472.9,12.2
		c-7.3,0.1-12.8-0.5-16.4-1.7c-4.4-1.2-8.2-3.9-11.4-8.2c-3.9-5.1-6.9-13.7-9-25.9c-0.3-4.1,0-6.4,0.9-7
		C994.3,2564.2,996,2564.1,998.6,2565.1"/>
	<path d="M1915.7,2524c-0.9,8.3-1.9,18.6-7.6,29c-5.4,10-14.8,19.7-22.8,28c-3.8,3.9-10,4.1-14,0.3c-3.9-3.8-4.1-10-0.3-14
		c8.6-9,15.8-16.6,19.7-23.8c3.6-6.6,4.4-13.2,5.4-21.8c0.6-5.4,5.5-9.3,10.9-8.7C1912.4,2513.7,1916.3,2518.6,1915.7,2524
		L1915.7,2524z M1915.7,2524"/>
	<path d="M1088.3,2524c0.9,8.3,1.9,18.6,7.6,29c5.4,10,14.8,19.7,22.8,28c3.8,3.9,10,4.1,14,0.3c3.9-3.8,4.1-10,0.3-14
		c-8.6-9-15.8-16.6-19.7-23.8c-3.6-6.6-4.4-13.2-5.3-21.8c-0.6-5.4-5.5-9.3-10.9-8.7C1091.6,2513.7,1087.7,2518.6,1088.3,2524
		L1088.3,2524z M1088.3,2524"/>
	
		<!--black screen original. Activate for reference -->
	<!-- <path d="M1501.4,883.9l53.3-0.2l225.8,0.6c26.7,3.2,43.6,16.7,50.6,40.4c0.8,2,1.5,4,2.3,6.1l-0.9,494.4
		c-5.5,17.1-11.1,27.9-17,32.6c-5.3,5.3-16.4,9.4-33.3,12.3l-280.1-1.6L1501.4,883.9"/>
	<path d="M1502.6,883.9l-53.3-0.2l-225.8,0.6c-26.7,3.2-43.6,16.7-50.6,40.4c-0.8,2-1.5,4-2.3,6.1l0.9,494.4
		c5.5,17.1,11.1,27.9,17,32.6c5.3,5.3,16.4,9.4,33.3,12.3l280.1-1.6L1502.6,883.9"/> -->

		<!-- arcadescreen -->

	<rect x="1171" y="880" width="662" height="590" fill="black" stroke="black" stroke-width="2" rx="20" ry="20" mask="url(#rectangle-mask)"/>	
	<g id="joystick">
		<path d="M1274.9,1657c0,26.3-26.9,44.1-55,44.1c-28.2,0-55.1-17.8-55.1-44.1c0-26.3,26.9-44.1,55.1-44.1
			C1248,1612.9,1274.9,1630.6,1274.9,1657 M1258,1657c0-13-14.8-27.2-38.1-27.2c-23.3,0-38.1,14.1-38.1,27.2
			c0,13,14.8,27.2,38.1,27.2C1243.2,1684.1,1258,1670,1258,1657L1258,1657z M1258,1657"/>
		<path fill="#C52222" d="M1258.8,1585.6l-0.4,6.2c-2,12.5-7.8,22.5-17.4,30c-9.7,7.5-21,10.5-34.1,9.1c-12.5-2-22.5-7.8-30-17.4
			c-2.4-3.1-4.4-6.5-5.9-10.1l-2-5.6c-1.1-3.9-1.6-7.9-1.6-12.2c0.3-13,4.8-23.7,13.4-32.3c8.6-8.6,19.4-13.1,32.3-13.4
			c13,0.3,23.7,4.8,32.3,13.4C1254,1561.9,1258.5,1572.7,1258.8,1585.6"/>
		<path d="M1264.9,1585.2c0,29.6-24,53.6-53.6,53.6s-53.6-24-53.6-53.6c0-29.6,24-53.6,53.6-53.6S1264.9,1555.6,1264.9,1585.2
			 M1248.2,1585.2c0-20.4-16.5-36.9-36.9-36.9c-20.4,0-36.9,16.5-36.9,36.9c0,20.4,16.5,36.9,36.9,36.9
			C1231.7,1622.1,1248.2,1605.6,1248.2,1585.2L1248.2,1585.2z M1248.2,1585.2"/>
	</g>
	<path fill="#C52222" d="M1591.4,655.4h34.4c0,7,0,14,0,21.1c-11.5,0-22.9,0-34.4,0C1591.4,669.4,1591.4,662.4,1591.4,655.4"/>
	<path fill="#C52222" d="M1536.9,655.5l17.2,0h17.2c0,7,0,14,0,21c-11.5,0-22.9,0-34.4,0C1536.9,669.6,1536.9,662.6,1536.9,655.5"/>
	<path fill="#C52222" d="M1484.9,655.6h34.4c0,7,0,14,0,21.1c-11.5,0-22.9,0-34.4,0C1484.9,669.7,1484.9,662.6,1484.9,655.6"/>
	<path fill="#C52222" d="M1431.1,654.6h34.4c0,7,0,14,0,21c-11.5,0-22.9,0-34.4,0C1431.1,668.6,1431.1,661.6,1431.1,654.6"/>
	<path fill="#C52222" d="M1377.6,655.6h34.4c0,7,0,14,0,21.1c-11.5,0-22.9,0-34.4,0C1377.6,669.6,1377.6,662.6,1377.6,655.6"/>
	<g id="RedButtonTotal">
		<path id="GreenButton" fill="#47C11F" d="M1697.3,1668.5l-0.2,4.3c-1.6,8.8-6.9,15.9-16,21.5c-9.1,5.6-20.1,8.1-32.8,7.6
			c-12.1-0.9-22-4.5-29.5-10.9c-2.4-2.1-4.4-4.3-6-6.8l-2.1-3.9c-1.1-2.7-1.8-5.5-1.9-8.4c0-9,4-16.7,12.1-23
			c8.1-6.3,18.4-9.8,30.9-10.5c12.5-0.3,23.1,2.4,31.6,8.1C1692,1652.2,1696.6,1659.5,1697.3,1668.5"/>
		<path id="ShadeGreenButton" fill="#3F686B" d="M1605.3,1691.6l2.2,3c5.8,8.4,11.9,15.8,18.4,22.2c6.3,5.9,12.6,9.6,18.9,11.3
			c14,3.6,29.6,1.3,47.1-7c6.1-3.5,9.5-5.8,10.2-6.9c2-1.8,3.7-3.7,5.1-5.7c2.9-4.1,4.2-8.9,4.1-14.3c0.8-7.7-5.2-23.5-17.8-47.3
			c0.2,18.2-0.9,31.1-3.1,38.6c-0.8,3.1-1.9,5.8-3.3,8.3l-2.3,3.4c-1.7,2.1-3.8,3.8-6.2,5c-6.2,3-15.2,3.6-26.9,1.6
			C1641,1702.2,1625.5,1698,1605.3,1691.6"/>
		<path id="blacklineGreenButton" d="M1709,1665.2c1.3,27.5-26.5,46.7-55.3,48.1c-28.9,1.4-58.3-15.1-59.6-42.6
			c-1.3-27.5,26.5-46.7,55.3-48.1C1678.2,1621.2,1707.7,1637.6,1709,1665.2 M1689.3,1666.1c-0.6-11.6-15.2-24.9-39-23.8
			c-23.7,1.1-37.1,15.7-36.5,27.4c0.6,11.6,15.2,24.9,39,23.8C1676.5,1692.4,1689.8,1677.8,1689.3,1666.1L1689.3,1666.1z
			 M1689.3,1666.1"/>
		<path id="yellowGlow_1_" fill="#64FC2B" d="M1643.3,1650.6l-0.1,0c-1.1,0.2-1.8,0.3-2.1,0.4c-3.2,1.1-5.3,1.9-6.1,2.2
			c-1.5,0.6-2.9,1.1-4.4,1.8l-2,1l-1.8,1.1l-1.5,1.1l-1.1,1.2l-0.6,1.2l0,1.2l0.7,1.3c0.4,0.5,0.9,0.9,1.5,1.4l0.9,0.6
			c0.6,0.4,1.2,0.8,1.9,1.1c1.4,0.7,2.8,1.1,4.4,1.5c1.4,0.3,3,0.4,4.8,0.3c1.9-0.2,3.5-0.8,4.8-1.9c1.2-1.1,2-2.4,2.5-3.9
			c0.8-2.3,1-4.6,0.6-7c-0.1-0.8-0.3-1.5-0.6-2.2l-0.4-1C1644.4,1651.5,1644,1651.1,1643.3,1650.6"/>
	</g>
	<g id="YellowButtonTotal">
		<path id="YellowButton" fill="#F3BC2E" d="M1818.7,1620.5l-0.2,4.3c-1.6,8.8-6.9,15.9-16,21.5c-9.1,5.6-20.1,8.1-32.8,7.6
			c-12.1-0.9-22-4.5-29.5-10.9c-2.4-2.1-4.4-4.3-6-6.8l-2.1-3.9c-1.1-2.7-1.8-5.5-1.9-8.4c0-9,4-16.7,12.1-23
			c8.1-6.3,18.4-9.8,30.9-10.5c12.5-0.3,23.1,2.4,31.6,8.1C1813.4,1604.2,1818.1,1611.5,1818.7,1620.5"/>
		<path id="ShadeYellowButton" fill="#3F686B" d="M1726.8,1643.5l2.2,3c5.8,8.4,11.9,15.8,18.4,22.2c6.3,5.9,12.6,9.6,18.9,11.3
			c14,3.6,29.6,1.3,47.1-7c6.1-3.5,9.5-5.8,10.2-6.9c2-1.8,3.7-3.7,5.1-5.7c2.9-4.1,4.2-8.9,4.1-14.3c0.8-7.7-5.2-23.5-17.8-47.3
			c0.2,18.2-0.9,31.1-3.1,38.6c-0.8,3.1-1.9,5.8-3.3,8.3l-2.3,3.4c-1.7,2.1-3.8,3.8-6.2,5c-6.2,3-15.2,3.6-26.9,1.6
			C1762.4,1654.1,1746.9,1650,1726.8,1643.5"/>
		<path id="blacklineYellowButton" d="M1829.9,1618.4c1.3,27.5-26.5,46.7-55.3,48.1c-28.9,1.4-58.3-15.1-59.6-42.6
			c-1.3-27.5,26.5-46.7,55.3-48.1C1799.1,1574.4,1828.6,1590.9,1829.9,1618.4 M1810.1,1619.4c-0.6-11.6-15.2-24.9-39-23.8
			c-23.7,1.1-37.1,15.7-36.5,27.4c0.6,11.6,15.2,24.9,39,23.8C1797.3,1645.6,1810.7,1631,1810.1,1619.4L1810.1,1619.4z
			 M1810.1,1619.4"/>
		<path id="yellowGlow_2_" fill="#FFD683" d="M1764.3,1602.1l-0.1,0c-1.1,0.2-1.8,0.3-2.1,0.4c-3.2,1.1-5.3,1.9-6.1,2.2
			c-1.5,0.6-2.9,1.1-4.4,1.8l-2,1l-1.8,1.1l-1.5,1.1l-1.1,1.2l-0.6,1.2l0,1.2l0.7,1.3c0.4,0.5,0.9,0.9,1.5,1.4l0.9,0.6
			c0.6,0.4,1.2,0.8,1.9,1.1c1.4,0.7,2.8,1.1,4.4,1.5c1.4,0.3,3,0.4,4.8,0.3c1.9-0.2,3.5-0.8,4.8-1.9c1.2-1.1,2-2.4,2.5-3.9
			c0.8-2.3,1-4.6,0.6-7c-0.1-0.8-0.3-1.5-0.6-2.2l-0.4-1C1765.4,1603,1764.9,1602.6,1764.3,1602.1"/>
	</g>
	<g>
		<defs>
			<path id="SVGID_7_" d="M1204.1,1574.4l1.6-0.4c5-1.3,8.1-2.6,9.5-4c0.6-0.5,1-1.1,1.3-1.8l0.3-1.1c0.1-0.8,0.1-1.6-0.2-2.4
				c-0.5-1.7-1.5-3.5-3-5.3c-0.7-0.9-1.6-1.7-2.5-2.4l-1.4-1c-1-0.6-2-1.2-3.1-1.5l-1.6-0.4c-1.1-0.2-2.2-0.2-3.3,0l-1.8,0.5
				l-1.8,0.9l-1.7,1.2l-1.7,1.4c-1.1,1-2.1,2.1-3,3.4c-2.8,3.9-4.2,7.3-4.2,10.1c0.1,1,0.4,1.7,1,2.3c0.3,0.3,0.6,0.5,1.1,0.7
				l0.6,0.3c0.5,0.2,1,0.3,1.5,0.4C1194.3,1575.5,1198.3,1575.2,1204.1,1574.4"/>
		</defs>
		<use xlink:href="#SVGID_7_"  overflow="visible" fill="#F47373"/>
		<clipPath id="SVGID_8_">
			<use xlink:href="#SVGID_7_"  overflow="visible"/>
		</clipPath>
	</g>
	<rect x="3655.5" y="1809.4" fill="#629DA3" width="22.9" height="19.7"/>
	<path d="M1225.1,1661.6l-11,1.2c-3,0.3-5.8-1.9-6.1-4.9l-3-28.5c-0.3-3,1.9-5.8,4.9-6.1l11-1.2c3-0.3,5.8,1.9,6.1,4.9l3,28.5
		C1230.3,1658.5,1228.1,1661.3,1225.1,1661.6z"/>
</g>
</svg>
