<?xml version="1.0" encoding="utf-8"?>
<!-- Generator: Adobe Illustrator 22.1.0, SVG Export Plug-In . SVG Version: 6.00 Build 0)  -->
<svg version="1.1" id="Arcade" xmlns="http://www.w3.org/2000/svg" xmlns:xlink="http://www.w3.org/1999/xlink" x="0px" y="0px"
	 viewBox="0 0 3002.9 3003" style="enable-background:new 0 0 3002.9 3003;" xml:space="preserve">
<style type="text/css">
<!-- This is to make the screen flicker -->
#Screen {
  animation: flicker 0.2s infinite alternate;
}

@keyframes flicker {
  0% {
    opacity: 0.9;
    filter: contrast(100%) brightness(100%);
  }
  50% {
    opacity: 0.8;
    filter: contrast(110%) brightness(110%);
  }
  100% {
    opacity: 1;
    filter: contrast(90%) brightness(90%);
  }
}


  
 
<!-- end of screen flicker animation -->

	.st0{fill:#629DA3;}
	.st1{fill:#EFA72E;}
	.st2{fill:#3F686B;}
	.st3{fill:#3F676A;}
	.st4{fill:#54898C;}
	.st5{fill:#54888C;}
	.st6{fill:#C52222;}
	.st7{fill:#47C11F;}
	.st8{fill:#64FC2B;}
	.st9{fill:#F3BC2E;}
	.st10{fill:#FFD683;}
	.st11{fill:#F47373;}
	.st12{opacity:0.1;}
	.st13{fill:#020202;}
	.st14{fill:#D8D6D6;}
	.st15{fill:#AFAEAE;}
	.st16{opacity:0.1;clip-path:url(#SVGID_2_);}
	.st17{opacity:0.1;enable-background:new    ;}
	.st18{clip-path:url(#SVGID_5_);}
	.st19{clip-path:url(#SVGID_9_);}
	.st20{fill:none;stroke:#000000;stroke-miterlimit:10;}
	.st21{clip-path:url(#SVGID_11_);}
	.st22{clip-path:url(#SVGID_13_);}
	.st23{stroke:#000000;stroke-miterlimit:10;}
	.st24{fill:#D8D6D6;stroke:#000000;stroke-miterlimit:10;}
	.st25{stroke:#000000;stroke-width:2;}
	.st26{fill:#E82827;}
	.st27{fill:#FCC326;}
	.st28{fill:#FCE837;}
	.st29{fill:#FC7800;}
	.st30{fill:none;stroke:#000000;stroke-width:5;stroke-miterlimit:10;}
	.st31{fill:#FDF600;}
	.st32{fill:#EE582A;}
	.st33{fill:#F18C2D;}
	.st34{fill:#EE692B;}
	.st35{fill:#F29F2F;}
	.st36{fill:#ED7D2C;}
	.st37{fill:#F0BC31;}
	.st38{fill:#EF962E;}
	.st39{fill:none;stroke:#0A0803;}
	.st40{fill:#3D180C;}
	.st41{fill:#3C170C;}
	.st42{fill:#413F00;}
	.st43{fill:none;}
	.st44{fill:#ED64A3;stroke:#000000;stroke-miterlimit:10;}
	.st45{fill:#FDF600;stroke:#000000;stroke-miterlimit:10;}
	.st46{fill:#FFC0CB;}
</style>
<path class="st0" d="M2010.4,548.1l-77.7,0.2l-6.4,32.4l-853.8-1.2l-2.9-35.3l-82.1-0.7c-14.1,98.2-8.4,189.6,16.9,274.3l2.7,699.8
	l-38.4,246.6l30,94.3l3.4,706l26.5,35.9l951.2,2.7l23.5-57.8l2.2-687.2l31.1-89.3l-35.5-218.3l3.7-739.1l14.9-81.1l-1.1-117.2
	L2010.4,548.1"/>
<path class="st1" d="M1263.6,1656.1l-0.4,4.1c-1.9,8.3-7.4,14.9-16.4,19.8c-9.2,5-19.9,7-32.3,6c-11.8-1.3-21.3-5.1-28.4-11.5
	c-2.3-2.1-4.1-4.3-5.6-6.7l-1.9-3.7c-1-2.6-1.5-5.2-1.5-8c0.3-8.6,4.5-15.7,12.7-21.4c8.1-5.7,18.3-8.6,30.6-8.9
	c12.3,0.2,22.5,3.2,30.6,8.9C1259.1,1640.5,1263.3,1647.6,1263.6,1656.1"/>
<path class="st2" d="M1187.9,1687l3.2,3.2c6.2,6.7,13,12.4,20.3,17c4.9,3,10.4,5,16.3,5.9c7.6,0.8,14.6,0.3,21-1.6l5-1.5
	c3.3-1.1,6.6-2.5,9.7-4s6-3.3,8.6-5.2c5.4-3.8,9.2-8.1,11.4-12.8l1.2-3.6c0.5-2.5,0.6-5,0.2-7.6c-0.8-5.2-2.9-10.5-6.2-16
	c-2.3-4.1-7.2-11.1-14.8-21c0.2,13-0.7,22.4-2.6,28.2c-0.7,2.3-1.7,4.5-2.8,6.5l-2,2.8c-1.5,1.8-3.2,3.3-5.3,4.7
	c-5.2,3-11.9,4.9-20.3,5.5C1221.1,1688.5,1206.9,1688.3,1187.9,1687"/>
<path class="st3" d="M1918.7,794.4l-418.5-0.3l-418.5-0.3c-3-10-6-20-9.1-30c284.1,0.9,568.2,1.9,852.3,2.8L1918.7,794.4"/>
<path class="st3" d="M2009.2,787.3l-4.4,24.2l-0.2,35.8L2009.2,787.3z"/>
<polyline class="st4" points="1926.7,787.1 1907.7,827.8 1911.2,931.2 2003.9,932.6 2005.7,810.4 2024.1,738.4 1928.7,737.1 
	1926.7,787.1 "/>
<polyline class="st4" points="1077.3,787.1 1096.2,827.8 1092.8,931.2 1000.1,932.6 998.2,810.4 979.9,738.4 1075.3,737.1 
	1077.3,787.1 "/>
<path class="st3" d="M1926.3,785.8l42.5,0.2l42.5,0.2c-2.8,30.8-5.6,61.6-8.4,92.5c-31.3-0.1-62.7-0.1-94-0.2
	c0.8-17.1,1.7-34.1,2.5-51.2L1926.3,785.8"/>
<path class="st3" d="M1077.7,785.8l-42.5,0.2l-42.5,0.2c2.8,30.8,5.6,61.6,8.4,92.5c31.3-0.1,62.7-0.1,94-0.2
	c-0.9-17.1-1.7-34.1-2.6-51.2L1077.7,785.8"/>
<path class="st3" d="M1502.1,1546l409.6,1.2l28,216.4c-5.9-10.5-14.2-30.1-24.8-58.7c-23.5-65.2-37.4-108.4-41.6-129.6
	c-0.8-2-2.1-3.4-3.9-3.9c-2.1-2.7-27.7-4.1-76.7-4.5c-53.3-0.7-150.2-0.1-290.8,1.6L1502.1,1546"/>
<path class="st3" d="M1501.9,1546l-409.6,1.2l-28,216.4c5.9-10.5,14.2-30.1,24.8-58.7c23.5-65.2,37.4-108.4,41.6-129.6
	c0.8-2,2.1-3.4,3.9-3.9c2.1-2.7,27.7-4.1,76.7-4.5c53.3-0.7,150.2-0.1,290.8,1.6L1501.9,1546"/>
<polyline class="st5" points="1940.6,1792.4 2031.4,1791.6 2003,1860.7 2003.6,1930.6 1910.6,1930.7 1918,1855.5 1940.6,1792.4 "/>
<polyline class="st5" points="1063.4,1792.4 972.6,1791.6 1001,1860.7 1000.4,1930.6 1093.4,1930.7 1086,1855.5 1063.4,1792.4 "/>
<path class="st3" d="M1934.1,1817.2l41.7,0.9l41.7,0.9c-5.1,29.5-10.2,58.9-15.3,88.4c-29.1,0.4-58.2,0.8-87.3,1.3
	c-0.2-17.5-0.4-35-0.5-52.5L1934.1,1817.2"/>
<path class="st3" d="M1069.9,1817.2l-41.7,0.9l-41.7,0.9c5.1,29.5,10.2,58.9,15.3,88.4c29.1,0.4,58.2,0.8,87.3,1.3
	c0.2-17.5,0.4-35,0.5-52.5L1069.9,1817.2"/>
<path class="st5" d="M1905.2,2503.2l50.2,0.5l50.2,0.5c-1.8,24.4-3.7,48.8-5.5,73.3c-33.7,1.3-67.5,2.6-101.2,4L1905.2,2503.2"/>
<path class="st5" d="M1098.8,2503.2l-50.2,0.5l-50.2,0.5c1.8,24.4,3.7,48.8,5.5,73.3c33.7,1.3,67.5,2.6,101.2,4L1098.8,2503.2"/>
<path class="st3" d="M1903.6,2529.9l50.5,0.1l50.5,0.1c-2.2,18.2-4.3,36.5-6.5,54.7c-34.9,2-69.9,3.9-104.8,5.9L1903.6,2529.9"/>
<path class="st3" d="M1100.4,2529.9l-50.5,0.1l-50.5,0.1c2.2,18.2,4.3,36.5,6.5,54.7c34.9,2,69.9,3.9,104.8,5.9L1100.4,2529.9"/>
<path class="st5" d="M1909,574.3l-2.2,4.1c-4.5,8-8.4,17.2-11.9,27.7c-1.1,3.6-2.1,7.4-3,11.6l-1.2,6.5c-0.8,4.5-1.4,9.3-1.8,14.5
	s-0.7,10.9-0.8,16.9c-0.2,2.6-0.1,12.3,0.3,29.1c0.5,17.1,2.1,43.2,4.8,78.2l34.4-2.4l4-173.5L1909,574.3"/>
<path class="st5" d="M1095,574.3l2.2,4.1c4.5,8,8.4,17.2,11.9,27.7c1.1,3.6,2.1,7.4,3,11.6l1.2,6.5c0.8,4.5,1.4,9.3,1.8,14.5
	s0.7,10.9,0.8,16.9c0.2,2.6,0.1,12.3-0.3,29.1c-0.5,17.1-2.1,43.2-4.8,78.2l-34.4-2.4l-4-173.5L1095,574.3"/>
<path class="st3" d="M1930.5,593.9l-2.4,1.2c-4.8,1.9-9.2,6-13.2,12.2c-1.3,2.2-2.5,4.9-3.5,8.1l-1.5,5.2c-1,3.7-1.8,8.1-2.5,13.2
	c-0.7,5.1-1.2,10.8-1.6,17.2l-0.5,10c-0.3,7-0.5,14.4-0.5,22.3c-0.3,19.5,0.2,50.5,1.3,92.9l25.4-14.7L1930.5,593.9"/>
<path class="st3" d="M1073.5,593.9l2.4,1.2c4.8,1.9,9.2,6,13.2,12.2c1.3,2.2,2.5,4.9,3.5,8.1l1.5,5.2c1,3.7,1.8,8.1,2.5,13.2
	c0.7,5.1,1.2,10.8,1.6,17.2l0.5,10c0.3,7,0.5,14.4,0.5,22.3c0.2,19.5-0.2,50.5-1.3,92.9l-25.4-14.7L1073.5,593.9"/>
<path class="st5" d="M1910.1,1854.7l-0.2,63.3l-0.2,63.3c-271,0.5-542,1-813,1.6c-3-41.2-6-82.4-9-123.6L1910.1,1854.7"/>
<path class="st3" d="M1912.1,1933.2l-410.2-0.9l-410.2-0.9c1.4-24.9,2.7-49.8,4.1-74.7c273.9,0.4,547.9,0.8,821.8,1.2L1912.1,1933.2
	"/>
<path class="st3" d="M1943.7,1790.4l-11.5,36.5l-11.5,36.5c-278.8,0.6-557.5,1.2-836.3,1.9c-9-24.8-17.9-49.5-26.9-74.3
	L1943.7,1790.4"/>
<path class="st3" d="M1118.7,1866l2,329l2,329c-9.5,0.7-19,1.4-28.6,2.2c-1.9-221.3-3.8-442.6-5.7-663.9L1118.7,1866"/>
<path class="st3" d="M1907.2,2518.1l-406.4,2.4l-406.4,2.4c11.1,22.5,22.3,45.1,33.4,67.6c249.1-3.1,498.1-6.2,747.2-9.2
	L1907.2,2518.1"/>
<path class="st5" d="M1917.8,795l-9.6,81c-13.9-17.8-27-28.8-39.3-33c-14.1-5.7-33.7-8.7-58.9-8.9c-15.7-0.3-29.3-0.3-41.1-0.1
	c-75.6,1.5-200.8,3.3-375.8,5.6l-69.9,0.9c-34,0-66.2,0.2-96.6,0.4c-24.1,0.3-37.9,0.5-41.5,0.6c-25.5,0.5-44.4,1.5-56.5,2.9
	c-14.5,1.6-25,4.1-31.6,7.5l-9.8-56.8L1917.8,795"/>
<path class="st3" d="M1908.7,850.7l-3.5-2.7c-16.1-12.8-27.8-20.4-35-22.8c-9-3.5-18.4-5.2-28.3-4.9c-4.4,0-10.9,0.3-19.7,1
	l-600.7,1.2c-18.4,0-36,0.2-52.6,0.6c-22.4,0.5-39.5,2.1-51.4,4.9c-9.6,1.9-18.4,6.7-26.4,14.4l-12.8-48.1l844.5-2L1908.7,850.7"/>
<path class="st3" d="M1121.6,795.3l8.5,755c-12.1,42.2-20.5,62.3-25.2,60.3c-4.9,1.5-8.7-14.7-11.4-48.6
	c-3.3-46.3-4.6-130.6-3.9-253c0.4-97,2.5-257.7,6.3-482.1l-17.6-34.8L1121.6,795.3"/>
<path d="M1500.6,565.7l431,4.3l-8.6,8.3l0.9-32.5c0.1-4.6,3.9-8.2,8.4-8.3l83.3-0.6c4.6,0,8.4,3.6,8.6,8.2
	c2.6,69.2,5.3,138.9,3.4,183.5c-1.9,45.2-8.5,65.1-15,84.6l0.4-2.7l-0.6,168.5l0,0l-3.5,539v-0.8c1.4,16.9,2.9,33.6,5.9,55.2
	c1.9,13.4,4.4,28.7,7.3,46.4c1.8,11,3.8,23,5.8,35.9c5.3,33.6,11.2,73.6,17.1,113.7c0.2,1.4,0.1,2.9-0.5,4.2l-32.5,86.2l0.5-2.8
	l-1.4,56.2v-0.2l0.1,653.5c0,1.7-0.5,3.3-1.4,4.7l-22.4,34.1c-1.6,2.4-4.3,3.9-7.1,3.8l-484.1-1.6c-4.7,0-8.5-3.8-8.5-8.5
	s3.8-8.5,8.5-8.5l484.1,1.6l-7.1,3.8l22.4-34.1l-1.4,4.7l-0.1-653.5c0-0.1,0-0.1,0-0.2l1.4-56.2c0-1,0.2-1.9,0.5-2.8l32.5-86.2
	l-0.5,4.2c-5.9-40.1-11.8-80-17.1-113.5c-2-12.8-4-24.8-5.8-35.8c-2.9-17.6-5.5-33.2-7.4-46.8c-3.1-22.2-4.6-39.3-6-56.2
	c0-0.3,0-0.5,0-0.8l3.5-539l0,0l0.6-168.5c0-0.9,0.2-1.8,0.4-2.7c6.2-18.6,12.3-36.8,14.1-80c1.8-43.8-0.8-112.7-3.4-182.1l8.6,8.2
	l-83.3,0.6l8.5-8.3l-0.9,32.5c-0.1,4.6-4,8.3-8.6,8.3l-431-4.3c-4.7,0-8.5-3.9-8.4-8.6C1492.1,569.4,1495.9,565.6,1500.6,565.7
	L1500.6,565.7z"/>
<path d="M1503.4,565.7l-431,4.3l8.6,8.3l-0.9-32.5c-0.1-4.6-3.9-8.2-8.5-8.3l-83.3-0.6c-4.6,0-8.4,3.6-8.6,8.2
	c-2.6,69.2-5.3,138.9-3.4,183.5c1.9,45.2,8.5,65.1,15,84.6l-0.4-2.7l0.6,168.5l0,0l3.5,539v-0.8c-1.4,16.9-2.9,33.6-5.9,55.2
	c-1.9,13.4-4.4,28.7-7.3,46.4c-1.8,11-3.8,23-5.8,35.9c-5.3,33.6-11.2,73.6-17.1,113.7c-0.2,1.4-0.1,2.9,0.5,4.2l32.5,86.2l-0.5-2.8
	l1.4,56.2v-0.2l-0.1,653.5c0,1.7,0.5,3.3,1.4,4.7l22.4,34.1c1.6,2.4,4.3,3.9,7.1,3.8l484.1-1.6c4.7,0,8.5-3.8,8.5-8.5
	s-3.8-8.5-8.5-8.5l-484.1,1.6l7.1,3.8l-22.4-34.1l1.4,4.7l0.1-653.5c0-0.1,0-0.1,0-0.2l-1.4-56.2c0-1-0.2-1.9-0.5-2.8l-32.5-86.2
	l0.5,4.2c5.9-40.1,11.8-80,17.1-113.5c2-12.8,4-24.8,5.8-35.8c2.9-17.6,5.5-33.2,7.4-46.8c3.1-22.2,4.6-39.3,6-56.2
	c0-0.3,0-0.5,0-0.8l-3.5-539l0,0l-0.6-168.5c0-0.9-0.2-1.8-0.4-2.7c-6.2-18.6-12.3-36.8-14.1-80c-1.8-43.8,0.8-112.7,3.4-182.1
	l-8.6,8.2l83.3,0.6l-8.5-8.3l0.9,32.5c0.1,4.6,3.9,8.3,8.6,8.3l431-4.3c4.7,0,8.5-3.9,8.4-8.6
	C1511.9,569.4,1508.1,565.6,1503.4,565.7L1503.4,565.7z"/>
<path d="M1938.3,573.7c1.3,67.5,2.7,135.7-0.9,178.2c-3.6,43.3-12.4,60.6-21,77.5l0.9-4v0.6c0.5,31.8,1,64,0.9,181.3
	c-0.1,118-0.8,322.2-1.4,526.4l-0.1-1.4l39.9,242.1c0.2,1.5,0.1,3-0.5,4.5l-37.8,97.8l0.6-3.2c0.3,30.6,0.6,61.2,0.2,169.3
	c-0.4,108-1.6,293.7-2.8,479.2c0,4.7-3.8,8.4-8.5,8.5l-408.9,0.6c-4.7,0-8.5-3.8-8.5-8.5s3.8-8.5,8.5-8.5l408.9-0.6l-8.5,8.5
	c1.2-185.5,2.4-371.1,2.8-479.1c0.4-108,0.1-138.5-0.2-169.1c0-1.1,0.2-2.2,0.6-3.2l37.8-97.8l-0.5,4.5l-39.9-242.1
	c-0.1-0.5-0.1-0.9-0.1-1.4c0.7-204.1,1.3-408.3,1.4-526.3c0.1-117.2-0.4-149.4-0.9-181l0,0v-0.6c0-1.4,0.3-2.8,0.9-4
	c7.9-15.5,15.8-30.6,19.2-71.2c3.4-41.4,2.1-108.6,0.8-176.5c-0.1-4.7,3.6-8.6,8.3-8.7C1934.3,565.2,1938.2,569,1938.3,573.7
	L1938.3,573.7z"/>
<path d="M1065.7,573.7c-1.3,67.5-2.7,135.7,0.9,178.2c3.6,43.3,12.3,60.6,21,77.5l-0.9-4v0.6c-0.5,31.8-1,64-0.9,181.3
	c0.1,118,0.8,322.2,1.4,526.4l0.1-1.4l-39.9,242.1c-0.2,1.5-0.1,3,0.5,4.5l37.8,97.8l-0.6-3.2c-0.3,30.6-0.6,61.2-0.2,169.3
	c0.4,108,1.6,293.7,2.8,479.2c0,4.7,3.8,8.4,8.5,8.5l408.9,0.6c4.7,0,8.5-3.8,8.5-8.5s-3.8-8.5-8.5-8.5l-408.9-0.6l8.5,8.5
	c-1.2-185.5-2.4-371.1-2.8-479.1c-0.4-108-0.1-138.5,0.2-169.1c0-1.1-0.2-2.2-0.6-3.2l-37.8-97.8l0.5,4.5l39.9-242.1
	c0.1-0.5,0.1-0.9,0.1-1.4c-0.7-204.1-1.3-408.3-1.4-526.3c-0.1-117.2,0.4-149.4,0.9-181l0,0v-0.6c0-1.4-0.3-2.8-0.9-4
	c-7.9-15.5-15.8-30.6-19.2-71.2c-3.4-41.4-2.1-108.6-0.8-176.5c0.1-4.7-3.6-8.6-8.3-8.7C1069.7,565.2,1065.8,569,1065.7,573.7
	L1065.7,573.7z"/>
<path d="M1927.2,774.2l-426.9-1.2c-4.7,0-8.5-3.8-8.5-8.5s3.8-8.5,8.5-8.5l426.9,1.2c4.7,0,8.5,3.8,8.5,8.5
	S1931.9,774.2,1927.2,774.2L1927.2,774.2z"/>
<path d="M1076.8,774.2l426.9-1.2c4.7,0,8.5-3.8,8.5-8.5s-3.8-8.5-8.5-8.5l-426.9,1.2c-4.7,0-8.5,3.8-8.5,8.5
	S1072.1,774.2,1076.8,774.2L1076.8,774.2z"/>
<path d="M1497.2,617.3l335.7,0.2c0.1,0,0.2,0,0.2,0c8.9,0.5,19.1,1,28.9,9c9.5,7.8,18.3,22.4,19.1,39.8c0.7,17.2-6.4,37-15.7,47.3
	c-9.2,10.1-20.2,10.7-29.8,10.7c-0.7,0-1.5,0-2.2,0l0,0h-331.7c-2.3,0-4.2-1.9-4.2-4.2s1.9-4.2,4.2-4.2h331.7l0,0c0.7,0,1.4,0,2.2,0
	c9.3,0,16.9-0.6,23.5-7.9c7.7-8.4,14.2-26.1,13.5-41.2c-0.6-14.9-8.3-27.4-16-33.7c-7.4-6.1-15-6.6-24-7.1h0.2l-335.7-0.2
	c-2.3,0-4.2-1.9-4.2-4.2C1493,619.2,1494.9,617.3,1497.2,617.3L1497.2,617.3z"/>
<path d="M1506.8,617.3l-335.7,0.2c-0.1,0-0.2,0-0.2,0c-8.9,0.5-19.1,1-28.9,9c-9.5,7.8-18.3,22.4-19.1,39.8
	c-0.7,17.2,6.4,37,15.7,47.3c9.2,10.1,20.2,10.7,29.8,10.7c0.7,0,1.5,0,2.2,0l0,0h331.7c2.3,0,4.2-1.9,4.2-4.2s-1.9-4.2-4.2-4.2
	h-331.7l0,0c-0.7,0-1.4,0-2.2,0c-9.3,0-16.9-0.6-23.5-7.9c-7.7-8.4-14.2-26.1-13.5-41.2c0.6-14.9,8.3-27.4,16-33.7
	c7.4-6.1,15-6.6,24-7.1h-0.2l335.7-0.2c2.3,0,4.2-1.9,4.2-4.2C1511,619.2,1509.1,617.3,1506.8,617.3L1506.8,617.3z"/>
<path d="M1907.5,1558l-406.4-1.2c-5.8,0-10.4-4.7-10.4-10.4c0-5.8,4.7-10.4,10.4-10.4l406.4,1.2c5.8,0,10.4,4.7,10.4,10.4
	C1918,1553.3,1913.3,1558,1907.5,1558L1907.5,1558z"/>
<path d="M1096.5,1558l406.4-1.2c5.8,0,10.4-4.7,10.4-10.4c0-5.8-4.7-10.4-10.4-10.4l-406.4,1.2c-5.7,0-10.4,4.7-10.4,10.4
	C1086,1553.3,1090.7,1558,1096.5,1558L1096.5,1558z"/>
<path d="M1914.6,804.1l-416.1-1.2c-5.8,0-10.4-4.7-10.4-10.4c0-5.8,4.7-10.4,10.4-10.4l416.1,1.2c5.8,0,10.4,4.7,10.4,10.4
	C1925,799.4,1920.4,804.1,1914.6,804.1L1914.6,804.1z"/>
<path d="M1089.4,804.1l416.1-1.2c5.8,0,10.4-4.7,10.4-10.4c0-5.8-4.7-10.4-10.4-10.4l-416.1,1.2c-5.8,0-10.4,4.7-10.4,10.4
	C1079,799.5,1083.6,804.1,1089.4,804.1L1089.4,804.1z"/>
<path d="M2003.9,819.7l-89.5-0.7c-2.3,0-4.1-1.9-4.1-4.1c0-2.3,1.9-4.1,4.1-4.1l89.5,0.7c2.3,0,4.1,1.9,4.1,4.1
	C2008,817.9,2006.2,819.7,2003.9,819.7L2003.9,819.7z"/>
<path d="M1000.1,819.7l89.5-0.7c2.3,0,4.1-1.9,4.1-4.1c0-2.3-1.9-4.1-4.1-4.1l-89.5,0.7c-2.3,0-4.1,1.9-4.1,4.1
	C996,817.9,997.8,819.7,1000.1,819.7L1000.1,819.7z"/>
<path d="M1940.3,1767.8l-441.9-2.4c-3.5,0-6.3-2.9-6.3-6.4s2.9-6.3,6.4-6.3l442,2.4c3.5,0,6.3,2.9,6.3,6.4
	C1946.6,1765,1943.8,1767.8,1940.3,1767.8L1940.3,1767.8z"/>
<path d="M1063.7,1767.8l442-2.4c3.5,0,6.3-2.9,6.3-6.4s-2.9-6.3-6.4-6.3l-442,2.4c-3.5,0-6.3,2.9-6.3,6.4
	C1057.4,1765,1060.2,1767.8,1063.7,1767.8L1063.7,1767.8z"/>
<path d="M1943.7,1796.1l-442.3-2.6c-4.7,0-8.4-3.8-8.4-8.5s3.8-8.4,8.5-8.4l442.3,2.6c4.7,0,8.4,3.8,8.4,8.5
	C1952.2,1792.4,1948.4,1796.2,1943.7,1796.1L1943.7,1796.1z"/>
<path d="M1060.3,1796.1l442.3-2.6c4.7,0,8.4-3.8,8.4-8.5s-3.8-8.4-8.5-8.4l-442.3,2.6c-4.7,0-8.4,3.8-8.4,8.5
	C1051.8,1792.4,1055.6,1796.2,1060.3,1796.1L1060.3,1796.1z"/>
<path d="M1932.2,1826.3l-431.6,0.6c-4.7,0-8.5-3.8-8.5-8.4c0-4.7,3.8-8.5,8.4-8.5l431.6-0.6c4.7,0,8.5,3.8,8.5,8.4
	C1940.6,1822.5,1936.8,1826.3,1932.2,1826.3L1932.2,1826.3z"/>
<path d="M1071.8,1826.3l431.6,0.6c4.7,0,8.5-3.8,8.5-8.4c0-4.7-3.8-8.5-8.4-8.5l-431.6-0.6c-4.7,0-8.5,3.8-8.5,8.4
	C1063.4,1822.5,1067.2,1826.3,1071.8,1826.3L1071.8,1826.3z"/>
<path d="M1998.6,1877l-80.6-1c-6.6-0.1-11.9-5.5-11.8-12.1s5.5-11.9,12.1-11.8l80.6,1c6.6,0.1,11.9,5.5,11.8,12.1
	C2010.7,1871.8,2005.2,1877.1,1998.6,1877L1998.6,1877z"/>
<path d="M1005.4,1877l80.6-1c6.6-0.1,11.9-5.5,11.8-12.1s-5.5-11.9-12.1-11.8l-80.6,1c-6.6,0.1-11.9,5.5-11.8,12.1
	C993.3,1871.8,998.8,1877.1,1005.4,1877L1005.4,1877z"/>
<path d="M1920,1873l-425.9-2c-7.8,0-14-6.4-14-14.1c0-7.8,6.4-14,14.1-14l425.9,2c7.8,0,14,6.4,14,14.1S1927.7,1873,1920,1873
	L1920,1873z"/>
<path d="M1084,1873l425.9-2c7.8,0,14-6.4,14-14.1c0-7.8-6.4-14-14.1-14l-425.9,2c-7.8,0-14,6.4-14,14.1S1076.3,1873,1084,1873
	L1084,1873z"/>
<path d="M1498.8,644.1l147.9-0.2c12.8,0,23.3,10.4,23.3,23.2s-10.4,23.3-23.2,23.3l-147.9,0.2c-12.8,0-23.3-10.4-23.3-23.2
	C1475.5,654.6,1485.9,644.2,1498.8,644.1L1498.8,644.1z"/>
<path d="M1505.2,644.1l-147.9-0.2c-12.8,0-23.3,10.4-23.3,23.2s10.4,23.3,23.2,23.3l147.9,0.2c12.8,0,23.3-10.4,23.3-23.2
	C1528.5,654.6,1518.1,644.2,1505.2,644.1L1505.2,644.1z"/>
<path d="M2005.4,2565.1l-9.8-0.2c-39.3-0.9-90.1-1.6-152.4-1.9c-46-0.3-159.7-0.4-341.3-0.2l0.1,32.9l472.9,12.2
	c7.3,0.1,12.8-0.5,16.4-1.7c4.4-1.2,8.2-3.9,11.4-8.2c3.9-5.1,6.9-13.7,9-25.9c0.3-4.1,0-6.4-0.9-7
	C2009.7,2564.2,2008,2564.1,2005.4,2565.1"/>
<path d="M998.6,2565.1l9.8-0.2c39.3-0.9,90.1-1.6,152.4-1.9c46-0.3,159.7-0.4,341.3-0.2l-0.1,32.9l-472.9,12.2
	c-7.3,0.1-12.8-0.5-16.4-1.7c-4.4-1.2-8.2-3.9-11.4-8.2c-3.9-5.1-6.9-13.7-9-25.9c-0.3-4.1,0-6.4,0.9-7
	C994.3,2564.2,996,2564.1,998.6,2565.1"/>
<path d="M1915.7,2524c-0.9,8.3-1.9,18.6-7.6,29c-5.4,10-14.8,19.7-22.8,28c-3.8,3.9-10,4.1-14,0.3c-3.9-3.8-4.1-10-0.3-14
	c8.6-9,15.8-16.6,19.7-23.8c3.6-6.6,4.4-13.2,5.4-21.8c0.6-5.4,5.5-9.3,10.9-8.7C1912.4,2513.7,1916.3,2518.6,1915.7,2524
	L1915.7,2524z"/>
<path d="M1088.3,2524c0.9,8.3,1.9,18.6,7.6,29c5.4,10,14.8,19.7,22.8,28c3.8,3.9,10,4.1,14,0.3c3.9-3.8,4.1-10,0.3-14
	c-8.6-9-15.8-16.6-19.7-23.8c-3.6-6.6-4.4-13.2-5.3-21.8c-0.6-5.4-5.5-9.3-10.9-8.7C1091.6,2513.7,1087.7,2518.6,1088.3,2524
	L1088.3,2524z"/>
<g id="joystick">
	<path d="M1274.9,1657c0,26.3-26.9,44.1-55,44.1c-28.2,0-55.1-17.8-55.1-44.1c0-26.3,26.9-44.1,55.1-44.1
		C1248,1612.9,1274.9,1630.6,1274.9,1657 M1258,1657c0-13-14.8-27.2-38.1-27.2c-23.3,0-38.1,14.1-38.1,27.2
		c0,13,14.8,27.2,38.1,27.2C1243.2,1684.1,1258,1670,1258,1657L1258,1657z"/>
	<path class="st6" d="M1258.8,1585.6l-0.4,6.2c-2,12.5-7.8,22.5-17.4,30c-9.7,7.5-21,10.5-34.1,9.1c-12.5-2-22.5-7.8-30-17.4
		c-2.4-3.1-4.4-6.5-5.9-10.1l-2-5.6c-1.1-3.9-1.6-7.9-1.6-12.2c0.3-13,4.8-23.7,13.4-32.3c8.6-8.6,19.4-13.1,32.3-13.4
		c13,0.3,23.7,4.8,32.3,13.4C1254,1561.9,1258.5,1572.7,1258.8,1585.6"/>
	<path d="M1264.9,1585.2c0,29.6-24,53.6-53.6,53.6s-53.6-24-53.6-53.6s24-53.6,53.6-53.6S1264.9,1555.6,1264.9,1585.2
		 M1248.2,1585.2c0-20.4-16.5-36.9-36.9-36.9s-36.9,16.5-36.9,36.9s16.5,36.9,36.9,36.9S1248.2,1605.6,1248.2,1585.2L1248.2,1585.2z
		"/>
</g>
<path class="st6" d="M1591.4,655.4h34.4c0,7,0,14,0,21.1c-11.5,0-22.9,0-34.4,0C1591.4,669.4,1591.4,662.4,1591.4,655.4"/>
<path class="st6" d="M1536.9,655.5h17.2h17.2c0,7,0,14,0,21c-11.5,0-22.9,0-34.4,0C1536.9,669.6,1536.9,662.6,1536.9,655.5"/>
<path class="st6" d="M1484.9,655.6h34.4c0,7,0,14,0,21.1c-11.5,0-22.9,0-34.4,0C1484.9,669.7,1484.9,662.6,1484.9,655.6"/>
<path class="st6" d="M1431.1,654.6h34.4c0,7,0,14,0,21c-11.5,0-22.9,0-34.4,0C1431.1,668.6,1431.1,661.6,1431.1,654.6"/>
<path class="st6" d="M1377.6,655.6h34.4c0,7,0,14,0,21.1c-11.5,0-22.9,0-34.4,0C1377.6,669.6,1377.6,662.6,1377.6,655.6"/>
<g id="RedButtonTotal">
	<path id="GreenButton" class="st7" d="M1697.3,1668.5l-0.2,4.3c-1.6,8.8-6.9,15.9-16,21.5s-20.1,8.1-32.8,7.6
		c-12.1-0.9-22-4.5-29.5-10.9c-2.4-2.1-4.4-4.3-6-6.8l-2.1-3.9c-1.1-2.7-1.8-5.5-1.9-8.4c0-9,4-16.7,12.1-23s18.4-9.8,30.9-10.5
		c12.5-0.3,23.1,2.4,31.6,8.1C1692,1652.2,1696.6,1659.5,1697.3,1668.5"/>
	<path id="ShadeGreenButton" class="st2" d="M1605.3,1691.6l2.2,3c5.8,8.4,11.9,15.8,18.4,22.2c6.3,5.9,12.6,9.6,18.9,11.3
		c14,3.6,29.6,1.3,47.1-7c6.1-3.5,9.5-5.8,10.2-6.9c2-1.8,3.7-3.7,5.1-5.7c2.9-4.1,4.2-8.9,4.1-14.3c0.8-7.7-5.2-23.5-17.8-47.3
		c0.2,18.2-0.9,31.1-3.1,38.6c-0.8,3.1-1.9,5.8-3.3,8.3l-2.3,3.4c-1.7,2.1-3.8,3.8-6.2,5c-6.2,3-15.2,3.6-26.9,1.6
		C1641,1702.2,1625.5,1698,1605.3,1691.6"/>
	<path id="blacklineGreenButton" d="M1709,1665.2c1.3,27.5-26.5,46.7-55.3,48.1c-28.9,1.4-58.3-15.1-59.6-42.6
		c-1.3-27.5,26.5-46.7,55.3-48.1C1678.2,1621.2,1707.7,1637.6,1709,1665.2 M1689.3,1666.1c-0.6-11.6-15.2-24.9-39-23.8
		c-23.7,1.1-37.1,15.7-36.5,27.4c0.6,11.6,15.2,24.9,39,23.8C1676.5,1692.4,1689.8,1677.8,1689.3,1666.1L1689.3,1666.1z"/>
	<path id="yellowGlow_1_" class="st8" d="M1643.3,1650.6L1643.3,1650.6c-1.2,0.2-1.9,0.3-2.2,0.4c-3.2,1.1-5.3,1.9-6.1,2.2
		c-1.5,0.6-2.9,1.1-4.4,1.8l-2,1l-1.8,1.1l-1.5,1.1l-1.1,1.2l-0.6,1.2v1.2l0.7,1.3c0.4,0.5,0.9,0.9,1.5,1.4l0.9,0.6
		c0.6,0.4,1.2,0.8,1.9,1.1c1.4,0.7,2.8,1.1,4.4,1.5c1.4,0.3,3,0.4,4.8,0.3c1.9-0.2,3.5-0.8,4.8-1.9c1.2-1.1,2-2.4,2.5-3.9
		c0.8-2.3,1-4.6,0.6-7c-0.1-0.8-0.3-1.5-0.6-2.2l-0.4-1C1644.4,1651.5,1644,1651.1,1643.3,1650.6"/>
</g>
<g id="YellowButtonTotal">
	<path id="YellowButton" class="st9" d="M1818.7,1620.5l-0.2,4.3c-1.6,8.8-6.9,15.9-16,21.5s-20.1,8.1-32.8,7.6
		c-12.1-0.9-22-4.5-29.5-10.9c-2.4-2.1-4.4-4.3-6-6.8l-2.1-3.9c-1.1-2.7-1.8-5.5-1.9-8.4c0-9,4-16.7,12.1-23s18.4-9.8,30.9-10.5
		c12.5-0.3,23.1,2.4,31.6,8.1C1813.4,1604.2,1818.1,1611.5,1818.7,1620.5"/>
	<path id="ShadeYellowButton" class="st2" d="M1726.8,1643.5l2.2,3c5.8,8.4,11.9,15.8,18.4,22.2c6.3,5.9,12.6,9.6,18.9,11.3
		c14,3.6,29.6,1.3,47.1-7c6.1-3.5,9.5-5.8,10.2-6.9c2-1.8,3.7-3.7,5.1-5.7c2.9-4.1,4.2-8.9,4.1-14.3c0.8-7.7-5.2-23.5-17.8-47.3
		c0.2,18.2-0.9,31.1-3.1,38.6c-0.8,3.1-1.9,5.8-3.3,8.3l-2.3,3.4c-1.7,2.1-3.8,3.8-6.2,5c-6.2,3-15.2,3.6-26.9,1.6
		C1762.4,1654.1,1746.9,1650,1726.8,1643.5"/>
	<path id="blacklineYellowButton" d="M1829.9,1618.4c1.3,27.5-26.5,46.7-55.3,48.1c-28.9,1.4-58.3-15.1-59.6-42.6
		c-1.3-27.5,26.5-46.7,55.3-48.1C1799.1,1574.4,1828.6,1590.9,1829.9,1618.4 M1810.1,1619.4c-0.6-11.6-15.2-24.9-39-23.8
		c-23.7,1.1-37.1,15.7-36.5,27.4c0.6,11.6,15.2,24.9,39,23.8C1797.3,1645.6,1810.7,1631,1810.1,1619.4L1810.1,1619.4z"/>
	<path id="yellowGlow_2_" class="st10" d="M1764.3,1602.1L1764.3,1602.1c-1.2,0.2-1.9,0.3-2.2,0.4c-3.2,1.1-5.3,1.9-6.1,2.2
		c-1.5,0.6-2.9,1.1-4.4,1.8l-2,1l-1.8,1.1l-1.5,1.1l-1.1,1.2l-0.6,1.2v1.2l0.7,1.3c0.4,0.5,0.9,0.9,1.5,1.4l0.9,0.6
		c0.6,0.4,1.2,0.8,1.9,1.1c1.4,0.7,2.8,1.1,4.4,1.5c1.4,0.3,3,0.4,4.8,0.3c1.9-0.2,3.5-0.8,4.8-1.9c1.2-1.1,2-2.4,2.5-3.9
		c0.8-2.3,1-4.6,0.6-7c-0.1-0.8-0.3-1.5-0.6-2.2l-0.4-1C1765.4,1603,1764.9,1602.6,1764.3,1602.1"/>
</g>
<g>
	<g>
		<path id="SVGID_7_" class="st11" d="M1204.1,1574.4l1.6-0.4c5-1.3,8.1-2.6,9.5-4c0.6-0.5,1-1.1,1.3-1.8l0.3-1.1
			c0.1-0.8,0.1-1.6-0.2-2.4c-0.5-1.7-1.5-3.5-3-5.3c-0.7-0.9-1.6-1.7-2.5-2.4l-1.4-1c-1-0.6-2-1.2-3.1-1.5l-1.6-0.4
			c-1.1-0.2-2.2-0.2-3.3,0l-1.8,0.5l-1.8,0.9l-1.7,1.2l-1.7,1.4c-1.1,1-2.1,2.1-3,3.4c-2.8,3.9-4.2,7.3-4.2,10.1
			c0.1,1,0.4,1.7,1,2.3c0.3,0.3,0.6,0.5,1.1,0.7l0.6,0.3c0.5,0.2,1,0.3,1.5,0.4C1194.3,1575.5,1198.3,1575.2,1204.1,1574.4"/>
	</g>
</g>
<path d="M1225.1,1661.6l-11,1.2c-3,0.3-5.8-1.9-6.1-4.9l-3-28.5c-0.3-3,1.9-5.8,4.9-6.1l11-1.2c3-0.3,5.8,1.9,6.1,4.9l3,28.5
	C1230.3,1658.5,1228.1,1661.3,1225.1,1661.6z"/>
<g id="coinSelector">
	<g class="st12">
		<path class="st13" d="M1637.8,2467.6c-13.8,0-25-11.2-25-25v-404.7c0-13.8,11.2-25,25-25h200.5c13.8,0,25,11.2,25,25v404.7
			c0,13.8-11.2,25-25,25H1637.8z"/>
		<path d="M1838.3,2013.4c13.5,0,24.5,11,24.5,24.5v404.7c0,13.5-11,24.5-24.5,24.5h-200.5c-13.5,0-24.5-11-24.5-24.5v-404.7
			c0-13.5,11-24.5,24.5-24.5L1838.3,2013.4 M1838.3,2012.4h-200.5c-14.1,0-25.5,11.4-25.5,25.5v404.7c0,14.1,11.4,25.5,25.5,25.5
			h200.5c14.1,0,25.5-11.4,25.5-25.5v-404.7C1863.8,2023.8,1852.3,2012.4,1838.3,2012.4L1838.3,2012.4z"/>
	</g>
	<g id="_x3C_Rektangel_x23_1_1_">
		<path class="st14" d="M1637.8,2459.1c-9.1,0-16.5-7.4-16.5-16.5v-404.7c0-9.1,7.4-16.5,16.5-16.5h200.5c9.1,0,16.5,7.4,16.5,16.5
			v404.7c0,9.1-7.4,16.5-16.5,16.5H1637.8z"/>
		<path d="M1838.3,2021.9c8.8,0,16,7.2,16,16v404.7c0,8.8-7.2,16-16,16h-200.5c-8.8,0-16-7.2-16-16v-404.7c0-8.8,7.2-16,16-16
			L1838.3,2021.9 M1838.3,2020.9h-200.5c-9.4,0-17,7.6-17,17v404.7c0,9.4,7.6,17,17,17h200.5c9.4,0,17-7.6,17-17v-404.7
			C1855.3,2028.5,1847.6,2020.9,1838.3,2020.9L1838.3,2020.9z"/>
	</g>
	<g>
		<path class="st15" d="M1665.9,2447.2c-15.4,0-27.8-12.5-27.8-27.8v-353.9c0-15.4,12.5-27.8,27.8-27.8H1809
			c15.4,0,27.8,12.5,27.8,27.8v353.9c0,15.4-12.5,27.8-27.8,27.8H1665.9z"/>
		<g>
			<path d="M1809,2038c15.1,0,27.3,12.3,27.3,27.3v353.9c0,15.1-12.3,27.3-27.3,27.3h-143.1c-15.1,0-27.3-12.3-27.3-27.3v-353.9
				c0-15.1,12.3-27.3,27.3-27.3H1809 M1809,2037h-143.1c-15.7,0-28.3,12.7-28.3,28.3v353.9c0,15.7,12.7,28.3,28.3,28.3H1809
				c15.7,0,28.3-12.7,28.3-28.3v-353.9C1837.3,2049.7,1824.6,2037,1809,2037L1809,2037z"/>
		</g>
	</g>
	<g id="skygge">
		<g>
			<g>
				<g>
					<g>
						<defs>
							<rect id="SVGID_1_" x="1803.5" y="2015.8" width="59.5" height="453.4"/>
						</defs>
						<clipPath id="SVGID_2_">
							<use xlink:href="#SVGID_1_"  style="overflow:visible;"/>
						</clipPath>
						<g id="_x3C_Rektangel_x23_1" class="st16">
							<path d="M1637.8,2459.1c-9.1,0-16.5-7.4-16.5-16.5v-404.7c0-9.1,7.4-16.5,16.5-16.5h200.5c9.1,0,16.5,7.4,16.5,16.5v404.7
								c0,9.1-7.4,16.5-16.5,16.5H1637.8z"/>
							<path d="M1838.3,2021.9c8.8,0,16,7.2,16,16v404.7c0,8.8-7.2,16-16,16h-200.5c-8.8,0-16-7.2-16-16v-404.7c0-8.8,7.2-16,16-16
								L1838.3,2021.9 M1838.3,2020.9h-200.5c-9.4,0-17,7.6-17,17v404.7c0,9.4,7.6,17,17,17h200.5c9.4,0,17-7.6,17-17v-404.7
								C1855.3,2028.5,1847.6,2020.9,1838.3,2020.9L1838.3,2020.9z"/>
						</g>
					</g>
				</g>
			</g>
		</g>
	</g>
	<g id="CoinInsert">
		<g class="st12">
			<g>
				<path id="SVGID_3_" class="st17" d="M1722.5,2186.9L1722.5,2186.9c11.7,0,21.2-9.5,21.2-21.2v-97.5c0-11.7-9.5-21.2-21.2-21.2
					l0,0c-11.7,0-21.2,9.5-21.2,21.2v97.5C1701.2,2177.4,1710.7,2186.9,1722.5,2186.9z"/>
			</g>
			<g>
				<g>
					<g>
						<g>
							<defs>
								<path id="SVGID_4_" d="M1722.5,2186.9L1722.5,2186.9c11.7,0,21.2-9.5,21.2-21.2v-97.5c0-11.7-9.5-21.2-21.2-21.2l0,0
									c-11.7,0-21.2,9.5-21.2,21.2v97.5C1701.2,2177.4,1710.7,2186.9,1722.5,2186.9z"/>
							</defs>
							<clipPath id="SVGID_5_">
								<use xlink:href="#SVGID_4_"  style="overflow:visible;"/>
							</clipPath>
							<g class="st18">
								<path d="M1714.9,2186.4c-11.4,0-20.7-9.3-20.7-20.7v-97.5c0-11.4,9.3-20.7,20.7-20.7s20.7,9.3,20.7,20.7v97.5
									C1735.6,2177.1,1726.3,2186.4,1714.9,2186.4z"/>
								<path d="M1714.9,2047.9c11.2,0,20.2,9.1,20.2,20.2v97.5c0,11.2-9.1,20.2-20.2,20.2c-11.2,0-20.2-9.1-20.2-20.2v-97.5
									C1694.6,2057,1703.7,2047.9,1714.9,2047.9 M1714.9,2046.9c-11.7,0-21.2,9.5-21.2,21.2v97.5c0,11.7,9.5,21.2,21.2,21.2
									s21.2-9.5,21.2-21.2v-97.5C1736.1,2056.4,1726.6,2046.9,1714.9,2046.9L1714.9,2046.9z"/>
							</g>
						</g>
					</g>
				</g>
			</g>
		</g>
		<g>
			<path class="st14" d="M1743.7,2184c-8.2,0-14.9-6.7-14.9-14.9v-104.7c0-8.2,6.7-14.9,14.9-14.9s14.9,6.7,14.9,14.9v104.7
				C1758.6,2177.3,1751.9,2184,1743.7,2184z"/>
			<g>
				<path d="M1743.7,2050c7.9,0,14.4,6.5,14.4,14.4v104.7c0,7.9-6.5,14.4-14.4,14.4s-14.4-6.5-14.4-14.4v-104.7
					C1729.3,2056.5,1735.7,2050,1743.7,2050 M1743.7,2049L1743.7,2049c-8.5,0-15.4,6.9-15.4,15.4v104.7c0,8.5,6.9,15.4,15.4,15.4
					l0,0c8.5,0,15.4-6.9,15.4-15.4v-104.7C1759.1,2055.9,1752.2,2049,1743.7,2049L1743.7,2049z"/>
			</g>
		</g>
		<g>
			<path class="st15" d="M1735.6,2186.8c-10.4,0-18.8-8.4-18.8-18.8v-102.3c0-10.4,8.4-18.8,18.8-18.8s18.8,8.4,18.8,18.8V2168
				C1754.4,2178.4,1746,2186.8,1735.6,2186.8z"/>
			<g>
				<path d="M1735.6,2047.5c10.1,0,18.3,8.2,18.3,18.3V2168c0,10.1-8.2,18.3-18.3,18.3s-18.3-8.2-18.3-18.3v-102.3
					C1717.3,2055.7,1725.5,2047.5,1735.6,2047.5 M1735.6,2046.5c-10.7,0-19.3,8.6-19.3,19.3V2168c0,10.7,8.6,19.3,19.3,19.3
					c10.7,0,19.3-8.6,19.3-19.3v-102.3C1754.9,2055.1,1746.3,2046.5,1735.6,2046.5L1735.6,2046.5z"/>
			</g>
		</g>
		<g>
			<path class="st14" d="M1735.6,2184.3c-9,0-16.2-7.3-16.2-16.2v-102.3c0-9,7.3-16.2,16.2-16.2s16.2,7.3,16.2,16.2V2168
				C1751.9,2177,1744.6,2184.3,1735.6,2184.3z"/>
			<g>
				<path d="M1735.6,2050c8.7,0,15.7,7.1,15.7,15.7V2168c0,8.7-7.1,15.7-15.7,15.7s-15.7-7.1-15.7-15.7v-102.3
					C1719.9,2057.1,1726.9,2050,1735.6,2050 M1735.6,2049c-9.2,0-16.7,7.5-16.7,16.7V2168c0,9.2,7.5,16.7,16.7,16.7
					s16.7-7.5,16.7-16.7v-102.3C1752.4,2056.5,1744.9,2049,1735.6,2049L1735.6,2049z"/>
			</g>
		</g>
		<g>
			<g>
				<g>
					<g>
						<g>
							<defs>
								<path id="SVGID_6_" d="M1742.2,2184.8L1742.2,2184.8c9.2,0,16.7-7.5,16.7-16.7v-102.3c0-9.2-7.5-16.7-16.7-16.7l0,0
									c-9.2,0-16.7,7.5-16.7,16.7V2168C1725.5,2177.3,1733,2184.8,1742.2,2184.8z"/>
							</defs>
							<clipPath id="SVGID_9_">
								<use xlink:href="#SVGID_6_"  style="overflow:visible;"/>
							</clipPath>
							<g class="st19">
								<path d="M1736.2,2184.3c-9,0-16.2-7.3-16.2-16.2v-102.3c0-9,7.3-16.2,16.2-16.2s16.2,7.3,16.2,16.2V2168
									C1752.5,2177,1745.2,2184.3,1736.2,2184.3z"/>
								<path d="M1736.2,2050c8.7,0,15.7,7.1,15.7,15.7V2168c0,8.7-7.1,15.7-15.7,15.7s-15.7-7.1-15.7-15.7v-102.3
									C1720.5,2057.1,1727.5,2050,1736.2,2050 M1736.2,2049c-9.2,0-16.7,7.5-16.7,16.7V2168c0,9.2,7.5,16.7,16.7,16.7
									s16.7-7.5,16.7-16.7v-102.3C1753,2056.5,1745.5,2049,1736.2,2049L1736.2,2049z"/>
							</g>
						</g>
					</g>
				</g>
			</g>
		</g>
	</g>
	<g id="ReturnCoin">
		<g id="CoinOut_x5F_Shade" class="st12">
			<path d="M1723.5,2279.7c-13.4,0-24.2-10.9-24.2-24.3c0-4.3,1.1-8.5,3.2-12.1l0.2-0.3l-39.7-39.9c-1.3-1.3-1.3-3.5,0-4.8l5.7-5.7
				c0.6-0.6,1.5-1,2.4-1s1.7,0.4,2.4,1l40.4,40.5l0.3-0.1c2.9-1.2,6.1-1.9,9.3-1.9c13.4,0,24.2,10.9,24.2,24.3
				S1736.8,2279.7,1723.5,2279.7z"/>
			<path d="M1671,2192.1c0.8,0,1.5,0.3,2,0.8l40.2,40.3l0.5,0.5l0.6-0.3c2.9-1.2,6-1.8,9.1-1.8c13.1,0,23.7,10.7,23.7,23.8
				s-10.6,23.8-23.7,23.8s-23.7-10.7-23.7-23.8c0-4.2,1.1-8.3,3.2-11.9l0.4-0.7l-0.5-0.5l-39.5-39.6c-1.1-1.1-1.1-3,0-4.1l5.7-5.7
				C1669.6,2192.4,1670.3,2192.1,1671,2192.1 M1671,2191.1c-1,0-2,0.4-2.7,1.1l-5.7,5.7c-1.5,1.5-1.5,4,0,5.5l39.5,39.6
				c-2.1,3.6-3.3,7.9-3.3,12.4c0,13.7,11.1,24.8,24.7,24.8c13.7,0,24.7-11.1,24.7-24.8s-11.1-24.8-24.7-24.8c-3.4,0-6.6,0.7-9.5,1.9
				l-40.2-40.3C1673,2191.4,1672,2191.1,1671,2191.1L1671,2191.1z"/>
		</g>
		<g id="L_x5F_elipse">
			<path class="st14" d="M1736.6,2279.7c-16.8,0-30.4-13.6-30.4-30.4c0-6,1.8-11.9,5.1-16.9l0.2-0.3l-36.5-36.7
				c-1.7-1.7-1.7-4.5,0-6.2l4.2-4.2c0.8-0.8,1.9-1.3,3.1-1.3s2.2,0.5,3.1,1.3l37.2,37.3l0.3-0.2c4.3-2.2,8.9-3.3,13.7-3.3
				c16.8,0,30.4,13.6,30.4,30.4S1753.4,2279.7,1736.6,2279.7z"/>
			<g>
				<path d="M1682.3,2184.3c1,0,2,0.4,2.7,1.1l36.9,37.1l0.5,0.5l0.6-0.3c4.2-2.1,8.8-3.2,13.5-3.2c16.5,0,29.9,13.4,29.9,29.9
					s-13.4,29.9-29.9,29.9s-29.9-13.4-29.9-29.9c0-5.9,1.7-11.7,5-16.6l0.5-0.7l-0.6-0.6l-36.2-36.4c-1.5-1.5-1.5-4,0-5.5l4.2-4.2
					C1680.3,2184.7,1681.3,2184.3,1682.3,2184.3 M1682.3,2183.3c-1.2,0-2.5,0.5-3.4,1.4l-4.2,4.2c-1.9,1.9-1.9,5,0,6.9l36.2,36.4
					c-3.3,4.9-5.2,10.8-5.2,17.1c0,17,13.9,30.9,30.9,30.9s30.9-13.9,30.9-30.9s-13.9-30.9-30.9-30.9c-5,0-9.8,1.2-14,3.3
					l-36.9-37.1C1684.8,2183.8,1683.5,2183.3,1682.3,2183.3L1682.3,2183.3z"/>
			</g>
		</g>
		<g>
			<path class="st15" d="M1731.5,2256c-2,0-3.8-0.8-5.2-2.1l-53.2-53.2c-1.4-1.4-2.1-3.2-2.1-5.2s0.8-3.8,2.1-5.2
				c1.4-1.4,3.2-2.1,5.2-2.1s3.8,0.8,5.2,2.1l53.2,53.2c1.4,1.4,2.1,3.2,2.1,5.2s-0.8,3.8-2.1,5.2
				C1735.3,2255.2,1733.5,2256,1731.5,2256z"/>
			<g>
				<path d="M1678.3,2188.6c1.8,0,3.5,0.7,4.8,2l53.2,53.2c2.7,2.7,2.7,7,0,9.6c-1.3,1.3-3,2-4.8,2s-3.5-0.7-4.8-2l-53.2-53.2
					c-1.3-1.3-2-3-2-4.8s0.7-3.5,2-4.8S1676.5,2188.6,1678.3,2188.6 M1678.3,2187.6c-2,0-4,0.8-5.5,2.3l0,0c-3.1,3.1-3.1,8,0,11.1
					l53.2,53.2c1.5,1.5,3.5,2.3,5.5,2.3s4-0.8,5.5-2.3l0,0c3.1-3.1,3.1-8,0-11.1l-53.2-53.2
					C1682.3,2188.3,1680.3,2187.6,1678.3,2187.6L1678.3,2187.6z"/>
			</g>
		</g>
		<g id="smElipse">
			<path class="st15" d="M1730.1,2273.2c-13.2,0-23.9-10.7-23.9-23.9s10.7-23.9,23.9-23.9s23.9,10.7,23.9,23.9
				S1743.3,2273.2,1730.1,2273.2z"/>
			<g>
				<path d="M1730.1,2225.9c12.9,0,23.4,10.5,23.4,23.4s-10.5,23.4-23.4,23.4s-23.4-10.5-23.4-23.4S1717.2,2225.9,1730.1,2225.9
					 M1730.1,2224.9c-13.5,0-24.4,10.9-24.4,24.4s10.9,24.4,24.4,24.4s24.4-10.9,24.4-24.4S1743.6,2224.9,1730.1,2224.9
					L1730.1,2224.9z"/>
			</g>
		</g>
		<g>
			<line class="st20" x1="1722.3" y1="2222" x2="1720.7" y2="2227"/>
		</g>
	</g>
	<g id="CoinReject">
		<g id="ShadeCoinReject" class="st12">
			<g>
				<path id="SVGID_8_" class="st17" d="M1720.7,2438.4L1720.7,2438.4c11.7,0,21.2-9.5,21.2-21.2v-97.5c0-11.7-9.5-21.2-21.2-21.2
					l0,0c-11.7,0-21.2,9.5-21.2,21.2v97.5C1699.4,2428.9,1708.9,2438.4,1720.7,2438.4z"/>
			</g>
			<g>
				<g>
					<g>
						<g>
							<defs>
								<path id="SVGID_10_" d="M1720.7,2438.4L1720.7,2438.4c11.7,0,21.2-9.5,21.2-21.2v-97.5c0-11.7-9.5-21.2-21.2-21.2l0,0
									c-11.7,0-21.2,9.5-21.2,21.2v97.5C1699.4,2428.9,1708.9,2438.4,1720.7,2438.4z"/>
							</defs>
							<clipPath id="SVGID_11_">
								<use xlink:href="#SVGID_10_"  style="overflow:visible;"/>
							</clipPath>
							<g class="st21">
								<path d="M1713.1,2437.9c-11.4,0-20.7-9.3-20.7-20.7v-97.5c0-11.4,9.3-20.7,20.7-20.7s20.7,9.3,20.7,20.7v97.5
									C1733.8,2428.6,1724.5,2437.9,1713.1,2437.9z"/>
								<path d="M1713.1,2299.4c11.2,0,20.2,9.1,20.2,20.2v97.5c0,11.2-9.1,20.2-20.2,20.2c-11.2,0-20.2-9.1-20.2-20.2v-97.5
									C1692.9,2308.5,1701.9,2299.4,1713.1,2299.4 M1713.1,2298.4L1713.1,2298.4c-11.7,0-21.2,9.5-21.2,21.2v97.5
									c0,11.7,9.5,21.2,21.2,21.2l0,0c11.7,0,21.2-9.5,21.2-21.2v-97.5C1734.3,2307.9,1724.8,2298.4,1713.1,2298.4L1713.1,2298.4z
									"/>
							</g>
						</g>
					</g>
				</g>
			</g>
		</g>
		<g id="ShadeGrapper" class="st12">
			<path d="M1709.2,2429.5c-0.2,0-17.6,0-25.5-3.6c-4.6-2-5.8-5.9-6.1-8c-0.1-0.8-0.2-1.5-0.1-2.3c0.1-2.1,0.8-3.9,1.8-4.7
				c0.9-0.7,3-2.3,6.3-4.7c4.8-3.5,11.1-8.8,13.4-10.7v7.3l0.3,7.4l0.1,0.1c0.2,0.3-0.1,1.6-0.2,2.3c-0.3,1.7-0.6,3.3,0.4,3.8
				c0.4,0.2,0.6,0.3,0.6,0.4c-0.3,0.2-1.3,0.5-2.2,0.6h-2.9v1c0,0,0.7,0,1.6,0c0.5,0,1,0,1.4-0.1h8.9l4-2.9l23-18.7h2.8v23.7
				c0,0-0.3,4.3-3.4,6.5c-3,2.2-6.9,2.6-7.2,2.6L1709.2,2429.5L1709.2,2429.5z"/>
			<path d="M1698.4,2396.6v0.5v0.6v5.1l0.3,7.2v0.4l0.2,0.2c0,0.4-0.1,1.4-0.3,2c-0.3,1.7-0.6,3.4,0.3,4.1c-0.3,0.1-0.7,0.1-1.1,0.2
				h-2.9l-0.1,2c0,0,0.8,0,1.6,0c0.5,0,1,0,1.4-0.1h8.7h0.3l0.3-0.2l0.8-0.6l3.1-2.3l0,0l0,0l22.8-18.5h2.2v23.1
				c0,0.4-0.4,4.1-3.2,6.1c-2.9,2.1-6.6,2.5-6.9,2.5h-17c-0.2,0-17.5,0-25.3-3.5c-4.3-1.9-5.5-5.6-5.8-7.6c-0.1-0.7-0.1-1.5-0.1-2.2
				c0.1-1.9,0.7-3.7,1.6-4.4s3-2.3,6.3-4.7l0,0l0,0C1690.1,2403.5,1695.7,2398.9,1698.4,2396.6 M1699.4,2394.4
				c0,0-8.3,7.1-14.1,11.3l0,0c-2.9,2.1-5.3,3.9-6.3,4.7c-1.1,0.9-1.9,2.8-2,5.1c0,0.8,0,1.6,0.1,2.4c0.5,3.2,2.4,6.6,6.4,8.4
				c8.1,3.6,25.7,3.6,25.7,3.6h17c0,0,4.2-0.3,7.5-2.7s3.6-6.9,3.6-6.9v-24.2h-3.5l-23.1,18.8l-3.1,2.3l-0.8,0.6h-8.8
				c1.4-0.1,4.3-0.8,1.7-1.9c-1.2-0.5,0.8-5.2,0-6l-0.3-7.2v-5.1v-0.6v-0.9L1699.4,2394.4L1699.4,2394.4z M1696.6,2417.9
				c-0.8,0-1.6,0-1.6,0h2.9C1697.6,2417.9,1697.1,2417.9,1696.6,2417.9L1696.6,2417.9z"/>
		</g>
		<g id="FrameDebt">
			<path class="st14" d="M1737.5,2435.5c-5.8,0-10.5-4.7-10.5-10.5v-113.5c0-5.8,4.7-10.5,10.5-10.5h8.7c1.2,0,2.3,0.2,3.4,0.6h0.1
				c4.2,1.5,7.1,5.5,7.1,9.9V2425c0,4.3-2.7,8.3-6.7,9.8c-1.2,0.5-2.5,0.7-3.8,0.7H1737.5z"/>
			<g>
				<path d="M1746.2,2301.5c1.1,0,2.2,0.2,3.2,0.5h0.1c4,1.4,6.7,5.2,6.7,9.5V2425c0,4.1-2.6,7.9-6.4,9.4c-1.1,0.4-2.4,0.7-3.6,0.7
					h-8.7c-5.5,0-10-4.5-10-10v-113.5c0-5.5,4.5-10,10-10L1746.2,2301.5 M1746.2,2300.5h-8.7c-6.1,0-11,4.9-11,11V2425
					c0,6.1,4.9,11,11,11h8.7c1.4,0,2.7-0.3,4-0.7c4.1-1.6,7.1-5.6,7.1-10.3v-113.5c0-4.8-3.1-9-7.5-10.4l0,0
					C1748.7,2300.7,1747.5,2300.5,1746.2,2300.5L1746.2,2300.5z"/>
			</g>
		</g>
		<g id="FrameGray">
			<g>
				<path class="st15" d="M1725.6,2438.4c-5.8,0-10.5-4.7-10.5-10.5v-3.2c0.7,0,1.4,0,2,0c0.5,0,1,0,1.6,0h0.5
					c2.4,0,4.9-0.1,7.3-0.2c5.5-0.3,11.1-0.9,16.6-1.8l0.9-0.1h5.1l-0.1-0.6c-0.6-2.8-11.8-3.9-17.9-4.3l20-14.7v-94c0-5-4-9-9-9
					h-16.5c-5,0-9,4-9,9v93.6l-1.5,1.3V2309c0-5.8,4.7-10.5,10.5-10.5h16.5c2.7,0,5.3,1.1,7.3,3l0.1,0.1c2,2,3.1,4.6,3.1,7.4v118.8
					c0,2.6-1,5.2-2.8,7.1c-2,2.2-4.8,3.4-7.7,3.4L1725.6,2438.4L1725.6,2438.4z"/>
			</g>
			<g>
				<path d="M1742.1,2299c2.6,0,5.1,1,7,2.8l0.1,0.1c1.9,1.9,2.9,4.4,2.9,7.1v118.8c0,2.5-0.9,4.9-2.6,6.8c-1.9,2.1-4.6,3.2-7.4,3.2
					h-16.5c-5.5,0-10-4.5-10-10v-2.7c0.5,0,1,0,1.5,0s1.1,0,1.6,0h0.5c2.4,0,4.9-0.1,7.4-0.2c5.6-0.3,11.2-0.9,16.7-1.8l0.8-0.1h4.4
					h1.2l-0.3-1.2c-0.6-2.8-9-4-17-4.6l18.7-13.7l0.4-0.3v-0.5V2309c0-5.2-4.3-9.5-9.5-9.5h-16.5c-5.2,0-9.5,4.3-9.5,9.5v93.3
					l-0.5,0.4V2309c0-5.5,4.5-10,10-10H1742.1 M1742.1,2298h-16.5c-6.1,0-11,4.9-11,11v95.9c0.8-0.7,1.7-1.4,2.5-2.1V2309
					c0-4.7,3.8-8.5,8.5-8.5h16.5c4.7,0,8.5,3.8,8.5,8.5v93.7l-20.9,15.3c10.7,0.6,18.4,2.2,18.8,4h-6.1c0.2,0.1,0.5,0.1,0.7,0.1
					c-4.9,0.8-10.5,1.4-16.6,1.7c-2.4,0.1-4.8,0.2-7.3,0.2c-0.2,0-0.4,0-0.5,0c-0.5,0-1,0-1.6,0c-0.9,0-1.7,0-2.5-0.1v3.7
					c0,6.1,4.9,11,11,11h16.5c3.2,0,6.1-1.4,8.1-3.6c1.8-2,2.9-4.6,2.9-7.5V2309c0-3.1-1.3-5.9-3.3-7.9l0,0
					C1747.8,2299.2,1745.1,2298,1742.1,2298L1742.1,2298z"/>
			</g>
		</g>
		<g id="Iside">
			<path class="st14" d="M1718.6,2423.7c-0.5,0-1,0-1.6,0c-0.9,0-1.7,0-2.5-0.1c-6.3-0.2-12.7-0.8-19-1.7c-0.4-0.2-0.5-0.2-0.6-0.4
				c0-0.1,0.1-0.2,0.2-0.3l22.4-18.2v-94c0-4.4,3.6-8,8-8h7.2c-4,1.8-6.8,5.8-6.8,10.5v112c-2.3,0.1-4.5,0.2-6.8,0.2H1718.6z"/>
			<path d="M1730.9,2301.5c-3.2,2.2-5.4,5.8-5.4,10V2423c-2.1,0.1-4.2,0.1-6.3,0.1h-0.5c-0.5,0-1,0-1.6,0c-0.9,0-1.7,0-2.5-0.1
				c-6.3-0.2-12.6-0.7-18.8-1.7l9.5-7.7l9.9-8.1l1.3-1l1.3-1l0.4-0.3v-0.5V2309c0-4.1,3.4-7.5,7.5-7.5H1730.9 M1737.5,2300.5h-11.9
				c-4.7,0-8.5,3.8-8.5,8.5v93.8c-0.8,0.7-1.7,1.4-2.5,2.1c-6.6,5.3-13.2,10.7-19.7,16c0,0-0.6,0.6-0.3,0.9s0.3,0.3,0.9,0.6
				c5.6,0.9,12,1.5,19.1,1.7c0.8,0,1.7,0,2.5,0.1c0.5,0,1,0,1.6,0c0.2,0,0.4,0,0.5,0c2.5,0,5-0.1,7.3-0.2v-112.5
				C1726.5,2305.5,1731.4,2300.5,1737.5,2300.5L1737.5,2300.5z"/>
		</g>
		<g id="blackReject">
			<g>
				<g>
					<g>
						<g>
							<defs>
								<path id="SVGID_12_" d="M1740.4,2436.3L1740.4,2436.3c9.2,0,16.7-7.5,16.7-16.7v-102.3c0-9.2-7.5-16.7-16.7-16.7l0,0
									c-9.2,0-16.7,7.5-16.7,16.7v102.3C1723.7,2428.8,1731.2,2436.3,1740.4,2436.3z"/>
							</defs>
							<clipPath id="SVGID_13_">
								<use xlink:href="#SVGID_12_"  style="overflow:visible;"/>
							</clipPath>
							<g class="st22">
								<path d="M1720.4,2438.4c-3.8,0-6.9-3.1-6.9-6.9v-123.2c0-3.8,3.1-6.9,6.9-6.9h23.4c3.8,0,6.9,3.1,6.9,6.9v123.2
									c0,3.8-3.1,6.9-6.9,6.9H1720.4z"/>
								<path d="M1743.8,2302c3.5,0,6.4,2.9,6.4,6.4v123.2c0,3.5-2.9,6.4-6.4,6.4h-23.4c-3.5,0-6.4-2.9-6.4-6.4v-123.2
									c0-3.5,2.9-6.4,6.4-6.4H1743.8 M1743.8,2301h-23.4c-4.1,0-7.4,3.3-7.4,7.4v123.2c0,4.1,3.3,7.4,7.4,7.4h23.4
									c4.1,0,7.4-3.3,7.4-7.4v-123.2C1751.1,2304.3,1747.8,2301,1743.8,2301L1743.8,2301z"/>
							</g>
						</g>
					</g>
				</g>
			</g>
		</g>
		<path id="TokenGrapperBlack" class="st23" d="M1751.1,2402.4l-29.1,22.4l-23.4-1.5l29.9-24.2l22.4-1.8
			C1751.1,2397.3,1751.2,2402.3,1751.1,2402.4z"/>
		<path id="TokenGrapperMain" class="st24" d="M1753.1,2402.5v24.2c0,0-0.3,4.5-3.6,6.9c-3.3,2.4-7.5,2.7-7.5,2.7h-17
			c0,0-17.6,0-25.7-3.6c-4-1.8-5.9-5.2-6.4-8.4c-0.1-0.8-0.2-1.6-0.1-2.4c0.1-2.3,0.9-4.2,2-5.1c1-0.8,3.4-2.6,6.3-4.7l0,0
			c5.9-4.3,13.4-9.7,13.4-9.7l2.3,0.3h0.1l0,0l-21.2,17.7h-0.1c0.8,0.8,1.8,1.5,3,2c4.9,2.1,12.2,1.8,12.2,1.8h11.7l0.8-0.6l3.1-2.3
			l23.1-18.8L1753.1,2402.5z"/>
		<g id="TokenGrapperTop">
			<path class="st15" d="M1716.3,2427.6c-0.1,0-13.7,0-18.6-2.3c-1.2-0.4-4.2-1.7-4.4-3.4c0-0.1,0-0.2,0-0.2
				c0.1-2.2,1.3-4.2,1.6-4.5l19.8-13.9h0.9l-20.7,17.2l0.8,0.6l2.1,1.5c0.2,0.1,0.4,0.3,0.7,0.4c2.8,1.4,8,1.8,8.2,1.9h16.1l27-21.7
				h2c-9.3,8.2-26,22.5-28.4,23.4C1720.2,2427.6,1716.4,2427.6,1716.3,2427.6z"/>
			<g>
				<path d="M1750.5,2403.5c-10.5,9.2-25.1,21.6-27.3,22.4c-3.1,1.1-6.8,1.1-6.8,1.1c-0.1,0-13.6,0-18.4-2.3h-0.1h-0.1
					c-1.2-0.4-3.8-1.6-4-3v-0.1c0-1.9,1.1-3.7,1.5-4.2l6.5-4.5l0,0l0,0l8.7-6.1l-15.4,12.8l-1,0.8l1,0.8h0.1l0.2,0.1
					c0.3,0.2,0.8,0.6,2.2,1.5c0.2,0.2,0.5,0.3,0.8,0.5c2.9,1.5,8.2,1.9,8.4,1.9l0,0l0,0h15.9h0.4l0.3-0.2l0.8-0.6l25.9-20.8
					L1750.5,2403.5 M1753.1,2402.5h-3.5l0,0l-26.2,21l-0.8,0.6h-15.9c0,0-5.3-0.4-8-1.8c-0.2-0.1-0.4-0.2-0.6-0.4
					c-1.7-1.2-2.2-1.6-2.3-1.7c-0.1,0-0.1,0-0.1,0l21.2-17.6l0,0h-2.4l-13.4,9.4l0,0l-6.6,4.6c0,0-1.7,2.3-1.7,4.9
					c0,0.1,0,0.2,0,0.3c0.3,2.4,4.7,3.8,4.7,3.8c5.1,2.4,18.8,2.4,18.8,2.4s3.9,0,7.2-1.2
					C1726.8,2425.7,1753.1,2402.5,1753.1,2402.5L1753.1,2402.5z"/>
			</g>
		</g>
	</g>
</g>
<g id="Screen">
	<path id="OnlyScreen" class="st25" d="M1191,880h622c11,0,20,9,20,20v550c0,11-9,20-20,20h-622c-11,0-20-9-20-20V900
		C1171,889,1180,880,1191,880z"/>
	<g id="danceOmatic_x5F_logo">
		<title>danceOmatic_logo</title>
		<g id="Explotion">
			<path id="RedBang" class="st26" d="M1670.2,1126.1l-13.8-4.2l0,0c-0.7-0.3-14.8-5.7-25.4-11.3c-2-1.1-4.1-2.3-6.1-3.5
				c-1.4-0.8-2.6-1.8-3.8-2.9c-1.4-1.6-2.1-3.6-2.1-5.7c-0.1-0.8-0.2-1.6-0.3-2.4c-0.3-1.9-0.4-3.7-0.3-5.6
				c0.4-3.7,1.3-7.3,2.6-10.8c2.4-5.5,6.1-10.4,10-15l21.4-25.2c0,0,0.4-0.3-0.1-0.3v-0.1c-0.3,0-0.7,0.1-1,0.2
				c-1.8,0.4-35.8,19.3-35.8,19.3c-1.6,0.7-3.2,1.4-4.8,2c-3.4,1.3-7,2.3-10.6,3c-15.2,2.4-35.3-2.5-29.3-49.1
				c0.1-0.3,0.1-0.7,0.2-1c0.4-2.8,0.9-5.5,1.4-8.8c-0.5,0.3-1,0.7-1.5,1.1c-3.9,4.2-7.8,8.4-11.6,12.6l-7.9,8.2
				c-3.9,3.8-8.4,7.1-13.2,9.6c-0.2,0.1-0.3,0.2-0.5,0.3c-1.4,0.6-3,1.2-4.7,1.9l-1.5,0.5c-24.7,9.1-32.6-49.8-32.6-49.8
				s-24.5,41.3-34.7,45.6c-9.5,4-13.7,5.7-18.1,6.7c-0.3,0.1-0.6,0.1-1,0.2c-1.9,0.4-3.8,0.8-5.7,1.1c-5.3,1-10.7,0.9-16-0.3
				c-1.3-0.4-2.5-0.9-3.7-1.4c-2.2-1-4.1-2.5-5.7-4.3c-0.6-0.7-1.1-1.5-1.5-2.3c-0.1-0.2-0.2-0.3-0.3-0.5c-1.7-3.5-3.3-7-5-10.5
				l-2.4-5.2c-1.3-2.8-2.6-5.5-3.9-8.2c-0.2-0.3-0.5-0.6-0.8-0.9c0,0.1-0.1,0.1-0.1,0.2c-0.2,0-0.4,0.2-0.5,0.9v0.1
				c-0.4,4.2-0.8,8.4-1.2,12.6c-0.2,2.4-0.4,4.8-0.6,7.2c-0.6,6.2-1.2,12-1.5,14.2c-0.8,5.5-2.4,10.9-4.7,16
				c-1.7,3.9-4.1,7.4-7,10.5c-7.5,7.2-19.9,12.8-40.6,11.3c-6.8-0.4-13.7-0.8-20.5-1.2c-0.5,0-1,0-1.5,0l-0.3,0.6
				c0.3,0.1,0.5,0.2,0.8,0.3l8.5,4.9c3.3,1.9,6.7,3.8,10,5.7c1.8,1,3.7,2,5.2,3.4c3.1,2.8,5.3,6.4,7.2,10.1
				c1.5,11.5,5.2,13-0.2,21.8c-1.1,1.8-2.1,3.7-3.1,5.6c-2.3,3.6-5.2,6.8-8.6,9.4l-0.3,0.2c-0.2,0.2-0.5,0.4-0.7,0.6l0,0
				c-0.3,0.2-0.7,0.5-1.1,0.7c-5.4,3.6-11.2,6.8-16.8,10.1c-0.8,0.5-1.6,1-2.6,1.6c2.3,0.7,4.2,1.3,6.2,1.8c2.5,0.6,5,1.2,7.5,1.8
				c1.3,0.3,2.6,0.7,3.9,1c1.5,0.4,3.1,0.9,4.6,1.2c1.9,0.4,3.8,0.7,5.6,1.1c0,0,5,1.3,8.9,2.6c1.2,0.4,2.5,0.9,3.7,1.4
				c1.6,0.8,2.4,1.2,3,1.6c0.4,0.3,0.8,0.6,1.1,0.9c0.5,0.6,1,1.2,1.4,1.9c0.2,0.3,0.3,0.6,0.4,0.9s0.2,0.7,0.3,1
				c0.1,0.7,0.2,1.4,0.2,2.1c-0.1,1.1-0.5,2.9-0.6,3.5c-0.3,1.6-0.7,3.2-1.2,4.7c-0.5,1.3-0.9,2.5-1.3,3.5c-0.2,0.5-0.4,1-0.6,1.5
				c-0.9,1.9-15.9,30.5-16.2,31.4c0,0.1,0.1,0.1,0.3,0c0.3,0,0.5-0.1,0.7-0.2c2-1.6,4-3.2,6.1-4.9c1.7-1.4,3.4-2.8,5.1-4.2
				l19.3-15.6l2.4-1.8l0.3-0.2l0.7-0.6l1.3-1l0.6-0.4h0.1l0.2-0.1c0.7-0.5,4.2-2.9,6.3-4.2c0.4-0.3,0.9-0.5,1.3-0.8
				c1.3-0.7,3.6-1.9,5.8-2.9c1.2-0.5,2.5-1,3.8-1.4s2.2-0.6,3.1-0.9c0.4-0.1,0.8-0.2,1.2-0.3c0.7-0.1,1.4-0.2,2.2-0.3
				c1.1,0,2.2,0,3.4,0.2c0.4,0.1,0.9,0.2,1.3,0.3c1.2,0.4,2.4,1,3.5,1.7l0.3,0.2l0,0c0.3,0.2,0.6,0.4,0.9,0.7c1,0.9,1.9,1.9,2.8,3
				l0.2,0.2l0.1,0.2c0.5,0.7,1,1.5,1.5,2.3c1.8,3.6,3.2,7.3,4.2,11.1c1.1,4.3,1.9,8.7,2.3,13.2c0.9,10.9,1.5,20.7,1.7,23.6
				c0,0.3,0,0.6,0.1,0.8c0.1,0.3,0.2,0.6,0.4,0.9c0.3-0.2,0.7-0.3,0.8-0.5c0.2-0.3,0.3-0.5,0.5-0.7l0.1-0.1l0.2-0.3c1-1.5,2-3,3-4.5
				c2.4-3.5,4.7-7.1,7.1-10.6c1.5-2.1,2.5-3.4,3.2-4.4c1-1.2,2-2.4,3-3.6c0.7-0.7,1.3-1.3,1.8-1.9c1.4-1.3,2.8-2.5,4.4-3.7
				c0.7-0.5,1.5-1,2.4-1.2c1.5-0.5,31.7-11.2,48.1,5.8l9.2,9.5c1.9,2.3,3.9,4.5,5.8,6.8c0.3,0.3,0.9,0.4,1.3,0.6
				c0.2-0.4,0.3-0.7,0.4-1.1c0.2-1.6,0.3-3.2,0.5-4.8c0.7-5.4,1.6-10.8,2.3-16.2c0.5-4.4,1.6-8.7,3.2-12.8c1.7-4,3.4-8,8-9.8
				c2.4-1,4.7-1.9,7.2-1.8c4.6,0.2,9.1,1.2,13.4,2.9c0.7,0.3,1.5,0.5,2.2,0.8c11.3,4.9,20.9,9.3,26.5,12l1.7,0.8
				c1.1,0.5,2.2,1,3.7,1.7c-0.1-0.7-0.2-1.4-0.4-2.1c-0.9-2.4-1.8-4.8-2.6-7.2l-4.3-13.3c0,0-5.6-35.4,44.5-42.9
				c2.5-0.3,5-0.6,7.5-1.1c0.7-0.1,1.5-0.3,2.2-0.4l40.4-6c0.1,0,0.3-0.2,0.4-0.3L1670.2,1126.1z"/>
			<path id="OrangeBang" class="st27" d="M1377,1173.8c0.9-2,0.5-4.4-0.9-6.1c-2.4-3-5.8-7.1-14.6-9.2c-8.7-2.1-19.3-4.7-19.3-4.7
				s9.4-5.7,13.4-10.9c4.1-5.2,6.7-9.4,7.8-11.7c1.1-2.3,5.6-19.5-1.4-28.6l-7-9.1c0,0,8.6-0.3,14.5-2.1c5.9-1.8,14-4.7,18.4-8.8
				c4.4-4.1,9.1-8.8,11.5-14.8s3.7-9.8,4.2-12.1c0.5-2.3,2-12,2-12s0.1-0.5,0.4,0.1c0.9,1.9,2.1,3.6,3.6,5c2.1,1.9,5.6,5.2,13.5,6.6
				s17.2-0.4,17.2-0.4c3.7-0.7,7.3-1.6,10.8-2.7c4.8-1.7,29.9-15.2,35.5-24.1l5.6-8.9c1.6,6.4,3.8,12.5,6.5,18.5
				c4.7,10.4,6.5,17.4,18.1,18.3s23.6-1.6,36.4-12.5c0,0,0.1,14.2,7,20.7c6.8,6.5,8.6,8.7,14,9.8c5.3,1.1,15.1,2.7,25-1.2
				s16-6.7,16-6.7s-4.4,5.8-5.9,9c-1.5,3.3-3.6,9.1-3.8,12.9c-0.2,3.8,0,5.4,0.2,10.5s2.8,15.9,15.2,22.9l12.5,7.1l-8.1,2
				c0,0-66.6,13.8-56.1,54.1c0,0-29.2-14-38.2-8.5s-16.3,15.7-17.7,24.5l-1.5,8.8l-2.8-2.7c0,0-19-18.2-47.3-12.2l0,0
				c0,0-6.8,2.1-10.6,4.9c-3.8,2.7-8.8,7.4-10.1,8.9s-5.1,6.5-5.1,6.5s-1.5-22.2-6.5-29.5s-5.8-9.4-9.9-10.9s-8.5-2.9-13.8-1.3
				c-5.3,1.5-11.9,3-21.7,10.3c-9.8,7.3-12.6,9.2-12.6,9.2c1.3-2.3,2.3-4.8,3.1-7.3C1376.1,1180.6,1377,1173.8,1377,1173.8"/>
			<path id="GulBang" class="st28" d="M1370.8,1099.4c0,0,0.2,0.6,0.6,1.5c2.1,5.9,8.9,27,2.1,34.1c-7.9,8.3-11.6,11.3-15.7,13.6
				l-4.1,2.3c0,0-0.3,0.8,3.1,0.6l20.1-1.4c3-0.6,6-0.3,8.8,0.9c4.8,1.9,0.9,17.8,0.9,17.8l-5,10c0,0,0.1,1.2,1.9-0.3
				s8.5-7.2,12.9-9.8c4.5-2.6,11.5-6.1,14.7-6.3c3.8-0.4,7.7-0.1,11.4,0.9c4.1,1.2,10,7.9,12.8,16.6c1.8,5.6,3,11.4,3.6,17.3
				l0.9,10.2c1.5-2.3,3.2-4.5,5-6.5c3.4-3.8,4.7-5.2,6.3-6.8c1.7-1.7,8.4-10.9,20.3-12.4s33.1,12,33.1,12s4.2-26.7,27-27
				c0,0,6.4-2.2,18.2,3.2l11.9,5.4l-2.6-11.8c-0.7-2.6-2.8-9.1,0.5-15.5c8.3-16.3,39.3-19.2,40.1-19.4l9.3-1.5
				c-17.7-20.9-21.8-32.3-4.9-50.9c-4,4.8-47.2,25.1-56-12.6l0,0c0,0-64.2,25.7-60.3-20.2c0,0-15.5,14.4-33.7,21.4
				c-19.8,7.5-41.3,10.8-45.6-8c0,0,4.7,42.7-39.8,38.1c0,0-2.4,0.1-0.8,1.8C1368.8,1097.8,1369.8,1098.7,1370.8,1099.4z"/>
		</g>
		<g id="Lyn">
			<polygon id="OrangeShadownLyn" class="st29" points="1586.6,926.6 1506.7,932.8 1465.2,1064.6 1463,1073.1 1510.7,1070.5 
				1447.2,1192.4 1476,1192.4 1411.5,1342.1 1534.2,1170.8 1496.6,1170.7 1567.3,1051.6 1524.9,1051.5 			"/>
			<path id="Lynkurve" class="st30" d="M1499.4,1061.2l-38.4-0.6l36.4-134.2c0.2-1,1-1.7,2-1.7l79.8-6.6l-62.6,125.5l42.4-1
				l-67.3,120.4l38.4-2l-118.8,166.2l59.5-146.4l-25.8,0.9L1499.4,1061.2z"/>
			<path id="GultLyn" class="st31" d="M1579.1,918.1c-0.6,0-0.9,0-1.2,0l-20.2,1.7c-19.5,1.6-38.9,3.3-58.4,4.9
				c-1.2,0.1-1.7,0.6-2,1.7c-11.4,42-22.8,84-34.3,126c-0.7,2.7-1.4,5.3-2.2,8.1c0.6,0.1,1,0.1,1.4,0.1c5.2,0.2,10.4,0.4,15.5,0.6
				l20,0.8c0.4,0,0.8-0.1,1.2-0.3l-39.8,88.5l-8.6,18.4c-1.5,3.2-3,6.4-4.5,9.6c-0.2,0.4-1.2,2.7-1.5,3.4l27-1.9
				c-19.3,46.2-38.6,92.2-57.8,138.1c0.1,0.1,1.8,2.4,2,2.5c37-51.9,75.2-106.4,112.3-158.5c-0.6,0-3.6,0.2-3.9,0.3
				c-10.3,0.5-20.5,1-30.8,1.5c-1.3,0.1-2,0.1-2.5,0.4l43-79.4c8-13.6,16.1-27.3,24.2-40.9c0.2-0.4,0.4-0.7,0.7-1.3l-42.4,1
				C1537.5,1001.7,1558.3,960,1579.1,918.1z"/>
		</g>
		<g id="Pil_Bogstaver">
			<g id="Pil">
				<path id="OrangePil" class="st32" d="M1631.7,1129.1c-4.8-11.8-11.6-22.5-19.4-32.6c-3.5-4.5-7.5-8.7-11.3-13.1
					c-0.8-0.8-1.7-1.5-2.7-2.1c1.3,7.3,1.3,14.5,1,21.8c-0.6-0.2-1-0.3-1.3-0.4c-7.5-2.6-15-5.3-22.6-7.7
					c-17.1-5.4-34.3-10.9-52.3-12.7c-1-0.1-1.2-0.6-0.8-1.5c0.2-0.4,0.4-0.7,0.7-1.1l4.3-4.1l2-1.8c-3.6-2.5-7.3-1.5-11.2-0.5
					c0.6-0.7,0.9-1.2,1.2-1.6l2.7-3.3c0.7-0.9,1.3-1.8,1.8-2.7c0.6-1.2,0.3-1.7-1.1-1.6c-3.6,0.2-7.1,1.3-10.1,3.2h-1.4
					c0.1-1,0.2-2.1,0.2-3.1c0.1-1.7,0.3-3.3,0.3-5c-0.1-1.9-1.1-2.4-2.4-1.1c-1.8,1.7-3.3,3.8-4.9,5.7l-1.1,1.4l-0.9-1.3
					c-1.3-2.5-2.5-5.1-3.9-7.8c-2.3,2.3-3.2,5-3.8,7.8l-0.1,0.5l-0.1,0.4c-0.2,1-0.4,1.9-0.6,2.9c-0.8,1.4-0.8-0.3-1.3-0.3l-5.1-7.5
					l-0.4,0.1c-0.1,2.5-0.2,5.1-0.3,7.6c0,1,0,1.9-0.1,2.9c-0.1,0.6-0.2,1.1-0.3,1.8l-7.6-4.3l-0.3-0.1l0.1,0.3l1.6,5.9l0.1,1.2
					l-9.4-0.5l1.5,4.2c-1.1,1.9-3,1.9-4.8,2c-10.5,0.9-21.1,1.4-31.5,2.6c-21.2,2.4-42,7.3-62,14.7c-12.5,4.6-24.6,10.1-35.8,17.4
					c-0.5,0.3-0.9,0.6-1.3,0.9c0.1,0.2,0.1,0.3,0.1,0.3l2.8,0.8c12.8,3.4,25.6,6.8,38,11.4c2.4,0.9,4.7,2.1,7,3.3
					c0.9,0.4,1.4,1.4,1.3,2.3c-0.6,10.9-1.2,21.8-1.8,32.8c0,0.6,0,1.3,0,2l10-5.2l1.4-0.9l0.3-0.3l0,0c0.4-0.1,0.8-0.2,1.2-0.3
					c3.1-1.4,6.2-3,9.4-4.4c16.2-7.2,32.9-12.9,50.6-15.3c2.2-0.3,4.4-0.5,6.6-0.7l0.3,0.4c-0.7,1.4-1.5,2.8-2.2,4.2
					c0.5,0,0.9-0.1,1.4-0.2c2.5-0.7,5-1.4,7.5-2c0.4,0,0.9,0,1.3,0.2l-4.2,6.3l-0.1,0.3h0.4l6.7-2.8c0.6-0.2,1-0.4,0.9,0.5l-1,4.1
					c-0.5,2-1,4-1.6,6.2l10.2-5.1c0.3,0.9,0.6,1.6,0.8,2.3c0.5,2.1,0.9,4.1,1.5,6.6l4-6.5l1.6-2.2l1.2,2.8c1,2.6,1.9,5.1,3.1,8.1
					l2.6-7.7l1.6-4.4c0.2-0.6,0.4-1.1,0.6-1.6l1.8,0.5c0.1,0.3,0.2,0.7,0.4,0.9c0.9,0.8,1.8,1.5,2.7,2.2l4.7,3.8
					c-0.4-3.1-0.8-5.9-1.2-8.6c0.3-0.2,0.6-0.6,0.9-0.7c0.8-0.1,1.7-0.1,2.6-0.2l9.1-0.5l-3.5-4.1c-0.7-1.1-1.5-2.1-2.1-3.2
					c-0.2-0.5-0.3-1.1-0.3-1.6c0.5-0.1,1-0.2,1.5-0.2c5.3,0.7,10.6,1.1,15.8,2.2c16,3.1,32,6.4,48,9.7c2,0.4,3.9,0.9,6.1,1.4
					c-0.4,0.6-0.6,1-0.8,1.4l-8.6,14.3l-0.2,0.2h0.3c0.1,0,0.2,0,0.3-0.1c19-9.1,37.9-18.1,56.8-27.2c0.6-0.2,0.9-0.7,0.7-1.3
					c0-0.1,0-0.1-0.1-0.2C1634,1136.7,1633.1,1132.8,1631.7,1129.1z"/>
				<g id="BangEffect">
					<path class="st33" d="M1511.5,1067.3h1.4c0.6,0.3,1.2,0.5,1.8,0.6c2,0.1,4.1,0,6.1,0.1c0.5,0.1,1,0.3,1.5,0.5
						c-0.9,1.1-1.8,2.2-2.7,3.3c-0.2-0.1-0.4-0.2-0.7-0.3c-2.4,0-4.7-0.1-7.1,0c-0.3,0-0.6,0.4-0.9,0.5l-5.5-2.2
						c-4.1-0.7-8.3-0.1-12.1,1.8c-0.5-0.3-1-0.9-1.5-0.9c-1.5-0.1-3.1,0-4.6,0c0-1,0-1.9,0.1-2.9l5.7-0.3c0.5,0,0.5,1.7,1.3,0.3
						c5.2,0,10.4,0,15.6,0C1510.5,1067.6,1511,1067.5,1511.5,1067.3z"/>
					<path class="st34" d="M1485,1079.5c-0.5-0.3-1-0.4-1.6-0.6c-3-0.1-6,0-9.1,0c-0.5,0-1,0.1-1.5,0.3l-1.5-4.2l9.4,0.5l-0.1-1.2
						l8.4,0.3l-0.2,0.4l-0.3,0.3l-1.8,2L1485,1079.5z"/>
					<path class="st35" d="M1511.5,1067.3c-0.5,0.2-1.1,0.3-1.6,0.3c-5.2,0-10.4,0-15.6,0c0.2-1,0.4-1.9,0.5-2.9l0.1-0.4l0.1-0.5
						h7.7l0.9,1.3l1.1-1.4c0.5,0.2,1.1,0.3,1.6,0.3c1.8,0,3.6,0,5.4,0L1511.5,1067.3z"/>
					<path class="st36" d="M1510.9,1072c0.3-0.2,0.6-0.5,0.9-0.5c2.4,0,4.7,0,7.1,0c0.2,0.1,0.5,0.1,0.7,0.3l-1.2,1.7
						c3.9-0.9,7.6-2,11.2,0.5l-2,1.8c-0.4-0.2-0.8-0.4-1.3-0.5c-2.2-0.1-4.5-0.1-6.8,0c-1.6,0-3.1,0.2-4.7,0.3L1510.9,1072z"/>
					<path class="st36" d="M1489.1,1074.6l-8.4-0.3l-1.6-5.9l0.2-0.3l7.6,4.3c0.1-0.7,0.2-1.2,0.3-1.8c1.5,0,3.1-0.1,4.6,0
						c0.5,0,1,0.6,1.5,0.9l-1.8,1.3l-0.7,0.5l-0.5,0.4L1489.1,1074.6z"/>
					<path class="st34" d="M1514.9,1075.4c1.6-0.1,3.1-0.3,4.7-0.3c2.2-0.1,4.5,0,6.8,0c0.5,0.1,0.9,0.3,1.3,0.5l-4.3,4.1
						c-1.8-1-3.6-0.6-5.5-0.3L1514.9,1075.4z"/>
					<path class="st37" d="M1502.8,1063.9h-7.7c0.6-2.8,1.5-5.5,3.8-7.8L1502.8,1063.9z"/>
					<path class="st37" d="M1511.8,1064.2c-1.8,0-3.6,0-5.4,0c-0.6-0.1-1.1-0.2-1.6-0.3c1.6-1.9,3.1-4,4.9-5.7
						c1.4-1.3,2.4-0.8,2.4,1.1C1512.1,1060.9,1511.9,1062.5,1511.8,1064.2z"/>
					<path class="st35" d="M1522.3,1068.5c-0.5-0.2-1-0.4-1.5-0.5c-2-0.1-4.1,0-6.1-0.1c-0.6-0.1-1.2-0.3-1.8-0.6
						c3.1-1.9,6.5-3,10.1-3.2c1.4-0.1,1.7,0.4,1.1,1.6C1523.6,1066.7,1523,1067.6,1522.3,1068.5z"/>
					<path class="st35" d="M1493.1,1067.3l-5.7,0.3l0.3-7.6l0.4-0.1L1493.1,1067.3z"/>
					<path class="st37" d="M1493,1157.2c1.5,0,3,0,4.5,0c0.4,0,0.7-0.2,1.1-0.1c-0.8,2.4-1.9,4.7-2.9,7.5
						C1494.7,1161.7,1494,1159.7,1493,1157.2z"/>
					<path class="st37" d="M1484.1,1156.6h5.5l-4,6.6L1484.1,1156.6z"/>
					<path class="st33" d="M1505.6,1149.5c0.9,0.1,2.2,0.6,3.1,0.7c0.4,2.7,0.8,5.5,1.2,8.6l-4.7-3.8c-0.9-0.7-1.8-1.4-2.7-2.2
						c-0.2-0.2-0.3-0.6-0.4-0.9C1503.2,1151,1504.3,1150.2,1505.6,1149.5z"/>
					<path class="st38" d="M1488.5,1152.5c3.7,1.3,7.7,1.6,11.5,0.6c-0.6,1.5-1.5,2.6-2,4c-0.4-0.1-0.4,0-0.8,0c-1.5,0-3,0-4.5,0
						l-1.3-2.7l-1.6,2.2h-5.5c-0.2-0.7-0.2-1.9-0.5-2.8l-10.2,5.1c0.6-2.2,0.8-3.8,1.3-5.8c4.1,0,8.2,0,12.3-0.1
						C1487.9,1152.8,1487.8,1152.9,1488.5,1152.5z"/>
					<path class="st34" d="M1505.6,1149.5c2.3-2.1,4.1-3.4,5.9-5.4c1,0.2,1.9,0.4,2.9,0.6c1.1,0.1,2.3-0.1,3.4-0.2
						c1.1,1.3,2.4,3.1,3.7,4.6l-9.6,0.6c-0.9,0-1.7,0.3-2.5,0.5c-0.3,0.1-0.5-0.2-0.8,0C1507.6,1150.1,1506.5,1149.6,1505.6,1149.5z
						"/>
					<path class="st34" d="M1472.1,1144.8h6.1l4,4.2c-0.3,0.2-0.7,0.6-1,0.6c-1.5,0.1-3,0.1-4.5,0c-0.3,0-0.6-0.4-0.9-0.6
						c0.2-0.9-0.3-1.3-0.9-1c-2.2,0.9-4.7,2.1-6.9,3l0,0C1469.3,1148.9,1470.7,1146.9,1472.1,1144.8z"/>
					<path class="st36" d="M1475.8,1149.1c0.3,0.2,0.6,0.6,0.9,0.6c1.5,0.1,3,0.1,4.5,0c0.4,0,0.7-0.4,1-0.7l6.3,3.6
						c-0.4,0.3-0.9,0.5-1.4,0.6c-4.1,0-8.3,0-12.4,0L1475.8,1149.1z"/>
				</g>
				<path id="PilCurve" class="st39" d="M1631.7,1129.1c-4.8-11.8-11.6-22.5-19.4-32.6c-3.5-4.5-7.5-8.7-11.3-13.1
					c-0.8-0.8-1.7-1.5-2.7-2.1c1.3,7.3,1.3,14.5,1,21.8c-0.6-0.2-1-0.3-1.3-0.4c-7.5-2.6-15-5.3-22.6-7.7
					c-17.1-5.4-34.3-10.9-52.3-12.7c-1-0.1-1.2-0.6-0.8-1.5c0.2-0.4,0.4-0.7,0.7-1.1l4.3-4.1l2-1.8c-3.6-2.5-7.3-1.5-11.2-0.5
					c0.6-0.7,0.9-1.2,1.2-1.6l2.7-3.3c0.7-0.9,1.3-1.8,1.8-2.7c0.6-1.2,0.3-1.7-1.1-1.6c-3.6,0.2-7.1,1.3-10.1,3.2h-1.4
					c0.1-1,0.2-2.1,0.2-3.1c0.1-1.7,0.3-3.3,0.3-5c-0.1-1.9-1.1-2.4-2.4-1.1c-1.8,1.7-3.3,3.8-4.9,5.7l-1.1,1.4l-0.9-1.3
					c-1.3-2.5-2.5-5.1-3.9-7.8c-2.3,2.3-3.2,5-3.8,7.8l-0.1,0.5l-0.1,0.4c-0.2,1-0.4,1.9-0.6,2.9c-0.8,1.4-0.8-0.3-1.3-0.3l-5.1-7.5
					l-0.4,0.1c-0.1,2.5-0.2,5.1-0.3,7.6c0,1,0,1.9-0.1,2.9c-0.1,0.6-0.2,1.1-0.3,1.8l-7.6-4.3l-0.3-0.1l0.1,0.3l1.6,5.9l0.1,1.2
					l-9.4-0.5l1.5,4.2c-1.1,1.9-3,1.9-4.8,2c-10.5,0.9-21.1,1.4-31.5,2.6c-21.2,2.4-42,7.3-62,14.7c-12.5,4.6-24.6,10.1-35.8,17.4
					c-0.5,0.3-0.9,0.6-1.3,0.9c0.1,0.2,0.1,0.3,0.1,0.3l2.8,0.8c12.8,3.4,25.6,6.8,38,11.4c2.4,0.9,4.7,2.1,7,3.3
					c0.9,0.4,1.4,1.4,1.3,2.3c-0.6,10.9-1.2,21.8-1.8,32.8c0,0.6,0,1.3,0,2c3.5-1.8,19.2-9.6,22.3-11c16.2-7.2,32.9-12.9,50.6-15.3
					c2.2-0.3,4.4-0.5,6.6-0.7l0.3,0.4c-0.7,1.4-1.5,2.8-2.2,4.2c0.5,0,0.9-0.1,1.4-0.2c2.5-0.7,5-1.4,7.5-2c0.4,0,0.9,0,1.3,0.2
					l-4.2,6.3l-0.1,0.3h0.4l6.7-2.8c0.6-0.2,1-0.4,0.9,0.5l-1,4.1c-0.5,2-1,4-1.6,6.2l10.2-5.1c0.3,0.9,0.6,1.6,0.8,2.3
					c0.5,2.1,0.9,4.1,1.5,6.6l4-6.5l1.6-2.2l1.2,2.8c1,2.6,1.9,5.1,3.1,8.1l2.6-7.7l1.6-4.4c0.2-0.6,0.4-1.1,0.6-1.6l1.8,0.5
					c0.1,0.3,0.2,0.7,0.4,0.9c0.9,0.8,1.8,1.5,2.7,2.2l4.7,3.8c-0.4-3.1-0.8-5.9-1.2-8.6c0.3-0.2,0.6-0.6,0.9-0.7
					c0.8-0.1,1.7-0.1,2.6-0.2l9.1-0.5l-3.5-4.1c-0.7-1.1-1.5-2.1-2.1-3.2c-0.2-0.5-0.3-1.1-0.3-1.6c0.5-0.1,1-0.2,1.5-0.2
					c5.3,0.7,10.6,1.1,15.8,2.2c16,3.1,32,6.4,48,9.7c2,0.4,3.9,0.9,6.1,1.4c-0.4,0.6-0.6,1-0.8,1.4l-8.6,14.3l-0.2,0.2h0.3
					c0.1,0,0.2,0,0.3-0.1c19-9.1,37.9-18.2,56.8-27.2c0.6-0.2,0.9-0.7,0.7-1.3c0-0.1,0-0.1-0.1-0.2
					C1634,1136.7,1633.1,1132.8,1631.7,1129.1z"/>
			</g>
			<g id="Font_pink">
				<g id="shadeEffect">
					<path class="st40" d="M1515,1074.8l3,4c3.6,6.5,5.2,13.4,5.5,20.8c0,0.4,0.1,0.7,0.3,1.1c0.1,0.5,0.1,1,0,1.4
						c-1.3,4.6-2.6,9.3-4,13.9c-0.5,1.7-1.1,3.4-1.7,5.1l0,0c0.2-1.5,0.4-2.9,0.7-4.4c1.4-6.5,2-13.1,1.7-19.7
						c-0.2-5.3-1.3-10.6-3.4-15.6c-0.7-1.7-2-3.1-3-4.7l-0.9-1.2c-0.1-0.2-0.2-0.4-0.3-0.6c-0.8-1.3-1.6-2.5-3.2-2.9
						c-0.3-0.4-0.6-0.8-0.9-1.1c-1-0.7-2.1-1.3-3.1-2l5.5,2.2L1515,1074.8z"/>
					<path class="st41" d="M1442.6,1095.2c2.5-0.2,5.2,1.1,6.4,3c0.8,1.4,1.6,2.8,2.5,4.1c-0.1-1.4-0.3-2.8-0.4-4.2
						c-0.2-1.2-0.3-2.4-0.4-3.5c0-0.8,0.5-1.6,0.8-2.3c0.7,5.9,1.4,12.6,2.1,18.6c-0.5-0.2-0.8-1.1-1.1-1.2l0.1-0.1l-0.5-0.9l0,0
						c-0.6-1.1-1.2-2.3-1.9-3.3c-0.9-1.6-1.7-3.5-2.7-5l0,0l-1.2-2l0,0l-0.4-0.8l0,0l-0.5-0.6l-0.5-0.5
						C1444.5,1095.9,1443,1095.6,1442.6,1095.2z"/>
					<path class="st41" d="M1464.1,1090.7c1.2,0.1,2,0.3,2.3,1.5s-0.2,2.1-1.2,2.9c-1.2,0.9-2.3,1.8-3.4,2.7l0,0l-1,0.6v0.7h-0.1
						l-0.6,0.5l0,0c-0.2,0.1-0.4,0.2-0.5,0.4l0,0c-0.4,0.1-0.4,0.8-1,0.8c-0.2-1.7-0.7-4-0.9-5.6l0,0l1.4-1l0,0l1.2-0.8l0,0l0.6-0.5
						l0,0l2-1.5l0,0C1463.7,1091.6,1464.2,1091.6,1464.1,1090.7z"/>
					<path id="O_inside_Shade" class="st42" d="M1508.3,1105c-0.4-2.4-0.9-4.9-1.4-7.2c-0.7-2.7-2.1-5.1-4.1-7
						c-1.6-1.6-2.2-1.6-3.6,0.2c-4,5-6.4,10.8-8.3,16.8c-1.5,4.6-2.2,9.3-2.2,14.1c0.1,4.6,3.2,10.7,7.2,13.5
						c-1.1-0.6-4.2-1.6-5.2-2.4c-3-2.6-4.4-7.4-4.5-11.3c-0.5-11.8,3.4-22.3,9.8-32.1c0.3-0.4,0.7-0.8,1-1.2
						c1.9-2.7,3.8-2.6,6.1,0.2c2.6,3.2,4.3,7.1,4.7,11.3C1508.1,1101.6,1508.3,1103.3,1508.3,1105z"/>
					<path class="st40" d="M1433.2,1120.5c0.1,0.2,0.5,1.1,0.6,1.2c-0.3,0.4-0.8,0.3-1.2,0.4c-1.1,0.3-2.3,0.5-3.4,0.6
						c0.6-2.1,1.2-4.1,1.8-6.3C1431.8,1118,1432.5,1119.2,1433.2,1120.5z"/>
					<path class="st43" d="M1558.1,1118.6c1.6-0.3,1.8-0.1,1.4,1.4c-0.4,1.7-0.8,3.5-1.2,5.2c-2.9,0-3-0.1-2-2.9
						C1556.9,1121.1,1557.5,1119.8,1558.1,1118.6z"/>
					<path id="Shadow6" class="st40" d="M1397.4,1149.5c-0.3-4.5-0.6-8.9-0.8-13.4c-0.1-4.2-2.1-7.4-4.9-10.2
						c-3.2-3.1-6.5-6.2-9.7-9.3c-0.6-0.6-1.1-0.5-1.8-0.2c-1.6,0.6-2.7,1.6-2.9,3.4c-0.1,0.7-0.3,1.4-0.6,2.1
						c-0.7,1.9-3,2.4-4.2,0.8c-1.7-2.3-3.3-4.7-4.7-7.2c-0.3-0.6,0.4-2.1,0.5-2.9c0.4,0.5,0.4,0.5,0.9,0.9c0.6,0.7,0.9,1.4,1.5,2.1
						v0.1l0.6,0.9v0.1l0.1-0.1l0.5,1l0,0l0.6,0.9l0,0l0.8,1.8c0.6-0.7,1-1.5,1.2-2.4c0.3-2.6,1.8-4.1,4.2-5c1.1-0.4,2.1-1,3.2-0.2
						l0,0l0.3,0.3l0,0l0.7,0.5l-0.1,0.1l0.1-0.1l0.5,0.4l0,0l1.5,1.3l0,0l1.1,1l0,0l0.3,0.3l0,0c0.2,0.4,0.4,0.8,0.7,1.2
						c1.8,1.8,3.6,3.7,5.4,5.5c0.4,0.3,0.8,0.5,1.2,0.7l0,0l0.7,0.8l0,0l0.8,1l0,0l1.5,2.4l0,0l0.3,0.6l0,0l0.5,1.8
						c0,0.1,0,0.2,0,0.2c0,0.5,0,1,0,1.5c0.4,5.4,0.8,10.8,1.1,16.2C1398.2,1148.6,1397.7,1149.1,1397.4,1149.5z"/>
					<path id="Shadow7" class="st40" d="M1405.3,1113.4l0.3,0.3c0.1,0.2,0.2,0.4,0.3,0.6c1.8,3.1,2.6,6.7,2.3,10.3
						c-0.1,1.8-0.4,3.5-0.6,5.2l-1.8,5.6l-0.3,0.1c-3.4-7.9-6.6-16.5-10-24.6c2.7-0.8,5.6-0.4,8,1.1c0.4,0.3,1.2,1,1.6,1.2
						L1405.3,1113.4z M1399.1,1114.9l7.2,17.1c0.9-4,1.3-7.6,0.6-11.2C1406.1,1116.8,1403.3,1114.6,1399.1,1114.9L1399.1,1114.9z"/>
					<path id="Shadow5" class="st40" d="M1531.4,1090c3,0.2,4.9,2,4.9,4.9c0,2.4,1.3,5.3,2.6,7.2c0,0.4-0.7,0.8-0.7,0.8
						c-0.8,0.6-2.9-2.7-3-3c-1.3-2-1.9-4.3-1.9-6.6c0-0.6-0.6-1.2-0.9-1.8l0,0l-0.3-0.3l-0.1,0.1L1531.4,1090z"/>
					<path id="Shadow4" class="st41" d="M1612.4,1116c1.1,0.2,2.2,0.5,3.2,1c1.8,1,2.2,1.5,3.9,2.7c1,0.7,1.4,2,0.9,3.2
						c-0.7,2.2-1.4,4.4-2.2,6.5c-0.5,1.3-1.6,2.1-2.7,1.9c-1.2-0.2-2.2-1.3-2.1-2.5c0-0.1,0-0.3,0-0.4c-0.2-3.9-1.9-5-5.6-3.8
						c-3.3,1.2-6.1,3.3-8.3,6c-1.2,1.4-1.6,3.3-1.2,5.2c0.2,0.8,1,1.5,1.6,2.2c0.5,0.3,1,0.6,1.5,0.8c-0.3,0.1-0.7,0.3-1,0.1
						c-1.3-0.6-2.6-1.2-3.9-1.8l-0.3-0.3l-0.6-0.6c-0.1-1.2-0.5-2.5-0.3-3.6c0.4-1.7,0.9-3.4,1.5-5l0.9-1.2l0.3-0.3l0.3-0.3l1.2-0.8
						l0.3-0.3l0.6-0.6l0.3-0.3l2.3-1.4l0.3-0.3l1.7-0.9c0.7-0.1,1.4-0.2,2.1-0.3c2-0.4,3.9-0.5,5.7,0.7l0.3,0.3l0.3,0.3
						c1.6,2,2.2,4.5,1.8,6.9c0.3-0.2,0.1,1.1,0.1,1c1-3,1.4-6.8,2.4-9.8c0-0.1-0.3-0.3-0.4-0.5l-0.3-0.3l-1.2-0.9l-2.6-1.7
						C1612.3,1116.4,1613.2,1116.5,1612.4,1116z"/>
					<path id="Shadow2" class="st40" d="M1394.3,1163.6c-1.9-0.8-2.5-2.5-2.8-4.5c-0.1-0.9-0.6-1.9-0.6-2.8c0-0.7,1.3-2.4,1.6-2.9
						c0.4,1.9,1,3.5,1.5,5.7l0,0l0.3-0.3l0.3-0.3l0.3-0.3l0.3-0.3l0.3-0.3l0.3-0.3l0.3-0.3l0.3-0.3l0.3-0.3c0.6-0.6,1.2-1.2,1.7-1.8
						l2.6-2.3l1.9-1.4l2-1.4l2-1.4l2-1.4l3.5-2.3l0.6-0.6c0.5-0.1,0.9-0.3,1.3-0.6c1.1-1.2,2.2-2.4,3.3-3.7c0.2-0.4,0.4-0.8,0.6-1.3
						c0.4-1.6,0.9-3.3,1.3-5c1.7-7.3,3.5-14.6,5.2-21.9c0.4-1.7-0.4-3.1-1.8-4.2l-1.1-1c-3-3.1-6.7-5-10.7-6.8
						c-1.4-0.6-2.4-1.2-3.7-1.9c0.9,0,1.8,0.1,2.7,0.2c5.3,2.1,9.6,4.1,13.8,7.9c1.1,1.1,2.2,2.3,3.2,3.6c-0.4,0.8-0.8,1.6-1.1,2.5
						c-1.7,6.6-3.4,13.3-5.1,19.9c-0.5,2-0.9,4.1-1.2,6.1c-0.1,0.4,0.6,1.2,0.8,1.2c1.8-0.3,3.5-0.7,5.2-1.1l1.4-1.2
						c0.5-0.7,0.4-1.7,0.7-2.5c0.6-2.2,0.9-4.3,1.4-6.5c0.1-0.4,1.2-0.6,1.5-0.8c0.9-0.4,1.9-0.6,2.7-0.9c0.9,1.2,1.6,2.3,2.4,3.4
						l0.6,1.2l1.2,1.7c0.2,0.9,1.1,1.5,2,1.4l0,0c0.9-0.1,1.9-0.3,2.8-0.5c1.3-0.3,0.8-1.9,0.4-3.3c-1.3-4-2.4-7.7-3.9-11.6
						c-1.4-3.8-3.2-6.4-4.8-10.1c0.5,0.1,1,0.1,1.5,0.1c0.4-0.1,0.7-0.5,0.6-0.9v-0.1c-0.5-1.7-1.3-3.8-1.7-5.2
						c-0.4-1.4,0.6-3.3,1.6-4.4c0.2,1.2-0.3,2.8,0.1,4c2.2,6.7,7.3,21.7,7.4,22c0.2,2.9,3.4,5.6,1.3,8.9c-0.4,0.6,0,1.4,0.8,0.9
						s1.9-0.3,2.9-0.6c1.5-0.5,2.9-0.7,4.4-1.2l0.2-1.2c-0.6-0.6-1.5,0.1-1.8-0.6c-0.9-2.5-2.1-6.2-2.8-8.8
						c-0.1-0.2-0.6-1.3-0.4-1.5c0.3-0.1,1.5,0.9,1.8,0.8l1.2,0.9l0,0l1.7,1.4l0.9,0.6l0.8,0.9l1.7,1.1l0.6,0.6
						c0.2,0.1,0.8,0.6,1,0.7c-0.1,0.6-0.6,0.7-0.7,1.2c-0.4,1.7,0,1.8,1.7,1.7c2.5-0.2,5-0.9,7.2-2.2c0.2-0.3,0.2-0.6,0-0.9
						c-0.3-0.3-0.9-0.2-1.3-0.5s-0.7-0.7-1-1.1c-0.4-1.1-0.5-1.7-1-3.2c4,1.7,7.9,1,11.6-0.7c0,0.9,0,1.5,0,2.1
						c-0.1,4.1,0.4,8.1,1.5,12c0.5,1.7,1.5,3.2,2.3,4.8c0.2,0.4,0.4,0.8,0.6,1.2l0.3,0.3l0.3,0.6l0.6,0.6l1.8,2.2l0.2,0.1l0.9,0.6
						l0.6,0.6c5.5,4.5,13,5.1,19,1.4c0.2-0.1,0.2-0.4,0.3-0.6l2.6-2l0.3-0.3l0.3-0.3c0.2-0.2,0.4-0.4,0.6-0.6l0,0l1.4-1.7l0.9-1.1
						l0.6-0.6l0.6-0.9c0.2-0.2,0.4-0.5,0.6-0.7c2.8-4.6,4.6-9.7,6-14.9c0.2-0.9,0.6-1.7,0.8-2.5l0,0c0,3,1,4.2,3.5,4.3l0,0l1.2,0.3
						c0.1,0,0.2,0,0.2,0l1.5,0.2l0,0l1.5,0.3l0,0l1.2,0.3h0.1h0.1l1.2,0.3l0,0l1.2,0.3h0.1h0.1l0.9,0.3h0.1h0.1l0.9,0.3l0,0h0.1
						c0.3,0.1-2.5-3.5-2.6-3.7c-1.3-1.2-0.3-2.9,0.8-4.1c0.5-0.5,1.6-1.4,1.9-2.1l0,0c0.1-0.2,0.2-0.4,0.4-0.5l0,0l1.6-0.3l0,0
						l0.6,0.9l0,0c0.2,2,0.9,3.1,2.1,3.4l0,0c1.2,1.1,2.2,0.2,3.3-0.2c0.7-0.4,1.4-0.8,2.1-1.3c-0.1,2.2-0.2,4.1-0.3,6
						c0,0.1,0,0.2,0,0.2l-1.5,3.7c0.2-1.5,0.4-3,0.7-4.5c-4.7,0.1-4.8,0-6.8-3.1c-1.3,1.3-1,1,0.7,3.3c0.6,0.8,1.2,1.5,1.8,2.2
						c0.9,1.1,1.2,2.2,0.4,3.4c-0.7,1.1-1.8,1.1-3,0.8c-3.7-0.9-7.5-1.7-11.2-2.5c-1.2-0.3-2.4-0.7-3.7-1.1
						c-1.6,5.6-4,10.9-7.3,15.8l-7.3,6.6l-1.8,1l-1.9,0.1c-0.2,0.5-0.3,0.4-0.5,1c-3.8,1-7.9,0.7-11.5-0.7c-2.7-1.5-5.2-3.2-7.5-5.1
						l-2.4-2.5c-3.6-5.8-4.5-12.3-4.8-19c-0.9,0.1-1.7,0.3-2.4,0.4c-0.7,0.1-1.6,0-2.5,0c1.8,3.1,1.5,4.2-1.5,5.8
						c-0.1,0.1-0.2,0.1-0.3,0.1c-3.3,1.1-6.6,2.8-10.2,0.8c-0.2,1.4-0.8,2.5-2.2,3c-1.6,0.5-3.3,1.1-5,1.4c-1.3,0.3-2.8,0.8-3.9,0.4
						c-1.3-0.4-2.8-0.5-4.1-0.1c-1.9,0.4-3.5-0.1-4.7-1.8c-1-1.5-1.9-3.1-2.9-4.6c-0.2-0.3-0.5-0.5-0.8-0.7
						c-0.3,0.3-0.5,0.6-0.6,0.9c-0.4,1.5-0.7,3-0.9,4.5c-1,6-5.3,6.8-10.3,7.1c-0.8,0-1.3,0.1-1.8,0.7c-2.4,2.9-5.5,5.1-8.6,7.2
						c-5.2,3.6-10.5,7.2-14.7,12.1l0,0l-0.8,0.8L1394.3,1163.6z M1453.5,1126.6c0.2,1.9,0.8,3.4,2.7,3.9
						C1456.7,1128.7,1457.3,1129.2,1453.5,1126.6z"/>
					<path id="Shadow1" class="st41" d="M1585.7,1119.9c0.6,0.1,2.1-0.2,2.7-0.1v-4.7c-2.3-0.7-4.8-1.5-7.3-2.3
						c-1.1-0.3-1.8-0.1-2.1,1.2c-1.6,6.9-3.4,13.9-5,20.8c-0.1,0.6,0,1.3,0.3,1.8c0.8,1.4,0.7,2.5-0.4,4.1s-2.2,2.1-3.7,1.7
						c-2.2-0.5-4.3-1.1-6.5-1.7c-0.4-0.1-0.8-0.1-1.1,0.1c-3.3,2.4-5.6,1.9-7.4-1.6c-2,2.2-3.8,2.6-6.4,1.5
						c-1.8-0.8-2.6-2.3-2.5-4.8l-6,4.3c-0.4,0.3-0.9,0.6-1.3,0.9c-1.9,1.5-2.7-1.6-2.5-3.8c0.8-0.7,0,0.4,0.8-0.3l0,0l2-1.4l0,0
						l2-1.5l0,0l0.5-0.4l0,0l0.6-0.5l0,0l1.5-1.2l0,0c1.1-0.9,2.2-1.9,3.1-3l0,0l1.7-2.3l0,0c0.5-0.5,0.9-1,1.3-1.5
						c2.1-3.1,3-6.8,4-10.3c1.5-4.9,2.4-9.9,1-15c-0.4-1.1-0.9-2.1-1.5-3.1v-0.1l-0.1,0.1l-0.5-0.6l0,0l-0.3-0.3l0,0l-0.3-0.3l0,0
						c-0.3-0.4-0.6-0.7-1-1c-0.5-0.4-1.6-0.3-2.1-0.6c3.3,0.4,6.4,1.3,7.8,4.5c0.1,0.2,1.9,0.5,2.1,0.6c0,0.8,0,1.6,0.1,2.4
						c0.4,0.4,0.5,0.8,0.9,1.2c0.4,0.2,0.2,0.3,0.6,0.5c2.4,1.2,5,2.2,7.5,3.1c0.1,0.1,0.8,0.3,0.9,0.4c1.3,1.9,1.2,4.5,0.7,6.8
						c-0.2,0.8-0.4,1.6-0.7,2.4c0.1-1.2-0.6-3.4-0.5-4.6c0.1-1-0.6-1.8-1.6-2c-2.9-0.6-5.7-1.3-8-3.1c-0.5,2.7-0.9,5.4-1.4,8.1
						c0,0.2,0,0.4,0,0.6c-0.1,0.1-3.3,7-3.4,7.2l-0.3,0.6l-0.3,0.6c-0.2,0.2-5,9.2-5.4,10.1l-0.3,0.6c-0.1,0.1,0.5,0.7,0.1,0.5
						c0,1.1-0.6,1.3,0.2,1.7c1.6,0.9,3.4,1.1,3.9,0.7c0.6-1,1.2-2.1,1.7-3.1c0.2-0.2,0.4-0.5,0.6-0.7c0.5-1,1.7-1.5,2.8-1.2
						c0,0.4-0.1,1.3-0.1,1.7c-0.1,1.1-0.2,2.1-0.2,3.2c0,0.6,0.1,1.3,0.3,1.3c0.7,0.1,1.5,0.1,2.2,0c0.3-0.5,0.6-1,0.8-1.6
						c0.5-2.3,0.8-4.6,1.5-6.8c1.2-4.1,2.6-8.2,3.8-12.3c0.3-1,0.2-2.1-1-2.6c-0.3-0.4-0.7-0.7-1.1-1.1c-0.5-0.3-1-0.6-1.6-0.8
						c2,0,3.8,0.7,5.3,2.1c0.3,0.3,1.9,1.2,1.8,1.6c-1.1,3.7-2.1,7.5-3.2,11.2c-1.2,4.2-1.5,4.6-3.8,6.1c-0.1,0.1,0.7-0.8,0.6-0.7
						c-0.7,0.8-0.7,2.1,0.2,2.8c0.1,0.1,0.3,0.2,0.4,0.3c2.5,1.6,4.8,1.6,7.6,1.9c1.2,0.1,1.1-1.2,0.5-2.3c-0.5-0.8-0.6-1.7-0.5-2.6
						c1.6-7,3.3-14,5.1-21c0.7-2.8,1.6-3.4,4.4-2.9c0.6,0.2,1.2,0.4,1.8,0.6c1.5,0.5,3,1.1,4.5,1.2c0.9,0.1,2.3,0.3,2.8-1l0.6-0.3
						l2-3.5c-1.6-0.4-2.9-0.7-4.2-1.1c-8-2.2-16-4.3-24-6.5c-0.8-0.3-1.6-0.7-2.3-1.2c2.5,0.7,5,1.5,7.6,2.2c7.6,2,15.2,4,22.8,6
						c2.7,0.7,3.3,1.8,2.2,4.4c-0.2,0.5-0.4,1.1-0.6,1.6c4.1,0.8,5.6,2.9,5.1,7.1c0,0.2,0,0.4,0.1,0.6c-0.1,0,0.1,0.6,0.1,0.7
						c-0.1,0.1-3.8,4.6-3.9,4.8h-1h-1.6c-1.6,2.1-3.1,4.2-4.6,6.3c-1.6,2.3-1.1,5.2,1.8,6.9c0.3-1.5,1-4.3,1.4-5.9
						c0.1,0.6,0.1,1.1,0.1,1.7c-0.3,2.3-0.2,4.3,1.5,6c0.7,0.6,1.1,0.9,1.7,1.5c0.4,0.3,1,0.7,1.4,1c1.9,1.6,3.6,2.2,6.1,2.3
						c5,0.3,9.5-1.1,13.9-3.2c0.3-0.1,0.5-0.5,0.7-0.8l2-1.4l0.6-0.3l0.3-0.3c1.8-1.5,1.9-4.6,2-6.6c1.9-0.1,2.6,1.8,2.6,3.6
						c0,3-0.9,5.5-3.5,7.3c-4.5,3.3-9.8,5.2-15.3,5.6c-6.7,0.4-11.9-2.6-15.4-8.3c-1.6,2.5-4,3.1-6.9,1.8c-0.9-0.5-1.9-1-2.8-1.4
						c-3.8-1.2-4.2-7.1-2.4-11c0,0.6,0,1.1,0,1.7c-0.2,1.8-0.2,3.2,1,3.8c0.3,0.3,0.6,0.6,0.9,0.8c1.1,0.7,2.3,1.3,3.6,1.8
						c0.9,0.3,1.8,0.4,2.8,0.3c0.3,0,0.8,0.2,0.7,0.1c-0.2-0.4-0.5-0.7-0.8-0.9l-0.5-0.5l-0.3-0.4l0,0l-0.3-0.3l0,0
						c0-0.2,0.1-0.4,0-0.6c-1.4-2.4-1.1-4.7,0.4-6.9c0.1-0.3,0.2-0.6,0.2-0.9l0,0l0.5-0.6l0,0l0.9-1.4l0,0l1.4-1.8l0,0l0.3-0.3l0,0
						c1.2-0.7,1.3-1.5,0.3-2.2l0,0l-0.3-0.3l0,0C1587.8,1120.6,1586.2,1120.4,1585.7,1119.9z M1592.8,1113.3c-2.1,0-3.5,0.6-3.2,2.6
						c0.2,1.4,0.7,2.7,1.3,3.9c0.6,1.1,1.6,1.3,2.3,0.3c0.9-1.1,1.6-2.4,2.1-3.8C1595.8,1114.2,1594.6,1113.3,1592.8,1113.3
						L1592.8,1113.3z"/>
					<path id="Shadow3" class="st40" d="M1464,1116.3l-0.3-0.3c-2-3.2-3-6.6-2.3-10.3l0.6-0.6l0.3-0.6l1.7-1.7l0.6-0.3l0.6-0.6
						c1.1-0.4,2.8-1.3,3.9-1.5c1.7-0.3,3,0,4.7-0.2l0.6,0.9l0.3,0.3l0.3,0.6l0.3,0.3l0.3,0.6l0.3,0.6c0.1,0.1,0.6,2,0.6,2.1
						c-0.1,1.2-0.1,0.6-0.3,1.8c-0.4,3.2-0.7,5.7-1.2,8.9c-0.3,0.6-0.7,1.1-1.2,1.6c0-0.4,0-0.8,0.1-1.1c0.2-2.4,0.5-4.8,0.7-7.2
						l0.2-0.4l-0.1-0.1l-0.1,0.4c-1.2,1.4-2.9,1.5-4.5,1.9c-3.3,0.8-4.8-0.6-4.4-3.9c0-0.1-0.1-0.1-0.4-0.6c-0.4,1.2-1,2.1-1,3.1
						c0.1,3.6,1,6.8,4.9,8.2c-0.9-0.1-1.8-0.2-2.7-0.4c-0.5-0.1-1.1-0.3-1.6-0.5L1464,1116.3z M1468.6,1105.4l-0.9,0.3
						c-1.1-0.2-0.8,0.2-0.8,1c0,0.3,0.1,0.7,0.3,0.6c1.5-0.2,4.2,0.5,4.2-1c0-0.6,0-0.4-0.3-0.9l-0.3-0.3c-0.2-0.3-0.4-0.2-0.6-0.4
						c-0.3,0.3-0.6,0.1-0.9,0.4L1468.6,1105.4z M1471.6,1103.9l3.5,2.8c0.1-1.5-1.1-2.9-2.6-2.9
						C1472.2,1103.8,1471.9,1103.9,1471.6,1103.9z"/>
					<path id="shadeA2" class="st41" d="M1559.6,1119.5c1.5-0.3,1.8-0.1,1.4,1.4c-0.4,1.7-0.8,3.5-1.2,5.2c-2.9,0-3-0.1-2-2.9
						C1558.4,1122,1559,1120.8,1559.6,1119.5z"/>
				</g>
				<g id="letter_c2">
					<polyline class="st44" points="1600.2,1144.4 1599.8,1144.3 1599.4,1144.1 1599,1144 1598.5,1143.8 1598,1143.6 1597.6,1143.4 
						1597.1,1143.1 1596.6,1142.9 1595.6,1142.3 1594.7,1141.7 1593.9,1141 1593.2,1140.3 1592.6,1139.6 1592.1,1138.9 
						1591.6,1138.1 1591.3,1137.4 1591.3,1137.2 1591.2,1137 1591.2,1136.8 1591.2,1136.6 1591.1,1136.2 1591.1,1135.8 
						1591.1,1135.3 1591.1,1134.7 1591.1,1134 1591.1,1133.4 1591.2,1132.9 1591.2,1132.4 1591.3,1132.1 1591.4,1131.7 
						1591.5,1131.3 1591.6,1130.8 1592.1,1129.7 1592.6,1128.5 1593.3,1127.3 1594.1,1126 1595,1124.8 1596,1123.5 1597,1122.2 
						1598.1,1121 1598.5,1120.7 1598.8,1120.3 1599.2,1120 1599.6,1119.6 1599.9,1119.3 1600.2,1119.1 1600.5,1118.8 1600.8,1118.7 
						1601.2,1118.4 1601.9,1118.2 1602.6,1117.9 1603.5,1117.6 1604.4,1117.2 1605.4,1117 1606.2,1116.7 1607,1116.5 1607.3,1116.4 
						1607.6,1116.4 1607.9,1116.3 1608.2,1116.3 1608.6,1116.3 1609,1116.3 1609.6,1116.3 1610.3,1116.3 1610.6,1116.3 
						1610.8,1116.3 1611.1,1116.3 1611.4,1116.3 1611.7,1116.3 1612,1116.3 1612.3,1116.3 1612.5,1116.3 1612.7,1116.3 
						1612.8,1116.4 1612.9,1116.5 1613,1116.5 1613.1,1116.6 1613.3,1116.7 1613.4,1116.7 1613.5,1116.8 1614.2,1117.2 1615,1117.7 
						1615.9,1118.2 1616.7,1118.8 1617.4,1119.3 1618,1119.8 1618.4,1120.2 1618.6,1120.4 1618.6,1120.5 1618.5,1120.8 
						1618.4,1121.2 1618.3,1121.7 1618.1,1122.3 1617.8,1123.1 1617.6,1124 1617.2,1124.9 1616.7,1126.7 1616.2,1128 1615.9,1129 
						1615.7,1129.6 1615.5,1130 1615.4,1130.1 1615.4,1130.2 1615.3,1130.2 1615.2,1130.2 1615.1,1130.1 1615,1130.1 1615,1130 
						1615,1129.8 1615,1129.7 1615,1129.4 1615,1129.2 1615.1,1128.3 1615.1,1127.4 1615.1,1126.6 1615,1125.8 1614.8,1125 
						1614.7,1124.3 1614.4,1123.7 1614.1,1123.2 1613.8,1122.7 1613.4,1122.3 1613,1121.9 1612.5,1121.6 1612,1121.4 1611.4,1121.3 
						1610.8,1121.2 1610.2,1121.2 1609.6,1121.2 1609,1121.3 1608.4,1121.3 1607.8,1121.5 1607.2,1121.6 1606.6,1121.9 1606,1122.1 
						1605.4,1122.4 1604.6,1122.8 1603.9,1123.2 1603.1,1123.7 1602.4,1124.2 1601.7,1124.8 1600.9,1125.4 1600.2,1126.1 
						1599.4,1126.9 1598.9,1127.3 1598.6,1127.7 1598.3,1128 1598.1,1128.2 1598,1128.5 1597.8,1128.7 1597.7,1128.9 1597.5,1129.3 
						1597,1130.5 1596.7,1131.7 1596.5,1132.8 1596.4,1133.8 1596.6,1134.8 1596.9,1135.7 1597.3,1136.5 1598,1137.2 1598.5,1137.7 
						1599.1,1138.1 1599.8,1138.5 1600.6,1138.8 1601.4,1139 1602.4,1139.2 1603.4,1139.4 1604.6,1139.5 1605.3,1139.6 
						1606.1,1139.6 1606.9,1139.6 1607.8,1139.6 1608.7,1139.6 1609.6,1139.5 1610.3,1139.4 1610.9,1139.4 1612.6,1139 
						1614.1,1138.5 1615.5,1137.9 1616.8,1137.2 1617.9,1136.4 1618.9,1135.4 1619.7,1134.3 1620.4,1133.2 1620.5,1132.9 
						1620.6,1132.7 1620.7,1132.5 1620.8,1132.3 1620.9,1132.2 1621,1132.2 1621,1132.1 1621.1,1132.1 1621.1,1132.1 1621.2,1132.2 
						1621.2,1132.2 1621.2,1132.4 1621.2,1132.6 1621.2,1133 1621.2,1133.4 1621.2,1134.1 1621.2,1134.6 1621.2,1135.1 
						1621.2,1135.5 1621.2,1135.8 1621.2,1136 1621.1,1136.2 1621.1,1136.4 1621,1136.6 1620.9,1137.1 1620.7,1137.6 1620.5,1138 
						1620.2,1138.3 1619.9,1138.7 1619.5,1139.1 1619,1139.5 1618.3,1139.9 1617.8,1140.3 1617.3,1140.6 1616.9,1140.9 
						1616.5,1141.1 1616.2,1141.3 1615.7,1141.5 1615.2,1141.8 1614.7,1142 1613.8,1142.4 1612.8,1142.8 1611.9,1143.1 1611,1143.5 
						1610.1,1143.7 1609.3,1144 1608.4,1144.2 1607.5,1144.4 1607.2,1144.5 1606.8,1144.5 1606.5,1144.6 1606.1,1144.6 
						1605.7,1144.6 1605.2,1144.6 1604.5,1144.6 1603.7,1144.6 1602.9,1144.6 1602.2,1144.6 1601.7,1144.6 1601.4,1144.6 
						1601,1144.6 1600.8,1144.5 1600.5,1144.5 1600.2,1144.4 					"/>
				</g>
				<g id="letter_i">
					<g id="LWPOLYLINE">
						<polyline class="st44" points="1581.4,1137 1580,1136.3 1579.2,1135.8 1578.7,1135.3 1578.2,1134.7 1577.8,1134 
							1577.6,1133.4 1577.5,1132.6 1577.5,1131.3 1577.5,1130.3 1577.5,1129.6 1577.6,1129.2 1577.8,1128.7 1578.7,1126.6 
							1580.1,1124.3 1581.7,1122.3 1583.1,1121 1583.9,1120.5 1584.6,1120.3 1585.4,1120.1 1586.1,1120.2 1586.8,1120.3 
							1587.6,1120.6 1588.4,1120.9 1588.9,1121.1 1589.2,1121.4 1589.4,1121.6 1589.5,1122 1589.6,1122.4 1589.5,1122.8 
							1589.4,1123.3 1589.1,1123.7 1588.7,1124.2 1588.4,1124.6 1587.8,1125.4 1587,1126.6 1585.7,1128.4 1585.1,1129.3 
							1584.7,1130.2 1584.5,1131.1 1584.4,1132 1584.5,1133 1584.7,1133.8 1585.3,1134.7 1586,1135.6 1586.6,1136.1 1586.9,1136.5 
							1587,1136.8 1587,1137.2 1587,1137.6 1586.7,1137.9 1586,1138 1585,1138 1584.6,1138 1584.3,1138 1583.9,1138 1583.6,1138 
							1583,1137.7 1582.5,1137.5 1582,1137.2 1581.4,1137 						"/>
					</g>
					<g id="LWPOLYLINE-2">
						<polyline class="st44" points="1591.4,1121.4 1590.6,1120.6 1589.9,1119.4 1589.5,1118 1589.3,1116.5 1589.4,1115.5 
							1589.8,1114.7 1590.3,1114 1591,1113.5 1591.3,1113.4 1591.6,1113.3 1592.1,1113.3 1592.8,1113.3 1593.2,1113.3 
							1593.5,1113.3 1593.9,1113.3 1594.2,1113.3 1594.3,1113.3 1594.4,1113.4 1594.5,1113.5 1594.6,1113.6 1594.8,1113.8 
							1594.9,1114 1595.1,1114.3 1595.2,1114.5 1595.4,1114.8 1595.5,1115.2 1595.5,1115.7 1595.5,1116.4 1595.5,1116.8 
							1595.5,1117.1 1595.5,1117.5 1595.5,1117.8 1595.5,1118 1595.4,1118.1 1595.3,1118.3 1595.3,1118.5 1594.9,1119.1 
							1594.5,1119.9 1594,1120.5 1593.6,1121 1593.1,1121.4 1592.5,1121.6 1591.9,1121.6 1591.4,1121.4 						"/>
					</g>
				</g>
				<g id="letter_T">
					<polyline class="st44" points="1569.3,1137.9 1568.9,1137.8 1568.4,1137.7 1567.7,1137.5 1567,1137.3 1565.4,1136.9 
						1564.3,1136.6 1563.6,1136.3 1563,1135.9 1562.6,1135.6 1562.4,1135.3 1562.4,1134.9 1562.4,1134.3 1562.6,1133.6 1562.8,1133 
						1563.2,1132.7 1563.9,1132.4 1564.1,1132.3 1564.3,1132.2 1564.5,1132.1 1564.7,1132.1 1564.7,1131.8 1564.8,1131.6 
						1564.9,1131.4 1564.9,1131.2 1565.2,1130.4 1565.7,1128.7 1566.3,1126.5 1567,1124 1567.8,1121.3 1568.5,1118.9 1569,1117 
						1569.4,1115.9 1570,1114 1570.3,1112.6 1570.5,1111.4 1570.6,1110.2 1570.6,1109.4 1570.5,1108.7 1570.3,1108.2 1570.1,1107.6 
						1569.8,1107.1 1569.4,1106.7 1569,1106.3 1568.4,1106 1568.1,1105.9 1567.8,1105.7 1567.3,1105.6 1566.9,1105.5 1565.4,1105.2 
						1564.2,1104.9 1563.2,1104.5 1562.3,1104.1 1561.4,1103.6 1560.7,1103.1 1560.1,1102.5 1559.7,1101.9 1559.5,1101.6 
						1559.4,1101.3 1559.4,1100.9 1559.4,1100.1 1559.4,1099.2 1559.5,1098.7 1559.6,1098.3 1559.9,1098 1560.1,1097.9 
						1560.4,1097.8 1560.8,1097.8 1561.5,1097.8 1562.3,1097.8 1562.8,1097.8 1563.1,1097.9 1563.6,1098.1 1564.3,1098.3 
						1565.7,1098.8 1567.7,1099.4 1570,1100.1 1573.5,1101.2 1576.1,1102 1579.1,1102.8 1583.8,1103.9 1585.8,1104.4 1587.8,1104.9 
						1589.8,1105.4 1591.8,1105.9 1591.8,1106 1591.8,1106.2 1591.8,1106.3 1591.8,1106.5 1591.8,1106.8 1591.7,1107.2 
						1591.5,1107.6 1591.3,1108.3 1590.9,1109.1 1590.5,1109.7 1590.1,1110.1 1589.5,1110.4 1588.9,1110.7 1588.3,1110.8 
						1587.6,1110.9 1586.9,1110.9 1585.9,1110.8 1584.9,1110.6 1583.8,1110.2 1582.3,1109.6 1581.5,1109.3 1580.8,1109.1 
						1580.2,1109 1579.5,1109 1579.1,1109 1578.8,1109.1 1578.5,1109.2 1578.3,1109.3 1577.8,1109.6 1577.5,1110 1577.3,1110.4 
						1577.1,1110.9 1576.4,1113.7 1575.1,1118.9 1573.8,1124.3 1572.9,1128 1572.5,1130 1572.1,1131.7 1571.8,1133.1 1571.6,1134.1 
						1571.6,1134.2 1571.6,1134.3 1571.6,1134.4 1571.6,1134.5 1571.7,1134.6 1571.8,1134.7 1571.9,1134.7 1572.1,1134.8 
						1572.4,1135.1 1572.7,1135.3 1572.8,1135.6 1572.8,1135.9 1572.8,1136.2 1572.7,1136.6 1572.4,1137 1572.1,1137.5 1572,1137.7 
						1571.9,1137.8 1571.8,1138 1571.7,1138.1 1571.4,1138.1 1571.2,1138.1 1571,1138.1 1570.7,1138.1 1570.3,1138.1 1569.9,1138.1 
						1569.6,1138 1569.3,1137.9 					"/>
				</g>
				<path class="st44" d="M1566.2,1115L1566.2,1115l-0.2-0.2l-0.1-0.1l-0.3-0.4l-0.5-0.4l-0.6-0.3l-0.6-0.3l-0.3-0.1l-0.4-0.1h-0.5
					h-0.8h-0.4h-0.8h-0.4l-0.2,0.1l-0.2,0.1l-0.2,0.1l-0.2,0.1l-0.5,0.3l-0.6,0.5l-0.5,0.5l-0.4,0.5l-0.4,0.8l-0.6,1.4l-0.7,1.7
					l-0.7,1.6l-0.4,1l-0.9,1.7l-1.5,2.7l-2.2,4l-0.6,1l-0.6,1l-0.6,1l-0.6,1v1.3v0.3v0.2l0.1,0.1l0.4,0.4l0.7,0.3l0.8,0.2l0.9,0.1
					l0.8-0.1l0.6-0.2l0.5-0.4l0.4-0.7l0.2-0.3l0.3-0.6l0.4-0.7l0.4-0.8l0.3-0.5l0.3-0.5l0.3-0.5l0.3-0.5h0.5h0.2h0.2h0.2h0.1h0.1
					h0.1h0.1v0.2v0.2v0.2v0.2l-0.1,1.3l-0.1,1.4l-0.1,1.2v0.7v0.1v0.1l0.1,0.1l0.1,0.1l0.1,0.1l0.2,0.1h0.4h1.6h0.5l0.2-0.1l0.2-0.1
					l0.3-0.3l0.2-0.3l0.1-0.4l0.1-0.5l0.1-0.5l0.1-0.7l0.1-0.8l0.2-0.9l0.2-1.3l0.3-1.1l0.5-1.5l0.9-2.6l0.6-1.9l0.6-1.8l0.5-1.6
					l0.4-1.1l0.2-0.5l0.2-0.5l0.2-0.5l0.2-0.5L1566.2,1115L1566.2,1115z M1560.9,1120.9l-0.4,1.8l-0.4,1.8l-0.3,1.1l-0.1,0.1
					l-0.1,0.1l-0.1,0.1l-0.1,0.1l-0.1,0.1h-0.2h-0.3h-0.9h-0.3l-0.2-0.1l-0.1-0.1l-0.1-0.1l-0.1-0.1v-0.2v-0.3v-0.3l0.1-0.3l0.1-0.3
					l0.1-0.3l0.4-1l0.6-1.3l0.7-1.2l0.6-0.9l0.1-0.1l0.1-0.1l0.1-0.1l0.1-0.1h0.1h0.1l0.1,0.1h0.1l0.2,0.1l0.1,0.1l0.1,0.1v0.1
					L1560.9,1120.9z"/>
				<g id="letter_e">
					<polyline class="st44" points="1466.9,1106.4 1466.9,1106.2 1466.9,1106 1466.9,1105.8 1467,1105.6 1467.2,1105.5 
						1467.5,1105.4 1467.8,1105.3 1468.1,1105.2 1468.5,1105.1 1468.9,1104.9 1469.2,1104.8 1469.3,1104.8 1469.4,1104.7 
						1469.6,1104.7 1469.8,1104.7 1470,1104.7 1470.3,1104.7 1470.5,1104.7 1470.7,1104.8 1471,1105 1471.1,1105.1 1471.2,1105.2 
						1471.4,1105.3 1471.5,1105.4 1471.5,1105.5 1471.5,1105.6 1471.5,1105.7 1471.5,1105.8 1471.4,1106.2 1471.3,1106.5 
						1471.1,1106.7 1470.8,1106.9 1470.7,1106.9 1470.4,1107 1470.2,1107 1469.9,1107.1 1469.6,1107.2 1469.2,1107.2 1468.8,1107.3 
						1468.1,1107.3 1467.8,1107.3 1467.5,1107.3 1467.2,1107.3 1466.9,1107.3 1466.9,1107 1466.9,1106.8 1466.9,1106.6 
						1466.9,1106.4 					"/>
				</g>
				<polygon class="st44" points="1555.8,1103.5 1555.6,1102.4 1555.4,1101.1 1555.1,1099.8 1554.8,1098.8 1554,1096.9 
					1552.8,1095.6 1551.1,1094.7 1548.7,1094.1 1547.6,1094 1546.3,1094 1545,1094.1 1544.1,1094.2 1544,1094.2 1543.9,1094.2 
					1543.7,1094.3 1543.6,1094.3 1543,1095.4 1542.3,1096.4 1541.7,1097.5 1541.1,1098.6 1539.7,1100.8 1538.9,1102.1 
					1538.5,1102.7 1538.2,1102.9 1538.1,1102.9 1538,1102.8 1537.8,1102.6 1537.5,1102.3 1536.7,1101.4 1535.9,1100.3 
					1535.2,1099.1 1534.6,1098 1534.1,1096.8 1533.7,1095.6 1533.5,1094.4 1533.4,1093 1533.3,1092.4 1533.3,1091.9 1533.2,1091.6 
					1533.1,1091.3 1532.7,1090.7 1532.2,1090.3 1531.4,1090 1530.4,1090 1529.6,1090 1528.8,1090.1 1528,1090.3 1527.1,1090.5 
					1526.9,1090.6 1526.7,1090.7 1526.5,1090.7 1526.3,1090.8 1526.2,1091.2 1526.1,1091.7 1526,1092.1 1525.8,1092.6 
					1524.1,1098.9 1521.4,1108.7 1518.8,1117.8 1517.5,1122.1 1517.2,1122.9 1517.2,1123.7 1517.5,1124.4 1518,1125 1518.6,1125.5 
					1519.5,1125.8 1520.6,1126.2 1522.2,1126.5 1525.1,1127.1 1528.3,1127.8 1531.1,1128.5 1532.6,1128.9 1532.8,1129 1532.8,1129 
					1532.8,1129 1532.8,1128.9 1531.5,1127.2 1529.9,1125.2 1528.6,1123.4 1528,1122.6 1528.2,1122.3 1528.6,1121.7 1529.2,1120.9 
					1529.9,1119.9 1531,1118.5 1531.6,1117.8 1531.9,1117.5 1532.1,1117.4 1532.3,1117.4 1532.5,1117.4 1532.6,1117.5 
					1532.8,1117.6 1533.1,1117.9 1533.5,1118.4 1533.9,1119.2 1534.3,1120 1534.6,1120.8 1534.9,1121.4 1535.2,1121.7 1535.5,1122 
					1536.4,1122.3 1537.6,1122.1 1538.9,1121.4 1540.3,1120.3 1541,1119.8 1541.3,1119.9 1541.5,1120.8 1541.5,1122.5 
					1541.3,1125.1 1541,1127.4 1540.4,1129.8 1539.7,1132.1 1539.2,1133.2 1538.6,1134.5 1537.9,1135.7 1537.4,1136.7 1537,1137.2 
					1537.1,1137.3 1537.8,1136.9 1539.3,1135.8 1543.1,1133 1545.6,1130.9 1547.6,1128.8 1549.4,1126.3 1550.1,1125.2 
					1550.8,1124.1 1551.3,1123 1551.8,1122.1 1552.4,1120.5 1553.2,1118 1554,1115.2 1554.7,1112.8 1555.3,1110 1555.7,1107.5 
					1555.9,1105.3 				"/>
				<g id="letter_n">
					<polyline class="st44" points="1445,1133.4 1445,1133.2 1445,1132.9 1445,1132.5 1445.1,1132.1 1445.2,1131.9 1445.3,1131.7 
						1445.5,1131.4 1445.6,1131.1 1445.7,1131 1445.8,1130.9 1445.9,1130.7 1446,1130.6 1444.7,1126.8 1443.5,1123.1 1442.2,1119.4 
						1441,1115.6 1439,1109.8 1437.4,1105 1436.3,1101.6 1435.8,1100.2 1435.7,1099.7 1435.7,1099.2 1435.8,1098.8 1435.9,1098.4 
						1436.1,1098 1436.5,1097.7 1437.2,1097.3 1438.2,1096.8 1438.8,1096.6 1439.3,1096.3 1439.8,1096.1 1440.2,1095.9 
						1440.9,1095.6 1441.5,1095.3 1442,1095.2 1442.6,1095.2 1443,1095.2 1443.3,1095.2 1443.6,1095.3 1443.9,1095.5 1444.4,1095.8 
						1444.9,1096.2 1445.4,1096.8 1445.7,1097.3 1447.1,1099.9 1449.8,1104.8 1452.4,1109.5 1453.6,1111.6 1453.6,1111.6 
						1453.6,1111.6 1453.6,1111.6 1453.7,1111.6 1453.6,1110.8 1453.4,1108.7 1453,1105.5 1452.6,1101.7 1452.1,1097.8 
						1451.8,1094.7 1451.5,1092.5 1451.5,1091.7 1451.9,1091.7 1453.2,1091.6 1454.9,1091.5 1457.1,1091.4 1459.4,1091.3 
						1461.3,1091.2 1462.7,1091.1 1463.5,1091 1463.9,1091 1464.1,1091 1464.2,1091.1 1464.3,1091.1 1464.1,1091.4 1463.5,1091.8 
						1462.6,1092.5 1461.4,1093.4 1460.2,1094.2 1459.3,1094.9 1458.7,1095.4 1458.4,1095.6 1458.5,1096.2 1458.7,1097.7 1459,1100 
						1459.3,1102.8 1459.5,1104.6 1459.8,1106.4 1460,1108.2 1460.2,1110 1460.6,1111.2 1460.9,1112.5 1461.2,1113.7 1461.5,1115 
						1462.7,1120.1 1463.5,1123.2 1464.1,1124.7 1464.6,1125.5 1464.7,1125.6 1464.8,1125.7 1465,1125.8 1465.1,1125.8 
						1465.6,1125.9 1466.1,1126.1 1466.4,1126.4 1466.5,1126.8 1466.5,1127 1466.3,1127.2 1466.1,1127.4 1465.9,1127.5 
						1465.7,1127.6 1465.5,1127.6 1465.3,1127.8 1465,1127.9 1463.9,1128.4 1462.4,1128.9 1460.7,1129.2 1459.1,1129.4 
						1458.4,1129.4 1457.9,1129.4 1457.6,1129.2 1457.5,1129 1457.5,1128.8 1457.5,1128.4 1457.6,1127.9 1457.8,1127.2 1457.9,1127 
						1458,1126.8 1458,1126.6 1458.1,1126.4 1457.5,1126 1456.8,1125.5 1456.2,1125 1455.6,1124.5 1454.5,1123.6 1453.2,1122.6 
						1451.9,1121.7 1450.8,1120.8 1449.9,1120.1 1449.2,1119.6 1448.7,1119.2 1448.4,1119 1448.4,1119 1448.3,1119 1448.3,1119 
						1448.3,1119.1 1448.4,1119.4 1448.6,1120 1448.9,1120.9 1449.1,1122 1450,1124.8 1450.6,1126.9 1451.1,1128.4 1451.4,1129.2 
						1451.5,1129.4 1451.6,1129.5 1451.6,1129.7 1451.7,1129.8 1451.9,1129.9 1452,1129.9 1452.2,1130 1452.4,1130 1452.8,1130.2 
						1453.2,1130.4 1453.4,1130.6 1453.4,1130.9 1453.4,1131.2 1453.2,1131.4 1453,1131.5 1452.6,1131.7 1452.3,1131.8 
						1451.9,1131.9 1451.3,1132.1 1450.7,1132.2 1450.1,1132.4 1449.4,1132.6 1448.8,1132.8 1448.3,1132.9 1447.8,1133 
						1447.3,1133.1 1446.9,1133.1 1446.5,1133.2 1445.8,1133.3 1445.4,1133.4 1445.1,1133.4 1445,1133.4 					"/>
				</g>
				<g id="letter_c1">
					<polyline class="st44" points="1464.8,1122.1 1463.1,1121.5 1461.7,1120.8 1460.4,1119.9 1459.1,1118.7 1458,1117.5 
						1457.1,1116.2 1456.4,1114.9 1455.8,1113.6 1455.8,1113.4 1455.7,1113.1 1455.6,1112.9 1455.5,1112.7 1455.5,1112 
						1455.5,1111.4 1455.5,1110.7 1455.5,1110 1455.5,1108.4 1455.5,1107.5 1455.6,1106.9 1455.7,1106.3 1456.2,1104.7 
						1456.9,1103.4 1457.7,1102.1 1459,1100.9 1461.6,1098.8 1465,1097 1469.1,1095.5 1473.7,1094.2 1474.7,1094.1 1475.6,1094 
						1476.2,1094 1476.5,1094.2 1476.5,1094.5 1476.6,1095.2 1476.7,1096.2 1476.9,1097.4 1477.1,1099.1 1477.2,1100.4 
						1477.2,1101.5 1477.2,1103 1477.2,1103.7 1477.2,1104.3 1477.2,1104.9 1477.2,1105.6 1477.1,1105.6 1477.1,1105.6 1477,1105.6 
						1476.9,1105.6 1476.7,1105.6 1476.4,1105.4 1475.9,1104.7 1475,1103.3 1474.6,1102.6 1474.1,1101.9 1473.7,1101.3 
						1473.4,1100.9 1473.3,1100.7 1473.1,1100.5 1473,1100.3 1472.8,1100.1 1472.6,1100.1 1472.3,1100.1 1472.1,1100.1 
						1471.9,1100.1 1471,1100.1 1470.1,1100.2 1469,1100.4 1467.8,1100.8 1466.4,1101.3 1465.2,1101.9 1464.1,1102.7 1463.1,1103.6 
						1462.4,1104.3 1461.8,1105 1461.4,1105.7 1461.1,1106.2 1461,1106.9 1461,1107.8 1461,1108.9 1461.1,1109.8 1461.3,1110.6 
						1461.6,1111.5 1461.9,1112.3 1462.1,1113.1 1463.2,1115 1464.8,1116.4 1466.8,1117.3 1469.3,1117.8 1470.4,1117.9 
						1471.3,1117.8 1472.4,1117.6 1473.9,1117.1 1474.8,1116.7 1475.6,1116.5 1476.1,1116.3 1476.3,1116.3 1476.4,1116.3 
						1476.5,1116.3 1476.6,1116.3 1476.6,1116.4 1476.8,1116.8 1477,1117.5 1477.2,1118.3 1477.3,1118.8 1477.3,1118.9 
						1477.3,1119.1 1477.3,1119.2 1477.3,1119.3 1477.1,1119.4 1477,1119.5 1476.9,1119.5 1476.7,1119.6 1475.7,1120.2 
						1474.2,1120.9 1472.8,1121.6 1471.8,1122 1471.6,1122.1 1471.4,1122.2 1471.2,1122.2 1471,1122.3 1470.3,1122.3 1469.6,1122.3 
						1468.9,1122.3 1468.2,1122.3 1466.7,1122.3 1465.8,1122.3 1465.2,1122.3 1464.8,1122.1 					"/>
				</g>
				<path class="st44" d="M1520.4,1097v-2l-0.1-1.2l-0.1-1l-1.2-6l-1.8-5.3l-2.5-4.6l-3.1-3.8l-1.6-1.5l-1.7-1.2l-1.6-0.9l-1.5-0.6
					l-1.4-0.1h-2.3h-2.4l-1.5,0.1l-2.8,0.8l-2.6,1.3l-2.5,1.8l-2.3,2.3l-3.9,5.7l-3.2,7.5l-2.6,9.3l-2,11l-0.5,3.6l-0.3,2.8l-0.1,3
					v4.2v3.2v2l0.1,1.2l0.1,1l0.7,4l1.1,3.5l1.4,3.1l1.8,2.7l0.6,0.7l0.8,0.8l0.8,0.7l0.7,0.6l1.7,1.2l2,1.1l2.1,0.9l1.9,0.6
					l0.6,0.2l0.6,0.1h0.9h1.6h1.8l1.2-0.1l1-0.2l1.1-0.4l3.8-1.9l3.6-3l3.2-4l2.8-5l2.2-5.2l1.9-6l1.6-6.6l1.2-6.9l0.3-2.3l0.2-2
					l0.1-2.5v-3.8L1520.4,1097z M1508.3,1110.4l-0.1,2.2l-1.3,8.4l-2.2,6.8l-2.9,4.8l-3.5,2.6l-0.7,0.2l-0.8,0.1h-0.8l-0.7-0.1
					l-1.5-0.5l-1.5-0.8l-1.4-1l-1.2-1.2l-1.2-1.7l-1-1.9l-0.8-2.2l-0.5-2.5l-0.1-1.7v-2.2l0.1-2.3l0.2-1.9l0.5-3.1l0.7-3.1l0.9-3.1
					l1.1-3.2l2.4-5.7l2.6-4.9l2.6-3.7l2.3-2l0.2-0.1l0.2-0.1l0.2-0.1l0.2-0.1l0.2,0.1l0.2,0.1l0.2,0.1l0.2,0.1l0.7,0.3l0.7,0.3
					l0.6,0.4l0.6,0.6l1.8,2.3l1.4,3.1l1.1,3.9l0.7,4.6l0.1,2.1v3.1L1508.3,1110.4z"/>
				<path class="st44" d="M1443.2,1131.4l-0.2-0.8l-0.2-0.6l-0.2-0.9l-0.3-1l-0.3-1l-0.4-1.3l-0.4-1.2l-0.5-1.4l-0.7-1.9l-1.6-4
					l-1.4-3.4l-1-2.6l-0.6-1.3l-0.5-0.9l-0.5-0.5l-0.7-0.1l-1.1,0.1l-0.6,0.1l-0.6,0.1l-0.6,0.1l-0.5,0.1l-0.8,0.1l-0.6,0.2
					l-0.6,0.2l-0.5,0.3l-0.6,0.5l-0.5,0.6l-0.4,0.7l-0.2,0.8l-0.3,1.2l-0.7,2.8l-1,4l-1.2,4.8l-2.2,8.4l-1,4.1l-0.3,1.4l0.1,0.3
					l0.2,0.2h0.5l0.8-0.1l1.3-0.2l1.1-0.2l0.8-0.2l0.6-0.2l0.5-0.3l0.6-0.5l0.6-0.6l0.5-0.7l0.3-0.7l0.1-0.4l0.2-1l0.3-1.3l0.3-1.5
					l0.3-1.5l0.3-1.3l0.2-0.9l0.1-0.4l0.6-0.3l1.3-0.4l1.3-0.4l0.8-0.2h0.1l0.1,0.1l0.1,0.3l0.2,0.4l0.8,1.6l1.1,1.9l1.1,1.7
					l0.9,1.1l0.4,0.4l0.5,0.2h0.7l1.1-0.2l1-0.2l0.7-0.2l0.4-0.2l0.3-0.3l0.2-0.4l0.1-0.4L1443.2,1131.4z M1433.6,1121.8l-0.5,0.1
					l-0.7,0.1l-0.8,0.2l-0.8,0.2l-0.7,0.1l-0.5,0.1h-0.2l0.3-1l0.6-2.2l0.6-2.2l0.3-1l0.1,0.2l0.3,0.6l0.4,0.9l0.5,1.1l0.5,1.1
					l0.4,0.9l0.3,0.6l0.1,0.2L1433.6,1121.8z"/>
				<path class="st44" d="M1424.5,1110.1v-0.4l-0.1-0.3l-0.1-0.3l-1.1-1.5l-1.9-1.8l-2.6-2l-3.2-2.2l-0.9-0.6l-0.8-0.4l-1.2-0.6
					l-2.1-1l-0.8-0.3l-0.8-0.3l-0.8-0.3l-0.8-0.3l-2,0.5l-2,0.5l-2,0.5l-2,0.5l-2,0.5l-2,0.5l-2,0.5l-2,0.5l-1.8,0.6l-1.8,0.6
					l-1.8,0.6l-1.8,0.6l-1.8,0.6l-1.8,0.6l-1.8,0.6l-1.9,0.7l-1,0.7l-1,0.7l-1,0.7l-1,0.7l-1.8,1.2l-1.2,0.9l-0.8,0.6l-0.3,0.3
					l0.1,0.3l0.4,0.6l0.6,0.9l0.7,1.1l0.7,1.1l0.7,1.1l0.6,0.9l0.4,0.6l0.3,0.4l0.2,0.3l0.2,0.2l0.1,0.1l0.1-0.2l0.2-0.5l0.3-0.8
					l0.3-1.1l0.2-0.7l0.2-0.7l0.2-0.7l0.2-0.7l0.6-0.3l0.6-0.3l0.6-0.3l0.6-0.3l1-0.5l0.8-0.4l0.6-0.3l0.2-0.1l0.5,0.3l1,0.9
					l1.4,1.2l1.6,1.4l3.1,2.9l2.7,2.7l2.2,2.4l1.7,2l0.9,1.2l0.6,1.1l0.4,1.2l0.4,1.5l0.4,2.6l0.3,3.2l0.2,3.9l0.1,4.6v0.8v0.8v0.8
					v0.8l-0.7,0.6l-0.7,0.6l-0.7,0.6l-0.7,0.6l-1,1l-0.9,0.8l-0.6,0.6l-0.2,0.3v0.3l0.1,0.6l0.2,0.8l0.2,1l0.3,1.2l0.2,0.8l0.1,0.4
					l0.1,0.1l0.3-0.2l0.7-0.6l1-0.9l1.2-1.2l0.8-0.7l0.8-0.7l0.7-0.7l0.8-0.7l1.7-1.2l1.7-1.2l1.7-1.2l1.7-1.2l1.7-1.2l1.7-1.2
					l1.7-1.2l1.7-1.2l0.4-0.4l0.4-0.4l0.4-0.4l0.4-0.4l0.7-0.7l0.6-0.6l0.4-0.5l0.2-0.3l0.2-0.5l0.4-1.5l0.9-3.4l1.6-6.1l1.1-4.4
					l1-3.7l0.7-2.7l0.3-1.2l0.3-1.5l0.2-1.4l0.1-1.3l0.1-1.1L1424.5,1110.1z M1407.8,1124.7l-0.3,2.5l-0.5,2.6l-0.8,2.8l-0.3,1
					l-0.2,0.7l-0.2,0.4h-0.1l-1.6-3.8l-3.5-8.2l-3.4-8.2l-1.5-3.7h0.1h0.2l0.3-0.1l0.4-0.1l2.5-0.1l2.3,0.4l2,0.8l1.7,1.3l1,1.2
					l0.8,1.4l0.6,1.6l0.4,1.9l0.1,0.7l0.1,0.7v0.8v1L1407.8,1124.7z"/>
			</g>
			<polygon id="Penetrating_0" class="st45" points="1508.3,1110.4 1508.2,1112.6 1506.9,1121 1504.7,1127.8 1501.8,1132.6 
				1498.2,1135.2 1497.5,1135.4 1496.7,1135.4 1496,1135.4 1495.3,1135.4 1493.7,1134.8 1492.2,1134 1490.8,1133 1489.6,1131.8 
				1488.3,1130.1 1487.4,1128.2 1486.6,1126.1 1486.1,1123.6 1486,1121.9 1485.9,1119.7 1486,1117.4 1486.2,1115.5 1486.7,1112.4 
				1487.4,1109.3 1488.3,1106.2 1489.3,1103 1491.7,1097.3 1494.4,1092.4 1497,1088.7 1499.3,1086.8 1499.4,1086.7 1499.6,1086.6 
				1499.7,1086.5 1499.9,1086.5 1500.1,1086.5 1500.2,1086.6 1500.4,1086.6 1500.6,1086.7 1501.3,1086.9 1502,1087.3 1502.7,1087.7 
				1503.3,1088.3 1505.1,1090.5 1506.5,1093.6 1507.5,1097.5 1508.2,1102.2 1508.3,1104.2 1508.4,1107.3 			"/>
			<path id="O_inside_Shade-2" class="st42" d="M1508.3,1105c-0.4-2.4-0.9-4.9-1.4-7.2c-0.7-2.7-2.1-5.1-4.1-7
				c-1.6-1.6-2.2-1.6-3.6,0.2c-4,5-6.4,10.8-8.3,16.8c-1.5,4.6-2.2,9.3-2.2,14.1c0.1,4.6,3.2,10.7,7.2,13.5
				c-1.1-0.6-4.2-1.6-5.2-2.4c-3-2.6-4.4-7.4-4.5-11.3c-0.5-11.8,3.4-22.3,9.8-32.1c0.3-0.4,0.7-0.8,1-1.2c1.9-2.7,3.8-2.6,6.1,0.2
				c2.6,3.2,4.3,7.1,4.7,11.3C1508.1,1101.6,1508.3,1103.3,1508.3,1105z"/>
		</g>
	</g>
	<g id="text:InsertCoin">
		<path class="st46" d="M1261.3,1420.9h-42.8v-7h14.1v-35.7h-14.1v-7.2h42.8v6.9h-14.1v35.8h14.1V1420.9z"/>
		<path class="st46" d="M1318.5,1420.9h-14.1v-6.8h-7.1v-7.2h-7.2v-7.3h-6.9v21.3h-14.5V1371h14.1v6.8h7.3v7.1h7.2v7.3h6.9V1371
			h14.3L1318.5,1420.9L1318.5,1420.9z"/>
		<path class="st46" d="M1373.6,1413.7h-6.8v7.2h-35.9v-6.8h-7.2v-7.2h14.3v6.8h21.2v-13.9h-28.4v-7.2h-7.2v-14.3h6.8v-7.2h28.8v6.8
			h7.2v7.2h-14.1v-6.8H1338v13.8h28.5v7.3h7.1V1413.7z"/>
		<path class="st46" d="M1429.6,1420.5h-50.5v-50.4h50.5v7h-36v14.3h21.5v7.4h-21.5v14.4h36V1420.5z"/>
		<path class="st46" d="M1483.8,1399.5h-14.3v6.9h7.2v7.3h7.1v7.2h-21.2v-6.7h-7.1v-7.5h-7.2v14.2H1434V1371h42.8v6.9h7.1
			L1483.8,1399.5L1483.8,1399.5z M1469.5,1392.3v-14h-21.2v21.2h14.3v-7.2H1469.5z"/>
		<path class="st46" d="M1528.2,1377.9h-14v43h-14.3v-42.7h-14.4v-7.2h42.8L1528.2,1377.9L1528.2,1377.9z"/>
		<path class="st46" d="M1606.8,1385h-14.1v-6.8h-14.1v6.8h-7.3v21.3h7v7.3h14.2v-6.9h14.3v6.9h-6.8v7.2h-28.8v-6.8h-7.1v-7.3h-7.2
			V1385h6.8v-6.8h7.2v-7.2h28.8v6.8h7.1V1385z"/>
		<path class="st46" d="M1661.9,1413.7h-6.8v7.2h-35.9v-6.8h-7.2v-35.9h6.8v-7.2h36v6.8h7.1V1413.7z M1647.6,1413.7v-35.5h-21.2
			v35.5H1647.6z"/>
		<path class="st46" d="M1714.9,1420.9h-42.8v-7h14.1v-35.7h-14.1v-7.2h42.8v6.9h-14.1v35.8h14.1V1420.9z"/>
		<path class="st46" d="M1772.1,1420.9H1758v-6.8h-7.1v-7.2h-7.2v-7.3h-6.9v21.3h-14.5V1371h14.1v6.8h7.3v7.1h7.2v7.3h6.9V1371h14.3
			L1772.1,1420.9L1772.1,1420.9z"/>
	</g>
</g>
</svg>
