<svg xmlns="http://www.w3.org/2000/svg" viewBox="0 0 1196.31 1204.93">
 
  <title>artfarm_zeromargin</title>
  <g>
    <path d="M892.05,495.14h693.53v17.94H1351.22v786.35h-18.11c-.35-14.73-.1-29.49-.15-44.24s0-29.67,0-44.5v-88.15c-.55-.31-.68-.44-.82-.45a.59.59,0,0,0-.44.16l-75,98.3q-38.46-49.85-76.53-99.2l-1,.22c-.24,7.37-.08,14.75-.11,22.13s0,14.67,0,22v133.68h-17.77V1067.53c4.67,5.29,8.37,10.56,12.32,15.6s7.8,10.09,11.69,15.14,8,10.36,12,15.53,7.79,10.11,11.68,15.16l12,15.55c3.89,5,7.81,10.09,11.7,15.14s8,10.38,12,15.55c3.87,5,7.77,10,11.89,15.3,1.12-1.31,2-2.22,2.7-3.19q35.73-47.05,71.51-94.07c1.94-2.53,2.27-5.07,2.27-8q0-163.41,0-326.83V514c-3.63-1.11-170.55-1.45-178-.37,1.53,1,2.65,1.73,3.81,2.4,29.3,16.89,45.09,42.33,48.12,75.87,1.84,20.26,0,40.18-6.29,59.52-9.35,28.54-28.11,48.42-56,59.57-1.62.64-3.23,1.31-5.38,2.19,1.38.84,2.33,1.52,3.35,2,31.12,15.34,52.78,39.54,66.53,71.09,9.13,20.95,14,43,16,65.67.6,7,.94,14,1.32,21,.13,2.35,0,4.72,0,7.33h-17.84c-.13-2.14-.32-4.16-.36-6.19-.44-21.29-2.84-42.3-9-62.75-6.06-19.95-15.23-38.24-29.56-53.55-21.37-22.84-47.78-35.6-79-38.47-1.25-.12-2.5-.32-4.35-.55.18-2.91.34-5.7.51-8.49s.35-5.71.56-9.11c1.78,0,3.44-.06,5.11,0,18.48.72,36.25-2.26,52.89-10.56,17.48-8.72,29.64-22.49,36.41-40.73a122.52,122.52,0,0,0,5.54-66.4c-4.8-25.31-19.79-43-42.64-54.31-15-7.45-31.14-11.21-47.66-13.29a241.91,241.91,0,0,0-43-1.19c-.94,0-1.87.17-3.32.31-.63,10.24-.2,20.38-.28,30.51s0,20.09,0,30.14V880.28h-18.77c-2.83-6.78-5.73-13.67-8.59-20.58q-38.65-93.44-77.31-186.88-32.05-77.55-64.08-155.1c-2.26-5.48-1.84-4.59-6.89-4.59q-149.05,0-298.12,0h-4.85C522.58,632.36,473.3,751.58,423.68,871.65c16.84,0,33,0,49.16,0H716.07v18H422.37v178.24H539.88v18H422.15v219.69H403.9v-267.9q0-80.38,0-160.78a24.71,24.71,0,0,1,1.91-9.72q26.08-62.94,52.07-125.92,40.07-97,80.14-194,42.46-102.73,85-205.45,40-96.76,80-193.55c4.32-10.46,8.74-20.88,13-31.38,1-2.52,2.2-3.93,5.16-3.68a57.58,57.58,0,0,0,9.56,0c2.95-.23,4.18,1.1,5.22,3.66,7.15,17.57,14.45,35.07,21.68,52.6q30.48,73.8,60.94,147.61,33.5,81.09,67,162.16C887.54,484.42,889.71,489.55,892.05,495.14Zm-312.55-.5H872.19Q799,317.73,726.27,141.81l-1,.13Zm320,18.75q66.08,160,131.76,319c1.64-7.12,1.28-315.57.24-319Z" transform="translate(-395.26 -107.12)"/>
    <path d="M945.28,1205.68l2.11-19.88h7.3a51.49,51.49,0,0,0,22.17-5.18c10.55-5.06,17.16-13.59,20.32-24.7a67.88,67.88,0,0,0,1.8-30.78c-2.27-12.8-9.5-22-20.85-28.15-10.14-5.46-21.18-7.84-32.52-8.8-4.86-.41-9.78-.07-15.09-.07v211.4c-6.82.31-13.26.12-19.64.12-1.1-3.59-1.58-219.76-.5-230.62,5-.55,10.15-1.4,15.32-1.64,17.16-.8,34.09.74,50.41,6.47,15.71,5.5,28.59,14.62,36.73,29.57A60.42,60.42,0,0,1,1020,1128c.89,12,0,23.9-3.73,35.45-4.79,14.7-13.63,26.16-27.19,33.83-1.09.61-2.17,1.25-3.74,2.16,34.8,24.47,45.35,59.65,45.76,99.89h-20c-.47-6-.77-11.83-1.4-17.65-1.73-16.06-6.07-31.28-15.29-44.77-10.83-15.83-25.71-25.81-44.38-30.16Z" transform="translate(-395.26 -107.12)"/>
    <path d="M725.75,1209H652.51l-37.91,90.41H593.38q48.61-115.76,97.07-231.16c2.37,3.09,89.16,224.18,90.83,231.16h-20Q743.63,1254.55,725.75,1209Zm-7.63-19.51-27.48-70.11c-4.15,7-28.81,66.83-29,70.11Z" transform="translate(-395.26 -107.12)"/>
  </g>
</svg>
