<?xml version="1.0" encoding="utf-8"?>
<!-- Generator: Adobe Illustrator 22.1.0, SVG Export Plug-In . SVG Version: 6.00 Build 0)  -->
<svg version="1.1" id="Lag_1" xmlns="http://www.w3.org/2000/svg" xmlns:xlink="http://www.w3.org/1999/xlink" x="0px" y="0px"
	 viewBox="0 0 1920 1080" style="enable-background:new 0 0 1920 1080;" xml:space="preserve">
<style type="text/css">
	.st0{fill:#E82827;}
	.st1{fill:#FCC326;}
	.st2{fill:#FCE837;}
	.st3{fill:#FC7800;stroke:#000000;stroke-linecap:round;stroke-linejoin:round;stroke-miterlimit:10;}
	.st4{fill:#EB66A2;stroke:#000000;stroke-width:4;stroke-linecap:round;stroke-linejoin:round;stroke-miterlimit:10;}
</style>
<g id="Explotion">
	<path id="RedBang" class="st0" d="M1204,593l-23-6.9l0,0c-1.1-0.4-24.6-9.5-42.3-18.8c-3.4-1.9-6.8-3.8-10.1-5.8
		c-2.6-1.7-4.8-3.3-6.4-4.8c-2.2-2.5-3.5-5.6-3.5-9.4c0-1.3-0.4-2.7-0.6-4c-0.5-3.1-0.6-6.2-0.5-9.3c0.7-5.8,2.1-12.1,4.3-18
		c4.1-9.2,10.1-17.3,16.6-25l35.6-42c0,0,0.6-0.5-0.2-0.5v-0.1c-0.6,0.1-1.2,0.1-1.7,0.3c-3.1,0.6-59.6,32.2-59.7,32.2
		c-2.6,1.2-5.3,2.3-8,3.3c-5.8,2.1-11.6,4-17.6,5c-25.3,4.1-58.9-4.1-48.9-81.8c0.1-0.6,0.2-1.1,0.3-1.7c0.7-4.6,1.5-9.2,2.3-14.6
		c-1.2,0.9-1.9,1.2-2.4,1.8c-6.5,7-13,14-19.4,21l-13.1,13.7c-6.6,6.2-13.7,11.8-22,16c-0.3,0.1-0.6,0.3-0.9,0.4c-2.4,1-5,2-7.8,3.1
		c-0.8,0.3-1.6,0.6-2.4,0.9c-41.2,15.3-54.4-82.9-54.4-82.9s-40.9,68.9-57.9,76.1c-15.9,6.7-22.9,9.5-30.2,11.1
		c-0.5,0.1-1.1,0.2-1.6,0.3c-3.2,0.6-6.4,1.3-9.6,1.9c-7.2,1.2-16.1,1.9-26.7-0.5c-2.1-0.6-4.2-1.4-6.2-2.4c-3.7-1.8-7-4.2-9.5-7.2
		c-0.9-1.2-1.8-2.4-2.5-3.8c-0.1-0.3-0.3-0.5-0.4-0.8c-2.8-5.8-5.6-11.6-8.3-17.4c-1.5-3.1-2.8-6-4.1-8.7c-2.1-4.6-4.3-9.2-6.4-13.7
		c-0.3-0.6-0.9-1-1.3-1.5c-0.1,0.1-0.2,0.2-0.2,0.4c-0.4,0-0.7,0.4-0.8,1.5c0,0.1,0,0.2,0,0.2c-0.7,7-1.3,14-2,20.9
		c-0.4,4-0.7,8-1.1,12.1c-1,10.3-1.9,19.9-2.4,23.7c-1.4,9.2-3.9,18.1-7.8,26.7c-3,6.5-6.8,12.4-11.7,17.4
		c-12.4,12.1-33.1,21.3-67.7,18.8c-11.4-0.7-22.8-1.3-34.2-2c-0.8,0-1.6,0-2.4,0c-0.2,0.3-0.3,0.7-0.5,1c0.4,0.2,0.9,0.3,1.3,0.5
		c4.8,2.7,9.5,5.4,14.3,8.1c5.6,3.2,11.2,6.3,16.7,9.5c3,1.8,6.1,3.4,8.6,5.7c5.2,4.7,8.8,10.6,12.1,16.8
		c2.5,19.2,8.7,21.6-0.2,36.3c-2.6,4.2-4,7.1-5.1,9.4c-4,6-8.7,11.3-14.4,15.7c-0.1,0.1-0.3,0.2-0.5,0.3c-0.4,0.3-0.8,0.6-1.2,0.9
		c0,0-0.1,0-0.1,0.1c-0.6,0.4-1.2,0.8-1.8,1.2c-9.1,6-18.6,11.3-27.9,16.9c-1.4,0.8-2.7,1.7-4.4,2.7c3.8,1.1,7,2.1,10.3,3
		c4.1,1.1,8.3,1.9,12.5,2.9c2.2,0.5,4.3,1.1,6.5,1.7c2.6,0.7,5.1,1.4,7.7,2c3.1,0.7,6.3,1.1,9.4,1.9c0,0,8.4,2.1,14.8,4.3
		c2.1,0.7,4.1,1.5,6.1,2.4c2.6,1.3,4.1,2.1,5,2.7c0.7,0.5,1.3,1,1.8,1.5c0.8,0.9,1.7,2,2.4,3.1c0.3,0.5,0.5,1,0.7,1.5
		s0.3,1.1,0.5,1.7c0.2,1.1,0.3,2.3,0.3,3.5c-0.2,1.8-0.8,4.9-1,5.8c-0.6,2.7-1.2,5.3-2,7.9c-0.8,2.2-1.5,4.2-2.1,5.8
		c-0.3,0.8-0.6,1.6-1,2.4c-1.5,3.1-26.5,50.8-27,52.4c-0.1,0.2,0.2,0.1,0.6,0c0.6,0,0.9-0.2,1.2-0.4c3.4-2.7,6.7-5.4,10.1-8.1
		c2.8-2.3,5.7-4.6,8.5-6.9l32.1-25.9c1.3-1,2.6-2.1,4-3.1c0.2-0.2,0.4-0.3,0.5-0.4c0.4-0.3,0.8-0.6,1.2-0.9c0.6-0.5,1.5-1.1,2.2-1.6
		c0.3-0.2,0.6-0.5,1-0.7l0.1-0.1c0.1-0.1,0.2-0.1,0.3-0.2c1.2-0.9,6.9-4.8,10.5-7c0.7-0.4,1.4-0.8,2.1-1.2c2.2-1.2,5.9-3.2,9.7-4.8
		c2.1-0.9,4.2-1.7,6.4-2.3c2-0.6,3.7-1.1,5.2-1.4c0.7-0.2,1.3-0.3,2-0.5c1.2-0.3,2.4-0.4,3.6-0.5c1.8,0,3.8,0,5.6,0.3
		c0.7,0.1,1.5,0.3,2.2,0.5c1.5,0.5,3.9,1.5,5.8,2.8c0.2,0.1,0.3,0.2,0.5,0.3l0,0c0.5,0.4,1,0.8,1.5,1.2c1.2,1.1,3,2.9,4.6,5
		c0.1,0.1,0.2,0.2,0.3,0.4c0.1,0.1,0.2,0.2,0.2,0.3c0.9,1.2,1.7,2.5,2.4,3.8c1.3,2.5,4.4,9,7,18.6c1.9,7.2,3,14.6,3.9,22
		c1.5,18.2,2.5,34.5,2.8,39.3c0,0.5,0.1,0.9,0.1,1.4s0.4,1,0.6,1.4c0.5-0.3,1.1-0.5,1.4-0.9c0.3-0.4,0.6-0.8,0.8-1.2
		c0-0.1,0.1-0.1,0.1-0.2c0.1-0.1,0.2-0.3,0.4-0.6c1.7-2.5,3.4-5,5.1-7.5c3.9-5.9,7.8-11.8,11.8-17.7c2.5-3.5,4.1-5.7,5.3-7.4
		c1.6-2.1,3.3-4.1,5.1-6c1.1-1.1,2.1-2.2,3.1-3.1c2.3-2.2,4.7-4.2,7.3-6.1c1.5-1,2.1-1.4,4-2c2.5-0.9,52.9-18.6,80.2,9.6
		c6.6,6.8,11.6,12,15.4,15.9c3.2,3.8,6.5,7.6,9.7,11.3c0.5,0.6,1.5,0.7,2.2,1c0.3-0.6,0.6-1.2,0.7-1.9c0.3-2.7,0.5-5.4,0.9-8.1
		c1.2-9,2.6-18,3.8-27c0.9-7.3,2.5-14.5,5.4-21.3c2.8-6.7,5.7-13.3,13.3-16.4c3.9-1.6,7.8-3.2,12.1-3c7.7,0.5,15.2,1.9,22.4,4.8
		c1.2,0.5,2.5,0.9,3.7,1.3c18.9,8.2,34.9,15.6,44.2,19.9c0.9,0.5,1.8,0.9,2.8,1.4c1.9,0.9,3.7,1.7,6.2,2.9c-0.3-1.5-0.3-2.5-0.6-3.4
		c-1.4-4-2.9-8.1-4.4-12.1l-7.2-22.2c0,0-9.3-58.9,74.2-71.4c4.2-0.6,8.3-1.1,12.5-1.8c1.2-0.2,2.5-0.4,3.7-0.7
		c67.3-10.1,67.4-10.1,67.4-10.1c0.2,0,0.4-0.3,0.7-0.6C1212.7,595.1,1208.3,594.1,1204,593z"/>
	<path id="OrangeBang" class="st1" d="M715.4,672.4c0,0,2.5-5.2-1.5-10.2s-9.7-11.9-24.3-15.4s-32.1-7.8-32.1-7.8
		s15.6-9.6,22.4-18.2c6.8-8.6,11.2-15.6,13-19.5s9.3-32.5-2.3-47.6C679,538.5,679,538.5,679,538.5s14.4-0.5,24.2-3.5
		s23.4-7.8,30.7-14.6s15.2-14.7,19.2-24.6c4.1-9.9,6.2-16.3,7-20.2c0.8-3.9,3.3-20.1,3.3-20.1s0.1-0.7,0.7,0.3s2.5,5.2,6.1,8.4
		s9.3,8.7,22.6,11c13.2,2.2,28.6-0.7,28.6-0.7s10-1.7,18-4.5s49.8-25.3,59.1-40.1c9.3-14.8,9.3-14.8,9.3-14.8s3.1,13.6,10.8,30.8
		s10.9,29,30.1,30.5s39.4-2.6,60.6-20.9c0,0,0.2,23.7,11.6,34.6s14.4,14.6,23.3,16.4s25.1,4.6,41.6-1.9s26.7-11.1,26.7-11.1
		s-7.3,9.6-9.8,15.1c-2.4,5.4-6,15.2-6.3,21.5c-0.3,6.4,0,9,0.4,17.4c0.4,8.5,4.6,26.5,25.4,38.2c20.8,11.8,20.8,11.8,20.8,11.8
		l-13.6,3.3c0,0-111.1,23-93.6,90.3c0,0-48.7-23.4-63.7-14.1c-15.1,9.3-27.1,26.1-29.5,40.8s-2.4,14.7-2.4,14.7l-4.7-4.5
		c0,0-31.7-30.4-78.9-20.4s0,0,0,0s-11.4,3.5-17.7,8.1s-14.7,12.2-16.9,14.8s-8.6,10.8-8.6,10.8s-2.5-36.9-10.8-49.2
		c-8.3-12.2-9.7-15.7-16.5-18.2c-6.8-2.4-14.2-4.8-23-2.2c-8.9,2.5-19.9,5-36.2,17.1c-16.4,12.1-21,15.4-21,15.4s2.4-3.8,5.2-12.2
		C713.9,683.7,715.4,672.4,715.4,672.4"/>
	<path id="GulBang" class="st2" d="M705,548.4c0,0,0.4,0.9,0.9,2.5c3.5,9.8,14.9,45,3.5,56.9c-13.2,13.9-19.3,18.8-26.1,22.6
		s-6.8,3.8-6.8,3.8s-0.5,1.4,5.2,0.9l33.5-2.4c0,0,6.6-1.8,14.7,1.5c8.1,3.2,1.6,29.6,1.6,29.6l-8.4,16.7c0,0,0.2,2,3.2-0.5
		s14.1-12,21.6-16.4s19.1-10.1,24.5-10.6s12.1-0.4,18.9,1.5c6.8,2,16.7,13.1,21.4,27.7c4.7,14.6,6,28.8,6,28.8l1.5,17
		c0,0,2.7-4.4,8.4-10.8c5.7-6.3,7.8-8.6,10.6-11.3s14-18.2,33.9-20.7c19.8-2.5,55.3,20,55.3,20s7-44.6,44.9-44.9
		c0,0,10.6-3.6,30.4,5.4c19.8,9,19.8,9,19.8,9l-4.4-19.7c-1.2-4.4-4.6-15.2,0.8-25.9c13.8-27.2,65.4-32.1,66.8-32.3
		c15.5-2.4,0,0,15.5-2.4c-29.4-34.8-36.3-53.9-8.2-84.9c-6.6,8-78.6,41.9-93.3-21l0,0c0,0-107.1,42.9-100.5-33.7
		c0,0-25.8,24-56.1,35.7c-33,12.6-68.8,18-75.9-13.3c0,0,7.9,71.2-66.4,63.5c0,0-3.9,0.2-1.4,3.1C702.9,547,705,548.4,705,548.4z"/>
</g>
<g id="Bling_x5F_text">
	<g>
		<g>
			<path class="st3" d="M694.4,460.6c4.8-0.1,13.8-0.9,27.2-2.4c11.5-1.2,20.7-1.7,27.5-1.4c2.6,0.2,5.2,0.5,7.7,0.9
				c19.3,2.8,27.7,11.5,25.5,26.1c-3,20.7-18,39.6-45,56.8c15.2,1.1,23.2,6.9,24.1,17.4c0.1,2.2,0,4.5-0.3,6.9
				c-1.7,11.7-8.7,22.7-21,33.2c-9.4,8-20.5,14.6-33.3,19.9c-15.4,6.3-32.3,8.1-50.7,5.4c-2.9-0.4-5.8-0.9-8.7-1.5
				c10.4-31,22.9-73,37.7-125.8C689.3,481,692.4,469.2,694.4,460.6z M703.4,561.1c-2,5.7-4.5,13.6-7.2,23.5
				c21.6-3.7,33-9.8,34.2-18.3c0.5-3.1-1.9-5-7-5.8C718.9,559.8,712.2,560,703.4,561.1z M724.6,500.3c-1.9,5-3.8,9.9-5.5,14.9
				l-5.3,14.9c11.7-5.4,20.5-12.4,26.3-20.9c1.3-1.9,2.1-3.4,2.3-4.7c0.4-2.6-1.3-4.2-5.1-4.8C734.3,499.4,730.1,499.5,724.6,500.3z
				"/>
			<path class="st3" d="M793.6,474.5l38.7-1.9c-16.8,41.5-30.8,80.1-41.8,115.7l39.4-0.6l-9.7,42.9c-20.1-1-46.1,0.6-77.9,5
				L793.6,474.5z"/>
			<path class="st3" d="M868.4,485.4l38.7-1.9c-24.3,60.1-42.2,112.7-53.6,157.8l-36.3,5.2L868.4,485.4z"/>
			<path class="st3" d="M912.7,492.6l39.1-2.6c-1,4.8-2.1,11.6-3.4,20.5c-3.1,21.2-5.2,39.8-6.2,56.1c-0.6,9.3-0.6,16.8,0,22.6
				l28.2-88.8l38.7-1.9c-24.3,60.1-42.2,112.7-53.6,157.8l-36.1,5.2c-0.1-0.3-0.6-3.2-1.6-8.6l-6.3-36.2c-1.1-5.9-1.6-9.6-1.7-11.2
				c-5.8,17.9-10.8,35.4-15.1,52.4L858,664L912.7,492.6z"/>
			<path class="st3" d="M998.8,678.5c-15.5-2.3-25.1-12.7-28.9-31.4c-2.1-9.4-2.3-19.6-0.7-30.6c1.5-10.4,4.7-21.6,9.6-33.6
				c8.2-20.6,20.2-38.7,36-54.5c19.1-19.3,37.6-27.6,55.5-25c15.6,2.3,25.3,13.1,29,32.4l-28.4,24.2c-2-4.6-5.6-7.3-10.7-8
				c-9.9-1.5-20.3,4.5-31.2,17.8c-8.2,10.1-14.9,21.6-20,34.5c-2.1,5.1-3.4,9.7-4.1,13.9c-0.9,6.4-0.2,11.7,2.3,16.1
				c2.7,4.8,7.1,7.7,13.1,8.6c6.9,1,13.7-1.4,20.5-7.2c5.4-4.6,10.2-10.7,14.3-18.4c-11.1,0.7-21.5,1.7-31,2.8l12-33.2l60-4.8
				c-1.2,10.1-4.9,21.4-11.2,33.8c-5.6,10.9-12.1,20.8-19.3,29.5C1044.4,670.9,1022.1,682,998.8,678.5z"/>
			<path class="st3" d="M1099.5,648.7c5.2,0,9.6,1.4,13.2,4.3c4.3,3.2,6.1,7.4,5.3,12.7c-1,7.2-5.6,13.2-13.6,18
				c-6.2,3.9-12.7,5.8-19.4,5.7c-5.4,0-9.8-1.3-13.3-3.9c-4.2-3.2-5.9-7.4-5.1-12.7c1-7.2,5.5-13.3,13.2-18.3
				C1086.1,650.7,1092.6,648.7,1099.5,648.7z M1145.5,507.2l44.6,14.9c-15.5,21.4-27.1,38.2-34.7,50.4
				c-10.4,16.8-20.1,35.1-29.1,55.1l-30.2-5.9L1145.5,507.2z"/>
		</g>
	</g>
	<g>
		<g>
			<path class="st4" d="M686.7,463.8c4.7,0,13.5-0.7,26.4-2c11.2-1,20.1-1.3,26.7-1.1c2.6,0.2,5.1,0.5,7.5,0.9
				c18.8,2.8,27.1,10.8,25,24.1c-2.8,18.9-17.2,36.1-43.3,51.6c14.8,1.2,22.6,6.5,23.6,16.1c0.1,2.1,0,4.1-0.3,6.3
				c-1.6,10.7-8.3,20.7-20.1,30.2c-9.1,7.2-19.8,13.2-32.3,17.9c-14.9,5.7-31.3,7.2-49.3,4.5c-2.8-0.4-5.7-0.9-8.5-1.5
				c9.8-28.3,21.7-66.6,35.6-114.8C681.8,482.4,684.8,471.7,686.7,463.8z M696.3,555.8c-1.9,5.2-4.2,12.4-6.8,21.4
				c20.9-3.2,32-8.7,33.1-16.5c0.4-2.8-1.9-4.6-6.8-5.4C711.3,554.8,704.8,554.9,696.3,555.8z M716.4,500.4
				c-1.8,4.5-3.6,9.1-5.3,13.6l-5,13.6c11.3-4.9,19.8-11.2,25.4-18.9c1.3-1.7,2-3.1,2.1-4.3c0.4-2.4-1.3-3.9-5-4.4
				C725.8,499.6,721.7,499.7,716.4,500.4z"/>
			<path class="st4" d="M783.3,477.3l37.7-1.4c-16,37.9-29.2,73.1-39.7,105.5l38.4-0.3l-9,39.2c-19.6-1.1-44.8,0.2-75.7,3.9
				L783.3,477.3z"/>
			<path class="st4" d="M856.2,488l37.7-1.4c-23.2,54.9-40.1,102.8-50.8,144l-35.3,4.4L856.2,488z"/>
			<path class="st4" d="M899.4,495l38-2.1c-0.9,4.4-2,10.6-3.2,18.7c-2.8,19.3-4.7,36.4-5.6,51.3c-0.5,8.5-0.4,15.4,0.2,20.7
				l26.7-81.1l37.7-1.4c-23.2,54.8-40.1,102.8-50.8,144l-35.1,4.4c-0.1-0.3-0.7-2.9-1.7-7.9l-6.5-33.2c-1.1-5.4-1.7-8.8-1.8-10.3
				c-5.4,16.3-10.2,32.3-14.2,47.8l-35.6,5.2L899.4,495z"/>
			<path class="st4" d="M984.7,665.9c-15.1-2.2-24.6-11.9-28.4-29c-2.1-8.6-2.4-17.9-0.9-28c1.4-9.5,4.4-19.8,9.1-30.7
				c7.8-18.7,19.3-35.3,34.5-49.6c18.4-17.5,36.3-25,53.8-22.4c15.2,2.2,24.7,12.2,28.5,29.9l-27.4,21.9c-2-4.2-5.5-6.7-10.5-7.4
				c-9.7-1.4-19.8,3.9-30.2,16c-7.9,9.2-14.3,19.6-19.2,31.4c-2,4.6-3.3,8.9-3.8,12.7c-0.9,5.8-0.1,10.7,2.4,14.7
				c2.7,4.5,6.9,7.1,12.8,8c6.7,1,13.3-1.2,19.9-6.4c5.3-4.2,9.9-9.7,13.8-16.7c-10.8,0.6-20.9,1.4-30.2,2.3l11.3-30.3l58.4-3.8
				c-1.1,9.3-4.6,19.6-10.6,30.9c-5.4,10-11.6,18.9-18.5,26.9C1029,659.4,1007.5,669.3,984.7,665.9z"/>
			<path class="st4" d="M1082.4,639.5c5.1,0,9.4,1.4,12.9,4.1c4.2,2.9,6,6.8,5.3,11.7c-1,6.5-5.3,12-13.1,16.4
				c-6,3.5-12.3,5.2-18.8,5.1c-5.2,0-9.5-1.3-13-3.6c-4.1-2.9-5.8-6.8-5-11.6c1-6.5,5.2-12.1,12.7-16.7
				C1069.4,641.2,1075.8,639.4,1082.4,639.5z M1126,510.4l43.5,14c-14.9,19.5-26,34.7-33.3,45.9c-9.9,15.2-19.2,32-27.8,50.2
				l-29.5-5.6L1126,510.4z"/>
		</g>
	</g>
</g>
</svg>
