<?xml version="1.0" encoding="utf-8"?>
<!-- Generator: Adobe Illustrator 22.1.0, SVG Export Plug-In . SVG Version: 6.00 Build 0)  -->
<svg version="1.1" id="Lag_1" xmlns="http://www.w3.org/2000/svg" xmlns:xlink="http://www.w3.org/1999/xlink" x="0px" y="0px"
	 viewBox="0 0 1920 1080" style="enable-background:new 0 0 1920 1080;" xml:space="preserve">
<style type="text/css">
	.st0{fill:#E82827;}
	.st1{fill:#FCC326;}
	.st2{fill:#FCE837;}
	.st3{fill:#FC7800;stroke:#000000;stroke-linecap:round;stroke-linejoin:round;stroke-miterlimit:10;}
	.st4{fill:#EB66A2;stroke:#000000;stroke-width:4;stroke-linecap:round;stroke-linejoin:round;stroke-miterlimit:10;}
	.st5{fill:#FC7800;stroke:#000000;stroke-width:1.1646;stroke-linecap:round;stroke-linejoin:round;stroke-miterlimit:10;}
	.st6{fill:#EB66A2;stroke:#000000;stroke-width:2.7911;stroke-linecap:round;stroke-linejoin:round;stroke-miterlimit:10;}
</style>
<g id="Explotion">
	<path id="RedBang" class="st0" d="M1204,593l-23-6.9l0,0c-1.1-0.4-24.6-9.5-42.3-18.8c-3.4-1.9-6.8-3.8-10.1-5.8
		c-2.6-1.7-4.8-3.3-6.4-4.8c-2.2-2.5-3.5-5.6-3.5-9.4c0-1.3-0.4-2.7-0.6-4c-0.5-3.1-0.6-6.2-0.5-9.3c0.7-5.8,2.1-12.1,4.3-18
		c4.1-9.2,10.1-17.3,16.6-25l35.6-42c0,0,0.6-0.5-0.2-0.5v-0.1c-0.6,0.1-1.2,0.1-1.7,0.3c-3.1,0.6-59.6,32.2-59.7,32.2
		c-2.6,1.2-5.3,2.3-8,3.3c-5.8,2.1-11.6,4-17.6,5c-25.3,4.1-58.9-4.1-48.9-81.8c0.1-0.6,0.2-1.1,0.3-1.7c0.7-4.6,1.5-9.2,2.3-14.6
		c-1.2,0.9-1.9,1.2-2.4,1.8c-6.5,7-13,14-19.4,21l-13.1,13.7c-6.6,6.2-13.7,11.8-22,16c-0.3,0.1-0.6,0.3-0.9,0.4c-2.4,1-5,2-7.8,3.1
		c-0.8,0.3-1.6,0.6-2.4,0.9c-41.2,15.3-54.4-82.9-54.4-82.9s-40.9,68.9-57.9,76.1c-15.9,6.7-22.9,9.5-30.2,11.1
		c-0.5,0.1-1.1,0.2-1.6,0.3c-3.2,0.6-6.4,1.3-9.6,1.9c-7.2,1.2-16.1,1.9-26.7-0.5c-2.1-0.6-4.2-1.4-6.2-2.4c-3.7-1.8-7-4.2-9.5-7.2
		c-0.9-1.2-1.8-2.4-2.5-3.8c-0.1-0.3-0.3-0.5-0.4-0.8c-2.8-5.8-5.6-11.6-8.3-17.4c-1.5-3.1-2.8-6-4.1-8.7c-2.1-4.6-4.3-9.2-6.4-13.7
		c-0.3-0.6-0.9-1-1.3-1.5c-0.1,0.1-0.2,0.2-0.2,0.4c-0.4,0-0.7,0.4-0.8,1.5c0,0.1,0,0.2,0,0.2c-0.7,7-1.3,14-2,20.9
		c-0.4,4-0.7,8-1.1,12.1c-1,10.3-1.9,19.9-2.4,23.7c-1.4,9.2-3.9,18.1-7.8,26.7c-3,6.5-6.8,12.4-11.7,17.4
		c-12.4,12.1-33.1,21.3-67.7,18.8c-11.4-0.7-22.8-1.3-34.2-2c-0.8,0-1.6,0-2.4,0c-0.2,0.3-0.3,0.7-0.5,1c0.4,0.2,0.9,0.3,1.3,0.5
		c4.8,2.7,9.5,5.4,14.3,8.1c5.6,3.2,11.2,6.3,16.7,9.5c3,1.8,6.1,3.4,8.6,5.7c5.2,4.7,8.8,10.6,12.1,16.8
		c2.5,19.2,8.7,21.6-0.2,36.3c-2.6,4.2-4,7.1-5.1,9.4c-4,6-8.7,11.3-14.4,15.7c-0.1,0.1-0.3,0.2-0.5,0.3c-0.4,0.3-0.8,0.6-1.2,0.9
		c0,0-0.1,0-0.1,0.1c-0.6,0.4-1.2,0.8-1.8,1.2c-9.1,6-18.6,11.3-27.9,16.9c-1.4,0.8-2.7,1.7-4.4,2.7c3.8,1.1,7,2.1,10.3,3
		c4.1,1.1,8.3,1.9,12.5,2.9c2.2,0.5,4.3,1.1,6.5,1.7c2.6,0.7,5.1,1.4,7.7,2c3.1,0.7,6.3,1.1,9.4,1.9c0,0,8.4,2.1,14.8,4.3
		c2.1,0.7,4.1,1.5,6.1,2.4c2.6,1.3,4.1,2.1,5,2.7c0.7,0.5,1.3,1,1.8,1.5c0.8,0.9,1.7,2,2.4,3.1c0.3,0.5,0.5,1,0.7,1.5
		s0.3,1.1,0.5,1.7c0.2,1.1,0.3,2.3,0.3,3.5c-0.2,1.8-0.8,4.9-1,5.8c-0.6,2.7-1.2,5.3-2,7.9c-0.8,2.2-1.5,4.2-2.1,5.8
		c-0.3,0.8-0.6,1.6-1,2.4c-1.5,3.1-26.5,50.8-27,52.4c-0.1,0.2,0.2,0.1,0.6,0c0.6,0,0.9-0.2,1.2-0.4c3.4-2.7,6.7-5.4,10.1-8.1
		c2.8-2.3,5.7-4.6,8.5-6.9l32.1-25.9c1.3-1,2.6-2.1,4-3.1c0.2-0.2,0.4-0.3,0.5-0.4c0.4-0.3,0.8-0.6,1.2-0.9c0.6-0.5,1.5-1.1,2.2-1.6
		c0.3-0.2,0.6-0.5,1-0.7l0.1-0.1c0.1-0.1,0.2-0.1,0.3-0.2c1.2-0.9,6.9-4.8,10.5-7c0.7-0.4,1.4-0.8,2.1-1.2c2.2-1.2,5.9-3.2,9.7-4.8
		c2.1-0.9,4.2-1.7,6.4-2.3c2-0.6,3.7-1.1,5.2-1.4c0.7-0.2,1.3-0.3,2-0.5c1.2-0.3,2.4-0.4,3.6-0.5c1.8,0,3.8,0,5.6,0.3
		c0.7,0.1,1.5,0.3,2.2,0.5c1.5,0.5,3.9,1.5,5.8,2.8c0.2,0.1,0.3,0.2,0.5,0.3l0,0c0.5,0.4,1,0.8,1.5,1.2c1.2,1.1,3,2.9,4.6,5
		c0.1,0.1,0.2,0.2,0.3,0.4c0.1,0.1,0.2,0.2,0.2,0.3c0.9,1.2,1.7,2.5,2.4,3.8c1.3,2.5,4.4,9,7,18.6c1.9,7.2,3,14.6,3.9,22
		c1.5,18.2,2.5,34.5,2.8,39.3c0,0.5,0.1,0.9,0.1,1.4s0.4,1,0.6,1.4c0.5-0.3,1.1-0.5,1.4-0.9c0.3-0.4,0.6-0.8,0.8-1.2
		c0-0.1,0.1-0.1,0.1-0.2c0.1-0.1,0.2-0.3,0.4-0.6c1.7-2.5,3.4-5,5.1-7.5c3.9-5.9,7.8-11.8,11.8-17.7c2.5-3.5,4.1-5.7,5.3-7.4
		c1.6-2.1,3.3-4.1,5.1-6c1.1-1.1,2.1-2.2,3.1-3.1c2.3-2.2,4.7-4.2,7.3-6.1c1.5-1,2.1-1.4,4-2c2.5-0.9,52.9-18.6,80.2,9.6
		c6.6,6.8,11.6,12,15.4,15.9c3.2,3.8,6.5,7.6,9.7,11.3c0.5,0.6,1.5,0.7,2.2,1c0.3-0.6,0.6-1.2,0.7-1.9c0.3-2.7,0.5-5.4,0.9-8.1
		c1.2-9,2.6-18,3.8-27c0.9-7.3,2.5-14.5,5.4-21.3c2.8-6.7,5.7-13.3,13.3-16.4c3.9-1.6,7.8-3.2,12.1-3c7.7,0.5,15.2,1.9,22.4,4.8
		c1.2,0.5,2.5,0.9,3.7,1.3c18.9,8.2,34.9,15.6,44.2,19.9c0.9,0.5,1.8,0.9,2.8,1.4c1.9,0.9,3.7,1.7,6.2,2.9c-0.3-1.5-0.3-2.5-0.6-3.4
		c-1.4-4-2.9-8.1-4.4-12.1l-7.2-22.2c0,0-9.3-58.9,74.2-71.4c4.2-0.6,8.3-1.1,12.5-1.8c1.2-0.2,2.5-0.4,3.7-0.7
		c67.3-10.1,67.4-10.1,67.4-10.1c0.2,0,0.4-0.3,0.7-0.6C1212.7,595.1,1208.3,594.1,1204,593z"/>
	<path id="OrangeBang" class="st1" d="M715.4,672.4c0,0,2.5-5.2-1.5-10.2s-9.7-11.9-24.3-15.4s-32.1-7.8-32.1-7.8
		s15.6-9.6,22.4-18.2c6.8-8.6,11.2-15.6,13-19.5s9.3-32.5-2.3-47.6C679,538.5,679,538.5,679,538.5s14.4-0.5,24.2-3.5
		s23.4-7.8,30.7-14.6s15.2-14.7,19.2-24.6c4.1-9.9,6.2-16.3,7-20.2c0.8-3.9,3.3-20.1,3.3-20.1s0.1-0.7,0.7,0.3s2.5,5.2,6.1,8.4
		s9.3,8.7,22.6,11c13.2,2.2,28.6-0.7,28.6-0.7s10-1.7,18-4.5s49.8-25.3,59.1-40.1c9.3-14.8,9.3-14.8,9.3-14.8s3.1,13.6,10.8,30.8
		s10.9,29,30.1,30.5s39.4-2.6,60.6-20.9c0,0,0.2,23.7,11.6,34.6s14.4,14.6,23.3,16.4s25.1,4.6,41.6-1.9s26.7-11.1,26.7-11.1
		s-7.3,9.6-9.8,15.1c-2.4,5.4-6,15.2-6.3,21.5c-0.3,6.4,0,9,0.4,17.4c0.4,8.5,4.6,26.5,25.4,38.2c20.8,11.8,20.8,11.8,20.8,11.8
		l-13.6,3.3c0,0-111.1,23-93.6,90.3c0,0-48.7-23.4-63.7-14.1c-15.1,9.3-27.1,26.1-29.5,40.8s-2.4,14.7-2.4,14.7l-4.7-4.5
		c0,0-31.7-30.4-78.9-20.4s0,0,0,0s-11.4,3.5-17.7,8.1s-14.7,12.2-16.9,14.8s-8.6,10.8-8.6,10.8s-2.5-36.9-10.8-49.2
		c-8.3-12.2-9.7-15.7-16.5-18.2c-6.8-2.4-14.2-4.8-23-2.2c-8.9,2.5-19.9,5-36.2,17.1c-16.4,12.1-21,15.4-21,15.4s2.4-3.8,5.2-12.2
		C713.9,683.7,715.4,672.4,715.4,672.4"/>
	<path id="GulBang" class="st2" d="M705,548.4c0,0,0.4,0.9,0.9,2.5c3.5,9.8,14.9,45,3.5,56.9c-13.2,13.9-19.3,18.8-26.1,22.6
		s-6.8,3.8-6.8,3.8s-0.5,1.4,5.2,0.9l33.5-2.4c0,0,6.6-1.8,14.7,1.5c8.1,3.2,1.6,29.6,1.6,29.6l-8.4,16.7c0,0,0.2,2,3.2-0.5
		s14.1-12,21.6-16.4s19.1-10.1,24.5-10.6s12.1-0.4,18.9,1.5c6.8,2,16.7,13.1,21.4,27.7c4.7,14.6,6,28.8,6,28.8l1.5,17
		c0,0,2.7-4.4,8.4-10.8c5.7-6.3,7.8-8.6,10.6-11.3s14-18.2,33.9-20.7c19.8-2.5,55.3,20,55.3,20s7-44.6,44.9-44.9
		c0,0,10.6-3.6,30.4,5.4c19.8,9,19.8,9,19.8,9l-4.4-19.7c-1.2-4.4-4.6-15.2,0.8-25.9c13.8-27.2,65.4-32.1,66.8-32.3
		c15.5-2.4,0,0,15.5-2.4c-29.4-34.8-36.3-53.9-8.2-84.9c-6.6,8-78.6,41.9-93.3-21l0,0c0,0-107.1,42.9-100.5-33.7
		c0,0-25.8,24-56.1,35.7c-33,12.6-68.8,18-75.9-13.3c0,0,7.9,71.2-66.4,63.5c0,0-3.9,0.2-1.4,3.1C702.9,547,705,548.4,705,548.4z"/>
</g>
<g id="Bling_x5F_text">
	<g>
		<g>
			<path class="st3" d="M793.3,274.3c4.8-0.1,13.8-0.9,27.2-2.4c11.5-1.2,20.7-1.7,27.5-1.4c2.6,0.2,5.2,0.5,7.7,0.9
				c19.3,2.8,27.7,11.5,25.5,26.1c-3,20.7-18,39.6-45,56.8c15.2,1.1,23.2,6.9,24.1,17.4c0.1,2.2,0,4.5-0.3,6.9
				c-1.7,11.7-8.7,22.7-21,33.2c-9.4,8-20.5,14.6-33.3,19.9c-15.4,6.3-32.3,8.1-50.7,5.4c-2.9-0.4-5.8-0.9-8.7-1.5
				c10.4-31,22.9-73,37.7-125.8C788.2,294.7,791.3,282.9,793.3,274.3z M802.3,374.8c-2,5.7-4.5,13.6-7.2,23.5
				c21.6-3.7,33-9.8,34.2-18.3c0.5-3.1-1.9-5-7-5.8C817.8,373.5,811.1,373.7,802.3,374.8z M823.5,314c-1.9,5-3.8,9.9-5.5,14.9
				l-5.3,14.9c11.7-5.4,20.5-12.4,26.3-20.9c1.3-1.9,2.1-3.4,2.3-4.7c0.4-2.6-1.3-4.2-5.1-4.8C833.2,313.1,829,313.2,823.5,314z"/>
			<path class="st3" d="M892.5,288.2l38.7-1.9c-16.8,41.5-30.8,80.1-41.8,115.7l39.4-0.6l-9.7,42.9c-20.1-1-46.1,0.6-77.9,5
				L892.5,288.2z"/>
			<path class="st3" d="M967.3,299.1l38.7-1.9c-24.3,60.1-42.2,112.7-53.6,157.8l-36.3,5.2L967.3,299.1z"/>
			<path class="st3" d="M1011.6,306.3l39.1-2.6c-1,4.8-2.1,11.6-3.4,20.5c-3.1,21.2-5.2,39.8-6.2,56.1c-0.6,9.3-0.6,16.8,0,22.6
				l28.2-88.8l38.7-1.9c-24.3,60.1-42.2,112.7-53.6,157.8l-36.1,5.2c-0.1-0.3-0.6-3.2-1.6-8.6l-6.3-36.2c-1.1-5.9-1.6-9.6-1.7-11.2
				c-5.8,17.9-10.8,35.4-15.1,52.4l-36.7,6.1L1011.6,306.3z"/>
			<path class="st3" d="M1097.7,492.2c-15.5-2.3-25.1-12.7-28.9-31.4c-2.1-9.4-2.3-19.6-0.7-30.6c1.5-10.4,4.7-21.6,9.6-33.6
				c8.2-20.6,20.2-38.7,36-54.5c19.1-19.3,37.6-27.6,55.5-25c15.6,2.3,25.3,13.1,29,32.4l-28.4,24.2c-2-4.6-5.6-7.3-10.7-8
				c-9.9-1.5-20.3,4.5-31.2,17.8c-8.2,10.1-14.9,21.6-20,34.5c-2.1,5.1-3.4,9.7-4.1,13.9c-0.9,6.4-0.2,11.7,2.3,16.1
				c2.7,4.8,7.1,7.7,13.1,8.6c6.9,1,13.7-1.4,20.5-7.2c5.4-4.6,10.2-10.7,14.3-18.4c-11.1,0.7-21.5,1.7-31,2.8l12-33.2l60-4.8
				c-1.2,10.1-4.9,21.4-11.2,33.8c-5.6,10.9-12.1,20.8-19.3,29.5C1143.3,484.6,1121,495.7,1097.7,492.2z"/>
			<path class="st3" d="M1198.4,462.4c5.2,0,9.6,1.4,13.2,4.3c4.3,3.2,6.1,7.4,5.3,12.7c-1,7.2-5.6,13.2-13.6,18
				c-6.2,3.9-12.7,5.8-19.4,5.7c-5.4,0-9.8-1.3-13.3-3.9c-4.2-3.2-5.9-7.4-5.1-12.7c1-7.2,5.5-13.3,13.2-18.3
				C1185,464.4,1191.5,462.4,1198.4,462.4z M1244.4,320.9l44.6,14.9c-15.5,21.4-27.1,38.2-34.7,50.4c-10.4,16.8-20.1,35.1-29.1,55.1
				l-30.2-5.9L1244.4,320.9z"/>
		</g>
	</g>
	<g>
		<g>
			<path class="st4" d="M785.6,277.5c4.7,0,13.5-0.7,26.4-2c11.2-1,20.1-1.3,26.7-1.1c2.6,0.2,5.1,0.5,7.5,0.9
				c18.8,2.8,27.1,10.8,25,24.1c-2.8,18.9-17.2,36.1-43.3,51.6c14.8,1.2,22.6,6.5,23.6,16.1c0.1,2.1,0,4.1-0.3,6.3
				c-1.6,10.7-8.3,20.7-20.1,30.2c-9.1,7.2-19.8,13.2-32.3,17.9c-14.9,5.7-31.3,7.2-49.3,4.5c-2.8-0.4-5.7-0.9-8.5-1.5
				c9.8-28.3,21.7-66.6,35.6-114.8C780.7,296.1,783.7,285.4,785.6,277.5z M795.2,369.5c-1.9,5.2-4.2,12.4-6.8,21.4
				c20.9-3.2,32-8.7,33.1-16.5c0.4-2.8-1.9-4.6-6.8-5.4C810.2,368.5,803.7,368.6,795.2,369.5z M815.3,314.1
				c-1.8,4.5-3.6,9.1-5.3,13.6l-5,13.6c11.3-4.9,19.8-11.2,25.4-18.9c1.3-1.7,2-3.1,2.1-4.3c0.4-2.4-1.3-3.9-5-4.4
				C824.7,313.3,820.6,313.4,815.3,314.1z"/>
			<path class="st4" d="M882.2,291l37.7-1.4c-16,37.9-29.2,73.1-39.7,105.5l38.4-0.3l-9,39.2c-19.6-1.1-44.8,0.2-75.7,3.9L882.2,291
				z"/>
			<path class="st4" d="M955.1,301.7l37.7-1.4c-23.2,54.9-40.1,102.8-50.8,144l-35.3,4.4L955.1,301.7z"/>
			<path class="st4" d="M998.3,308.7l38-2.1c-0.9,4.4-2,10.6-3.2,18.7c-2.8,19.3-4.7,36.4-5.6,51.3c-0.5,8.5-0.4,15.4,0.2,20.7
				l26.7-81.1l37.7-1.4c-23.2,54.8-40.1,102.8-50.8,144l-35.1,4.4c-0.1-0.3-0.7-2.9-1.7-7.9l-6.5-33.2c-1.1-5.4-1.7-8.8-1.8-10.3
				c-5.4,16.3-10.2,32.3-14.2,47.8l-35.6,5.2L998.3,308.7z"/>
			<path class="st4" d="M1083.6,479.6c-15.1-2.2-24.6-11.9-28.4-29c-2.1-8.6-2.4-17.9-0.9-28c1.4-9.5,4.4-19.8,9.1-30.7
				c7.8-18.7,19.3-35.3,34.5-49.6c18.4-17.5,36.3-25,53.8-22.4c15.2,2.2,24.7,12.2,28.5,29.9l-27.4,21.9c-2-4.2-5.5-6.7-10.5-7.4
				c-9.7-1.4-19.8,3.9-30.2,16c-7.9,9.2-14.3,19.6-19.2,31.4c-2,4.6-3.3,8.9-3.8,12.7c-0.9,5.8-0.1,10.7,2.4,14.7
				c2.7,4.5,6.9,7.1,12.8,8c6.7,1,13.3-1.2,19.9-6.4c5.3-4.2,9.9-9.7,13.8-16.7c-10.8,0.6-20.9,1.4-30.2,2.3l11.3-30.3l58.4-3.8
				c-1.1,9.3-4.6,19.6-10.6,30.9c-5.4,10-11.6,18.9-18.5,26.9C1127.9,473.1,1106.4,483,1083.6,479.6z"/>
			<path class="st4" d="M1181.3,453.2c5.1,0,9.4,1.4,12.9,4.1c4.2,2.9,6,6.8,5.3,11.7c-1,6.5-5.3,12-13.1,16.4
				c-6,3.5-12.3,5.2-18.8,5.1c-5.2,0-9.5-1.3-13-3.6c-4.1-2.9-5.8-6.8-5-11.6c1-6.5,5.2-12.1,12.7-16.7
				C1168.3,454.9,1174.7,453.1,1181.3,453.2z M1224.9,324.1l43.5,14c-14.9,19.5-26,34.7-33.3,45.9c-9.9,15.2-19.2,32-27.8,50.2
				l-29.5-5.6L1224.9,324.1z"/>
		</g>
	</g>
</g>
<g id="Lag_2">
	<g>
		<path class="st5" d="M687.9,579.8c0-0.8-0.7-1.6-2.1-2.3c-0.1-0.6-1.3-1.7-3.4-3.3c0-0.2-2-1.9-6-5.4c-3-6.1-5.1-11.7-6.4-16.8
			c0-1.4-1.6-4.6-4.9-9.6c0-1.1-0.2-2.6-0.6-4.4c0.7-0.8,1.5-4,2.4-9.6c2.1-10.1,3.2-17.7,3.2-22.9l-1.1-4.7h1.1h0.4
			c0.4,0.3,1.1,0.5,2.1,0.5c0-0.5,0.2-0.7,0.6-0.7l8.8,5.4l11.1-10.5c0-0.9,0.4-2.1,1.3-3.5c0-2,1.6-3.7,4.9-4.9h0.4
			c1.4,0,2.6,0.2,3.4,0.7c2-0.5,4.3-0.7,6.8-0.7c0,0.6,1,0.9,3,0.9l1.5-0.2l6.8,1.9l0.6-0.2c1.1,0.6,2.6,1.3,4.5,2.1l5.4,4l1.5,1.9
			c-1.1,1.7-1.7,2.9-1.7,3.5c-0.6,0-1.5,3.3-2.8,10c-0.7,0.9-1.5,3.2-2.4,6.8c-1,2.6-1.5,4.5-1.5,5.6c-1.4,5.1-2.6,7.8-3.4,7.9
			c-3,5.6-4.5,9.4-4.5,11.4c3.1,1.1,4.9,1.9,5.4,2.3l-0.4,1.2c0.3,0.6,0.4,1.1,0.4,1.4c0,0.3-0.9,0.9-2.8,1.6c0,0.3,0.1,0.5,0.2,0.5
			l-0.2,1.2l0.2,2.3c-0.1,0-0.2,0.1-0.2,0.2c1,0.3,1.5,0.7,1.5,1.2v1.4c-1.3,5.8-2.6,9.3-4.1,10.7l-2.8,4c-3,3.3-5.6,6-7.9,8.2
			c-0.1,1.4-2.2,3.2-6.2,5.4c-1.4,0-2.9,0.5-4.5,1.6l-0.6,0.2C693.1,583.5,690.7,581.4,687.9,579.8z M705.4,544.3
			c0.7-3.1,1.3-6.5,1.7-10l-0.2-1.4c0-4.4-0.7-9.6-2.1-15.9h-0.2c0,0.5-1.8,2.2-5.4,5.1c-0.4,0-0.6,0.3-0.6,0.9
			c0,2.2,0.4,3.7,1.1,4.4c0.3,4,0.4,6.6,0.4,7.7l-0.4,0.9l0.4,0.7c-0.4,2.8-0.6,6.2-0.6,10.3h0.2L705.4,544.3z M788.1,643.3
			c7.1-7.6,13.3-13.1,18.4-16.6c1.4-1.2,2.1-2,2.1-2.3c-2.1,1.1-3.9,1.6-5.4,1.6c0,0.8-0.7,1.2-2.1,1.4c-1.3,0.9-4.6,2.3-10.1,4
			l-0.6,0.2v-0.2c0,0.3-1.6,0.9-4.9,1.9c0,0.3-1.1,0.9-3.2,1.9v-0.5c0.6,0,1.1-0.5,1.7-1.4h-0.4c-8.9,3.3-13.7,4.9-14.6,4.9
			c-2.3,1.7-4.3,2.6-6,2.6l-0.9,0.5c-0.3,0-0.4-0.2-0.4-0.5c-0.9,0.2-2.2,0.2-4.1,0.2c-1,1.1-1.9,1.6-2.6,1.6H754l0.2-1.4
			c-5.1,0.8-7.7,1.4-7.7,1.9c-0.3,0-1.3-1.2-3-3.5h-0.9l0.4,1.6h-0.9l-3.4-2.3c-0.3-0.3-0.8-1.3-1.5-3c-3.1-1.6-6.4-4.2-9.8-7.9
			c-1.9-2.5-2.8-4.3-2.8-5.4l-2.8-9.1c-2.4-7.8-3.6-14.2-3.6-19.1l0.4-1.2c-0.1-0.2-0.2-0.5-0.2-0.9c2.1,0,4.3-5.9,6.4-17.7
			c2.9-8.9,5.9-28.1,9.2-57.6c0.4-4.5,0.6-7.7,0.6-9.6c0-15.4-1.6-24.8-4.9-28.2c0-0.5-1.1-2.6-3.4-6.5l0.2-0.2l1.3,0.5
			c-0.3-0.9-0.4-1.5-0.4-1.6c0.9-0.5,1.3-0.8,1.3-0.9c1.7,0,2.8,0.2,3.2,0.7v-0.2c0.3,0,2.8,1.4,7.5,4.2c2.6,1.1,3.9,2.3,3.9,3.5
			c0.1,0,0.6,0.6,1.5,1.9l4.9,5.8l0.4,0.2c2.1-1.6,4.8-4.2,7.9-7.9V478c-3.9-1.4-5.8-2.4-5.8-3c-0.1,0-0.9-0.8-2.1-2.3
			c-0.1,0-1-0.9-2.6-2.6l-2.8-2.6c-0.7,0-1.2-0.9-1.5-2.6c-2.1-2.2-3.2-3.7-3.2-4.7c0-1.1-0.6-2.4-1.7-4c-0.9-1.1-1.6-4.7-2.1-10.7
			c-0.3,0-0.4-0.2-0.4-0.7v-0.7c1.4,0,4.6,1.8,9.6,5.4h1.9c2-0.2,7.5-2.6,16.5-7.5c6.9-3.9,12.6-6.8,17.1-8.9
			c2.4-1.9,7.6-4.1,15.6-6.8c3.3-2.3,6.3-3.5,9-3.5c0-0.2,0.3-0.2,0.9-0.2c1.1,0,2.2,0.8,3.2,2.3c8.6,3.6,13.3,5.4,14.3,5.4
			c3.3,2.8,6.2,5,8.8,6.5l1.9,3.3c0.3,1.2,0.4,2.3,0.4,3.3c-0.6,1.1-1,2.6-1.3,4.7c-0.3,0-0.7,1.2-1.3,3.7c-1.3,0.5-1.9,0.9-1.9,1.2
			c-0.7,1.9-1.9,3.3-3.4,4.2c-1.3,0-2.2-0.1-2.8-0.2c-0.4,0.6-2.6,1.4-6.6,2.3c-2.6,2-5.3,3.7-8.1,5.1v-0.7c0.9-0.8,1.3-1.2,1.3-1.4
			c-1.1-0.8-1.7-1.4-1.7-1.9l-2.4,1.9l-1.9-0.7l-0.4,0.9c0.1,0,0.2,0.1,0.2,0.2c-0.6,0-0.9,0.2-0.9,0.5h-0.2l-0.9-0.5
			c-0.3,0-0.4,0.2-0.4,0.5l0.4,0.5l-1.7,0.7l0.4-1.6l-19.9,11.7c-4.6,2.6-9.1,4.5-13.7,5.6l-1.1-0.5c-2.9,0-6.1,1.4-9.8,4.2
			c-2.3,1.1-4.2,2.4-5.8,4c1.6,2.2,2.6,4.7,3,7.7l1.3-0.5l1.5,0.5c0-0.2,0.3-0.5,0.9-0.9c1.3,0,2.5,0.6,3.6,1.9
			c1.1,0,4.8-2.3,11.1-6.8c3.7-2.2,8.8-5.1,15.4-8.6c2.1-3.6,4.4-5.4,6.9-5.4c0-0.3,1-0.6,3-0.9h1.9c1.6,0,7.4,1.6,17.6,4.7
			c1.1,0.5,2.5,1.6,4.1,3.3c1.9,1.1,2.8,2,2.8,2.8c-0.3,1.4-0.5,2.2-0.6,2.3l0.4,1.2c-0.1,3.7-1,5.6-2.6,5.6c0,0.3-0.2,0.5-0.6,0.5
			h-1.3c-1.1,2.5-1.7,4.2-1.7,5.1c-1,0.5-1.7,0.7-2.1,0.7v-0.2l-0.2,0.2H815c-1.4-1.1-2.4-1.6-3-1.6c-3.4,1.4-6.4,3.3-9,5.8
			c-0.4,0-2.1,2.1-5.1,6.3c-0.1,0-0.9,0.8-2.4,2.3l2.6,7.5h0.4c0-0.8,1.9-1.2,5.6-1.2l1.1,0.2c0.1-0.2,0.4-0.2,0.6-0.2
			c0.7,0,1.5,0.6,2.4,1.9v0.2l-0.9,1.9c0,1.1,1.1,2.3,3.2,3.7c-0.9,1.6-1.3,2.9-1.3,4c-0.4,0-1.1,0.7-1.9,2.1
			c-1,1.1-2.9,2.6-5.8,4.4c0,0.3-0.8,2.4-2.4,6.3c-1.4,5.6-2.1,10-2.1,13.3l1.9-0.5c1.7,0,2.6,0.1,2.6,0.2l0.2-0.2
			c2.3,0,4.6,0.8,7.1,2.3c4.1,1.4,7.7,2.9,10.7,4.4c1.9,0,3.6,2.7,5.1,8.2l-0.2,0.5c0,0.2,0.1,0.2,0.2,0.2c-0.1,2.5-0.5,4-1.1,4.7
			l0.4,1.2c-1.1,3.3-3.3,6-6.4,8.2c-1.7,0.6-3.1,0.9-4.1,0.9l-0.2-0.7l-2.6,0.9l-0.9-0.2l-0.6,0.2l-0.6-0.2c-0.1,0-0.3,0-0.5,0.1
			c-0.2,0.1-0.5,0.1-1,0.1v-0.5c-0.7,0-1.2,0.1-1.5,0.2h-0.4l-1.3,0.7V588l-1.9,0.7l-0.2-0.7l-0.2,0.2c-0.7,0-1.2-0.1-1.5-0.2
			c-2.3,0-6.6,2.5-12.8,7.5c-0.9,0-3.4,2-7.5,6.1l-1.3,0.7v0.7c6.7-2,15.8-3.8,27.2-5.4c2.4,0,3.9-0.5,4.5-1.6
			c0.7-0.9,1.9-1.9,3.4-2.8c1,0.2,2.4,0.2,4.3,0.2c0-0.6,0.4-0.9,1.1-0.9c0,1.2,1.1,2,3.2,2.3c0-0.5,0.1-0.7,0.2-0.7h0.9
			c1.6,1.4,2.4,2.2,2.4,2.3c3,1.7,8.8,3.9,17.3,6.5l3.6,2.6c0,0.6,0.9,1.9,2.8,3.7c0.6,1.1,0.9,3,1.1,5.8c1.3,0.9,1.9,1.6,1.9,1.9
			c-1,0.2-1.5,0.5-1.5,1.2c0.6,0.9,0.9,1.6,0.9,1.9c-0.9,0-1.6,1.6-2.4,4.7c-1.3,1.9-2.1,2.8-2.6,2.8c-1.3,1.1-2,2.5-2.1,4.2h-0.2
			l0.2,0.7c-0.3,0.6-0.6,0.9-0.9,0.9c-2.1-1.2-3.5-1.9-4.1-1.9h-2.8c0-0.9-0.2-1.6-0.6-1.9c-0.6,0-1,0.1-1.3,0.2
			c-1.4-0.3-2.6-0.5-3.4-0.5v-0.7c-1.6,0-3.9-0.5-7.1-1.6l-0.4-0.7l-3.4,0.7l-0.4-0.2c-0.4,0-1.5,0.3-3.2,0.9v-0.7l-8.3,3.3
			l-6.6,3.5l-7.7,5.4c-3.3,3-5.4,4.4-6.2,4.4V643.3z M775.4,603.4l1.3-1.6c-0.6,0-0.9-0.2-0.9-0.7c0,1.1-0.6,1.7-1.7,1.9
			c0,0.3-0.6,0.5-1.7,0.5v-0.2c-4.4,1.1-6.6,1.9-6.6,2.6c-1.4,0-2.4-0.8-3-2.3c-0.7,0-1.6-0.5-2.8-1.6c-1.6-1.2-3.3-3.7-5.1-7.2
			c-0.7-1.9-2-4-3.9-6.3h-0.2v0.7l-2.4,23.6h0.4C762.5,608.3,771.3,605.2,775.4,603.4z M767.5,571.6c0,0,1.3-1.2,3.9-3.7
			c1.3-1.9,1.9-3,1.9-3.3c0-1.7-0.1-2.9-0.2-3.5c-1.3,0.5-2.2,0.7-2.8,0.7c-3-1.9-4.5-4.7-4.5-8.4c-0.4-0.2-0.9-1.7-1.5-4.7
			l-1.5-4.4c0-1.9,0.4-3.5,1.3-4.9c0-3.1,0.9-4.7,2.6-4.7c0-0.3,0.4-0.5,1.3-0.7l4.5,1.2h1.3c0-0.2,1.9-2.6,5.6-7.5
			c1.3-0.8,1.9-3.9,1.9-9.3h-0.4l-2.6,0.7c0,0.2-0.3,0.5-0.9,0.9c-1,0-1.5-0.2-1.5-0.7l-1.3,0.5l-1.1-0.5c-0.4,1.2-1.2,1.9-2.4,1.9
			c-1-1.9-2.5-3.3-4.5-4.2c-0.9-0.6-2.4-1.3-4.5-2.1v-0.5H760c-0.6,0-1-0.4-1.3-1.2l0.2-1.6c0-0.5-0.9-1.2-2.6-2.1v-1.6h-0.2
			c0,1.6-0.1,2.3-0.4,2.3l0.2,1.4c0,1.7-0.1,2.7-0.2,3l0.2,1.6c0,2.8,0.1,4.6,0.2,5.4l-0.4,3.5l0.2,0.5c0,1.2-0.5,5.4-1.5,12.4
			c-0.1,0.9-0.3,1.9-0.4,3c-0.1,1.1-0.3,2.3-0.4,3.7l-1.3,11.7c0,0.3,0.1,0.5,0.4,0.5c-0.3,1.6-0.4,3.3-0.4,5.4h0.6v1.6v0.9
			l-0.6,10.3h1.7c0.6,0,2.6,0.6,6,1.9C765,573.4,767.5,571.6,767.5,571.6z M779.5,598.5h-0.2c-0.7,0.3-1.1,0.5-1.1,0.7v0.5
			C778.4,599.6,778.8,599.2,779.5,598.5z"/>
		<path class="st5" d="M891.5,590.4c-4.3,1.9-8.1,4.9-11.3,9.1c-1.1,1.4-2.6,2.1-4.3,2.1c-4.1-0.5-7.1-1.6-8.8-3.5
			c-1,0-2.8,1.1-5.4,3.3l-0.4-0.2c-2-0.8-3.6-2.6-4.7-5.6c0-1.7-0.5-3.3-1.5-4.9c0-1.4-1.4-3.1-4.3-5.1c-1.1,0-2.2-0.8-3.2-2.3
			c0-1.4,1.2-3.4,3.6-6.1c0-1.1,0.3-2,0.9-2.8c0-1.4,0-2.5,0.1-3.4c0.1-0.9,0.2-1.3,0.5-1.3l-0.4-0.9c0-3.7,0.1-6.1,0.4-7.2
			c-0.3-0.2-0.4-0.5-0.4-0.9l0.4,0.2c0-0.5-0.1-0.7-0.4-0.7l0.4-1.6c0.1-6.4,0.8-14.1,1.9-23.1c0.9-3.3,2-4.7,3.4-4.4v0.2l0.4-0.2
			l2.1,0.2c0-1.6,0.3-2.3,0.9-2.3c0.1,0,1.7,1.9,4.7,5.8l2.6,4.2c0.6,2,1.3,3,2.1,3c14-12.6,25.3-18.9,33.8-18.9h7.5
			c4.6,0.6,6.8,2.4,6.8,5.4v1.4c0,3.9-1.9,8.2-5.6,12.8c-1.4,2.8-2.7,4.7-3.9,5.6c0,0.8-1.5,2.4-4.5,4.9c-0.1,0.2-0.3,0.3-0.5,0.5
			c-0.2,0.2-0.5,0.3-0.7,0.5c0,0.9-2.1,3.3-6.4,7c0,0.8-1.9,3-5.8,6.8l-3.2,4.4c4.7-2.3,8.6-3.5,11.8-3.5c1.3,0,2.4,0.2,3.2,0.5
			c0.9,0.3,1.3,0.8,1.3,1.4l0.2,2.3c-0.6,2.2-1.3,3.3-2.1,3.3l-0.2,0.7l3.4,0.7v0.5C902.7,582.2,897.9,586.4,891.5,590.4z
			 M891.3,554.9l9-15.4c0.3-0.9,0.7-2.3,1.4-4c0.6-1.7,1-3,1-4h-0.2c-7.3,3.3-13.7,6.7-19.3,10.3c-2,1.2-5.1,3.7-9.4,7.2
			c-0.3,0-0.6,0.5-1.1,1.6l0.9,6.3c1.1,8.2,1.7,13.1,1.7,14.7H875c0.1,1.1,0.6,2.1,1.5,3c0.1,0.2,0.5-0.3,1.1-1.4
			c-0.1,0-0.2-0.2-0.2-0.5c1,0,1.5-0.5,1.5-1.6l0.6,0.5l2.8-4.7C884.5,564.9,887.5,560.9,891.3,554.9z M1039.8,604.2l0.4-0.5h-0.4
			c-0.6,0-0.9,0.5-0.9,1.6v1.2h-0.6c0.3,0.3,0.6,0.5,0.9,0.5l0.6-1.6h0.6c0,1.1-0.8,2.5-2.4,4.2c0-0.2-0.1-0.2-0.2-0.2l0.4,3
			l-0.2,0.5l0.2,1.6c-0.7,2.5-1.3,4.3-1.7,5.4c-0.4,1.1-0.9,1.6-1.5,1.4l0.4,0.9c0,0.9-0.8,2.5-2.4,4.7c-0.3,0.3-0.7,1.2-1.3,2.8
			c-0.3,0.8-0.5,1.4-0.7,1.8c-0.2,0.4-0.3,0.7-0.3,0.8c-1.3,0-2.2,1.6-2.8,4.7c-0.9,0-1.3,0.8-1.3,2.3l-2.8,4.2l-2.8,4.2
			c-1.3,2.8-2.6,4.2-3.9,4.2c0-0.3-0.1-0.5-0.2-0.5c-0.3,0.2-1.8,1.6-4.5,4.2l-11.1,9.6c-0.4,0-1.6,0.6-3.6,1.9
			c-0.9,0-1.3,0.2-1.3,0.7h-0.9c0-0.8-0.4-1.2-1.1-1.2c0,0.9-0.6,1.4-1.9,1.4c-1,0.8-1.9,1.2-2.6,1.2c0-0.3-0.2-0.5-0.6-0.5l0.4-0.9
			l-1.5-0.2c0,0.3-0.4,0.5-1.1,0.5c0-1.4-0.6-2.1-1.9-2.1h-3.2v-0.5h-1.5c-1.1-1.2-2.6-2.4-4.3-3.5c-1.1,0-3.4,0.9-6.6,2.6
			c-0.6-0.6-0.9-1-0.9-1.2l1.9-2.3h-0.4l-4.5,3.3c0-0.3,1.7-2.3,5.1-5.8l0.2-0.5v-0.7c-3.7-1.2-5.8-1.9-6.2-1.9
			c-7.8,2.2-14.2,4.4-19.1,6.8c-2.3,0-3.9,0.2-4.9,0.5c-1,0.3-1.5,0.9-1.5,1.9l-0.6,0.5h-0.2c-0.7-1.2-1.4-1.9-2.1-1.9l-8.3,1.4
			c-1.3-1.6-1.9-3-1.9-4.2c0.3,0,0.6-0.5,0.9-1.6c-0.4-0.3-2.2-1.1-5.4-2.3c-2.7-2-4.7-4.3-6-6.8c-0.6,0-2.4-1.9-5.4-5.8
			c-1.7-1.1-2.6-2.3-2.6-3.7c-4.4-4.4-6.8-8.7-7.1-13.1h-0.6l0.2-0.5h-0.2c0,0.2-0.1,0.2-0.4,0v-0.2l0.4-0.5c-1-1.7-2-5.5-3-11.4
			c0.3-5.1,1.2-7.7,2.8-7.7c0.6-1.9,1.9-2.8,3.9-2.8l3,0.5c0-0.2,0.1-0.2,0.4-0.2l0.2,0.5c-0.6,0-1.3,1.8-2.1,5.4
			c0.1,0.2,0.2,0.4,0.2,0.7h-0.2c0.6,1.2,2.4,3,5.4,5.1c3.9,3,6.4,5.1,7.7,6.5c0.1,0.2,0.6,0.2,1.5,0.2c3.7-7.9,9.4-13.9,17.1-18
			c4.6-3.6,15.2-8.6,31.9-14.9c4.8-2.2,13.4-4.6,25.7-7.2c2.3,0,3.9-0.2,4.9-0.6c1-0.4,1.5-1.1,1.5-2.2c1.1-1.7,2.1-2.8,3-3.3h1.1
			c0.6,0,1.6-0.2,3-0.5h1.9c0.6,0,0.9,0.2,0.9,0.7l5.4-0.7c2,0,5.6,1.6,10.9,4.7l1.7-0.2c0,0.8,1.2,1.6,3.6,2.6
			c3.7,3.3,6.1,5.9,7.1,7.9c0,0.8-0.2,1.6-0.6,2.6c0.1,0.8,0.6,1.6,1.5,2.6v0.9h0.2c0,2-0.3,3.6-0.9,4.7v1.6h0.4l1.1-1.6
			c-0.1,1.2-0.3,2.1-0.4,2.7c-0.1,0.5-0.2,0.9-0.2,1.1l-0.9-0.7V604.2z M927,510.1c-0.9-0.9-1.6-2.6-2.1-4.9
			c-1.3-2.3-2.8-4.4-4.5-6.3v-0.2c0.9-5.6,1.4-8.4,1.7-8.4c0.1,0,0.8-0.4,1.9-1.2l0.9,0.2c0-0.3,0.4-0.6,1.3-0.9
			c0.6,0.2,3.3,3.5,8.1,10c1.1,0.3,2.3,0.5,3.4,0.5c2,0,6.8-1.9,14.3-5.8c0.7,0,1.5-6.6,2.4-19.8c-0.3-5.6-0.9-8.4-1.9-8.4v-0.5
			c0.9-1.2,2.5-1.9,4.9-2.1c0-0.2,0.1-0.2,0.4-0.2c1.4,0,2.8,0.8,4.1,2.3c2.4,1.2,5.2,3.2,8.3,5.8c0,1.1,0.9,4,2.8,8.6
			c-0.3,1.7-0.1,2.6,0.6,2.6l13.3-5.4l9-3.5c1.7-1.1,2.8-1.6,3.2-1.6c0.9,0.9,3.1,2.1,6.8,3.5c1.4,2,2.1,3.2,2.1,3.5
			c-2,4.8-4.7,8.9-8.1,12.4c-2.3,2.3-4.9,4-7.9,4.9c-1,1.1-3.1,2.4-6.4,4c-2.1,1.4-3.5,2.1-4.1,2.1c-0.6,0-1.1,0.5-1.5,1.6
			c-1.3,0-2.9,0.6-4.7,1.9c-1.4,0.6-2.1,1.8-2.1,3.5c-0.3,2.3-0.6,4.5-1,6.5c-0.4,2-0.7,3.4-1.2,4.2h0.4c11.8-3.9,23.5-6.9,35.1-9.1
			c0.1-2,1-3,2.6-3c0.7,0,1.4,0.1,1.9,0.2c1.3-0.3,1.9-0.8,1.9-1.4c-0.3,0-0.4-0.3-0.4-0.9h2.8c0.9,0.8,1.2,1.6,1.1,2.3
			c1.3,0,1.9-0.8,1.9-2.3c0.9-0.3,1.4-0.5,1.5-0.5c1.3,0,2.1,0.7,2.6,2.1l10.5,3.5c4,2.5,6,5.4,6,8.6l-1.9,4.7
			c-1.7,1.6-3.9,2.3-6.4,2.1l-0.2-0.2l-1.5,0.2c-0.6,0-1.6-0.2-3-0.5c-1.7,0-4.2,1.2-7.5,3.7h-0.4c0-0.3,0.5-1.1,1.5-2.3v-1.4
			c-1.6,0-2.9,0.3-3.9,0.9c-0.3,0-1,0.3-2.2,0.9c-1.2,0.6-3.5,1.6-6.7,3c-1.6,0-2.8,0.7-3.6,2.1c-1.4,0.5-3,1.3-4.7,2.6
			c-0.3,0-0.5,0.2-0.7,0.5c-0.2,0.3-0.4,0.7-0.5,1.2h-0.9c2.9,2.2,4.3,3.7,4.3,4.7c0,5.3-0.8,7.9-2.4,7.9c0,0.5-1.4,1.8-4.1,4
			c-1,0.9-2.5,1.9-4.5,2.8v0.2c-0.6,0-1.1-0.1-1.6-0.2c-0.5-0.2-0.8-0.2-1-0.2c-2.1,1.7-5.4,3.7-9.8,5.8c-0.1,0.3-1.9,1.2-5.1,2.6
			l-3,2.1c1.7,0,3.9-0.8,6.6-2.3c0.4,0,1.9-0.7,4.5-2.1c1.7,0,2.4,0.7,2.1,2.1h1.3v-0.9h0.4l0.9,0.9c0-0.9-0.1-1.6-0.2-2.1
			c1.3,0,1.9,0.7,1.9,2.1l3,2.1c5.4,1.7,8.1,3.3,8.1,4.9l-0.2,0.5c1,2,1.5,3.5,1.5,4.4c-1,1.6-2.4,2.6-4.1,3.3l-0.4-0.5
			c-2.1,0.6-4.2,0.9-6.2,0.7c-1-0.3-1.5-0.6-1.5-0.9v0.5c-2.9-0.6-5.4-0.9-7.7-0.9l-0.2,0.2c-0.1,0-0.2-0.1-0.2-0.2
			c-2.3-0.2-5.6,0.5-10.1,2.1l-0.9-0.2l-8.8,3.7h-0.4V582c-1.1,1.7-2.6,2.6-4.3,2.6c-0.4,0.2-1.3,0.5-2.5,0.9
			c-1.2,0.5-3.1,1.2-5.7,2.3c0,0.3-0.2,0.5-0.6,0.5l-1.3-0.5l-11.3,3.5v-1.2c3-1.1,6.7-3,11.1-5.6c-0.4,0-0.7-0.4-0.9-1.3
			c-0.1-0.9-0.3-1.5-0.4-2c-0.1,0-0.5-0.3-1.1-0.9l2.4-7l-1.1-0.9l-1.7,0.5c0-1.6-0.6-3.8-1.7-6.8c0.1-0.2-0.5-1-1.9-2.6l0.2-1.2
			c0.6,0,0.9-0.3,0.9-0.9l-0.2-0.5c0.4-1.2,0.6-2.5,0.6-3.7c0-4.8-0.1-7.6-0.2-8.4c0-0.9,0.3-1.7,0.9-2.2c0.6-0.5,1.4-0.8,2.4-0.8
			c0-0.8,0.2-1.2,0.6-1.2c1.1,1.6,2.8,3.6,4.9,6.1c5.4-5.8,12.1-10.3,19.9-13.5c6-2.6,11.3-3.9,16.1-3.7l4.5,0.2
			c4-2.8,7.6-5.6,10.7-8.4l3.9-5.1v-0.2c-0.3,0-0.4-0.1-0.4-0.2c-8,2.2-20.8,6.3-38.5,12.4c-6.4,1.6-12.8,2.8-19.1,3.7v-0.5
			c-8.7,0.5-13.2,2.9-13.5,7.2l0.4,0.9c-0.1,0.8-0.3,2-0.4,3.6c-0.1,1.6-0.4,3.8-0.6,6.4c0.1,0.5,0.2,1,0.1,1.5
			c-0.1,0.5-0.1,0.9-0.1,1.1c-0.7,5.6-1.3,8.8-1.7,9.6l0.6,0.7c-0.9,1.2-1.7,3.7-2.6,7.2c-0.4,0-0.9,0.5-1.5,1.4
			c-0.6,0.9-1.1,1.6-1.5,2.1h-1.1c-0.4-0.5-1.6-0.9-3.6-1.4c0-0.6-0.7-1.9-2.1-3.7c-1,0-1.8,0.3-2.4,0.9c-0.7-0.6-1.6-0.9-2.8-0.9
			l-0.2-1.9l0.2-0.5c-0.3-0.3-0.6-1.8-1.1-4.4l0.2-0.5c0-5.3-0.3-8.9-0.9-10.7l-0.2-1.6c0.6-1.1,1.4-1.9,2.4-2.6
			c-0.1-0.3-0.2-0.8-0.2-1.4c1.3,0,3.4-4.3,6.4-12.8c2.6-5,4.2-7.6,4.9-7.9c1.3-0.6,2.6-0.8,4.1-0.5l2.4,5.8l6-3.3l8.6-2.3l13.7-3.7
			c-0.1-2.8-1-4.2-2.6-4.2c-0.3-0.3-0.4-0.6-0.4-0.9l-3,0.5h-0.4c0.3,0,0.6-0.1,0.9-0.2c0.3-0.2,0.4-0.4,0.4-0.7
			c-0.3,0-0.4-0.2-0.4-0.5c1.6-0.8,2.4-1.2,2.4-1.4c-0.9-4.8-1.7-7.2-2.6-7.2l-0.9-1.2v-1.6l-2.4-0.5v-0.5c0.3,0,0.6-0.1,0.9-0.4
			c0.3-0.2,0.6-0.4,1.1-0.6v-3c0-0.5,0.3-1.3,0.9-2.6l-0.6-0.2h-1.3c0,1.1-0.4,1.6-1.1,1.6c0,0.3-0.9,0.7-2.6,1.2
			c0,0.3-0.2,0.6-0.6,0.8c-0.4,0.2-1,0.5-1.7,0.8c0,0.8-0.9,1.9-2.6,3.3c0,0.5-1.1,1.9-3.2,4.2c0,0.2-0.5,0.5-1.5,1.2
			c-0.6,0.9-1.4,1.4-2.6,1.4c-0.1,0-0.9-0.6-2.4-1.9l-1.3,0.7C929,511.6,927.9,511.1,927,510.1z M949.1,627.8
			c3.6-1.7,5.8-2.8,6.6-3.3c0.4-6.5,1.2-13.5,2.4-20.8c-0.1-0.3-0.1-0.5,0-0.7c-6.7,2.5-12.1,4.3-16.1,5.4l-7.5,2.6
			c-3.3,3.9-5.4,8.4-6.2,13.5v2.6c0,0.8,1.3,1.9,3.9,3.5l3.6,4C941.1,631.7,945.5,629.5,949.1,627.8z M929.4,660.9l-0.6-0.7v0.7
			c0,0.3,0.1,0.5,0.4,0.5L929.4,660.9z M953,641.6c1.1-1.8,1.6-3.6,1.6-5.5c0-1.9-0.1-2.8-0.4-2.8l-8.3,4.9
			c-1.9,0.9-2.8,1.6-2.8,1.9c1,1.1,2.1,2.3,3.4,3.7c1.3,1.4,1.9,2.2,1.9,2.3C950.4,645,951.9,643.4,953,641.6z M950.8,646h-0.2
			c-0.9,0.3-1.3,0.7-1.3,1.2v0.2C950.3,647.2,950.8,646.7,950.8,646z M987.6,539.5h-0.2l-0.4,0.2l-1.7-0.2l0.9-0.5H985
			c-0.9,0.5-1.3,0.9-1.3,1.2l0.2,0.7l-0.6,0.2h-0.2l0.2-0.7h-1.5c-1.4,0.9-2.9,1.5-4.3,1.6c-0.9,0.9-1.9,1.4-3.2,1.4
			c-0.4,0-0.6-0.1-0.6-0.2c3.4-1.2,5.8-2.9,7.3-4.9c-3.7-0.2-11.8,3.4-24.2,10.7c-0.1,0.3-0.5,0.7-1,1.3c-0.5,0.5-1.3,1.2-2.2,2
			c-2.3,2.5-3.4,3.8-3.4,4l1.7,6.8l4.5,1.9c3.1-1.6,6.1-3.2,8.8-4.9c0.6-0.5,1.2-0.9,1.9-1.4c0.7-0.5,1.5-0.9,2.4-1.4
			c6.9-4.5,11.3-7.9,13.3-10.3C985.9,543.4,987.6,540.9,987.6,539.5z M955,653c-1.3,0-2.4-0.2-3.4-0.5v1.9c1.7-0.5,2.9-0.7,3.4-0.7
			V653z M990.2,619.8c0,0,0-0.2,0-0.7c-1,0-1.6,0.1-1.7,0.2l-0.2-0.2c-0.6,0-1,0-1.2,0.1c-0.2,0.1-0.4,0.1-0.5,0.1l-0.4-0.2
			c0,0.2-0.1,0.3-0.4,0.5c-0.3,0.2-0.6,0.2-0.9,0v-0.2c-0.9,0.3-1.4,0.5-1.5,0.5l-0.2-0.2c0,0.5-0.4,0.7-1.1,0.7l-0.6-0.5
			c-0.1,0.3-0.6,0.5-1.3,0.5v-0.5h-0.9c0,1.2-1.3,2.3-3.9,3c0,0.5-1.1,1-3.4,1.6c-0.4,1.4-1,4.4-1.7,8.9c-0.1,0.2-0.4,0.6-0.6,1.3
			c-0.3,0.7-0.6,1.4-1.1,2c-2.4,3.4-4.8,5.8-7.1,7.2c-1.6,1.4-3.2,2.4-4.9,3v0.5c6.1-1.9,10.6-4,13.5-6.5h0.4v0.2l-0.2,0.5h0.2
			c3.6-3.4,5.8-5.9,6.6-7.5c3.7-3.3,6.5-5.9,8.3-7.9c1.9-2,3-3.9,3.4-5.6C989.7,620.1,990.2,619.8,990.2,619.8z M959.3,523.2
			c2.1-0.5,3.2-1,3.2-1.6l-1.9-0.5C960,521.1,959.6,521.8,959.3,523.2z M1004.3,588.5c-3.1,0-10.1,1.4-20.8,4.2
			c-1.4,0.8-5.1,2.3-11.1,4.4c-1.4,1.1-2.4,1.6-3,1.6v0.2c3.9,4.2,5.8,7.1,5.8,8.6c-1,0.5-1.9,2.3-2.6,5.4c0,0.8-0.2,2.1-0.6,4h0.2
			c2.9-1.2,4.8-1.9,6-1.9c0.3-0.5-0.3-1.2-1.7-2.1c0.1-0.8,1.9-1.4,5.1-1.9c0-0.5,0.3-0.8,1-1c0.6-0.2,1.2-0.4,1.6-0.6l3.9,1.4
			c0.4-0.5,0.7-1,0.9-1.6c1.7,0.5,3.1,0.9,4.1,1.3c1,0.4,1.6,0.6,1.9,0.6C1000.9,600,1004,592.4,1004.3,588.5z M973.9,488.9
			c0,3.3-0.1,6-0.2,8.2c-0.1,2.2-0.2,3.4-0.2,3.7l0.4,0.2c12.7-9.8,19.1-17.6,19.1-23.3c-1.6-0.2-8.1,2.8-19.5,8.9
			C973.7,487,973.9,487.8,973.9,488.9z M985.4,559.4c0.6,0,0.9,0.3,0.9,0.9c-0.4-0.2-0.9-0.2-1.5-0.2v-0.7H985.4z M1008.6,663.2v0.5
			l-0.2,0.2h-0.2C1008.1,663.5,1008.3,663.2,1008.6,663.2z M1015,655.3c0-0.2,0.8-1.3,2.4-3.5v0.5h0.6c0,0.8-0.3,1.2-0.9,1.2
			l0.2,0.5c-2.4,2.6-3.6,4.2-3.6,4.7h-1.9C1011.8,657.9,1012.8,656.9,1015,655.3z"/>
		<path class="st5" d="M1103.1,664.7c0.7,1.9,1.1,4.8,1.1,8.9c-1,8.4-2.4,12.6-4.3,12.6l-6.2,5.8c-4.4-3.1-7.5-5-9.2-5.6
			c-1.1-1.9-4.1-4.7-9-8.6c-1-1.6-2.6-3.5-4.7-5.8c-2.4-4-3.8-6.8-4.1-8.4c-1.4-3.3-2.9-4.9-4.3-4.9c0-1.2,1-2.6,3-4
			c0.9,0.2,1.4,0.3,1.7,0.5c0.3,0.2,0.5,0.2,0.6,0.2l2.1-0.7v0.7c0.3-0.5,0.6-0.7,0.9-0.7c1.3,0.9,2.1,1.4,2.6,1.4
			c1.4-0.3,2.6-0.5,3.6-0.5c7.6,1.7,11.7,2.7,12.4,3l1.7-0.5l1.3,0.5l1.9-0.5C1097.3,659.1,1100.2,661.3,1103.1,664.7z
			 M1111.4,535.7c0.1,0.6,0.2,1.6,0.2,3c-0.4,3.4-0.8,5.1-1.1,5.1v-1.2h-0.9c0,0.5-0.4,3-1.1,7.7c-0.6,3.7-1.1,5.6-1.5,5.6
			c-0.3,0.6-1,4.6-2.1,11.9l0.4,0.5c-0.3,0-0.8,7.2-1.5,21.7c-0.3,0.9-0.8,5.1-1.5,12.4l0.4,1.9c0,3.1,0.1,4.8,0.2,5.1
			c-0.1,0.3-0.2,0.9-0.2,1.9c0,2.2,0.1,3.7,0.2,4.7c0,0.9-0.9,4.2-2.6,9.8l-2.4,10c-1.1,5.3-1.8,7.9-1.9,7.9
			c-0.6-0.9-1.9-2.2-3.9-3.7c-1.1-1.6-1.7-2.6-1.7-3l-0.9-0.7c-1.9,3.7-3,5.6-3.4,5.6l-1.7-0.2c0,0.6-0.7,1-2.1,1.2
			c-1.1-0.3-3.9-3.2-8.3-8.6c-3.9-6.4-5.8-11.9-5.8-16.6c4.1-32.2,6.2-52.6,6.2-61.1c0-9.8,0.2-14.7,0.6-14.7l-0.2-1.9
			c0-6.4-0.1-11.6-0.4-15.6l0.4-0.5c0-3.1-1-5.9-3-8.4c0-0.3,0.6-0.9,1.7-1.9c1.4,0,3.9,0.7,7.3,2.1c0.1-0.2,0.5-0.2,1.1-0.2v0.2
			l0.4-0.2c1.1,0,3.4,0.4,6.8,1.2l2.6-0.2c0,1.1,2.6,2.1,7.7,3l0.9-0.2c6.7,2.8,10.1,5.4,10.1,7.9c-0.1,0.6-0.2,1.6-0.2,3
			c0.4,0.5,0.9,2.2,1.3,5.1C1111.6,535.5,1111.6,535.7,1111.4,535.7z"/>
	</g>
	<g>
		<path class="st6" d="M678.6,585.5c0-0.8-0.7-1.6-2.1-2.3c-0.1-0.6-1.3-1.7-3.4-3.3c0-0.2-2-1.9-6-5.4c-3-6.1-5.1-11.7-6.4-16.8
			c0-1.4-1.6-4.6-4.9-9.6c0-1.1-0.2-2.6-0.6-4.4c0.7-0.8,1.5-4,2.4-9.6c2.1-10.1,3.2-17.7,3.2-22.9l-1.1-4.7h1.1h0.4
			c0.4,0.3,1.1,0.5,2.1,0.5c0-0.5,0.2-0.7,0.6-0.7l8.8,5.4l11.1-10.5c0-0.9,0.4-2.1,1.3-3.5c0-2,1.6-3.7,4.9-4.9h0.4
			c1.4,0,2.6,0.2,3.4,0.7c2-0.5,4.3-0.7,6.9-0.7c0,0.6,1,0.9,3,0.9l1.5-0.2l6.9,1.9l0.6-0.2c1.1,0.6,2.6,1.3,4.5,2.1l5.4,4l1.5,1.9
			c-1.1,1.7-1.7,2.9-1.7,3.5c-0.6,0-1.5,3.3-2.8,10c-0.7,0.9-1.5,3.2-2.4,6.8c-1,2.6-1.5,4.5-1.5,5.6c-1.4,5.1-2.6,7.8-3.4,7.9
			c-3,5.6-4.5,9.4-4.5,11.4c3.1,1.1,4.9,1.9,5.4,2.3l-0.4,1.2c0.3,0.6,0.4,1.1,0.4,1.4c0,0.3-0.9,0.9-2.8,1.6c0,0.3,0.1,0.5,0.2,0.5
			l-0.2,1.2l0.2,2.3c-0.1,0-0.2,0.1-0.2,0.2c1,0.3,1.5,0.7,1.5,1.2v1.4c-1.3,5.8-2.6,9.3-4.1,10.7l-2.8,4c-3,3.3-5.6,6-7.9,8.2
			c-0.1,1.4-2.2,3.2-6.2,5.4c-1.4,0-2.9,0.5-4.5,1.6l-0.6,0.2C683.8,589.2,681.5,587.1,678.6,585.5z M696.2,550
			c0.7-3.1,1.3-6.5,1.7-10l-0.2-1.4c0-4.4-0.7-9.6-2.1-15.9h-0.2c0,0.5-1.8,2.2-5.4,5.1c-0.4,0-0.6,0.3-0.6,0.9
			c0,2.2,0.4,3.7,1.1,4.4c0.3,4,0.4,6.6,0.4,7.7l-0.4,0.9l0.4,0.7c-0.4,2.8-0.6,6.2-0.6,10.3h0.2L696.2,550z M778.8,649
			c7.1-7.6,13.3-13.1,18.4-16.6c1.4-1.2,2.1-2,2.1-2.3c-2.1,1.1-3.9,1.6-5.4,1.6c0,0.8-0.7,1.2-2.1,1.4c-1.3,0.9-4.6,2.3-10.1,4
			l-0.6,0.2v-0.2c0,0.3-1.6,0.9-4.9,1.9c0,0.3-1.1,0.9-3.2,1.9v-0.5c0.6,0,1.1-0.5,1.7-1.4h-0.4c-8.9,3.3-13.7,4.9-14.6,4.9
			c-2.3,1.7-4.3,2.6-6,2.6l-0.9,0.5c-0.3,0-0.4-0.2-0.4-0.5c-0.9,0.2-2.2,0.2-4.1,0.2c-1,1.1-1.9,1.6-2.6,1.6h-1.1l0.2-1.4
			c-5.1,0.8-7.7,1.4-7.7,1.9c-0.3,0-1.3-1.2-3-3.5h-0.9l0.4,1.6H733l-3.4-2.3c-0.3-0.3-0.8-1.3-1.5-3c-3.1-1.6-6.4-4.2-9.8-7.9
			c-1.9-2.5-2.8-4.3-2.8-5.4l-2.8-9.1c-2.4-7.8-3.6-14.2-3.6-19.1l0.4-1.2c-0.1-0.2-0.2-0.5-0.2-0.9c2.1,0,4.3-5.9,6.4-17.7
			c2.9-8.9,5.9-28.1,9.2-57.6c0.4-4.5,0.6-7.7,0.6-9.6c0-15.4-1.6-24.8-4.9-28.2c0-0.5-1.1-2.6-3.4-6.5l0.2-0.2l1.3,0.5
			c-0.3-0.9-0.4-1.5-0.4-1.6c0.9-0.5,1.3-0.8,1.3-0.9c1.7,0,2.8,0.2,3.2,0.7v-0.2c0.3,0,2.8,1.4,7.5,4.2c2.6,1.1,3.9,2.3,3.9,3.5
			c0.1,0,0.6,0.6,1.5,1.9l4.9,5.8l0.4,0.2c2.1-1.6,4.8-4.2,7.9-7.9v-0.2c-3.9-1.4-5.8-2.4-5.8-3c-0.1,0-0.9-0.8-2.1-2.3
			c-0.1,0-1-0.9-2.6-2.6l-2.8-2.6c-0.7,0-1.2-0.9-1.5-2.6c-2.1-2.2-3.2-3.7-3.2-4.7c0-1.1-0.6-2.4-1.7-4c-0.9-1.1-1.6-4.7-2.1-10.7
			c-0.3,0-0.4-0.2-0.4-0.7v-0.7c1.4,0,4.6,1.8,9.6,5.4h1.9c2-0.2,7.5-2.6,16.5-7.5c6.8-3.9,12.6-6.8,17.1-8.9
			c2.4-1.9,7.6-4.1,15.6-6.8c3.3-2.3,6.3-3.5,9-3.5c0-0.2,0.3-0.2,0.9-0.2c1.1,0,2.2,0.8,3.2,2.3c8.6,3.6,13.3,5.4,14.3,5.4
			c3.3,2.8,6.2,5,8.8,6.5l1.9,3.3c0.3,1.2,0.4,2.3,0.4,3.3c-0.6,1.1-1,2.6-1.3,4.7c-0.3,0-0.7,1.2-1.3,3.7c-1.3,0.5-1.9,0.9-1.9,1.2
			c-0.7,1.9-1.9,3.3-3.4,4.2c-1.3,0-2.2-0.1-2.8-0.2c-0.4,0.6-2.6,1.4-6.6,2.3c-2.6,2-5.3,3.7-8.1,5.1v-0.7c0.9-0.8,1.3-1.2,1.3-1.4
			c-1.1-0.8-1.7-1.4-1.7-1.9l-2.4,1.9l-1.9-0.7l-0.4,0.9c0.1,0,0.2,0.1,0.2,0.2c-0.6,0-0.9,0.2-0.9,0.5h-0.2l-0.9-0.5
			c-0.3,0-0.4,0.2-0.4,0.5l0.4,0.5l-1.7,0.7l0.4-1.6l-19.9,11.7c-4.6,2.6-9.1,4.5-13.7,5.6l-1.1-0.5c-2.9,0-6.1,1.4-9.8,4.2
			c-2.3,1.1-4.2,2.4-5.8,4c1.6,2.2,2.6,4.7,3,7.7l1.3-0.5l1.5,0.5c0-0.2,0.3-0.5,0.9-0.9c1.3,0,2.5,0.6,3.6,1.9
			c1.1,0,4.8-2.3,11.1-6.8c3.7-2.2,8.8-5.1,15.4-8.6c2.1-3.6,4.4-5.4,6.9-5.4c0-0.3,1-0.6,3-0.9h1.9c1.6,0,7.4,1.6,17.6,4.7
			c1.1,0.5,2.5,1.6,4.1,3.3c1.9,1.1,2.8,2,2.8,2.8c-0.3,1.4-0.5,2.2-0.6,2.3l0.4,1.2c-0.1,3.7-1,5.6-2.6,5.6c0,0.3-0.2,0.5-0.6,0.5
			h-1.3c-1.1,2.5-1.7,4.2-1.7,5.1c-1,0.5-1.7,0.7-2.1,0.7v-0.2l-0.2,0.2h-0.4c-1.4-1.1-2.4-1.6-3-1.6c-3.4,1.4-6.4,3.3-9,5.8
			c-0.4,0-2.1,2.1-5.1,6.3c-0.1,0-0.9,0.8-2.4,2.3l2.6,7.5h0.4c0-0.8,1.9-1.2,5.6-1.2l1.1,0.2c0.1-0.2,0.4-0.2,0.6-0.2
			c0.7,0,1.5,0.6,2.4,1.9v0.2l-0.9,1.9c0,1.1,1.1,2.3,3.2,3.7c-0.9,1.6-1.3,2.9-1.3,4c-0.4,0-1.1,0.7-1.9,2.1
			c-1,1.1-2.9,2.6-5.8,4.4c0,0.3-0.8,2.4-2.4,6.3c-1.4,5.6-2.1,10-2.1,13.3l1.9-0.5c1.7,0,2.6,0.1,2.6,0.2l0.2-0.2
			c2.3,0,4.6,0.8,7.1,2.3c4.1,1.4,7.7,2.9,10.7,4.4c1.9,0,3.6,2.7,5.1,8.2l-0.2,0.5c0,0.2,0.1,0.2,0.2,0.2c-0.1,2.5-0.5,4-1.1,4.7
			l0.4,1.2c-1.1,3.3-3.3,6-6.4,8.2c-1.7,0.6-3.1,0.9-4.1,0.9l-0.2-0.7l-2.6,0.9l-0.9-0.2l-0.6,0.2l-0.6-0.2c-0.1,0-0.3,0-0.5,0.1
			c-0.2,0.1-0.5,0.1-1,0.1v-0.5c-0.7,0-1.2,0.1-1.5,0.2h-0.4l-1.3,0.7v-0.7l-1.9,0.7l-0.2-0.7l-0.2,0.2c-0.7,0-1.2-0.1-1.5-0.2
			c-2.3,0-6.6,2.5-12.8,7.5c-0.9,0-3.4,2-7.5,6.1l-1.3,0.7v0.7c6.7-2,15.8-3.8,27.2-5.4c2.4,0,3.9-0.5,4.5-1.6
			c0.7-0.9,1.9-1.9,3.4-2.8c1,0.2,2.4,0.2,4.3,0.2c0-0.6,0.4-0.9,1.1-0.9c0,1.2,1.1,2,3.2,2.3c0-0.5,0.1-0.7,0.2-0.7h0.9
			c1.6,1.4,2.4,2.2,2.4,2.3c3,1.7,8.8,3.9,17.3,6.5l3.6,2.6c0,0.6,0.9,1.9,2.8,3.7c0.6,1.1,0.9,3,1.1,5.8c1.3,0.9,1.9,1.6,1.9,1.9
			c-1,0.2-1.5,0.5-1.5,1.2c0.6,0.9,0.9,1.6,0.9,1.9c-0.9,0-1.6,1.6-2.4,4.7c-1.3,1.9-2.1,2.8-2.6,2.8c-1.3,1.1-2,2.5-2.1,4.2h-0.2
			l0.2,0.7c-0.3,0.6-0.6,0.9-0.9,0.9c-2.1-1.2-3.5-1.9-4.1-1.9h-2.8c0-0.9-0.2-1.6-0.6-1.9c-0.6,0-1,0.1-1.3,0.2
			c-1.4-0.3-2.6-0.5-3.4-0.5v-0.7c-1.6,0-3.9-0.5-7.1-1.6l-0.4-0.7l-3.4,0.7l-0.4-0.2c-0.4,0-1.5,0.3-3.2,0.9v-0.7l-8.3,3.3
			l-6.6,3.5l-7.7,5.4c-3.3,3-5.4,4.4-6.2,4.4V649z M766.2,609.1l1.3-1.6c-0.6,0-0.9-0.2-0.9-0.7c0,1.1-0.6,1.7-1.7,1.9
			c0,0.3-0.6,0.5-1.7,0.5v-0.2c-4.4,1.1-6.6,1.9-6.6,2.6c-1.4,0-2.4-0.8-3-2.3c-0.7,0-1.6-0.5-2.8-1.6c-1.6-1.2-3.3-3.7-5.1-7.2
			c-0.7-1.9-2-4-3.9-6.3h-0.2v0.7l-2.4,23.6h0.4C753.2,614,762,611,766.2,609.1z M758.3,577.3c0,0,1.3-1.2,3.9-3.7
			c1.3-1.9,1.9-3,1.9-3.3c0-1.7-0.1-2.9-0.2-3.5c-1.3,0.5-2.2,0.7-2.8,0.7c-3-1.9-4.5-4.7-4.5-8.4c-0.4-0.2-0.9-1.7-1.5-4.7
			l-1.5-4.4c0-1.9,0.4-3.5,1.3-4.9c0-3.1,0.9-4.7,2.6-4.7c0-0.3,0.4-0.5,1.3-0.7l4.5,1.2h1.3c0-0.2,1.9-2.6,5.6-7.5
			c1.3-0.8,1.9-3.9,1.9-9.3h-0.4l-2.6,0.7c0,0.2-0.3,0.5-0.9,0.9c-1,0-1.5-0.2-1.5-0.7l-1.3,0.5l-1.1-0.5c-0.4,1.2-1.2,1.9-2.4,1.9
			c-1-1.9-2.5-3.3-4.5-4.2c-0.9-0.6-2.4-1.3-4.5-2.1v-0.5h-2.1c-0.6,0-1-0.4-1.3-1.2l0.2-1.6c0-0.5-0.9-1.2-2.6-2.1v-1.6h-0.2
			c0,1.6-0.1,2.3-0.4,2.3l0.2,1.4c0,1.7-0.1,2.7-0.2,3l0.2,1.6c0,2.8,0.1,4.6,0.2,5.4l-0.4,3.5l0.2,0.5c0,1.2-0.5,5.4-1.5,12.4
			c-0.1,0.9-0.3,1.9-0.4,3c-0.1,1.1-0.3,2.3-0.4,3.7l-1.3,11.7c0,0.3,0.1,0.5,0.4,0.5c-0.3,1.6-0.4,3.3-0.4,5.4h0.6v1.6v0.9
			l-0.6,10.3h1.7c0.6,0,2.6,0.6,6,1.9C755.8,579.1,758.3,577.3,758.3,577.3z M770.3,604.2H770c-0.7,0.3-1.1,0.5-1.1,0.7v0.5
			C769.1,605.4,769.5,605,770.3,604.2z"/>
		<path class="st6" d="M882.2,596.1c-4.3,1.9-8.1,4.9-11.3,9.1c-1.1,1.4-2.6,2.1-4.3,2.1c-4.1-0.5-7.1-1.6-8.8-3.5
			c-1,0-2.8,1.1-5.4,3.3l-0.4-0.2c-2-0.8-3.6-2.6-4.7-5.6c0-1.7-0.5-3.3-1.5-4.9c0-1.4-1.4-3.1-4.3-5.1c-1.1,0-2.2-0.8-3.2-2.3
			c0-1.4,1.2-3.4,3.6-6.1c0-1.1,0.3-2,0.9-2.8c0-1.4,0-2.5,0.1-3.4c0.1-0.9,0.2-1.3,0.5-1.3l-0.4-0.9c0-3.7,0.1-6.1,0.4-7.2
			c-0.3-0.2-0.4-0.5-0.4-0.9l0.4,0.2c0-0.5-0.1-0.7-0.4-0.7l0.4-1.6c0.1-6.4,0.8-14.1,1.9-23.1c0.9-3.3,2-4.7,3.4-4.4v0.2l0.4-0.2
			l2.1,0.2c0-1.6,0.3-2.3,0.9-2.3c0.1,0,1.7,1.9,4.7,5.8l2.6,4.2c0.6,2,1.3,3,2.1,3c14-12.6,25.3-18.9,33.8-18.9h7.5
			c4.6,0.6,6.9,2.4,6.9,5.4v1.4c0,3.9-1.9,8.2-5.6,12.8c-1.4,2.8-2.7,4.7-3.9,5.6c0,0.8-1.5,2.4-4.5,4.9c-0.1,0.2-0.3,0.3-0.5,0.5
			c-0.2,0.2-0.5,0.3-0.7,0.5c0,0.9-2.1,3.3-6.4,7c0,0.8-1.9,3-5.8,6.8l-3.2,4.4c4.7-2.3,8.6-3.5,11.8-3.5c1.3,0,2.4,0.2,3.2,0.5
			c0.9,0.3,1.3,0.8,1.3,1.4l0.2,2.3c-0.6,2.2-1.3,3.3-2.1,3.3l-0.2,0.7l3.4,0.7v0.5C893.5,588,888.6,592.1,882.2,596.1z M882,560.7
			l9-15.4c0.3-0.9,0.7-2.3,1.4-4c0.6-1.7,1-3,1-4h-0.2c-7.3,3.3-13.7,6.7-19.3,10.3c-2,1.2-5.1,3.7-9.4,7.2c-0.3,0-0.6,0.5-1.1,1.6
			l0.9,6.3c1.1,8.2,1.7,13.1,1.7,14.7h-0.2c0.1,1.1,0.6,2.1,1.5,3c0.1,0.2,0.5-0.3,1.1-1.4c-0.1,0-0.2-0.2-0.2-0.5
			c1,0,1.5-0.5,1.5-1.6l0.6,0.5l2.8-4.7C875.3,570.6,878.3,566.6,882,560.7z M1030.6,609.9l0.4-0.5h-0.4c-0.6,0-0.9,0.5-0.9,1.6v1.2
			h-0.6c0.3,0.3,0.6,0.5,0.9,0.5l0.6-1.6h0.6c0,1.1-0.8,2.5-2.4,4.2c0-0.2-0.1-0.2-0.2-0.2l0.4,3l-0.2,0.5l0.2,1.6
			c-0.7,2.5-1.3,4.3-1.7,5.4c-0.4,1.1-0.9,1.6-1.5,1.4l0.4,0.9c0,0.9-0.8,2.5-2.4,4.7c-0.3,0.3-0.7,1.2-1.3,2.8
			c-0.3,0.8-0.5,1.4-0.7,1.8c-0.2,0.4-0.3,0.7-0.3,0.8c-1.3,0-2.2,1.6-2.8,4.7c-0.9,0-1.3,0.8-1.3,2.3l-2.8,4.2l-2.8,4.2
			c-1.3,2.8-2.6,4.2-3.9,4.2c0-0.3-0.1-0.5-0.2-0.5c-0.3,0.2-1.8,1.6-4.5,4.2l-11.1,9.6c-0.4,0-1.6,0.6-3.6,1.9
			c-0.9,0-1.3,0.2-1.3,0.7h-0.9c0-0.8-0.4-1.2-1.1-1.2c0,0.9-0.6,1.4-1.9,1.4c-1,0.8-1.9,1.2-2.6,1.2c0-0.3-0.2-0.5-0.6-0.5l0.4-0.9
			l-1.5-0.2c0,0.3-0.4,0.5-1.1,0.5c0-1.4-0.6-2.1-1.9-2.1H973v-0.5h-1.5c-1.1-1.2-2.6-2.4-4.3-3.5c-1.1,0-3.4,0.9-6.6,2.6
			c-0.6-0.6-0.9-1-0.9-1.2l1.9-2.3h-0.4l-4.5,3.3c0-0.3,1.7-2.3,5.1-5.8l0.2-0.5v-0.7c-3.7-1.2-5.8-1.9-6.2-1.9
			c-7.8,2.2-14.2,4.4-19.1,6.8c-2.3,0-3.9,0.2-4.9,0.5c-1,0.3-1.5,0.9-1.5,1.9l-0.6,0.5h-0.2c-0.7-1.2-1.4-1.9-2.1-1.9l-8.3,1.4
			c-1.3-1.6-1.9-3-1.9-4.2c0.3,0,0.6-0.5,0.9-1.6c-0.4-0.3-2.2-1.1-5.4-2.3c-2.7-2-4.7-4.3-6-6.8c-0.6,0-2.4-1.9-5.4-5.8
			c-1.7-1.1-2.6-2.3-2.6-3.7c-4.4-4.4-6.8-8.7-7.1-13.1H891l0.2-0.5H891c0,0.2-0.1,0.2-0.4,0v-0.2l0.4-0.5c-1-1.7-2-5.5-3-11.4
			c0.3-5.1,1.2-7.7,2.8-7.7c0.6-1.9,1.9-2.8,3.9-2.8l3,0.5c0-0.2,0.1-0.2,0.4-0.2l0.2,0.5c-0.6,0-1.3,1.8-2.1,5.4
			c0.1,0.2,0.2,0.4,0.2,0.7h-0.2c0.6,1.2,2.4,3,5.4,5.1c3.9,3,6.4,5.1,7.7,6.5c0.1,0.2,0.6,0.2,1.5,0.2c3.7-7.9,9.4-13.9,17.1-18
			c4.6-3.6,15.2-8.6,31.9-14.9c4.8-2.2,13.4-4.6,25.7-7.2c2.3,0,3.9-0.2,4.9-0.6c1-0.4,1.5-1.1,1.5-2.2c1.1-1.7,2.1-2.8,3-3.3h1.1
			c0.6,0,1.6-0.2,3-0.5h1.9c0.6,0,0.9,0.2,0.9,0.7l5.4-0.7c2,0,5.6,1.6,10.9,4.7l1.7-0.2c0,0.8,1.2,1.6,3.6,2.6
			c3.7,3.3,6.1,5.9,7.1,7.9c0,0.8-0.2,1.6-0.6,2.6c0.1,0.8,0.6,1.6,1.5,2.6v0.9h0.2c0,2-0.3,3.6-0.9,4.7v1.6h0.4l1.1-1.6
			c-0.1,1.2-0.3,2.1-0.4,2.7c-0.1,0.5-0.2,0.9-0.2,1.1l-0.9-0.7V609.9z M917.7,515.9c-0.9-0.9-1.6-2.6-2.1-4.9
			c-1.3-2.3-2.8-4.4-4.5-6.3v-0.2c0.9-5.6,1.4-8.4,1.7-8.4c0.1,0,0.8-0.4,1.9-1.2l0.9,0.2c0-0.3,0.4-0.6,1.3-0.9
			c0.6,0.2,3.3,3.5,8.1,10c1.1,0.3,2.3,0.5,3.4,0.5c2,0,6.8-1.9,14.3-5.8c0.7,0,1.5-6.6,2.4-19.8c-0.3-5.6-0.9-8.4-1.9-8.4v-0.5
			c0.9-1.2,2.5-1.9,4.9-2.1c0-0.2,0.1-0.2,0.4-0.2c1.4,0,2.8,0.8,4.1,2.3c2.4,1.2,5.2,3.2,8.3,5.8c0,1.1,0.9,4,2.8,8.6
			c-0.3,1.7-0.1,2.6,0.6,2.6l13.3-5.4l9-3.5c1.7-1.1,2.8-1.6,3.2-1.6c0.9,0.9,3.1,2.1,6.9,3.5c1.4,2,2.1,3.2,2.1,3.5
			c-2,4.8-4.7,8.9-8.1,12.4c-2.3,2.3-4.9,4-7.9,4.9c-1,1.1-3.1,2.4-6.4,4c-2.1,1.4-3.5,2.1-4.1,2.1c-0.6,0-1.1,0.5-1.5,1.6
			c-1.3,0-2.9,0.6-4.7,1.9c-1.4,0.6-2.1,1.8-2.1,3.5c-0.3,2.3-0.6,4.5-1,6.5c-0.4,2-0.7,3.4-1.2,4.2h0.4c11.8-3.9,23.5-6.9,35.1-9.1
			c0.1-2,1-3,2.6-3c0.7,0,1.4,0.1,1.9,0.2c1.3-0.3,1.9-0.8,1.9-1.4c-0.3,0-0.4-0.3-0.4-0.9h2.8c0.9,0.8,1.2,1.6,1.1,2.3
			c1.3,0,1.9-0.8,1.9-2.3c0.9-0.3,1.4-0.5,1.5-0.5c1.3,0,2.1,0.7,2.6,2.1l10.5,3.5c4,2.5,6,5.4,6,8.6l-1.9,4.7
			c-1.7,1.6-3.9,2.3-6.4,2.1l-0.2-0.2l-1.5,0.2c-0.6,0-1.6-0.2-3-0.5c-1.7,0-4.2,1.2-7.5,3.7h-0.4c0-0.3,0.5-1.1,1.5-2.3v-1.4
			c-1.6,0-2.9,0.3-3.9,0.9c-0.3,0-1,0.3-2.2,0.9c-1.2,0.6-3.5,1.6-6.7,3c-1.6,0-2.8,0.7-3.6,2.1c-1.4,0.5-3,1.3-4.7,2.6
			c-0.3,0-0.5,0.2-0.7,0.5c-0.2,0.3-0.4,0.7-0.5,1.2h-0.9c2.9,2.2,4.3,3.7,4.3,4.7c0,5.3-0.8,7.9-2.4,7.9c0,0.5-1.4,1.8-4.1,4
			c-1,0.9-2.5,1.9-4.5,2.8v0.2c-0.6,0-1.1-0.1-1.6-0.2c-0.5-0.2-0.8-0.2-1-0.2c-2.1,1.7-5.4,3.7-9.8,5.8c-0.1,0.3-1.9,1.2-5.1,2.6
			l-3,2.1c1.7,0,3.9-0.8,6.6-2.3c0.4,0,1.9-0.7,4.5-2.1c1.7,0,2.4,0.7,2.1,2.1h1.3v-0.9h0.4l0.9,0.9c0-0.9-0.1-1.6-0.2-2.1
			c1.3,0,1.9,0.7,1.9,2.1l3,2.1c5.4,1.7,8.1,3.3,8.1,4.9l-0.2,0.5c1,2,1.5,3.5,1.5,4.4c-1,1.6-2.4,2.6-4.1,3.3l-0.4-0.5
			c-2.1,0.6-4.2,0.9-6.2,0.7c-1-0.3-1.5-0.6-1.5-0.9v0.5c-2.9-0.6-5.4-0.9-7.7-0.9l-0.2,0.2c-0.1,0-0.2-0.1-0.2-0.2
			c-2.3-0.2-5.6,0.5-10.1,2.1l-0.9-0.2l-8.8,3.7h-0.4v-0.9c-1.1,1.7-2.6,2.6-4.3,2.6c-0.4,0.2-1.3,0.5-2.5,0.9
			c-1.2,0.5-3.1,1.2-5.7,2.3c0,0.3-0.2,0.5-0.6,0.5l-1.3-0.5l-11.3,3.5v-1.2c3-1.1,6.7-3,11.1-5.6c-0.4,0-0.7-0.4-0.9-1.3
			c-0.1-0.9-0.3-1.5-0.4-2c-0.1,0-0.5-0.3-1.1-0.9l2.4-7l-1.1-0.9l-1.7,0.5c0-1.6-0.6-3.8-1.7-6.8c0.1-0.2-0.5-1-1.9-2.6l0.2-1.2
			c0.6,0,0.9-0.3,0.9-0.9l-0.2-0.5c0.4-1.2,0.6-2.5,0.6-3.7c0-4.8-0.1-7.6-0.2-8.4c0-0.9,0.3-1.7,0.9-2.2c0.6-0.5,1.4-0.8,2.4-0.8
			c0-0.8,0.2-1.2,0.6-1.2c1.1,1.6,2.8,3.6,4.9,6.1c5.4-5.8,12.1-10.3,19.9-13.5c6-2.6,11.3-3.9,16.1-3.7l4.5,0.2
			c4-2.8,7.6-5.6,10.7-8.4l3.9-5.1v-0.2c-0.3,0-0.4-0.1-0.4-0.2c-8,2.2-20.8,6.3-38.5,12.4c-6.4,1.6-12.8,2.8-19.1,3.7v-0.5
			c-8.7,0.5-13.2,2.9-13.5,7.2l0.4,0.9c-0.1,0.8-0.3,2-0.4,3.6c-0.1,1.6-0.4,3.8-0.6,6.4c0.1,0.5,0.2,1,0.1,1.5
			c-0.1,0.5-0.1,0.9-0.1,1.1c-0.7,5.6-1.3,8.8-1.7,9.6l0.6,0.7c-0.9,1.2-1.7,3.7-2.6,7.2c-0.4,0-0.9,0.5-1.5,1.4
			c-0.6,0.9-1.1,1.6-1.5,2.1h-1.1c-0.4-0.5-1.6-0.9-3.6-1.4c0-0.6-0.7-1.9-2.1-3.7c-1,0-1.8,0.3-2.4,0.9c-0.7-0.6-1.6-0.9-2.8-0.9
			l-0.2-1.9l0.2-0.5c-0.3-0.3-0.6-1.8-1.1-4.4l0.2-0.5c0-5.3-0.3-8.9-0.9-10.7l-0.2-1.6c0.6-1.1,1.4-1.9,2.4-2.6
			c-0.1-0.3-0.2-0.8-0.2-1.4c1.3,0,3.4-4.3,6.4-12.8c2.6-5,4.2-7.6,4.9-7.9c1.3-0.6,2.6-0.8,4.1-0.5l2.4,5.8l6-3.3l8.6-2.3l13.7-3.7
			c-0.1-2.8-1-4.2-2.6-4.2c-0.3-0.3-0.4-0.6-0.4-0.9l-3,0.5h-0.4c0.3,0,0.6-0.1,0.9-0.2c0.3-0.2,0.4-0.4,0.4-0.7
			c-0.3,0-0.4-0.2-0.4-0.5c1.6-0.8,2.4-1.2,2.4-1.4c-0.9-4.8-1.7-7.2-2.6-7.2l-0.9-1.2v-1.6l-2.4-0.5V511c0.3,0,0.6-0.1,0.9-0.4
			c0.3-0.2,0.6-0.4,1.1-0.6v-3c0-0.5,0.3-1.3,0.9-2.6l-0.6-0.2h-1.3c0,1.1-0.4,1.6-1.1,1.6c0,0.3-0.9,0.7-2.6,1.2
			c0,0.3-0.2,0.6-0.6,0.8c-0.4,0.2-1,0.5-1.7,0.8c0,0.8-0.9,1.9-2.6,3.3c0,0.5-1.1,1.9-3.2,4.2c0,0.2-0.5,0.5-1.5,1.2
			c-0.6,0.9-1.4,1.4-2.6,1.4c-0.1,0-0.9-0.6-2.4-1.9l-1.3,0.7C919.7,517.3,918.6,516.8,917.7,515.9z M939.8,633.5
			c3.6-1.7,5.8-2.8,6.6-3.3c0.4-6.5,1.2-13.5,2.4-20.8c-0.1-0.3-0.1-0.5,0-0.7c-6.7,2.5-12.1,4.3-16.1,5.4l-7.5,2.6
			c-3.3,3.9-5.4,8.4-6.2,13.5v2.6c0,0.8,1.3,1.9,3.9,3.5l3.6,4C931.8,637.4,936.2,635.2,939.8,633.5z M920.1,666.6l-0.6-0.7v0.7
			c0,0.3,0.1,0.5,0.4,0.5L920.1,666.6z M943.8,647.4c1.1-1.8,1.6-3.6,1.6-5.5c0-1.9-0.1-2.8-0.4-2.8l-8.3,4.9
			c-1.9,0.9-2.8,1.6-2.8,1.9c1,1.1,2.1,2.3,3.4,3.7c1.3,1.4,1.9,2.2,1.9,2.3C941.1,650.7,942.7,649.2,943.8,647.4z M941.5,651.7
			h-0.2c-0.9,0.3-1.3,0.7-1.3,1.2v0.2C941,652.9,941.5,652.5,941.5,651.7z M978.3,545.3h-0.2l-0.4,0.2l-1.7-0.2l0.9-0.5h-1.1
			c-0.9,0.5-1.3,0.9-1.3,1.2l0.2,0.7l-0.6,0.2h-0.2l0.2-0.7h-1.5c-1.4,0.9-2.9,1.5-4.3,1.6c-0.9,0.9-1.9,1.4-3.2,1.4
			c-0.4,0-0.6-0.1-0.6-0.2c3.4-1.2,5.8-2.9,7.3-4.9c-3.7-0.2-11.8,3.4-24.2,10.7c-0.1,0.3-0.5,0.7-1,1.3c-0.5,0.5-1.3,1.2-2.2,2
			c-2.3,2.5-3.4,3.8-3.4,4l1.7,6.8l4.5,1.9c3.1-1.6,6.1-3.2,8.8-4.9c0.6-0.5,1.2-0.9,1.9-1.4c0.7-0.5,1.5-0.9,2.4-1.4
			c6.9-4.5,11.3-7.9,13.3-10.3C976.7,549.1,978.3,546.7,978.3,545.3z M945.8,658.7c-1.3,0-2.4-0.2-3.4-0.5v1.9
			c1.7-0.5,2.9-0.7,3.4-0.7V658.7z M980.9,625.5c0,0,0-0.2,0-0.7c-1,0-1.6,0.1-1.7,0.2l-0.2-0.2c-0.6,0-1,0-1.2,0.1
			c-0.2,0.1-0.4,0.1-0.5,0.1l-0.4-0.2c0,0.2-0.1,0.3-0.4,0.5c-0.3,0.2-0.6,0.2-0.9,0v-0.2c-0.9,0.3-1.4,0.5-1.5,0.5l-0.2-0.2
			c0,0.5-0.4,0.7-1.1,0.7l-0.6-0.5c-0.1,0.3-0.6,0.5-1.3,0.5v-0.5H970c0,1.2-1.3,2.3-3.9,3c0,0.5-1.1,1-3.4,1.6
			c-0.4,1.4-1,4.4-1.7,8.9c-0.1,0.2-0.4,0.6-0.6,1.3c-0.3,0.7-0.6,1.4-1.1,2c-2.4,3.4-4.8,5.8-7.1,7.2c-1.6,1.4-3.2,2.4-4.9,3v0.5
			c6.1-1.9,10.6-4,13.5-6.5h0.4v0.2l-0.2,0.5h0.2c3.6-3.4,5.8-5.9,6.6-7.5c3.7-3.3,6.5-5.9,8.3-7.9c1.9-2,3-3.9,3.4-5.6
			C980.5,625.8,980.9,625.5,980.9,625.5z M950.1,528.9c2.1-0.5,3.2-1,3.2-1.6l-1.9-0.5C950.8,526.8,950.4,527.5,950.1,528.9z
			 M995,594.3c-3.1,0-10.1,1.4-20.8,4.2c-1.4,0.8-5.1,2.3-11.1,4.4c-1.4,1.1-2.4,1.6-3,1.6v0.2c3.9,4.2,5.8,7.1,5.8,8.6
			c-1,0.5-1.9,2.3-2.6,5.4c0,0.8-0.2,2.1-0.6,4h0.2c2.9-1.2,4.8-1.9,6-1.9c0.3-0.5-0.3-1.2-1.7-2.1c0.1-0.8,1.9-1.4,5.1-1.9
			c0-0.5,0.3-0.8,1-1c0.6-0.2,1.2-0.4,1.6-0.6l3.9,1.4c0.4-0.5,0.7-1,0.9-1.6c1.7,0.5,3.1,0.9,4.1,1.3c1,0.4,1.6,0.6,1.9,0.6
			C991.6,605.7,994.7,598.2,995,594.3z M964.6,494.6c0,3.3-0.1,6-0.2,8.2c-0.1,2.2-0.2,3.4-0.2,3.7l0.4,0.2
			c12.7-9.8,19.1-17.6,19.1-23.3c-1.6-0.2-8.1,2.8-19.5,8.9C964.5,492.7,964.6,493.5,964.6,494.6z M976.2,565.1
			c0.6,0,0.9,0.3,0.9,0.9c-0.4-0.2-0.9-0.2-1.5-0.2v-0.7H976.2z M999.3,669v0.5l-0.2,0.2h-0.2C998.9,669.2,999,669,999.3,669z
			 M1005.7,661c0-0.2,0.8-1.3,2.4-3.5v0.5h0.6c0,0.8-0.3,1.2-0.9,1.2l0.2,0.5c-2.4,2.6-3.6,4.2-3.6,4.7h-1.9
			C1002.5,663.7,1003.6,662.6,1005.7,661z"/>
		<path class="st6" d="M1093.8,670.5c0.7,1.9,1.1,4.8,1.1,8.9c-1,8.4-2.4,12.6-4.3,12.6l-6.2,5.8c-4.4-3.1-7.5-5-9.2-5.6
			c-1.1-1.9-4.1-4.7-9-8.6c-1-1.6-2.6-3.5-4.7-5.8c-2.4-4-3.8-6.8-4.1-8.4c-1.4-3.3-2.9-4.9-4.3-4.9c0-1.2,1-2.6,3-4
			c0.9,0.2,1.4,0.3,1.7,0.5c0.3,0.2,0.5,0.2,0.6,0.2l2.1-0.7v0.7c0.3-0.5,0.6-0.7,0.9-0.7c1.3,0.9,2.1,1.4,2.6,1.4
			c1.4-0.3,2.6-0.5,3.6-0.5c7.6,1.7,11.7,2.7,12.4,3l1.7-0.5l1.3,0.5l1.9-0.5C1088,664.9,1091,667,1093.8,670.5z M1102.2,541.4
			c0.1,0.6,0.2,1.6,0.2,3c-0.4,3.4-0.8,5.1-1.1,5.1v-1.2h-0.9c0,0.5-0.4,3-1.1,7.7c-0.6,3.7-1.1,5.6-1.5,5.6
			c-0.3,0.6-1,4.6-2.1,11.9l0.4,0.5c-0.3,0-0.8,7.2-1.5,21.7c-0.3,0.9-0.8,5.1-1.5,12.4l0.4,1.9c0,3.1,0.1,4.8,0.2,5.1
			c-0.1,0.3-0.2,0.9-0.2,1.9c0,2.2,0.1,3.7,0.2,4.7c0,0.9-0.9,4.2-2.6,9.8l-2.4,10c-1.1,5.3-1.8,7.9-1.9,7.9
			c-0.6-0.9-1.9-2.2-3.9-3.7c-1.1-1.6-1.7-2.6-1.7-3l-0.9-0.7c-1.9,3.7-3,5.6-3.4,5.6l-1.7-0.2c0,0.6-0.7,1-2.1,1.2
			c-1.1-0.3-3.9-3.2-8.3-8.6c-3.9-6.4-5.8-11.9-5.8-16.6c4.1-32.2,6.2-52.6,6.2-61.1c0-9.8,0.2-14.7,0.6-14.7l-0.2-1.9
			c0-6.4-0.1-11.6-0.4-15.6l0.4-0.5c0-3.1-1-5.9-3-8.4c0-0.3,0.6-0.9,1.7-1.9c1.4,0,3.9,0.7,7.3,2.1c0.1-0.2,0.5-0.2,1.1-0.2v0.2
			l0.4-0.2c1.1,0,3.4,0.4,6.8,1.2l2.6-0.2c0,1.1,2.6,2.1,7.7,3l0.9-0.2c6.7,2.8,10.1,5.4,10.1,7.9c-0.1,0.6-0.2,1.6-0.2,3
			c0.4,0.5,0.9,2.2,1.3,5.1C1102.4,541.3,1102.3,541.4,1102.2,541.4z"/>
	</g>
</g>
</svg>
