<svg xmlns="http://www.w3.org/2000/svg" viewBox="0 0 1288.69 419.24">
  <title>GHT_BiberBlack</title>
  <path d="M605.42,600.93c0,9.61-.1,18.57,0,27.53.4,27.82.91,55.63,1.34,83.45.13,8.83-2.91,12.93-11.3,15.18q-37.77,10.14-75.55,20.17c-8.46,2.26-12.51.52-16.84-7.27Q477.51,693.94,452,647.85c-.88-1.58-1.82-3.13-2.93-5-4.3,2.55-8.17,5.56-12.54,7.29-6.55,2.59-13.33,5.23-20.23,6.1-7.73,1-14.25-11-10.36-17.89a5.63,5.63,0,0,1,3.18-2.12c20-5.91,34.77-18.86,47.59-34.76,12.23-15.16,25.11-29.8,37.52-44.82a8.14,8.14,0,0,0,1.58-6.1c-2.24-9.52-5.09-18.9-7.37-28.42-.76-3.17-2.35-3.61-5.18-3.78-14.32-.87-28.47-2.81-42.07-7.7-12.31-4.42-16.44-12.56-12.27-25a52.3,52.3,0,0,1,5.31-11.24c7.9-12.51,18.17-22.89,29.6-32.23,9.34-7.62,19.79-9.45,31.42-7.33,14.66,2.69,28.88,6.63,41.73,14.35a43.3,43.3,0,0,1,10.89,9.34c6,7.3,5.9,14.42,0,21.81-9.34,11.7-20.81,21.09-33.41,29-3.51,2.21-4.26,4.17-3.11,8,2.69,8.91,4.84,18,7.48,26.91a6.88,6.88,0,0,0,3.46,4.15c24.54,8.82,49.09,17.65,73.8,26,11.73,4,23.91,3.64,36,1.13,7.89-1.63,9.25-1,12.31,6.49,2.72,6.61,1.71,11.55-4.47,14.27a66,66,0,0,1-17.65,4.5C616.87,601.5,611.3,600.93,605.42,600.93Zm-65.1,116.32L504.17,581.71c-12.46,14.73-24.21,28.54-35.79,42.48-.73.88-.66,3.17,0,4.3q25.25,45.69,50.79,91.21c.63,1.12,2.65,2.41,3.71,2.18C528.49,720.65,534,719,540.32,717.25Zm22.86-6.1c5.33-1.45,10-3.1,14.9-4,4-.72,4.86-2.63,4.78-6.43q-1-50.7-1.56-101.41c0-3.51-1.25-4.84-4.38-5.93-15.22-5.32-30.35-10.89-45.53-16.34-1.13-.4-2.35-.56-4.22-1C539.28,621.53,551.19,666.21,563.18,711.15Z" transform="translate(-321.35 -328.94)"/>
  <path d="M1282.4,532.37q-7.12,18-14.26,36c-1.58,4-3.3,8-4.72,12.06-1,2.86-2,4.77-5.76,4.84-3.92.08-5.09-1.91-6.36-4.87C1245,565.6,1238.46,550.82,1232,536a14.32,14.32,0,0,0-2.35-3.93c-.52,17.44-4.66,34.73-.9,52.63H1206.1c.47-4.54.82-9.07,1.44-13.56,3-21.92,6.31-43.8,8.91-65.77.5-4.27-1.65-8.85-2.71-13.91,8.13-.54,16.54-1.24,25-1.48,1.09,0,2.67,2.15,3.3,3.62,6.45,15,12.75,30,19.11,45,.69,1.62,1.47,3.21,2.55,5.56,5.53-14.33,11-27.87,15.87-41.64,1-2.85-.26-6.52-.52-10.52l26.67-2.24c4,31.7,7.91,63.11,11.9,94.95h-27.46c-2.17-17.58-4.29-34.84-6.42-52.1Z" transform="translate(-321.35 -328.94)"/>
  <path d="M836.41,707.59v-5.37c0-27.82.1-55.63-.1-83.44,0-4.43,1.18-5.81,5.6-5.57,6.78.36,13.6.09,21,.09v38.5H895.6V613.35c8.64,0,16.74-.13,24.83.2.8,0,2.12,2.92,2.13,4.49.16,16.15.1,32.31.1,48.46v41.07h-27V667.39H863.16v40.2Z" transform="translate(-321.35 -328.94)"/>
  <path d="M1021.49,368.46h26v38.38h32.38V368.47h26.39v93.84H1080v-40h-32.45V433c0,8.49.12,17-.13,25.48,0,1.41-1.68,3.94-2.68,4-7.61.34-15.25.19-23.29.19Z" transform="translate(-321.35 -328.94)"/>
  <path d="M361.46,464.21a29.32,29.32,0,0,1-21-7.79c-10.42-9.25-17.38-20.72-18.92-34.63a35.29,35.29,0,0,1,2.35-16.47c6.48-16.05,30.43-29.6,47.44-26.47,6,1.1,12.21,4.49,17,8.44,8.8,7.23,14,17.28,16.93,28.24,3.37,12.66.06,23.84-9.41,32.77C386.24,457.38,375.14,463.73,361.46,464.21Z" transform="translate(-321.35 -328.94)"/>
  <path d="M1279.38,420.78l23.9,41.86c-6.57,0-12.23-.67-17.66.15-9.94,1.51-15.84-2-18.75-11.7-1.45-4.88-5-9.14-6.45-14-2.2-7.24-7.14-9.1-14.44-8.88-.1,1.67-.27,3.4-.28,5.13,0,8.33-.12,16.67,0,25,.06,3.13-.76,4.52-4.18,4.39-6.16-.24-12.33-.12-18.5,0-2.33,0-3.8-.42-3.79-3.24,0-30.14,0-60.27,0-90.1.64-.52.9-.9,1.15-.9,17.46.2,35-.66,52.35.95,18.1,1.69,26.62,18.85,18.39,35.16C1288.34,410.21,1283.68,415,1279.38,420.78ZM1246,414.23c3.13-.22,5.59-.42,8-.57,9.73-.58,11.09-1.38,12.59-10.92.91-5.78,1.91-12.17-3.16-16.88s-11.1-4.25-17.48-2.63Z" transform="translate(-321.35 -328.94)"/>
  <path d="M955.37,428.44v33.91H929.16V368.48c1.56-.11,3-.28,4.45-.28,14,0,28-.12,42,.06a41.87,41.87,0,0,1,10.79,1.56c15.38,4.36,22.06,19.7,14.6,34.63-2.84,5.67-7.44,10.46-11.77,16.37,7.35,12.91,15.21,26.74,23.44,41.21a36.42,36.42,0,0,1-4.26.59c-5,.06-10.07-.52-15,.15-8.3,1.12-13.28-1.57-15.9-9.84-1.85-5.81-5.19-11.14-7.84-16.7C966.1,428.66,964.92,428,955.37,428.44Zm.44-13.91c6.2-2.4,14.11,2.49,18-4.6,4-7.41,5.89-16.11-.09-23.5-4.62-5.69-11.41-4.88-17.88-3.2Z" transform="translate(-321.35 -328.94)"/>
  <path d="M1290.56,707.62h-26.3V614.13c.23-.19.48-.59.72-.59,17.8.21,35.66-.33,53.38.93,16.19,1.16,24.93,18.75,17.77,34.41a45.21,45.21,0,0,1-9.32,12.77c-2.87,2.86-2.88,4.66-1,7.89,7.11,12.05,13.91,24.27,20.82,36.43a10.07,10.07,0,0,1,.34,1.89c-5.48,0-11-.69-16.17.15-10.57,1.7-16.7-2.18-19.78-12.42-1.56-5.19-4.8-9.86-7-14.9-1.83-4.26-3.95-7.61-9.37-6.89-1.07.14-2.23-.47-4.17-.92Zm.12-47.7c6.29-2.71,14.06,2.26,17.81-4.67,3.92-7.25,5.62-15.69.3-23.17-4.47-6.3-11.44-4.43-18.11-4.1Z" transform="translate(-321.35 -328.94)"/>
  <path d="M837.93,584.94H811.87V544.5H779.31v30.63c0,10,0,10-10,10-5,0-10-.07-15-.13a5.92,5.92,0,0,1-1.3-.49V491.23h26.16v38.42h32.34V491.22h26.38Z" transform="translate(-321.35 -328.94)"/>
  <path d="M1423.56,490.92c9.87,0,18.51-.17,27.14.16,1.55.05,3.32,1.89,4.48,3.32,12,14.7,23.89,29.48,35.83,44.23a8.07,8.07,0,0,0,2.73,2.31c-.76-16.49,1.85-33.11-3.88-49.62h21.4c0,10.93.15,21.71,0,32.47-.33,18.64-1,37.28-1.27,55.92,0,3.44-.84,4.75-4.51,5.41-6.64,1.2-10.93-.7-15.16-6.11-13.94-17.82-28.47-35.19-42.79-52.73-.4-.49-.94-.88-2.57-2.41,2.33,21-1.23,41.13,4.81,61h-22c0-2.36,0-4.48,0-6.58.65-24.8,1.36-49.59,1.92-74.39a11.78,11.78,0,0,0-1.49-5.13C1427,496.41,1425.53,494.23,1423.56,490.92Z" transform="translate(-321.35 -328.94)"/>
  <path d="M1589.44,491.09H1610c0,4.75.08,9.32,0,13.9-.54,25-1.21,49.92-1.6,74.88-.06,3.63-1.14,4.68-4.67,5.24-6.3,1-10.57-.3-14.79-5.79-13.11-17-27-33.39-40.59-50a17.85,17.85,0,0,0-4.23-3.9c.92,19.75-1.42,39.59,3.78,59.4h-21.13c0-9.37-.14-18.62,0-27.86.33-17.64,1.17-35.28,1.07-52.91,0-4.09-3-8.16-5-13.13,5.64,0,11.24.59,16.66-.14,8.45-1.14,13.67,2.22,18.63,8.91,10,13.5,20.94,26.29,31.47,39.39a14.77,14.77,0,0,1,1.22,2.12l1.11-.61c0-8.19.33-16.39-.09-24.56S1590.31,499.67,1589.44,491.09Z" transform="translate(-321.35 -328.94)"/>
  <path d="M808.55,417h33c-12.14,12.91-8.14,27.63-6.86,42.28a108.77,108.77,0,0,1-37.18,4.92,99.61,99.61,0,0,1-17.78-1.78c-13.76-3-23-11.56-27.59-24.88a64.35,64.35,0,0,1-.49-41.13c5.33-17.05,17.46-26.18,34.7-29a82.65,82.65,0,0,1,36.11,1.77c1.36.39,3.23,1.5,3.57,2.65,2.07,7.12,3.78,14.34,5.83,22.4a33.49,33.49,0,0,1-3.82-1.41,73.49,73.49,0,0,0-39.88-9c-7.81.41-8.47,1-8.63,7.82-.31,13.1-1.63,26.3-.52,39.29,1.27,14.68,11.18,21,25.56,19,3.27-.46,4.13-1.79,4-4.82-.2-4.65-.05-9.33-.05-14Z" transform="translate(-321.35 -328.94)"/>
  <path d="M948,491.16h27v5.32c0,19.16,0,38.33,0,57.49,0,13.58,4.81,18.49,18.45,18.18,15.69-.36,15.24-.36,15.43-15.23.12-9.33-.28-18.68.1-28a113.57,113.57,0,0,0-3.65-32.07,38.8,38.8,0,0,1-.53-5.64h24.93c-.15,3.27-.31,6.23-.42,9.18-.56,15.47-2,31-1.47,46.4,1.24,33.29-21.42,41-43.1,40.14a60.9,60.9,0,0,1-17.48-3.65c-12.34-4.36-18.67-13.84-19-26.63-.59-20.65-.47-41.31-.63-62C947.65,493.71,947.84,492.72,948,491.16Z" transform="translate(-321.35 -328.94)"/>
  <path d="M1113.65,462.64c4.18-9.6,7.9-18.25,11.7-26.86q10.41-23.52,20.91-47c2.69-6,6.5-11.82.77-19,8.89-.95,16.72-2,24.58-2.45,1.15-.07,3,2.23,3.63,3.79,9.48,23.42,18.8,46.91,28.17,70.38l8.41,21c-9.55,0-18.31.11-27.06-.15-1.06,0-2.43-2-3-3.32q-3.32-7.81-6.14-15.82c-.89-2.54-2.16-3.73-5-3.67-8,.18-16-.11-24,.21-1.58.07-4.11,1.82-4.44,3.21a98.9,98.9,0,0,0-2.3,15.62c-.21,3-1,4.11-4.07,4C1128.71,462.52,1121.61,462.64,1113.65,462.64Zm44.17-65.72c-3.44,10.14-6.38,18.78-9.39,27.64h19.93Z" transform="translate(-321.35 -328.94)"/>
  <path d="M1105.46,707.86c-9.21,0-17.53.16-25.83-.15-1.43-.05-3.42-1.77-4.06-3.21-2.29-5.15-4.19-10.48-6.07-15.81-.93-2.66-2.25-4-5.37-3.9-7.82.24-15.65.16-23.47,0-2.71-.05-4.5.57-5,3.53-.62,3.89-1.53,7.75-2,11.65a61.4,61.4,0,0,0-.06,7.58H1007.7c.73-1.92,1.23-3.44,1.87-4.9,10-22.65,20.12-45.27,30-68,2.65-6.06,7.47-12,.89-19.63,6.77-.76,12.13-1.59,17.51-1.91,9.6-.58,9.62-.46,13.25,8.65q16,40,32,80.08C1103.93,703.57,1104.51,705.27,1105.46,707.86Zm-43.22-37.67-10.72-28.09c-3.4,10.06-6.38,18.87-9.49,28.09Z" transform="translate(-321.35 -328.94)"/>
  <path d="M1069.59,553.59v31.29h-26.28V491.62c.16-.12.41-.5.66-.5,15.82,0,31.66-.57,47.44.23,14.28.72,22.89,7.63,25,20.17,2.36,14.08,1.08,25.05-12.5,34.15-8.11,5.44-17.48,7.11-27,7.9C1074.76,553.74,1072.6,553.59,1069.59,553.59Zm.15-14.75c6.1-.28,11.69-.41,17.24-1,.9-.09,2.23-2,2.32-3.13.47-6,.91-11.93.79-17.89-.2-10.14-9.33-15.69-18.69-11.53a3.5,3.5,0,0,0-1.59,2.64C1069.69,517.94,1069.74,527.9,1069.74,538.84Z" transform="translate(-321.35 -328.94)"/>
  <path d="M1323,584.79c4.68-10.64,9-20.5,13.38-30.36,6.51-14.76,12.94-29.56,19.58-44.27,2.49-5.51,5.62-10.78.52-17.07a32.4,32.4,0,0,1,4.38-1.18c4.31-.46,8.63-.74,12.93-1.2,9.07-1,9-1,12.51,7.63q16.23,40.53,32.46,81.06c.66,1.65,1.19,3.36,2,5.72-9.31,0-17.93.12-26.55-.13-1.12,0-2.67-1.73-3.21-3-2.36-5.5-4.22-11.23-6.72-16.66a6.37,6.37,0,0,0-4.53-3.17c-8-.32-16-.32-24,0-1.57.06-4.1,1.87-4.41,3.27-1.39,6.23-2.14,12.61-3.18,19.35Zm54.66-37.32c-3.49-9.19-6.77-17.78-10-26.38l-1.15.13c-3,8.64-5.93,17.28-9,26.25Z" transform="translate(-321.35 -328.94)"/>
  <path d="M943.29,585.13c-9.31,0-17.79.17-26.26-.17-1.34-.05-3.15-2.11-3.81-3.64-2.68-6.25-5-12.67-7.55-19.3-9.4,0-18.72-.12-28,.13A5,5,0,0,0,874,565c-1.53,6.37-2.59,12.84-3.91,19.75H845.54c1.62-3.81,3-7.15,4.45-10.44,10.28-23.27,20.73-46.46,30.68-69.87,1.35-3.18.19-7.44.19-12-.39.15.45-.37,1.34-.47,4.14-.47,8.28-.9,12.43-1.19,10.78-.74,10.81-.72,15,9.68q15.78,39.35,31.53,78.71C941.8,580.88,942.37,582.59,943.29,585.13Zm-63.43-37.61h20.31l-10.65-27.89Z" transform="translate(-321.35 -328.94)"/>
  <path d="M965.13,667.51v24.67H1004c-1,4.6-1.91,9.13-3.07,13.59a3.21,3.21,0,0,1-2.23,2c-19.93.11-39.86.09-60.19.09-.12-2.13-.28-3.75-.28-5.36,0-28,.07-56-.1-83.92,0-4.11,1.07-5.57,5.29-5.35,6.48.33,13,.23,19.48.06,12.87-.34,25.75-.86,39.14-1.32-1,4.65-1.94,10.3-3.46,15.8-.27,1-2.88,1.78-4.4,1.76-7.82-.09-15.64-.48-23.46-.74-1.78-.06-3.58,0-5.62,0V653h33.31c-1.09,5.35-2.12,10.41-3.28,16.07Z" transform="translate(-321.35 -328.94)"/>
  <path d="M877.68,407.82h33.18c-1,4.77-1.68,9.5-3,14.05-.29,1-2.83,1.88-4.29,1.83-8.47-.32-16.92-.94-25.83-1.49v24.84h38.68c-1,4.45-1.83,8.94-3,13.35a3.65,3.65,0,0,1-2.68,2.13c-19.64,0-39.28-.14-58.92-.27-.14,0-.28-.17-.71-.45V368.59c21-1.91,42.13,2.32,63.73-3.51-1.28,6.31-2.31,12.11-3.79,17.79-.21.79-2.65,1.4-4.07,1.41-9.63.13-19.27.07-29.27.07Z" transform="translate(-321.35 -328.94)"/>
  <path d="M1186.12,613.71c21.1-1.85,42,2.24,63.64-3.43-1.39,6.45-2.53,12.35-4.08,18.13-.18.7-2.56,1.18-3.9,1.15-7.83-.16-15.65-.51-23.47-.78-1.78-.06-3.58,0-5.63,0V653h33.1c-1.13,5-2,9.84-3.44,14.5-.25.82-2.78,1.36-4.24,1.31-8.3-.29-16.58-.8-25.29-1.25v24.63h38.33c-.94,4.58-1.76,9.25-3,13.82-.21.82-1.93,1.78-3,1.79-19.32.07-38.64,0-58,0-.29,0-.58-.27-1.16-.56Z" transform="translate(-321.35 -328.94)"/>
  <path d="M1149,627.55v79.86h-26.78v-80l-29.26,5,3.77-19.74h81.7c-1.06,5.75-2,11.75-3.47,17.6-.2.8-3.32,1.45-4.93,1.2C1163.15,630.4,1156.37,629,1149,627.55Z" transform="translate(-321.35 -328.94)"/>
  <path d="M825.8,632.28l-26-4.7v80H773.05V627.44l-29,5c1.34-7.18,2.53-13.58,3.67-19.73h81.64C828.24,618.86,827.08,625.24,825.8,632.28Z" transform="translate(-321.35 -328.94)"/>
  <path d="M1329.39,382.28l-28.94,5c1.35-7.24,2.55-13.64,3.68-19.73h81.63c-1,5.67-2,11.63-3.34,17.49-.18.78-2.61,1.67-3.84,1.48-5.73-.9-11.39-2.19-17.1-3.25-1.58-.29-3.21-.28-5.44-.46V462.6c-8.52,0-16.46.13-24.39-.21-.81,0-2.15-2.89-2.16-4.45-.16-18.48-.1-37-.1-55.44Z" transform="translate(-321.35 -328.94)"/>
  <path d="M1174.73,504.87V585.1c-8.47,0-16.41.13-24.34-.2-.85,0-2.25-2.83-2.27-4.35-.15-19.33-.1-38.66-.1-58V504.78l-28.82,5c1.29-7,2.46-13.37,3.59-19.54h81.68c-1.1,6-2.27,12.35-3.57,19.35Z" transform="translate(-321.35 -328.94)"/>
  <path d="M531.27,379.61c3.21-4.55,5.14-9.42,8.72-11.94,12.61-8.87,25.56-17.34,38.85-25.15,8.55-5,18-8.56,26.94-12.88,2.78-1.33,4.75-.78,6.36,1.73s3.64,5.17,5.12,7.94c4.32,8.09,3.68,14.3-3.57,19.92a267.08,267.08,0,0,1-29.91,20.58c-11.61,6.71-24,12-36,18-3,1.53-5.36,1.24-7.09-1.75C537.63,390.89,534.68,385.63,531.27,379.61Z" transform="translate(-321.35 -328.94)"/>
  <path d="M1431.32,653.64c-12.93-.11-19.86-7.18-19.81-20.25,0-13.59,7.24-20.44,21.32-20.29,12.17.13,19.22,7.69,19.12,20.52C1451.85,646.8,1444.69,653.75,1431.32,653.64Zm8.35-19.19.42,0c-.37-3.27-.42-6.63-1.21-9.79-1.14-4.57-4.06-5.67-10.23-5.36-4.42.23-4.51,3.15-4.56,6.18a128.11,128.11,0,0,0,.17,15.31c.56,5.37,3.27,6.79,9,6.89,5.33.09,6.18-3.18,6.39-7.24C1439.76,638.43,1439.67,636.44,1439.67,634.45Z" transform="translate(-321.35 -328.94)"/>
  <path d="M1491.48,653c-4,0-7.15.27-10.21-.12a5.9,5.9,0,0,1-3.59-2.71c-1.64-2.68-2.61-5.78-4.32-8.42-.91-1.41-2.79-2.2-4.24-3.27l-1.21,1c0,3.47-.1,7,0,10.41s-2.11,3.51-4.3,3.09c-2.36-.44-6.52,2.12-6.64-2.63-.28-11.79-.09-23.6-.09-35.95,8,0,15.7-.57,23.23.17,6.82.67,9.75,8.71,6.1,15.26a57.54,57.54,0,0,1-4.36,5.81C1484.8,640.84,1487.94,646.54,1491.48,653Zm-23.55-20.58c5.13,1.13,8,0,8.66-4.81.45-3.46-.06-6.46-3.88-7.56-2.75-.79-5-.5-4.82,3.36C1468.05,626.31,1467.93,629.28,1467.93,632.38Z" transform="translate(-321.35 -328.94)"/>
  <path d="M1405.85,623.51c-6.78-1.25-11.94-2.21-17.11-3.14-3.71-.67-5.3,1.51-5.46,4.69a116.27,116.27,0,0,0,0,14.46c.15,2,1.13,4.69,2.63,5.64,2.32,1.48,5.42,1.73,8.19,2.5a40.72,40.72,0,0,0,1.47-5.85c.25-2.43.06-4.92.06-7.7h11.86c-.68,5.77-1.34,11.35-2.09,17.74-7.22,2.07-15.52,3-23.8.31-8.1-2.68-12.73-13.6-10.33-23.42a21.15,21.15,0,0,1,29.66-14.3C1403.35,615.57,1404.13,620.15,1405.85,623.51Z" transform="translate(-321.35 -328.94)"/>
  <path d="M1553.09,670.23c1.28-.12,2.41-.29,3.55-.32,2,0,3.93,0,5.27,0,0,10.16.42,19.91-.17,29.59-.31,5-4.35,8.48-9.2,9.31a39.51,39.51,0,0,1-13.72,0c-5.81-1.1-9.25-5.5-9.5-11.36-.38-8.93-.1-17.88-.1-27.15h11.32c0,8.48-.12,16.89,0,25.29.13,6.59,2.55,8.55,9,8.32,3.61-.13,5.2-1.76,5-5.24-.46-8.58-1-17.17-1.46-25.75C1553.05,672.05,1553.09,671.24,1553.09,670.23Z" transform="translate(-321.35 -328.94)"/>
  <path d="M1497.12,708.87H1487c5.36-12.54,10.59-24.74,16.44-38.41,5.07-2.46,8.09-1.38,10.85,5.52,4.29,10.75,8.57,21.51,13.18,33.07a73,73,0,0,0-7.48,0c-3.35.39-5.09-.78-6.16-4.11-1.76-5.54-4.46-6.47-12.73-5.18-4.48.7-3,4.4-3.51,7.09C1497.51,707.37,1497.37,707.84,1497.12,708.87Zm8.63-25.33-1.11-.13c-1.08,3.14-2.17,6.28-3.38,9.78h8.08Z" transform="translate(-321.35 -328.94)"/>
  <path d="M1384,703.62l16.25-1.31-1.31,6.47h-29.66c5.89-11,11.54-21.55,17.66-33l-15.54.73c.4-2.59.77-4.93,1.08-6.95h29.46C1395.75,681.25,1390.09,692,1384,703.62Z" transform="translate(-321.35 -328.94)"/>
  <path d="M1590.09,647.33l15.72-1.09c.37,5-1.14,7.14-6.36,6.85-7.73-.43-15.51-.11-24.44-.11l18-33.33-15.18.77c-.06-7.26.34-7.1,6.41-6.6,7.39.61,14.87.14,23.39.14Z" transform="translate(-321.35 -328.94)"/>
  <path d="M1469.09,675.87l-12,1.92c.5-2.71.94-5,1.43-7.69h33.84c-.56,2.64-1.06,5-1.58,7.49L1480.29,676v32.56h-11.2Z" transform="translate(-321.35 -328.94)"/>
  <path d="M1422.39,670H1456c-.51,2.6-1,4.93-1.48,7.61L1444,676v32.71h-11.2V676l-12,1.66Q1421.69,673.46,1422.39,670Z" transform="translate(-321.35 -328.94)"/>
  <path d="M1575.55,613.71c-.57,2.82-1,4.92-1.55,7.65L1563.18,620v32.06c-.94.47-1.22.73-1.51.75-9.66.6-9.66.6-9.66-9.1V619.84l-11.63,1.76c.54-3.19,1-5.67,1.34-7.89Z" transform="translate(-321.35 -328.94)"/>
  <path d="M1505.92,646.46h15c-.46,2.16-.87,4-1.34,6.18h-24.21V614.51h10.5Z" transform="translate(-321.35 -328.94)"/>
  <path d="M1406.27,670.12h10.45v38.54h-10.45Z" transform="translate(-321.35 -328.94)"/>
  <path d="M1536,652.73h-10.19v-38.3H1536Z" transform="translate(-321.35 -328.94)"/>
  <path d="M1437.57,600.43c2.1,3,4.35,4.88,4.14,6.36s-2.67,3.76-4.35,4c-1.22.15-3.86-2.44-3.91-3.88C1433.38,605.23,1435.48,603.49,1437.57,600.43Z" transform="translate(-321.35 -328.94)"/>
  <path d="M1432.18,606.62c-3,2.09-4.76,4.3-6.33,4.16s-3.11-2.53-4.66-3.93c1.49-1.47,2.86-3.91,4.5-4.12S1429.12,604.67,1432.18,606.62Z" transform="translate(-321.35 -328.94)"/>
</svg>
