<svg xmlns="http://www.w3.org/2000/svg" viewBox="0 0 1984 645.44">
  <defs>
    <style>
      .a {
        fill: #FF69B4;
      }
    </style>
  </defs>
  <title>GHT_BiberWhite</title>
  <path class="a" d="M1741.35-509.47c0,14.8-.17,28.6,0,42.39.62,42.83,1.4,85.65,2.06,128.47.21,13.6-4.47,19.91-17.39,23.38q-58.14,15.6-116.31,31.06c-13,3.46-19.26.79-25.92-11.2q-39.4-70.9-78.72-141.85c-1.35-2.44-2.79-4.82-4.5-7.77-6.62,3.94-12.58,8.56-19.31,11.23-10.08,4-20.52,8.05-31.15,9.38-11.89,1.49-21.93-16.85-16-27.53.86-1.54,3.07-2.73,4.9-3.27,30.83-9.1,53.53-29,73.27-53.51,18.83-23.35,38.66-45.88,57.76-69,1.9-2.3,3.1-6.55,2.44-9.38-3.44-14.67-7.84-29.11-11.36-43.76-1.17-4.88-3.6-5.55-8-5.82-22-1.35-43.83-4.33-64.77-11.85-19-6.81-25.31-19.34-18.9-38.47a80.71,80.71,0,0,1,8.18-17.29c12.17-19.26,28-35.25,45.57-49.62,14.38-11.73,30.47-14.56,48.37-11.28,22.58,4.13,44.47,10.2,64.25,22.08a66.8,66.8,0,0,1,16.77,14.39c9.31,11.24,9.09,22.19,0,33.56-14.39,18-32,32.47-51.44,44.69-5.41,3.4-6.55,6.42-4.78,12.29,4.13,13.72,7.45,27.68,11.51,41.42.74,2.49,3,5.58,5.32,6.4,37.79,13.57,75.58,27.16,113.63,40,18.06,6.09,36.81,5.6,55.41,1.75,12.13-2.52,14.24-1.47,19,10,4.18,10.17,2.62,17.79-6.89,22-8.46,3.72-17.94,5.67-27.17,6.92C1759-508.58,1750.4-509.47,1741.35-509.47ZM1641.12-330.39c-18.6-69.71-36.94-138.47-55.66-208.66-19.19,22.68-37.28,43.93-55.1,65.4-1.12,1.35-1,4.88-.06,6.61q38.85,70.35,78.19,140.43c1,1.73,4.08,3.7,5.71,3.35C1622.9-325.15,1631.45-327.75,1641.12-330.39Zm35.18-9.38c8.21-2.24,15.47-4.78,23-6.1,6.21-1.11,7.48-4.05,7.36-9.91q-1.54-78-2.41-156.11c-.06-5.41-1.92-7.46-6.73-9.14-23.44-8.18-46.74-16.76-70.1-25.14a65.43,65.43,0,0,0-6.5-1.54C1639.52-477.74,1657.85-409,1676.3-339.77Z" transform="translate(-1304 928.21)"/>
  <path class="a" d="M2783.58-615q-11,27.74-21.95,55.48c-2.44,6.18-5.09,12.29-7.28,18.56-1.54,4.41-3.08,7.35-8.86,7.46-6,.12-7.84-2.94-9.79-7.5-9.77-22.84-19.76-45.59-29.69-68.37a21.81,21.81,0,0,0-3.62-6c-.78,26.86-7.16,53.47-1.37,81h-34.91c.73-7,1.27-14,2.22-20.88C2673-589,2678-622.71,2682-656.53c.78-6.57-2.53-13.63-4.16-21.42,12.52-.83,25.46-1.91,38.43-2.28,1.67,0,4.1,3.31,5.07,5.57,9.93,23.06,19.63,46.22,29.42,69.34,1.06,2.51,2.26,5,3.92,8.56,8.52-22,17-42.91,24.45-64.09,1.55-4.4-.4-10-.81-16.21l41.06-3.44c6.12,48.8,12.18,97.15,18.33,146.17h-42.29l-9.87-80.2Z" transform="translate(-1304 928.21)"/>
  <path class="a" d="M2097-345.26v-8.27c0-42.82.16-85.64-.15-128.45-.05-6.83,1.83-8.94,8.63-8.58,10.44.56,20.93.15,32.29.15v59.26h50.37v-59.19c13.29,0,25.77-.21,38.22.31,1.24,0,3.26,4.49,3.29,6.91.24,24.87.14,49.74.14,74.61v63.23h-41.58v-61.86h-50v61.88Z" transform="translate(-1304 928.21)"/>
  <path class="a" d="M2381.9-867.37h40v59.1h49.85v-59.08h40.63v144.47H2472v-61.61h-50V-768c0,13.08.2,26.16-.19,39.23-.06,2.18-2.59,6.07-4.12,6.13-11.73.52-23.49.29-35.86.29Z" transform="translate(-1304 928.21)"/>
  <path class="a" d="M1365.75-719.95c-12.48.41-23.23-3.91-32.34-12-16.05-14.24-26.76-31.89-29.14-53.32a54.56,54.56,0,0,1,3.62-25.35c10-24.71,46.85-45.57,73-40.76,9.28,1.7,18.81,6.92,26.2,13,13.55,11.13,21.56,26.6,26.06,43.48,5.2,19.49.1,36.69-14.48,50.45C1403.9-730.46,1386.81-720.69,1365.75-719.95Z" transform="translate(-1304 928.21)"/>
  <path class="a" d="M2778.92-786.82l36.81,64.46c-10.12,0-18.83-1-27.19.23-15.31,2.31-24.39-3-28.86-18-2.24-7.51-7.66-14.07-9.94-21.58-3.38-11.15-11-14-22.23-13.67-.15,2.57-.42,5.23-.43,7.9,0,12.82-.19,25.65.06,38.48.09,4.83-1.17,7-6.44,6.76-9.48-.36-19-.18-28.48-.06-3.58,0-5.84-.65-5.83-5,.07-46.4,0-92.8,0-138.72,1-.8,1.39-1.38,1.77-1.38,26.88.3,53.92-1,80.6,1.46,27.87,2.59,41,29,28.32,54.12C2792.72-803.09,2785.55-795.76,2778.92-786.82ZM2727.5-796.9c4.82-.34,8.6-.64,12.4-.87,15-.89,17.06-2.12,19.38-16.81,1.4-8.91,2.94-18.75-4.87-26s-17.09-6.55-26.91-4Z" transform="translate(-1304 928.21)"/>
  <path class="a" d="M2280.1-775v52.21h-40.35V-867.34c2.4-.15,4.63-.42,6.86-.43,21.55,0,43.1-.18,64.65.09a64.87,64.87,0,0,1,16.62,2.41c23.67,6.71,33.95,30.34,22.47,53.31-4.37,8.74-11.46,16.11-18.12,25.22,11.31,19.87,23.42,41.16,36.09,63.44a57.88,57.88,0,0,1-6.56.9c-7.69.09-15.5-.8-23.06.23-12.78,1.74-20.44-2.41-24.48-15.15-2.84-8.94-8-17.14-12.06-25.7C2296.62-774.68,2294.8-775.74,2280.1-775Zm.68-21.42c9.55-3.68,21.73,3.85,27.66-7.08,6.2-11.41,9.08-24.8-.14-36.17-7.1-8.77-17.56-7.52-27.52-4.93Z" transform="translate(-1304 928.21)"/>
  <path class="a" d="M2796.15-345.2h-40.49V-489.15c.34-.29.73-.9,1.11-.9,27.4.33,54.89-.5,82.18,1.44,24.91,1.78,38.38,28.86,27.34,53-3.32,7.26-8.64,14-14.34,19.66-4.42,4.4-4.44,7.17-1.49,12.15,10.94,18.54,21.42,37.36,32.05,56.08a15.19,15.19,0,0,1,.53,2.92c-8.44,0-16.86-1.07-24.9.22-16.27,2.62-25.7-3.36-30.45-19.12-2.41-8-7.38-15.17-10.71-22.93-2.81-6.56-6.07-11.72-14.42-10.61-1.64.22-3.42-.72-6.41-1.43Zm.17-73.44c9.69-4.17,21.66,3.47,27.43-7.2,6-11.16,8.65-24.15.47-35.66-6.9-9.7-17.63-6.82-27.9-6.31Z" transform="translate(-1304 928.21)"/>
  <path class="a" d="M2099.31-534.08h-40.13v-62.27h-50.13v47.17c0,15.41,0,15.43-15.35,15.4-7.69,0-15.39-.1-23.08-.2a8.13,8.13,0,0,1-2-.75V-678.35h40.28v59.14h49.79v-59.15h40.62Z" transform="translate(-1304 928.21)"/>
  <path class="a" d="M3000.9-678.83c15.19,0,28.5-.25,41.78.24,2.39.09,5.11,2.92,6.91,5.11,18.47,22.63,36.78,45.4,55.15,68.11a12.77,12.77,0,0,0,4.2,3.55c-1.16-25.39,2.86-51-6-76.4h32.93c0,16.84.25,33.43,0,50-.51,28.7-1.5,57.39-2,86.09-.08,5.3-1.29,7.31-7,8.33-10.21,1.85-16.81-1.07-23.33-9.4-21.46-27.45-43.83-54.19-65.87-81.18-.63-.77-1.45-1.37-4-3.72,3.6,32.37-1.88,63.32,7.41,93.89H3007.3c0-3.65-.08-6.9,0-10.14,1-38.18,2.09-76.35,3-114.52.06-2.63-1.11-5.45-2.29-7.9C3006.22-670.38,3003.93-673.73,3000.9-678.83Z" transform="translate(-1304 928.21)"/>
  <path class="a" d="M3256.29-678.57H3288c0,7.31.13,14.36,0,21.4-.84,38.43-1.87,76.86-2.48,115.29-.09,5.59-1.74,7.2-7.19,8.06-9.7,1.53-16.26-.47-22.77-8.91-20.18-26.17-41.55-51.41-62.48-77a27.82,27.82,0,0,0-6.51-6c1.42,30.42-2.19,61,5.82,91.46h-32.53c0-14.43-.22-28.67.05-42.89.52-27.16,1.81-54.31,1.65-81.46,0-6.29-4.63-12.56-7.68-20.22,8.68,0,17.3.92,25.65-.21,13-1.76,21.05,3.42,28.68,13.72,15.4,20.78,32.24,40.48,48.46,60.65a23,23,0,0,1,1.86,3.25l1.72-.94c0-12.6.5-25.23-.14-37.8S3257.63-665.36,3256.29-678.57Z" transform="translate(-1304 928.21)"/>
  <path class="a" d="M2054.06-792.6h50.85c-18.69,19.88-12.53,42.53-10.55,65.09a167.42,167.42,0,0,1-57.24,7.57c-9.16-.32-18.47-.78-27.38-2.73-21.19-4.65-35.4-17.8-42.47-38.31a99.1,99.1,0,0,1-.76-63.32c8.22-26.26,26.89-40.31,53.43-44.65a127.12,127.12,0,0,1,55.58,2.73c2.11.59,5,2.3,5.5,4.08,3.2,10.95,5.82,22.08,9,34.48a51.23,51.23,0,0,1-5.88-2.16,113,113,0,0,0-61.39-13.83c-12,.63-13,1.54-13.29,12-.48,20.18-2.52,40.5-.8,60.49,1.94,22.6,17.21,32.41,39.35,29.3,5-.71,6.35-2.74,6.15-7.41-.3-7.17-.08-14.37-.08-21.55Z" transform="translate(-1304 928.21)"/>
  <path class="a" d="M2268.74-678.45h41.63v8.18c0,29.5-.06,59,0,88.51.06,20.91,7.41,28.47,28.41,28,24.16-.56,23.47-.56,23.76-23.45.19-14.36-.43-28.75.16-43.09.7-16.82-1.64-33.14-5.62-49.37-.64-2.63-.54-5.45-.82-8.68h38.39c-.24,5-.49,9.58-.65,14.13-.87,23.82-3.16,47.69-2.27,71.44,1.91,51.24-33,63.16-66.35,61.79a94,94,0,0,1-26.92-5.62c-19-6.71-28.73-21.31-29.29-41-.91-31.79-.72-63.6-1-95.4C2268.21-674.54,2268.51-676,2268.74-678.45Z" transform="translate(-1304 928.21)"/>
  <path class="a" d="M2523.79-722.36c6.43-14.78,12.15-28.1,18-41.35q16-36.21,32.18-72.35c4.16-9.24,10-18.2,1.19-29.2,13.68-1.48,25.74-3,37.84-3.78,1.78-.11,4.62,3.43,5.59,5.84,14.59,36.06,29,72.21,43.37,108.34,4.14,10.39,8.3,20.78,13,32.42-14.71,0-28.2.17-41.67-.24-1.62-.05-3.73-3-4.6-5.1q-5.08-12-9.44-24.36c-1.38-3.91-3.34-5.75-7.76-5.65-12.3.27-24.63-.18-36.93.33-2.43.09-6.32,2.8-6.83,4.94a150.85,150.85,0,0,0-3.54,24c-.32,4.57-1.52,6.33-6.27,6.21C2547-722.55,2536-722.36,2523.79-722.36Zm68-101.18c-5.31,15.61-9.83,28.91-14.46,42.55H2608C2602.68-795,2597.65-808.15,2591.79-823.54Z" transform="translate(-1304 928.21)"/>
  <path class="a" d="M2511.18-344.84c-14.19,0-27,.24-39.77-.23-2.2-.08-5.27-2.73-6.25-4.94-3.52-7.93-6.46-16.14-9.34-24.34-1.45-4.1-3.47-6.15-8.28-6-12,.36-24.09.24-36.13.05-4.17-.07-6.92.89-7.64,5.44-.95,6-2.35,11.93-3.1,17.94-.46,3.72-.08,7.54-.08,11.66h-39.92c1.12-2.95,1.88-5.3,2.87-7.54,15.43-34.87,31-69.7,46.26-104.63,4.09-9.34,11.51-18.51,1.38-30.23,10.43-1.17,18.67-2.45,27-2.95,14.78-.89,14.8-.7,20.4,13.32q24.64,61.65,49.26,123.29C2508.82-351.44,2509.71-348.83,2511.18-344.84Zm-66.54-58-16.51-43.25c-5.24,15.5-9.82,29.06-14.61,43.25Z" transform="translate(-1304 928.21)"/>
  <path class="a" d="M2456-582.34v48.16H2415.5V-677.74c.23-.19.62-.78,1-.78,24.35,0,48.74-.88,73,.35,22,1.11,35.24,11.75,38.48,31.06,3.63,21.68,1.66,38.57-19.25,52.58-12.49,8.37-26.91,10.94-41.59,12.15C2463.9-582.11,2460.59-582.34,2456-582.34Zm.21-22.71c9.4-.44,18-.63,26.55-1.46,1.39-.14,3.44-3.06,3.58-4.82.72-9.16,1.39-18.37,1.21-27.55-.31-15.6-14.36-24.14-28.77-17.74a5.38,5.38,0,0,0-2.46,4.06C2456.11-637.23,2456.17-621.9,2456.17-605Z" transform="translate(-1304 928.21)"/>
  <path class="a" d="M2846.06-534.31c7.22-16.38,13.91-31.56,20.61-46.74,10-22.73,19.92-45.51,30.14-68.15,3.83-8.49,8.65-16.61.8-26.29,3.06-.84,4.87-1.61,6.75-1.81,6.63-.72,13.29-1.14,19.91-1.86,13.95-1.51,13.93-1.55,19.26,11.76q25,62.4,50,124.8c1,2.54,1.82,5.16,3.1,8.8-14.34,0-27.61.18-40.87-.21-1.74,0-4.11-2.66-4.95-4.61-3.63-8.47-6.5-17.28-10.35-25.64-1.05-2.29-4.51-4.79-7-4.89-12.3-.49-24.64-.5-36.93,0-2.42.1-6.31,2.89-6.79,5-2.14,9.59-3.29,19.41-4.89,29.79Zm84.17-57.46c-5.38-14.14-10.42-27.37-15.46-40.6l-1.78.19-13.85,40.41Z" transform="translate(-1304 928.21)"/>
  <path class="a" d="M2261.5-533.78c-14.32,0-27.38.25-40.42-.26-2.07-.09-4.85-3.25-5.86-5.61-4.13-9.63-7.7-19.5-11.63-29.72-14.47,0-28.82-.17-43.14.21-2,0-5.2,2.55-5.65,4.44-2.35,9.8-4,19.77-6,30.42H2111c2.49-5.87,4.6-11,6.85-16.09,15.82-35.82,31.92-71.52,47.23-107.56,2.08-4.9.29-11.45.29-18.46-.6.22.7-.58,2.07-.73,6.36-.71,12.74-1.38,19.13-1.82,16.6-1.15,16.64-1.11,23.06,14.89q24.32,60.57,48.54,121.18C2259.22-540.33,2260.08-537.7,2261.5-533.78Zm-97.65-57.92h31.28l-16.41-42.93C2173.39-619.25,2168.82-606.06,2163.85-591.7Z" transform="translate(-1304 928.21)"/>
  <path class="a" d="M2295.13-406.95v38H2355c-1.56,7.08-3,14.05-4.74,20.92-.33,1.28-2.23,3.06-3.42,3.07-30.69.17-61.38.13-92.67.13-.18-3.28-.44-5.76-.44-8.25,0-43.06.11-86.13-.15-129.2,0-6.33,1.65-8.56,8.15-8.23,10,.5,20,.35,30,.08,19.83-.52,39.64-1.31,60.26-2-1.48,7.15-3,15.85-5.33,24.31-.41,1.46-4.43,2.74-6.77,2.72-12-.14-24.07-.75-36.11-1.15-2.75-.09-5.51,0-8.66,0v37.27h51.28c-1.67,8.23-3.27,16-5,24.74Z" transform="translate(-1304 928.21)"/>
  <path class="a" d="M2160.49-806.77h51.09c-1.48,7.35-2.58,14.63-4.64,21.63-.45,1.51-4.35,2.91-6.61,2.82-13-.49-26-1.45-39.75-2.29v38.24h59.53c-1.49,6.85-2.8,13.77-4.64,20.55-.38,1.41-2.7,3.29-4.12,3.29-30.24,0-60.48-.23-90.72-.43-.22,0-.43-.26-1.09-.68V-867.16c32.37-2.94,64.87,3.57,98.12-5.4-2,9.71-3.56,18.64-5.84,27.38-.32,1.22-4.08,2.15-6.26,2.18-14.83.19-29.66.1-45.07.1Z" transform="translate(-1304 928.21)"/>
  <path class="a" d="M2635.36-489.78c32.48-2.85,64.71,3.44,98-5.29-2.15,9.94-3.9,19-6.28,27.92-.29,1.08-3.95,1.81-6,1.77-12-.25-24.08-.8-36.12-1.2-2.76-.09-5.51,0-8.67,0v37.26h50.95c-1.73,7.71-3.09,15.15-5.29,22.33-.38,1.25-4.29,2.09-6.53,2-12.77-.44-25.53-1.22-38.94-1.92V-369h59c-1.44,7.06-2.71,14.24-4.53,21.28-.33,1.27-3,2.75-4.56,2.75-29.74.11-59.49,0-89.23-.07-.44,0-.89-.41-1.77-.85Z" transform="translate(-1304 928.21)"/>
  <path class="a" d="M2578.15-468.48v123h-41.24V-468.67l-45,7.66c2.14-11.2,4-21.05,5.81-30.39h125.78c-1.63,8.86-3,18.08-5.34,27.09-.31,1.23-5.11,2.24-7.59,1.85C2600-464.1,2589.56-466.3,2578.15-468.48Z" transform="translate(-1304 928.21)"/>
  <path class="a" d="M2080.62-461.2l-40.06-7.23V-345.3h-41.15V-468.65L1954.79-461c2-11.05,3.88-20.9,5.65-30.37h125.67C2084.38-481.86,2082.59-472,2080.62-461.2Z" transform="translate(-1304 928.21)"/>
  <path class="a" d="M2855.92-846.09l-44.54,7.63c2.08-11.16,3.91-21,5.66-30.38h125.68c-1.59,8.73-3,17.9-5.15,26.92-.29,1.21-4,2.58-5.91,2.28-8.82-1.37-17.55-3.36-26.33-5-2.43-.45-4.94-.44-8.38-.71v122.91c-13.11,0-25.34.21-37.54-.31-1.26-.06-3.32-4.46-3.34-6.86-.23-28.45-.15-56.9-.15-85.35Z" transform="translate(-1304 928.21)"/>
  <path class="a" d="M2617.82-657.35v123.51c-13,0-25.27.21-37.47-.31-1.31-.05-3.47-4.35-3.49-6.69-.24-29.75-.16-59.51-.16-89.27v-27.38l-44.37,7.68c2-10.77,3.79-20.59,5.53-30.07h125.75c-1.7,9.17-3.51,19-5.49,29.78Z" transform="translate(-1304 928.21)"/>
  <path class="a" d="M1627.17-850.19c5-7,7.92-14.51,13.43-18.39,19.42-13.65,39.35-26.7,59.82-38.72,13.17-7.73,27.67-13.17,41.48-19.82,4.28-2.06,7.31-1.2,9.78,2.65,2.63,4.09,5.61,8,7.89,12.23,6.64,12.45,5.66,22-5.49,30.68-14.71,11.41-30,22.37-46.06,31.68-17.88,10.33-37,18.49-55.49,27.77-4.68,2.35-8.26,1.91-10.92-2.69C1637-832.84,1632.43-840.92,1627.17-850.19Z" transform="translate(-1304 928.21)"/>
  <path class="a" d="M3012.86-428.31c-19.92-.16-30.58-11.06-30.51-31.18.07-20.93,11.14-31.46,32.83-31.23,18.74.19,29.58,11.83,29.43,31.59C3044.46-438.84,3033.43-428.14,3012.86-428.31Zm12.85-29.54.65-.06c-.58-5-.65-10.2-1.87-15.07-1.75-7-6.25-8.72-15.74-8.24-6.82.35-6.95,4.85-7,9.51-.12,7.86-.56,15.78.26,23.56.86,8.28,5,10.46,13.87,10.61,8.21.14,9.51-4.89,9.83-11.13C3025.84-451.73,3025.71-454.79,3025.71-457.85Z" transform="translate(-1304 928.21)"/>
  <path class="a" d="M3105.47-429.35c-6.17,0-11,.41-15.72-.2-2-.26-4.38-2.29-5.53-4.16-2.52-4.13-4-8.91-6.64-13-1.41-2.18-4.31-3.39-6.54-5l-1.86,1.48c0,5.34-.16,10.69.05,16,.19,5.16-3.25,5.41-6.63,4.76-3.62-.68-10,3.27-10.21-4.05-.44-18.16-.14-36.33-.14-55.34,12.37,0,24.16-.88,35.76.26,10.5,1,15,13.41,9.39,23.5-1.6,2.87-4,5.32-6.71,8.93ZM3069.21-461c7.9,1.75,12.38,0,13.34-7.4.69-5.32-.09-9.94-6-11.63-4.23-1.22-7.72-.78-7.41,5.16C3069.4-470.38,3069.21-465.82,3069.21-461Z" transform="translate(-1304 928.21)"/>
  <path class="a" d="M2973.64-474.69c-10.44-1.93-18.39-3.42-26.34-4.85-5.72-1-8.16,2.33-8.41,7.23a179.7,179.7,0,0,0,0,22.26c.23,3.07,1.74,7.22,4,8.69,3.58,2.26,8.35,2.65,12.61,3.83.78-3,1.94-6,2.26-9,.39-3.75.09-7.58.09-11.86h18.26c-1,8.88-2.05,17.47-3.21,27.32-11.12,3.18-23.89,4.69-36.64.47-12.47-4.12-19.6-20.93-15.91-36.06a32.56,32.56,0,0,1,45.66-22C2969.79-486.92,2971-479.87,2973.64-474.69Z" transform="translate(-1304 928.21)"/>
  <path class="a" d="M3200.32-402.77c2-.19,3.72-.45,5.46-.5,3-.08,6,0,8.12,0,0,15.64.64,30.65-.27,45.56-.47,7.72-6.68,13-14.16,14.32a60.66,60.66,0,0,1-21.12-.07c-8.94-1.7-14.23-8.47-14.62-17.5-.59-13.74-.15-27.53-.15-41.8H3181c0,13.06-.19,26,.06,38.95.19,10.14,3.92,13.16,13.81,12.8,5.54-.2,8-2.71,7.71-8.06-.72-13.22-1.51-26.43-2.26-39.65C3200.26-400,3200.32-401.22,3200.32-402.77Z" transform="translate(-1304 928.21)"/>
  <path class="a" d="M3114.15-343.29h-15.57c8.27-19.29,16.31-38.08,25.32-59.12,7.8-3.79,12.45-2.14,16.69,8.49,6.62,16.56,13.21,33.12,20.3,50.91-4.6,0-8.1-.32-11.52.07-5.16.6-7.84-1.2-9.47-6.33-2.71-8.53-6.88-10-19.61-8-6.89,1.08-4.6,6.78-5.4,10.91C3114.75-345.6,3114.54-344.87,3114.15-343.29Zm13.29-39-1.71-.2-5.2,15.06H3133Z" transform="translate(-1304 928.21)"/>
  <path class="a" d="M2939.94-351.37l25-2c-.79,3.88-1.38,6.76-2,10h-45.66l27.19-50.75L2920.55-393c.61-4,1.17-7.58,1.65-10.69h45.35Z" transform="translate(-1304 928.21)"/>
  <path class="a" d="M3257.29-438l24.2-1.68c.57,7.66-1.76,11-9.8,10.54-11.9-.66-23.87-.17-37.62-.17l27.65-51.32-23.37,1.19c-.09-11.17.53-10.92,9.86-10.16,11.39.94,22.9.23,36,.23Z" transform="translate(-1304 928.21)"/>
  <path class="a" d="M3071-394.09l-18.49,3c.77-4.17,1.44-7.77,2.19-11.84h52.1c-.85,4.06-1.62,7.69-2.43,11.53l-16.12-2.4v50.13H3071Z" transform="translate(-1304 928.21)"/>
  <path class="a" d="M2999.1-403.2h51.81c-.78,4-1.48,7.59-2.28,11.71l-16.29-2.37v50.35h-17.25v-50.36l-18.39,2.55C2997.58-395.64,2998.37-399.59,2999.1-403.2Z" transform="translate(-1304 928.21)"/>
  <path class="a" d="M3234.9-489.79c-.88,4.34-1.53,7.58-2.38,11.78l-16.67-2.08v49.36c-1.44.73-1.87,1.12-2.32,1.15-14.88.93-14.88.92-14.88-14v-36.76l-17.9,2.71,2.06-12.15Z" transform="translate(-1304 928.21)"/>
  <path class="a" d="M3127.7-439.36h23.17c-.71,3.32-1.34,6.18-2.06,9.51h-37.28v-58.7h16.17Z" transform="translate(-1304 928.21)"/>
  <path class="a" d="M2974.29-402.94h16.08v59.33h-16.08Z" transform="translate(-1304 928.21)"/>
  <path class="a" d="M3173.94-429.72h-15.68v-59h15.68Z" transform="translate(-1304 928.21)"/>
  <path class="a" d="M3022.47-510.24c3.24,4.68,6.7,7.51,6.37,9.8-.35,2.46-4.1,5.79-6.69,6.11-1.88.24-5.94-3.75-6-6C3016-502.84,3019.25-505.51,3022.47-510.24Z" transform="translate(-1304 928.21)"/>
  <path class="a" d="M3014.17-500.7c-4.59,3.21-7.32,6.62-9.74,6.41s-4.79-3.9-7.17-6.06c2.29-2.26,4.39-6,6.92-6.34S3009.47-503.71,3014.17-500.7Z" transform="translate(-1304 928.21)"/>
</svg>
