<svg xmlns="http://www.w3.org/2000/svg" viewBox="0 0 526.9 449.53" width="16" height="16">
  <title>icon_theater</title>
  <g>
    <path d="M0,187.47c4.58-11.61,14.71-18.28,23.63-25.79,30.08-25.33,64.06-44.48,99.53-61.06,34.94-16.33,70.89-29.84,109-36.78,7.67-1.4,15.44-2.27,23.2-3.12,10.1-1.11,15.82,2.28,20.32,11.84q18.17,38.67,36.25,77.39c11.43,24.5,23.79,48.62,33.93,73.65,30.45,75.16,9,159.93-52.4,212.9-11.42,9.84-24.89,11.41-38.59,12.45-80.9,6.1-152.61-35.76-187.17-109.13-22.43-47.6-44.61-95.31-66.92-143-.13-.28-.52-.44-.79-.66ZM197.53,369.3l.29-1.32c43.82,0,83.43-27.12,98.44-67.38,3.66-9.79.05-19.1-8.79-22.72S269,278.35,265.42,288c-13,35.69-53.83,55.75-90.79,42.53-9.4-3.36-18.77,1.34-21.74,10A16.25,16.25,0,0,0,164.23,362C175.16,365,186.42,366.9,197.53,369.3ZM164.69,243.62c.07-7.4-4.25-13.41-11.54-16.06-27.77-10.1-59.72,4.76-69.8,32.6a19.23,19.23,0,0,0-1.13,8.48c.88,7.69,6.56,13.2,14.16,14.44a16.32,16.32,0,0,0,17.25-9.62c2.79-6.19,6.22-12.09,13-13.76a39.09,39.09,0,0,1,16.37-.28C154.41,261.64,164.6,254.67,164.69,243.62Zm94.19-78c-23.23.86-43.94,15.26-51.74,36.65-3.15,8.66.61,17.84,8.76,21.37s17.48.18,21.68-8.06c7.45-14.62,14.4-17.91,30.15-14.25,8.92,2.07,17.65-2.81,20.2-11.29a16.22,16.22,0,0,0-10.58-20.44C271.37,167.68,265.05,166.88,258.88,165.6Z" transform="translate(0 0)"/>
    <path d="M526.9,192.07c-1.6,9-2.57,18.13-4.91,26.92-17.43,65.53-59.05,107.57-124,126.76-10.2,3-19.67.2-29.57-3.44a207.21,207.21,0,0,0,.8-101.39,63.27,63.27,0,0,1,33.66-1.4,65.63,65.63,0,0,1,30.17,15.82,24.53,24.53,0,0,0,9.22,5.54,14.43,14.43,0,0,0,16.54-7.28c3.35-6.16,2.3-13.38-3.16-18.78a95.58,95.58,0,0,0-92.32-24c-1.11.3-2.27.46-3.79.76-10.79-23-21.56-46-32.41-69.22,5.34-.82,10.31-1.26,15.12-2.39a47.14,47.14,0,0,0,22.38-12.57c6.4-6.24,6.83-15.2,1.14-21.55-5.42-6-14.78-7.13-21.08-1.22-8.67,8.14-21.15,8-30.74.24a40.12,40.12,0,0,1-11.63-15.3C297.29,78.68,292,67.92,287.13,57c-3.21-7.17-8.34-11-16.22-11-6.78,0-13.56,0-20.53,0,0-5-.48-9.52.11-13.89.95-7.1,5.51-11.5,12.17-13.86,22.39-8,45.54-12.52,69.1-15.09A520.2,520.2,0,0,1,444.51,3a322.14,322.14,0,0,1,66.34,13.85c7.64,2.51,13.36,6.45,16,14.19Zm-71.68-50.38a49.71,49.71,0,0,0,34.38-13.75c6.82-6.39,7.46-15.89,1.6-22.24s-14.93-6.48-21.92-.54c-9.47,8.06-19.16,8-28.73,0-7-5.92-16.15-5.64-21.92.65S413.5,121.6,420.37,128C429.91,136.85,441.26,141.31,455.22,141.69Z" transform="translate(0 0)"/>
  </g>
</svg>
