<svg xmlns="http://www.w3.org/2000/svg" xmlns:xlink="http://www.w3.org/1999/xlink" viewBox="0 0 317.34 75"><defs><style>.a{fill:#cf000f;}.b,.c{fill:#231916;}.c,.f{fill-rule:evenodd;}.d{clip-path:url(#a);}.e,.f{fill:#fff;}</style><clipPath id="a"><path class="a" d="M55.44,53.1,52.7,27.94h2.52V2.37H28.79V23.42L26.28.33,0,3,2.74,28.17H.22V53.74H26.64V32.69l2.51,23.08ZM5.33,28.17l23.46-2.38v2.15H50.1L26.64,30.32V28.17Z"/></clipPath></defs><title>Aktiv 1</title><path class="b" d="M116.91,12c-1.54.14-2,0-3,1.68-.38.82-1.25,2.71-1.43,3.07h1.91a2.1,2.1,0,0,0,.18-.47,13,13,0,0,1,1.82-3.67,1.52,1.52,0,0,1,.8-.52C117.28,12.07,117.37,12,116.91,12Z"/><path class="b" d="M116.57,6.15h.28c.11,0,.17-.11,0-.13-1.12-.06-1.3-.77-1.74-1.44a9.14,9.14,0,0,1-.77-1.46h-1.64c.31.68.69,1.35,1,2C114.21,6,115.1,6.19,116.57,6.15Z"/><path class="b" d="M114.88,8c-.19-.36-.43-.78-.43-.78h-1.73c.06.06,1.13,1.94,1.3,2.17.53.73,1.29.78,2.84.7.18,0,.39,0,.39,0s-.06,0-.15-.05C116.08,9.75,115.56,9.18,114.88,8Z"/><path class="b" d="M128,5.34v-.6h-4.32V2.52h-1.62V4.74H117.6v.6h4.47V9.41H117.6V10h3.32c-.79,1.24-3,4.64-3.58,5.68-.9,1.5,1.2,1.54,3.92,1.5h2.94c2.14-.09,3.81-.49,3.81-1.23V12.58H126.3v3.48c0,.47-1.62.73-3,.77h-2c-1.46,0-2.46-.2-2-1.13L122.93,10H128v-.6h-4.32V5.34Z"/><path class="b" d="M100.58,15.61H101s.06,0,0,0a4.18,4.18,0,0,1-2.17-.94c-1.11-.7-1.94-1.33-2-1.38H95.18c.29.24.69.57,1.21.93a14.58,14.58,0,0,0,1.37.86A5.07,5.07,0,0,0,100.58,15.61Z"/><path class="b" d="M101,4.22H99.57v.52H95.22v.41h4.35v.53h-1c-1,0-1.68.22-1.94.64v.12c.19-.23.67-.46,1.78-.42h1.17V7.6h-3V5.71H95.22V9.85H96.6V8h3v1.6H98.4c-.94,0-1.52-.09-1.78-.42v.18c.21.4.84.58,1.94.55h1v1.06H95.19v.41h6.26v-.41H101V9.86H102c2.26,0,3.26-.31,3.26-1v-2c0-1.06-1.05-1.18-3.26-1.15H101V5.15h4.34V4.74H101ZM102,9.55H101V8h2.92v1C103.87,9.34,103.24,9.55,102,9.55ZM102,6c1.32,0,1.84.18,1.84.73V7.6H101V6Z"/><path class="b" d="M104,3H96.5c-1.27,0-2,.26-2.34.77V3H92.54v14.3h1.62v-.77c.31.51,1.07.77,2.34.77H104c2.73,0,3.93-.36,3.93-1.24V4.41C108,3.13,106.7,3,104,3Zm2.22,13.15c0,.51-.76.73-2.22.73H96.31c-1.35.05-1.92-.23-2.15-.51V3.93c.23-.28.8-.56,2.15-.52H104c1.65,0,2.28.21,2.28.88Z"/><path class="b" d="M103.75,10.32c0,.47-1,.6-2.28.6v.41c.36,0,.71,0,1,0v1.12H95.18v.41h7.31v1.62c0,1-.37,1.43-2,1.78a6.07,6.07,0,0,1-.9,0c-.08,0-.1.12,0,.12s4.2.45,4.2-2.09V12.84h1.51v-.41h-1.51V11.19c1-.17,1.51-.5,1.51-1v0h-1.54Z"/><path class="b" d="M87.53,4.26h-.89V2.51H85.12V4.26H79.28v.49h2.56c0,.52-.09,1.83-.26,3.56-.44,4.41-.86,6.77-1.88,8.44-.41.68-.47.76-.15.53,3.08-2.15,4.14-11,4.31-12.53h1.26V15.41c0,1.18-1.44,2.05-2.54,2.13h-.36c-.13,0-.06.1,0,.11.25,0,4.42.57,4.42-2.44V4.75h.89Z"/><path class="b" d="M78.84,14.33v-10C78.84,2.79,76,2.93,76,2.93s-2,0-2.34.76V2.93H72.11V15.7h1.51v-.79c.25.48,1,.69,2.36.65C78,15.49,78.84,15.08,78.84,14.33Zm-3.07-11s1.36,0,1.36.88V6.68H73.62V3.84C73.85,3.57,74.42,3.28,75.77,3.33Zm1.36,3.85V11H73.62V7.18Zm-1.36,8c-1.14,0-1.84-.11-2.15-.51V11.51h3.51v2.93C77.12,15.23,76.06,15.18,75.77,15.2Z"/><path class="b" d="M71.79,17.8h1.46c.08-.29.21-1.56.21-1.56H72A15,15,0,0,1,71.79,17.8Z"/><path class="b" d="M77.29,16.23c0,.61.21,1.58.21,1.58h1.39a14.41,14.41,0,0,1-.22-1.58Z"/><path class="c" d="M148.29,16.71c-1.11,1.28-3.41.09-4.94-1.46a12.14,12.14,0,0,1-4-8V5.68a1.46,1.46,0,0,0,0-.3c0-1.6,0-3,0-3l-1.68,0,0,3.06c0,4.68-.46,7.46-7.14,11.83-.1.07-.43.19-.39.31s.27,0,.46,0c.61-.14,6.18-1.38,8.13-5.71a12.07,12.07,0,0,0,5.26,5.67C147.35,19.34,148.83,16.1,148.29,16.71Z"/><path class="c" d="M176.15,29.62V29H165.37V22.11l-2.24,0v16.8c0,1.63,1.66,1.83,5.13,1.78h.57c3.91.06,7.32-.51,7.32-1.76V35.19h-2.46v3.92c0,.72-2.77,1.09-4.86,1.09h-.57c-2.07,0-2.85-.32-2.89-1.13V29.62Z"/><path class="c" d="M157.47,22.08a27.88,27.88,0,0,1-1.95,4.19,38.75,38.75,0,0,1-4.28,6.19c-.61.49-.12.42-.12.42a15.83,15.83,0,0,0,4.45-3.38V41.26h2.17V26.78a25.11,25.11,0,0,0,2.56-4.69Z"/><path class="b" d="M90.25,26.09c.18,0,.37,0,.37,0s-.06,0-.14-.06a2.42,2.42,0,0,1-.64-.23,3.7,3.7,0,0,1-1.46-1.61c0-.11-.07-.12-.13-.24H86.64c.33.55.82,1.38.93,1.53C88.08,26.12,88.79,26.16,90.25,26.09Z"/><path class="b" d="M88.6,22.87H77.25c-.36,0-.69,0-1,0l-.14,0a5.61,5.61,0,0,0-.77.13l-.12,0a2.79,2.79,0,0,0-.6.22l-.07,0a2,2,0,0,0-.46.34v-.83H71.79v17.9H74.1v-.64c.49.49,1.52.71,3.15.67H88.6c3.89.05,5.61-.51,5.61-1.74V24.82C94.21,23,92.4,22.82,88.6,22.87Zm3.17,16.34c0,.72-1.09,1.08-3.17,1.08H77a4.56,4.56,0,0,1-2.88-.53V24a1.89,1.89,0,0,1,.57-.29l.13-.05.17,0,.2-.05.19,0,.26,0,.2,0,.35,0H88.6c2.26-.05,3.17.29,3.17,1.23Z"/><path class="b" d="M76.88,34.3a2.17,2.17,0,0,0,1.63.67c2.79,0,4-.38,4-1.26V30c0-1.29-1.3-1.44-4-1.4a1.85,1.85,0,0,0-1.63.77v-.78H75.33V35h1.55Zm0-4.79c.24-.28.7-.51,2.08-.52s1.82.28,1.82.89v3.94c0,.52-.78.78-2.27.78a1.91,1.91,0,0,1-1.63-.52Z"/><path class="b" d="M91,39.16a10.16,10.16,0,0,1-4.26-4.3,19.42,19.42,0,0,0,4-6.51H88.08a13.72,13.72,0,0,1-1.86,4.06l-.31.49a13,13,0,0,1-.59-2.73c-.13-1.21-.19-2.33-.2-3.26h5.42v-.52H85.11c0-1.3.08-2.13.08-2.13H82.74s0,.85,0,2.13h-7.4v.52h7.42a19.42,19.42,0,0,0,1.8,8l-.15.18a22.82,22.82,0,0,1-4.87,4.7c-.15.11-.14.25,0,.2a18.65,18.65,0,0,0,5.1-3.13c.29-.23.56-.46.82-.69a9.69,9.69,0,0,0,5.64,3.36c.07,0,.22.06.26-.08S91,39.16,91,39.16Z"/><path class="b" d="M83.08,35.27c0-.07-.35,0-.66.07a36.23,36.23,0,0,1-7.1,1.38l0,2.25a26.88,26.88,0,0,0,7.14-3.18C82.89,35.55,83.12,35.35,83.08,35.27Z"/><polygon class="b" points="199.28 23.61 199.28 22.04 197.13 22.04 197.13 23.61 186.82 23.61 186.82 22.04 184.67 22.04 184.67 23.61 180.41 23.61 180.41 24.18 203.88 24.18 203.88 23.61 199.28 23.61"/><rect class="b" x="180.4" y="35.31" width="23.47" height="0.58"/><path class="b" d="M180.4,37.87h3.13c-.24.39-.52.83-.69,1.12-1.14,1.84,1.49,1.89,4.89,1.84h8.74c3.4,0,6.22-.45,6.22-1.53v-.59h-2.38v.73c0,.63-.89.83-5.89.83h-6.69s-3.08-.14-2.55-1.27l.76-1.14h17.94v-.58H180.4Z"/><polygon class="b" points="191.91 33.3 186.82 33.3 186.82 31.94 191.91 31.94 191.91 31.36 186.82 31.36 186.82 30.54 184.67 30.54 184.67 31.36 180.41 31.36 180.41 31.94 184.67 31.94 184.67 33.3 180.41 33.3 180.41 33.88 191.91 33.88 191.91 33.3"/><path class="b" d="M182.45,29.6a5.45,5.45,0,0,1-1.81.91s-.24.09-.23.14.19.08.19.08,4.24-.25,5.39-2.68h.3v.4c0,1.31,1.05,2,3.26,2h2.36v-.6h-1.73c-1.26.06-1.65-.5-1.68-1.19v-.58h3.41v-.57h-5.09V26.1h5.09v-.57h-5.09V24.7h-2.15v.83H180.4v.57h4.27v1.38H180.4v.57h3.22A3.48,3.48,0,0,1,182.45,29.6Z"/><path class="b" d="M192.25,34.15c-.28.14-.15.32.15.25a7.11,7.11,0,0,0,4.28-2.73,12.43,12.43,0,0,1,2,1.38c.49.42.79.55.5,0a11,11,0,0,0-1.91-2.54,7.05,7.05,0,0,0,.41-2.43v-2h.36c1.17,0,1.66.34,1.56,1.12v5.17c0,1.28.69,1.89,2,1.84h2.2v-.62h-1.37c-.64,0-.83-.09-.83-1.1V27.36c0-1.22-1-1.83-3-1.83h-.94v-.87l-2.13,0s0,.35.05.84h-2.83v.55h2.84a25.59,25.59,0,0,1-.1,3,16.22,16.22,0,0,0-2.77-1.45v2.49a14,14,0,0,1,2.4.79A5.45,5.45,0,0,1,192.25,34.15Z"/><path class="b" d="M224.75,38.83h2.17v-.61h-1.36c-.63,0-.81-.09-.81-1.09l0-9.91-2.06,0V37C222.73,38.28,223.4,38.88,224.75,38.83Z"/><polygon class="b" points="225.14 26.24 225.14 25.61 221.36 25.61 221.36 22.09 219.21 22.09 219.21 25.61 215.58 25.61 215.58 26.24 219.21 26.24 219.21 41.3 221.36 41.3 221.36 26.24 225.14 26.24"/><path class="b" d="M225.76,28.73h2.83v9.59c0,1.72-2.15,3-3.78,3.12h-.55c-.19,0-.09.15,0,.15.38,0,6.6.84,6.6-3.55V28.73h1.77V28.1h-6.87Z"/><rect class="b" x="226.27" y="23.81" width="6.36" height="0.63"/><path class="b" d="M208.74,27.59A13.09,13.09,0,0,0,215,22.12h-2.86s-1.45,3.8-3.51,5.4C208.47,27.62,208.45,27.7,208.74,27.59Z"/><path class="b" d="M215.23,26.59h-3.07a16.28,16.28,0,0,1-3.77,6.47c-.62.68-.39.49.21.2A11,11,0,0,0,210.54,32v9.31h2.15V29.93A30.43,30.43,0,0,0,215.23,26.59Z"/><path class="b" d="M216,27.22a17.41,17.41,0,0,1,.07,2.23c-.06,2.14.16,7.75-.91,10.93-.27.81.19.32.33.09,2.8-4.54,2.41-13.25,2.41-13.25Z"/><path class="b" d="M224.64,24.18l-.4-1.73h-1.75a16.26,16.26,0,0,1,.36,1.76Z"/><path class="b" d="M302.68,31.8c-.74-.19-1.25-.71-1.86-1.78-.17-.32-.75-1.44-.82-1.56h-2a26.76,26.76,0,0,0,1.36,2.59c.59.94,1.4.95,3.21.91h.22C303,32,302.93,31.86,302.68,31.8Z"/><path class="b" d="M308.59,34.24h-7.77c-1.7,0-2.72.33-3.15,1v-1h-2.1v6.6h2.1V40c.35.62,1.37.91,3.15.86h7.77c3.67,0,5.29-.48,5.29-1.64v-3.1C313.88,34.39,312.18,34.19,308.59,34.24Zm-8,.59h8c1.9,0,3,.35,3,1.34v1H297.67V35.56C298.13,35.1,298.77,34.78,300.56,34.83Zm8,5.44h-8c-1.52,0-2.46-.14-2.89-.67V37.84h13.91V39C311.58,39.82,310.55,40.27,308.59,40.27Z"/><path class="b" d="M308.77,30c-.6,1.07-1.12,1.59-1.86,1.78-.25.06-.3.16-.07.16h.21c1.82,0,2.62,0,3.22-.91a29.17,29.17,0,0,0,1.36-2.59h-2C309.52,28.58,308.94,29.7,308.77,30Z"/><path class="b" d="M317.12,28.91c-2.2-.71-2.86-2.8-3.65-4.7-.55-1.3-1.06-1.48-3.13-1.48h-7.76a4.39,4.39,0,0,0-3,.8,4.87,4.87,0,0,0,.36-1h-3.2c-.56,2.09-1.94,5.45-3.73,6.13-.41.16-.37.41-.1.31a13.61,13.61,0,0,0,1.83-.77v4.95h2.11V32.3c.34.63,1.37.92,3.16.87h9.33c3.67,0,5.29-.49,5.29-1.65V29a15,15,0,0,0,2.3.1C317,29.11,317.66,29.08,317.12,28.91Zm-14.81-5.62h6.39a2.19,2.19,0,0,1,2.15,1.16l.33.66H298.64a7.63,7.63,0,0,0,.67-1h0C299.64,23.73,300.18,23.29,302.31,23.29ZM296.72,27a11,11,0,0,0,1.39-1.27h13.37c.32.69.4.95.53,1.25-.73-.06-1.61-.07-2.65-.05H300c-1.71,0-2.73.34-3.16,1v-1Zm3,5.62c-1.53,0-2.47-.15-2.9-.68V28.23c.3-.36,1.09-.74,2.9-.69h4v5.09h-4Zm12.57-1.33c0,.86-1,1.32-3,1.32h-3.52V27.54h3.52c1.9,0,3,.35,3,1.34Z"/><path class="c" d="M149.69,38.61c-.83,1.9-3.89,1.62-6.12.45a27.4,27.4,0,0,1-4.25-2.84,16.65,16.65,0,0,0,6.8-11h2.63v-.57H138.69V22h-2.16v2.64H126.35v.57h3.07a19.79,19.79,0,0,0,6.14,11,27.34,27.34,0,0,1-8.9,4.18c-1,.27-.7.41-.18.35a28.09,28.09,0,0,0,10.68-3.17A16.15,16.15,0,0,0,145,41.37C149.73,42,150.09,37.69,149.69,38.61ZM137.53,34.7a17.12,17.12,0,0,1-5.3-9.45h11C143.2,26.2,142.6,30.36,137.53,34.7Z"/><path class="c" d="M256.07,36.59a10.52,10.52,0,0,0,2.07,1c3.69,1.29,4.62-2,4.16-1.34-.95,1.36-3.29.53-4.92-.75a8.32,8.32,0,0,1-2.74-3.44h6.54V31.4H256V24.25h4.63v-.69H256v-1.4h-2.16v1.4h-9.28v-1.4h-2.15v1.4h-4.37v.69h4.37V31.4h-5v.69h6.32c-1.64,3.66-6.35,5.32-6.93,5.58s-.26.28,0,.24a16.38,16.38,0,0,0,4.59-1.32h6.7v3.62H237.45v.63h23.67v-.63H250.34V36.59Zm-11.49-9.76h9.28v2h-9.28Zm9.28-2.58V26.2h-9.28V24.25Zm-9.28,5.2h9.28V31.4h-9.28ZM242.71,36A13.41,13.41,0,0,0,247,32.09h4.48A18.59,18.59,0,0,0,255.18,36h-4.84v-2h-2.16v2Z"/><path class="c" d="M101.15,24.57l0,0,.12-.11.09-.05.11-.08.16-.07a.31.31,0,0,1,.1,0l.24-.08.08,0,.35-.08h0l.46-.07h0a12.1,12.1,0,0,1,1.25,0h11.94c2.26-.05,3.16.3,3.16,1.24v2.52h2.45V25.28c0-1.78-1.81-2-5.61-2h-4.51V22h-2.15v1.3h-5l-.64,0-.27,0-.29,0-.32.05-.19,0-.3.08-.14,0-.27.11-.11,0-.24.13-.08.05a1.56,1.56,0,0,0-.2.16l-.06.05-.16.18,0,.05v-1H99v4.33h2.15Z"/><path class="c" d="M122,39c-1.25,1.11-3.57.07-4.94-1.5a49.75,49.75,0,0,1-3.79-6.1,16.65,16.65,0,0,0,3-.22,3.67,3.67,0,0,0,1.06-.44c.2-.11.59-.39,1.17-.77.78-.67,1.46-1.22,2-1.66h-2.72c-.19.16-.58.39-1,.66-.19.11-.39.28-.58.39A10.33,10.33,0,0,1,113.11,31c-.37-.64-.69-1.21-1-1.64v-.12c0-1-.65-1.48-2-1.67l1.12-.8h7v-.58H102.51v.58h5.29c-.6.39-2.16,1.42-4.13,2.54a10.44,10.44,0,0,1-4.94,1.84c-.1,0-.09.15,0,.15l1,0a12.51,12.51,0,0,0,6.15-1.2,32.29,32.29,0,0,0,3-1.69l.46-.3c.51.16.62.53.62,1.23v1.06h-1.89c-.16.08-2,1.33-4.39,2.7A10.33,10.33,0,0,1,98.73,35c-.1,0-.09.15,0,.15l1,0a12.29,12.29,0,0,0,6.15-1.2,32.29,32.29,0,0,0,3-1.69c.39-.25.75-.48,1.08-.71v2.87h-1.88c-.16.09-2,1.34-4.39,2.71A10.55,10.55,0,0,1,98.73,39c-.1,0-.09.15,0,.15l1,0a12.51,12.51,0,0,0,6.15-1.2,32.29,32.29,0,0,0,3-1.69c.39-.25.74-.48,1.06-.71v2c-.16,1.95-2.12,3-3.74,3.08h-.54c-.18,0-.08.15,0,.15.38,0,6.51.84,6.51-3.5V34.11a16.75,16.75,0,0,0,4.69,5C121.25,42,123.21,37.85,122,39Z"/><path class="b" d="M290.1,31.19c-2.2-.71-3.48-4.69-4.28-6.59-.54-1.29-1.21-1.47-3.29-1.47h-7.17a4.85,4.85,0,0,0-2.89.64,11.32,11.32,0,0,0,.47-1.07l-3.54,0A14.7,14.7,0,0,1,264.56,31c-.32.31-.76.6-.29.42a14.35,14.35,0,0,0,4.77-3h7.1v4h-9.81v.75h9.81V40h-9.81v.79h22.14V40H278.29v-6.9h10.18v-.75H278.29v-4H285c.31.62.58,1.15.84,1.6.71,1.21,1.94,1.42,4.09,1.37C290,31.38,290.64,31.36,290.1,31.19Zm-20.31-3.53a16.67,16.67,0,0,0,2.43-3.4c.4-.32,1.21-.56,2.87-.5h6.43a1.71,1.71,0,0,1,1.62.9l1.49,3Z"/><path class="b" d="M275.42,38.39c.34,0,.29-.16,0-.17-2.15-.23-5.53-3.36-5.75-3.49h-3.34c.58.46,3.68,2.74,3.91,2.94C271.57,38.56,273.81,38.45,275.42,38.39Z"/><path class="b" d="M279,38.39c1.62.06,3.86.17,5.18-.72.23-.2,3.34-2.48,3.91-2.94h-3.33c-.23.13-3.6,3.26-5.76,3.49C278.73,38.23,278.68,38.39,279,38.39Z"/><rect class="b" x="122.55" y="45.01" width="1.57" height="10.6"/><polygon class="b" points="79.42 46.02 79.42 53.44 72.33 45.79 71.79 45.79 71.79 55.61 72.58 55.61 72.58 48.26 79.75 55.8 80.22 55.79 80.22 46.02 79.42 46.02"/><path class="b" d="M87.85,54.4c0-1.11.17-4.28-.53-5-1-1.14-3.76-.87-4.5.33v1.14s.57-1.64,2.07-1.55c0,0,1.65,0,1.65,1.59,0,1.2-4.37.16-4.37,3,0,2.57,3.54,2.15,4.28.86,0,0,0,1.66,2.37.57C88.82,55.34,87.84,55.55,87.85,54.4Zm-1.38-.86c0,1.63-2.74,2.05-2.87.28-.11-1.55,2.87-1.76,2.87-1.76Z"/><path class="b" d="M120.33,54.4c0-1.11.17-4.28-.52-5-1-1.14-3.77-.87-4.51.33v1.14s.58-1.64,2.08-1.55c0,0,1.64,0,1.64,1.59,0,1.2-4.37.16-4.37,3,0,2.57,3.54,2.15,4.28.86,0,0,0,1.66,2.37.57C121.3,55.34,120.32,55.55,120.33,54.4ZM119,53.54c0,1.63-2.74,2.05-2.87.28C116,52.27,119,52.06,119,52.06Z"/><path class="b" d="M92.53,55.25c-.65,0-1,0-1-1.55V49.55H93.2V48.9H91.55V47H90.34V48.9H89.13v.65h1.21v4.76a1.41,1.41,0,0,0,1.5,1.49H93.4v-.55A7.56,7.56,0,0,1,92.53,55.25Z"/><path class="b" d="M96.23,55.61H94.66V48.94h1.57Zm-.74-10a.8.8,0,0,0-.8.8.8.8,0,0,0,1.6,0A.8.8,0,0,0,95.49,45.59Z"/><path class="b" d="M101.64,48.68a3.56,3.56,0,1,0,3.65,3.56A3.61,3.61,0,0,0,101.64,48.68Zm0,6.59c-1.16,0-2.11-1.35-2.11-3s.95-3,2.11-3,2.11,1.35,2.11,3S102.79,55.27,101.62,55.27Z"/><path class="b" d="M110.64,48.94H110a1.76,1.76,0,0,0-1.66,1v-1h-1.44v6.67h1.44V50.33c0-.33.44-1.19,2.25-1,1,.07,1.06.82,1.06,1.62v4.65l1.4,0v-5C113.07,48.91,110.45,48.93,110.64,48.94Z"/><path class="b" d="M143.76,55.61h.61a1.8,1.8,0,0,0,1.67-1v1h1.44V48.94H146v5.33c-.26.38-.45,1.13-2.26,1-.95-.07-1.06-.82-1.06-1.62V49l-1.39,0v5C141.33,55.64,144,55.61,143.76,55.61Z"/><path class="b" d="M160.85,55.61h.62a1.78,1.78,0,0,0,1.66-1v1h1.44V48.94h-1.44v5.33c-.25.38-.44,1.13-2.25,1-1-.07-1.07-.82-1.07-1.62V49l-1.38,0v5C158.43,55.64,161,55.61,160.85,55.61Z"/><rect class="b" x="149.76" y="45.01" width="1.57" height="10.6"/><path class="b" d="M156.19,55.25c-.65,0-1,0-1-1.55V49.55h1.65V48.9h-1.65V47H154V48.9h-1.21v.65H154v4.76a1.42,1.42,0,0,0,1.51,1.49h1.56v-.55A7.56,7.56,0,0,1,156.19,55.25Z"/><path class="b" d="M139.57,54.91a7.62,7.62,0,0,1-1.73.69,7.16,7.16,0,0,1-1.8.23,5.25,5.25,0,0,1-3.83-1.35,4.89,4.89,0,0,1-1.39-3.69,4.66,4.66,0,0,1,1.46-3.64,5.71,5.71,0,0,1,4-1.34,8.88,8.88,0,0,1,1.77.19,11.29,11.29,0,0,1,1.8.57V48s-1.3-.91-1.8-1.17a3.73,3.73,0,0,0-1.77-.38,3.49,3.49,0,0,0-2.76,1.14,4.58,4.58,0,0,0-1,3.15,4.7,4.7,0,0,0,1,3.2,3.54,3.54,0,0,0,2.79,1.18,4,4,0,0,0,1.69-.35,5.2,5.2,0,0,0,1.55-1.19Z"/><path class="b" d="M168.23,50.09V48.94h-1.44v6.67h1.44V51.12a2,2,0,0,1,2.62-1V48.71A2.6,2.6,0,0,0,168.23,50.09Z"/><path class="b" d="M177.85,55.15a5.24,5.24,0,0,1-1.29.5,5.8,5.8,0,0,1-1.41.16,3.6,3.6,0,0,1-2.61-.92,3.39,3.39,0,0,1-.95-2.54,3.74,3.74,0,0,1,.95-2.67,3.25,3.25,0,0,1,2.51-1,3.15,3.15,0,0,1,2.31.82,3.08,3.08,0,0,1,.83,2.28,1.78,1.78,0,0,1,0,.26.81.81,0,0,1,0,.16s-4.59,0-5.08,0a3.47,3.47,0,0,0,.63,2.27,2.32,2.32,0,0,0,1.8.77,3.5,3.5,0,0,0,2.36-1Zm-4.72-3.56h.72l2.86,0c0-.09,0-.16,0-.23v-.18a2,2,0,0,0-.46-1.4,1.6,1.6,0,0,0-1.24-.53,1.63,1.63,0,0,0-1.34.61A3,3,0,0,0,173.13,51.59Z"/><path class="b" d="M194.93,48.94h-.61a1.78,1.78,0,0,0-1.67,1v-1h-1.44v6.67h1.44V50.28c.26-.38.45-1.14,2.26-1,1,.07,1.06.82,1.06,1.62v4.65l1.39,0v-5C197.36,48.91,194.74,48.93,194.93,48.94Z"/><path class="b" d="M189,54.4c0-1.11.17-4.28-.52-5-1-1.14-3.77-.87-4.51.33v1.14s.58-1.64,2.08-1.55c0,0,1.64,0,1.64,1.59,0,1.2-4.37.16-4.37,3,0,2.57,3.54,2.15,4.28.86,0,0,.05,1.66,2.37.57C190,55.34,189,55.55,189,54.4Zm-1.38-.86c0,1.63-2.74,2.05-2.86.28-.11-1.55,2.86-1.76,2.86-1.76Z"/><path class="b" d="M204.49,45v5l0-.17a2.33,2.33,0,0,0-1-.91,3.12,3.12,0,0,0-1.43-.3,2.73,2.73,0,0,0-2.18.94,3.78,3.78,0,0,0-.81,2.54,4.07,4.07,0,0,0,.79,2.69,2.78,2.78,0,0,0,2.25,1,2.56,2.56,0,0,0,2.37-1.35v1.19h1.44V45ZM204,54.24a1.73,1.73,0,0,1-1.47.74,1.66,1.66,0,0,1-1.44-.74,3.58,3.58,0,0,1-.52-2.08,3.49,3.49,0,0,1,.53-2.07,1.64,1.64,0,0,1,1.43-.75,1.72,1.72,0,0,1,1.47.75,3,3,0,0,1,.46,1.26V53A3,3,0,0,1,204,54.24Z"/><rect class="b" x="227.46" y="48.9" width="4.07" height="0.65"/><path class="b" d="M229.88,53.7V47h-1.21v7.32a1.41,1.41,0,0,0,1.5,1.49h1.57v-.55a7.76,7.76,0,0,1-.88,0C230.21,55.22,229.88,55.21,229.88,53.7Z"/><path class="b" d="M224.17,50.09V48.94h-1.44v6.67h1.44V51.12a2,2,0,0,1,2.62-1V48.71A2.61,2.61,0,0,0,224.17,50.09Z"/><path class="b" d="M217.48,45.81h-.74l-4.39,9.81h1.32L214.92,52h3.56l1.32,3.61h1.93Zm-2.21,5.38,1.44-3.5,1.44,3.5Z"/><path class="b" d="M233,53.92a3.48,3.48,0,0,0,.83,1,2.25,2.25,0,0,0,1.17.31,2,2,0,0,0,1.19-.32,1,1,0,0,0,.42-.89c0-.5-.48-.9-1.46-1.18l-.36-.12a3.7,3.7,0,0,1-1.51-.74,1.5,1.5,0,0,1-.44-1.12,1.94,1.94,0,0,1,.73-1.58,3,3,0,0,1,1.93-.6,4.4,4.4,0,0,1,.95.11,2.49,2.49,0,0,1,.7.26c0,.05,0,1.38,0,1.38a2,2,0,0,0-1.76-1.18,1.52,1.52,0,0,0-1,.32,1,1,0,0,0-.39.82c0,.47.51.85,1.52,1.14l.27.08a3.79,3.79,0,0,1,1.58.75,1.61,1.61,0,0,1,.42,1.16,2,2,0,0,1-.79,1.67,3.51,3.51,0,0,1-2.16.61,5.62,5.62,0,0,1-1.1-.11,4.86,4.86,0,0,1-1-.32C232.73,55.21,233,53.92,233,53.92Z"/><path class="b" d="M292.15,54.4c0-1.11.17-4.28-.52-5-1-1.14-3.77-.87-4.51.33v1.14s.58-1.64,2.08-1.55c0,0,1.64,0,1.64,1.59,0,1.2-4.37.16-4.37,3,0,2.57,3.54,2.15,4.28.86,0,0,.05,1.66,2.37.57C293.12,55.34,292.14,55.55,292.15,54.4Zm-1.38-.86c0,1.63-2.74,2.05-2.87.28-.11-1.55,2.87-1.76,2.87-1.76Z"/><path class="b" d="M296.87,55.25c-.64,0-1,0-1-1.55V49.55h1.65V48.9h-1.65V47h-1.21V48.9h-1.21v.65h1.21v4.76a1.41,1.41,0,0,0,1.5,1.49h1.57v-.55A7.76,7.76,0,0,1,296.87,55.25Z"/><path class="b" d="M273.93,48.94h-.61a1.77,1.77,0,0,0-1.67,1v-1h-1.44v6.67h1.44V50.28c.26-.38.44-1.14,2.25-1,1,.07,1.07.82,1.07,1.62v4.65l1.39,0v-5C276.36,48.91,273.74,48.93,273.93,48.94Z"/><path class="b" d="M314.91,49h-.61a1.8,1.8,0,0,0-1.67,1V49h-1.44v6.67h1.44V50.3c.26-.39.44-1.14,2.25-1,1,.07,1.07.82,1.07,1.62v4.65l1.39,0v-5C317.34,48.93,314.72,49,314.91,49Z"/><path class="b" d="M264.35,55.61H265a1.8,1.8,0,0,0,1.67-1v1h1.43V48.94h-1.43v5.33c-.26.38-.45,1.13-2.26,1-1-.07-1.06-.82-1.06-1.62V49l-1.39,0v5C261.93,55.64,264.55,55.61,264.35,55.61Z"/><path class="b" d="M300.41,55.61h-1.57V48.94h1.57Zm-.74-10a.79.79,0,0,0-.79.8.79.79,0,0,0,.79.79.79.79,0,0,0,.8-.79A.8.8,0,0,0,299.67,45.59Z"/><path class="b" d="M305.82,48.68a3.56,3.56,0,1,0,3.66,3.56A3.61,3.61,0,0,0,305.82,48.68Zm0,6.59c-1.17,0-2.11-1.35-2.11-3s.94-3,2.11-3,2.1,1.35,2.1,3S307,55.27,305.81,55.27Z"/><path class="b" d="M256.62,48.68a3.56,3.56,0,1,0,3.65,3.56A3.61,3.61,0,0,0,256.62,48.68Zm0,6.59c-1.16,0-2.11-1.35-2.11-3s.95-3,2.11-3,2.11,1.35,2.11,3S257.77,55.27,256.6,55.27Z"/><path class="b" d="M283.56,45v5l0-.17a2.39,2.39,0,0,0-1-.91,3.12,3.12,0,0,0-1.43-.3,2.73,2.73,0,0,0-2.19.94,3.77,3.77,0,0,0-.8,2.54,4.07,4.07,0,0,0,.79,2.69,2.77,2.77,0,0,0,2.24,1,2.73,2.73,0,0,0,1.41-.35,2.83,2.83,0,0,0,1-1v1.19H285V45Zm-.47,9.23a1.71,1.71,0,0,1-1.47.74,1.68,1.68,0,0,1-1.44-.74,4.36,4.36,0,0,1,0-4.15,1.66,1.66,0,0,1,1.43-.75,1.69,1.69,0,0,1,1.47.75,3,3,0,0,1,.47,1.26V53A3,3,0,0,1,283.09,54.24Z"/><rect class="b" x="246.63" y="45.97" width="1.53" height="9.66"/><rect class="b" x="247.74" y="45.97" width="4.23" height="0.71"/><rect class="b" x="247.74" y="50.07" width="4.23" height="0.71"/><polygon class="a" points="0 60.28 0.79 60.28 12.35 72.75 12.35 74.95 11.66 74.96 0.07 62.76 0 60.28"/><rect class="a" y="61.26" width="1.16" height="13.42"/><polygon class="a" points="12.35 74.68 11.19 73.13 11.19 60.62 12.35 60.62 12.35 74.68"/><path class="a" d="M28.06,73.67a11.45,11.45,0,0,1-2.54,1,10.49,10.49,0,0,1-2.64.33,7.76,7.76,0,0,1-5.62-2,7.18,7.18,0,0,1-2-5.41,6.85,6.85,0,0,1,2.14-5.34,8.37,8.37,0,0,1,5.88-2,12.59,12.59,0,0,1,2.59.27,16.48,16.48,0,0,1,2.65.84v2.08s-1.91-1.34-2.64-1.72a5.65,5.65,0,0,0-2.59-.56,5.1,5.1,0,0,0-4,1.67,6.79,6.79,0,0,0-1.47,4.63,6.86,6.86,0,0,0,1.53,4.69A5.16,5.16,0,0,0,23.33,74a6.14,6.14,0,0,0,2.49-.52,7.58,7.58,0,0,0,2.27-1.74Z"/><path class="a" d="M37.91,60.32H36.83L30.39,74.71h1.94l1.83-5.3h5.22l1.94,5.3h2.84ZM34.68,68.2l2.11-5.13L38.9,68.2Z"/><rect class="a" x="47.6" y="60.55" width="2.23" height="14.16"/><rect class="a" x="49.23" y="60.55" width="6.21" height="1.03"/><rect class="a" x="49.23" y="66.56" width="6.21" height="1.03"/><path class="a" d="M55.44,53.1,52.7,27.94h2.52V2.37H28.79V23.42L26.28.33,0,3,2.74,28.17H.22V53.74H26.64V32.69l2.51,23.08ZM5.33,28.17l23.46-2.38v2.15H50.1L26.64,30.32V28.17Z"/><g class="d"><path class="e" d="M19.25,12.65c0-.09,0-.36-.1-.39-.15-.75-.82-1-.95-1.22-.39-.37-.63-.36-.69-.29.3.13.29.75.42.72.27.13,1,2.31.66,2.93a1.41,1.41,0,0,1-.66.62c-.09,0-.78.43-1.35.25a1.09,1.09,0,0,1-.75-.81,3.84,3.84,0,0,1-.06-.62,2.23,2.23,0,0,1,0-1.19,18.41,18.41,0,0,1,.67-3.58c.29-.29.19-.82,0-.81S16.23,8,16,8c-.07,0-.14,0-.2,0a10.59,10.59,0,0,0-1,.43c-.13,0-.22,0-.16-.2a14.14,14.14,0,0,0,1-1.62c.11-.3.44-.23.67-.66a.63.63,0,0,0,.08-.43c-.16-.38-1-.51-1.64.39l-.62.9c-.09-.29-.39-.34-.41-.65s-.55,0-.54-.1,1.51-1.61,1.67-1.78a7.63,7.63,0,0,0,3-.79c.49-.33,0-.4.1-.82s-.6-.18-.79-.62c.25-.51-.2-.56-.33-.79,0,0-.19-.77-.53-.84-.14-.3-1.49-1.08-2.62.87a1.71,1.71,0,0,1-.29.16c-.1.07-.46.46-.6.56a17.79,17.79,0,0,1-3,1.81A3.27,3.27,0,0,1,7,4.49a18,18,0,0,1-1.77-1c-.1-.06-.71-.32-.56-.09a3.28,3.28,0,0,1,1,1.68A1.17,1.17,0,0,0,6,6.54a2.19,2.19,0,0,0,1.88.55c.2-.17.6-.35.34-.71a.45.45,0,0,1,0-.2C8.38,6,9.17,5,9.88,4.72c.9-.29,1.79-1.5,2.15-1.7.69-.37.86.22.79.66a5.61,5.61,0,0,1-.89,2.17c0,.06-.91,1.4-3.82,2.73,0,0-1.35.6-1.36.29,0-.66.14-.75.14-.75s-.11,0-.52.41a1.91,1.91,0,0,0-.48,1.33c-.06.69,0,.75.26.72.67-.08,1.67-.89,2.16-1,.09,0,.35,0,.38.32a.65.65,0,0,1-.22.49c-.06.1-.31.2-.25.36.4.23-.1,1,.1,1.35a.72.72,0,0,1-.72.52c-.73,0-.83.38-1.15.43a2.11,2.11,0,0,0-1.51.59c-.19.18-.17.43,0,.7s-.21.53-.19.81c.57-.56.82-.13,1-.55a11.64,11.64,0,0,1,1.77-1.08c.22-.06.23.11.54.25.08,0,.07.41-.14.5-.85.34-1.32,1.49-2,1.86a3.92,3.92,0,0,0-1,.83c-.39.33-.46.89-1,1.19-.3.16-.1.52-.23.75,0,0,0,0,0,0l-.88.89a.34.34,0,0,0-.17.42s.3.64.37.6c.43.86,1.74-.46,1.8-.82,0,0,0,0,0-.1a3.65,3.65,0,0,1,1-2.4c.36-.26.49-.85,1-.95s-.1,1.15-.13,1.28c-.13.4-.22.89-.33,1.22a2.07,2.07,0,0,1-.55.91,6.81,6.81,0,0,1-.93,1.78c-.13.07-.26.23-.39.3-.33.3-.1.56-.23.89s0,.46,0,.72a.59.59,0,0,0,.32.3c.46,0,.36-.53.56-.79,0-.56,0-.37.46-1.58S6.85,19.44,7,18.87a.69.69,0,0,1,.42-.53c.16,0,.43-.05.53.1s0,.27-.07.55a3.84,3.84,0,0,1-.16,1.55,1.17,1.17,0,0,0-.1.43c-.11.41.36.66.36,1,.31-.23.3-.66.49-.84s0-.51.07-.78a7.35,7.35,0,0,0,.1-1.09,7.82,7.82,0,0,0,.13-1.45c.07-.77-.1-.82,0-1.05,0-.68.61-.77,1-1.35a5.27,5.27,0,0,0,.72-1,4.13,4.13,0,0,0,.85-.82c.17.26.69.39.27.92,0,.13-.2.26-.14.33-.26.46-.32,1-.58,1.41-.82,1.31-.41,1.58-.53,2.27,0,.36.53.13.62.49s-.06.41-.16.46c1-.14.52-1,1.93-1.11a.3.3,0,0,0,.2-.1c.49-1.5-1-.25-1.43-.56-.26-.18-.42,0-.57-.17a.7.7,0,0,1,.26-.52c.17-.4.2-.76.4-1.19a10,10,0,0,1,.62-1.61c.16-.1.27-.15.33,0s-.07.33-.1.49.2-.06.29-.13.34-.06.6-.33.59-.26.88-.39a1.58,1.58,0,0,0,.49-.2c.79-.16.27.92.59,1.28a2.28,2.28,0,0,0,.84,1.34,2.3,2.3,0,0,0,1.63-.05c.29-.1.55-.24.75-.33,1.14-.6,1.41-.38,1.67-.58s.2-.21.23-.31A5.41,5.41,0,0,0,19.25,12.65ZM11,8.78c.7-.29,1.43-.64,1.67-.76s.27-.2.4-.26.46-.17.59-.24a2.83,2.83,0,0,0-.41.65c-.07.13-.12.37-.18.51a9.52,9.52,0,0,0,.69-.89c.05-.09.33-.25.34,0a4.42,4.42,0,0,1-.31.93,1.56,1.56,0,0,1-.59.76c-.47.29-.58.11-1,.55a9.53,9.53,0,0,1-.92.63c-.22.11-.06-.19-.09-.26s-1.13.52-1.32.59a.72.72,0,0,1-.23,0,.42.42,0,0,1-.35-.36C9.25,9.14,10.31,9.06,11,8.78Zm1.67,2.72A7,7,0,0,1,11,13.38c-.24.15-.55.83-.93,1-.17.08-.27.38-.4.58s-.74.9-.85.56c-.34-1,.62-1.19.39-1.65A.66.66,0,0,1,9,13.21c.16-.29.46-.39.72-.56a.77.77,0,0,0,.33-.32,4.92,4.92,0,0,0,1.21-.86,7.17,7.17,0,0,1,1.9-1.21c0,.4-.19.59-.19.72A3.05,3.05,0,0,0,12.68,11.5Zm2.4.3c-.06.25-.62,0-.92.07s-1,.23-1.1.13.23-.79.29-1a2.1,2.1,0,0,0,.24-.56,4.15,4.15,0,0,1,.57-1.05,6.69,6.69,0,0,1,1.05-.49A5.45,5.45,0,0,1,15.08,11.8Z"/><path class="e" d="M14.16,23.67c-.33-.1-.62,0-1.08.36-.85.8-2.42.82-1.54-.07a17.69,17.69,0,0,1,2.62-2.69c.34-.23,1-.83.31-1.47-.07,0,0,.35-.73.21s-1.47.27-3.16,1.09c-.38.19-.36-.27-.35-.5-.42.27-1.08.57-1,1.06a.69.69,0,0,0,.42.61c.25.13.58-.11.78-.18a9.83,9.83,0,0,0,1.31-.62c.41-.16.72.17.33.55a10.42,10.42,0,0,1-1.18,1.39c-.66.76-.51.78-1.15,1.15-.26.15-.58.48-.33.75s0,.55.2.63c1.05.37,3-.93,3.68-.3.06.07.23.52-.62.85a6.29,6.29,0,0,0,.91,0,4.61,4.61,0,0,0,1.9-1C16.55,24.27,14.49,23.74,14.16,23.67Z"/><path class="e" d="M8.23,37.94a2.32,2.32,0,0,0,1.15-.36c1.75,0,1-1.48.95-1.61S9.74,35,9,35c-.37-.05-.53.79-.79,1-.69.62-2.51,1.49-2.26,2.36C7.29,38.56,7.08,37.92,8.23,37.94Z"/><path class="e" d="M18.31,36.33c.65,0,.22-.14.31-.2h0c.41-.22,1.5.19,1.38-.31a3.35,3.35,0,0,0-.26-1c-.21-.71-.54-1.22-1.34-1s-1,0-1.28.43c-.09.19-.42.19-.49.39.3.07.49.43.82.46C18.29,35.35,17.66,36.39,18.31,36.33Z"/><path class="e" d="M8.23,40.34l-.2-.1c-.23.29,0,.73-1,1.67a28.71,28.71,0,0,0-2.72,2.56c-.55.23-1.71,1.25-1.66,1.54s.79-.06,1.17-.26c.91-.47,2.14,0,3.05-.56.53-.31,0,.89,0,1.38a3.25,3.25,0,0,0,.42,1.6,1.53,1.53,0,0,0,.92.53A.65.65,0,0,0,9,48.65c.46-.31.24-.84.24-1.2a3.28,3.28,0,0,0-1-2.33c-.23-.23-.57-.54-.2-.82A7.68,7.68,0,0,0,9.51,43c.17-.31.06-.75-.18-1.33A2.87,2.87,0,0,0,8.23,40.34Z"/><path class="e" d="M21,37.61c-.55,0-1.83,1.19-2.65,1.35a3.7,3.7,0,0,0-1.93.92c-.13,0-.26.06-.23.22a1.14,1.14,0,0,0,.23.2,1.57,1.57,0,0,0,.85.33c.23-.23.62-.2.79-.46.1-.1.64-.34.49,2.39A25,25,0,0,1,18.84,46c-.07.3,0,2.13-.1,2.76,0,.39-.2.61-.43.88-.58.69-1.53.53-1.54,1.21a2.47,2.47,0,0,1,1.67-.23,8.36,8.36,0,0,1,1.25.53c.27.11.6-.26.75-1a16.79,16.79,0,0,0-.16-3.8c-.07-1.22-.4-2.4-.43-3.58a8.12,8.12,0,0,0-.82-3c.59-.2,1.25-.27,1.83-.43.73-.07,1.46-.69,1.45-1.18S21.45,37.68,21,37.61Z"/><path class="e" d="M16.25,41.58c-.21-.07-1.24-.23-1.47-.29a.86.86,0,0,1-.36-.2c-.1-.62,0-1.11,0-1.77,0-.88.33-.79.4-.82.49-.2,1.57-.59,1.6-.62.45-.33.07-.4,0-.4a2.28,2.28,0,0,0-1.57.07s-.58.21-.33-.33c.07,0,.23-1.12.3-1.18A4.59,4.59,0,0,0,15,34.5c.56-1.44.76-3,0-3.06-.54-.07-1.08-.39-1.64-.12s-.72,1-.72,1.57c.19-.15.75-.74,1.12.17.25.47,0,.78,0,1a16.85,16.85,0,0,0-.17,3.64c.18.65-1.6,1.12-1.8,1.31-.42,0-.53.49-1.4.56a.35.35,0,0,0-.3.16,2.5,2.5,0,0,0,2.13,0c.75-.49.56-.42.85-.52.61-.22.46.69.29,1a2.52,2.52,0,0,1-.36.62c-.74,1-2.52,2.56-2.65,3.41l0,0a6.08,6.08,0,0,0,1.87-1c.5-.55,1.25-1.56,1.1-.57v.13a4.47,4.47,0,0,0-.13,1.35c.09.5,0,1.15.13,1.67,0,.1.07.2.1.3s0,1,.49.52c.1-.1.1-.29.33-.29.5,0,.24-.52.23-1.25,0-.92-.2-1.7-.16-2.62,0,0,0-.35.49-.17s.65.53,1.08.63a1.14,1.14,0,0,0,.52-.1c.33-.3.13-.69,0-1C16.32,41.71,16.46,41.66,16.25,41.58Z"/><path class="f" d="M53.22,23a4.64,4.64,0,0,0-1.44-.65,7.6,7.6,0,0,1-3.86-2.11,4.52,4.52,0,0,0-.88-.75s-1-.66-1-.71a16.09,16.09,0,0,0-1.57-.92c-.62-.3-.09-.68-.08-.7a11.15,11.15,0,0,0,1.9-1.57,1.51,1.51,0,0,1,.59-.56c.88-.82.62-.88.72-1.14s.46-.19.5-.19l.9.07a.92.92,0,0,0,.48,0,5.68,5.68,0,0,1,1,0,.89.89,0,0,1,.36-.07A2.83,2.83,0,0,0,52,13.56l.52-.1c.24,0,.46-.25.59-.38s.24-.52-.25-.6l-.09,0a2.72,2.72,0,0,1-1,.15c-.64,0-1.29,0-1.46.06l-.28,0c-.1,0-.72.1-.82.15a4.37,4.37,0,0,0-.9.07c-.14,0-2.15.17-2.41.15a1.26,1.26,0,0,0-.41,0,5.29,5.29,0,0,1-1.34,0c-.08,0-.59,0-.59,0a.24.24,0,0,1-.22-.16c-.14-.3-.54-.47-.08-1,0,0,.26-.21.1-.41a2.38,2.38,0,0,0-.36-.28.94.94,0,0,0-.3-.13c-.22,0-.4.22-.39.28s-.15.38-.18.44a4,4,0,0,1-.48.59,2.22,2.22,0,0,0-.26.19s0,.15.14.2.31.16.31.27-.25.29-.29.3h0a1.26,1.26,0,0,1-.69.14,3,3,0,0,0-.95.17,4.09,4.09,0,0,1-1.26,0,6.88,6.88,0,0,0-1.91.17,3.12,3.12,0,0,1-1.33.11,1.12,1.12,0,0,0-.77-.09c-.07,0-.59.22-.71.64s-.23.8-.2.93c.07.35,1.66-.36,1.85-.38a3.8,3.8,0,0,0,1.49-.27,7.33,7.33,0,0,1,1.17-.36,1,1,0,0,1,1,.38c.63.53.43.66.84,1,.65.53.58,1.18,1.45,1.4s1,.79-.75,1.81a5.76,5.76,0,0,1-.71.42,16,16,0,0,1-1.64.65c-.47,0-1.25.46-1.49.46a1.38,1.38,0,0,0-.61.13,20.6,20.6,0,0,1-4.1.47l-.38-.26a.5.5,0,0,0-.67.08s-.11.25-.23.32a5.23,5.23,0,0,0-.53,1.42c0,.11.06.21.07.27a.69.69,0,0,0,.2-.15c.17-.15.19-.12.44-.06a6.34,6.34,0,0,0,.78.13,1.91,1.91,0,0,1,.75-.11,4.59,4.59,0,0,0,2.53-.39,4.9,4.9,0,0,1,2.22-.68c.24,0,.26-.45,1.2-.46.34,0,.23-.57,1.28-.71a4.1,4.1,0,0,0,2.92-2.08c.35-.55.93.2,2.25.92.5.27.75.86,1.24,1.13a7,7,0,0,1,.85,1.09c.57.89,1.57,1.16,2,2l1.61,1.93a2.17,2.17,0,0,0,1.88-.34,4.3,4.3,0,0,1,1.29-.53c1-.69,1-1,1-1.28S54.19,23.6,53.22,23ZM43.15,17c-.18-.15-.32-.4-.69-.43a3.23,3.23,0,0,1-1.63-1.52c-.11-.5-.33-.53-.21-.72.13-.45,1-.65,1.68-.47A18.62,18.62,0,0,0,45,13.71c.58,0,1.39,0,1.77,0,.56.09,0,.65-.08.76l-.81.66a3.61,3.61,0,0,0-1.24,1.11C44.39,16.56,43.63,17.38,43.15,17Z"/><path class="f" d="M45.56,39.84c.5.27.38.43.7.53s.2.3.8.46a6.69,6.69,0,0,1,1.38.62c.24.11.29.39.71.44s.67-.5.71-.76a1.18,1.18,0,0,0,.5-.63c.25-.68-.22-.57-.46-1.17a.6.6,0,0,0-.06-.3s-.24-.56-.25-.57.14-.15-.11-.63h0l0,0h0a1.07,1.07,0,0,1-.3-.61c0-.53-.55-.82-.63-.88-.58-.31-.86-.45-.74,0,0,.18.16.56.18.67a2.29,2.29,0,0,0,.09.82,1,1,0,0,1,0,.25,1.32,1.32,0,0,0,0,.4,1.1,1.1,0,0,1,0,.29s0,.44-.2.47a.8.8,0,0,0-.42,0c-.22.09-.32,0-.52.08s-1.1.18-1.1.18S45.06,39.58,45.56,39.84Z"/><path class="f" d="M37.65,32.23c0-.48-.5-.87-.86-.78-.19.05-.24.41-.24.41a1.91,1.91,0,0,1-.42,1s-.32.53-.37.58l-.19,1c-.09.41-.53.85-.59,1.06A6.48,6.48,0,0,0,34,37.29a1.84,1.84,0,0,1-.41.74,7.67,7.67,0,0,0-.73,1.67c0,.17-.22.2-.28.42s-.14.35-.14.35a5.79,5.79,0,0,1-.53,1.06A5.6,5.6,0,0,0,31,43c-.07.5-.32.32-.61,1a4.19,4.19,0,0,0-.47,1.45c0,.27-.31.38-.15.58a1.18,1.18,0,0,0,1.12-.45,1.16,1.16,0,0,0,.43-.57,12,12,0,0,1,1-1.49,3.84,3.84,0,0,0,.51-1.08A5.61,5.61,0,0,0,34,40.28c.05-.31.18-.35.26-.56a1.78,1.78,0,0,1,.32-.46,1.68,1.68,0,0,0,.21-.32h0c0,.12,0,1,0,1a3.21,3.21,0,0,0,0,.89A6.37,6.37,0,0,1,34.86,42c0,.16,0,1.29,0,1.42a7.84,7.84,0,0,0,0,1.17c.07.11,0,1.61.06,2.28a5,5,0,0,0,0,1A11.78,11.78,0,0,0,35,49.41c.14.59-.09.65.06,1,.34.79.66.91.88.87.42-.08.63-.77.79-1.11a1.76,1.76,0,0,0,.15-.66,1.76,1.76,0,0,1,.22-.58,1,1,0,0,0,.07-.57s.12-.38.13-.46a1.23,1.23,0,0,1,0-.22.65.65,0,0,1,.06-.2l.07-.19A8.1,8.1,0,0,0,37.64,45c0-.2-1.19,2.73-1.44,2.19a1.87,1.87,0,0,1-.1-.89,5.14,5.14,0,0,0-.09-.88c0-.39,0-1.3,0-1.3s.17-1.31.14-1.4a9.31,9.31,0,0,0,0-1.22,1.59,1.59,0,0,1,.08-.53,10.92,10.92,0,0,0-.1-1.64,1,1,0,0,0-.34-.95c-.13-.1-.36-.05-.43-.6,0-.35.42-.66.41-.92a2.32,2.32,0,0,1,.34-.67,5,5,0,0,0,.55-1.08h0l.08-.11a1.07,1.07,0,0,0,.1-.31c.15-.58.93-1,.85-1.6A5.46,5.46,0,0,0,37.65,32.23Z"/><path class="f" d="M51.45,47s.06.65-.88,1.4A4.32,4.32,0,0,0,50,49.52c-.07,0-.34.52-2.35.81a1.29,1.29,0,0,0-.4.05,1.53,1.53,0,0,1-.33,0A2.7,2.7,0,0,1,45,50.26a1.9,1.9,0,0,1-.76-.89l0,0a3.61,3.61,0,0,0-.24-.58s0-.36,0-.44a8.83,8.83,0,0,0-.29-1.47,1.8,1.8,0,0,0-.08-.5,1.74,1.74,0,0,0,0-.22,3.09,3.09,0,0,0,0-.58s-.08-.58-.08-.62a2,2,0,0,0,.09-.51c0-.24-.07-1.48-.07-1.48h0s0-.81-.06-1.79a16.64,16.64,0,0,1,.22-2.57c0-.17-.07-.25,0-.52a3.15,3.15,0,0,0,.06-1.19c.18-.45.15-.94.25-1.14a3.43,3.43,0,0,0,0-1c0-.49-.12-.65-.2-.73a1.19,1.19,0,0,0-1.57-.25s-.39.15-.23.43a2.82,2.82,0,0,1,.32,1.56c-.05.81,0,1.85,0,1.85a6.26,6.26,0,0,1-.07,1.19,3.69,3.69,0,0,0-.1.79c0,.13.09,1.35.1,1.42a3.71,3.71,0,0,0,0,.74,14.6,14.6,0,0,0,0,1.5,6,6,0,0,1,.09,1.46c0,.1.07,1.82.07,1.82l0,1a3.87,3.87,0,0,0,.09.62,5.33,5.33,0,0,0,.92,2.72,2.09,2.09,0,0,0,1.19.88.63.63,0,0,1,.37.15A2.24,2.24,0,0,0,46,52c.09,0,1.67-.11,2.54-.11l.89-.06a1,1,0,0,0,.39-.09L50,51.7A2.15,2.15,0,0,0,51,51a3.87,3.87,0,0,0,.93-1.49S52,49,52,48.9C52.08,48.52,51.81,47,51.45,47Z"/></g></svg>