<?xml version="1.0" encoding="utf-8"?>
<!-- Generator: Adobe Illustrator 26.0.2, SVG Export Plug-In . SVG Version: 6.00 Build 0)  -->
<svg version="1.1" id="Lag_1" xmlns="http://www.w3.org/2000/svg" xmlns:xlink="http://www.w3.org/1999/xlink" x="0px" y="0px"
	 viewBox="0 0 455.84 140.58" style="enable-background:new 0 0 455.84 140.58;" xml:space="preserve">
<style type="text/css">
	.st0{fill:#030405;}
	.st1{fill:#08090A;}
	.st2{fill:#040505;}
	.st3{fill:#060607;}
	.st4{fill:#0C0C0D;}
	.st5{fill:#F8C8CF;}
	.st6{fill:#3459A5;}
	.st7{fill:#E6C001;}
	.st8{fill:#D3B834;}
	.st9{fill:#3B3B3B;}
	.st10{fill:#343535;}
	.st11{fill:#2E2E2E;}
	.st12{fill:#484848;}
	.st13{fill:#424342;}
	.st14{fill:#252626;}
	.st15{fill:#383939;}
	.st16{fill:#222323;}
	.st17{fill:#2A4999;}
	.st18{fill:#2B2B2B;}
	.st19{fill:#1E1E1E;}
	.st20{fill:#525353;}
	.st21{fill:#EDC5CC;}
	.st22{fill:#4A4A4A;}
</style>
<g>
	<path class="st0" d="M151.5,57.18c0-9.76,0.01-19.51,0-29.27c0-3.7-0.47-3.9,3.68-3.87c3.99,0.04,7.98-0.1,11.97,0.06
		c1.67,0.07,4.27-1.23,4.46,2.12c0.68-0.11,1.43-0.07,2.02-0.36c5.42-2.7,11.05-4.22,17.21-3.68c4.74,0.42,9.11,1.71,12.7,4.82
		c1.75,1.51,2.94,1.48,4.64,0.01c7.28-6.24,28.2-7.01,35.96,0.32c5.57,5.25,8.89,11.44,10.04,18.78c0.71,4.54,0.94,9.19,1.01,13.8
		c0.15,9.42-0.01,18.85,0.09,28.27c0.02,2.26-0.43,3.25-3,3.12c-4.48-0.23-8.97-0.04-13.46-0.07c-3.5-0.02-3.55-0.04-3.55-3.39
		c-0.02-10.25,0.08-20.5-0.06-30.75c-0.04-3.1-0.39-6.29-1.18-9.28c-1.6-5.99-5.7-8.06-11.8-6.64c-3.93,0.92-5.77,3.77-6.72,7.17
		c-0.74,2.66-1.03,5.52-1.07,8.3c-0.12,10.25-0.04,20.5-0.06,30.75c-0.01,3.79-0.04,3.8-3.62,3.82c-4.16,0.02-8.32-0.19-12.46,0.07
		c-2.63,0.16-2.98-0.87-2.96-3.12c0.1-10.75,0.2-21.5-0.06-32.24c-0.08-3.37-0.84-6.9-2.09-10.03c-1.65-4.15-5.68-5.98-10.15-5.34
		c-1.79,0.25-3.58,0.69-5.27,1.3c-5.54,2-6.31,3.15-6.31,8.96c0,12.24,0.01,24.47-0.01,36.71c-0.01,3.64-0.05,3.66-3.77,3.69
		c-4.32,0.03-8.65-0.16-12.96,0.08c-2.74,0.15-3.28-0.9-3.25-3.37C151.57,77.69,151.5,67.44,151.5,57.18z"/>
	<path class="st1" d="M434.24,64.03c-6.15,0-12.3,0.11-18.44-0.06c-2.35-0.06-2.55,0.92-1.79,2.54c2.67,5.69,7.58,8.05,13.54,8.45
		c4.91,0.33,9.46-1.11,13.63-3.66c1.36-0.83,2.29-1.3,3.52,0.45c2.17,3.1,4.66,6,7.14,8.87c1.14,1.33,0.97,2.14-0.32,3.21
		c-10.24,8.51-21.92,11.78-34.66,7.67c-12.45-4.01-19.5-13.23-22.11-26.07c-1.6-7.88-0.65-15.49,1.67-22.87
		c4.03-12.82,12.98-20.91,28.48-20.55c8.91,0.21,17.11,2.07,23.15,9.18c4.87,5.73,6.89,12.67,7.63,19.96c0.35,3.44,0,6.94,0.12,10.4
		c0.07,1.97-0.72,2.52-2.62,2.49c-6.31-0.1-12.62-0.04-18.94-0.04C434.24,64.02,434.24,64.02,434.24,64.03z M424.97,49.87
		c0-0.01,0-0.03,0-0.04c2.48,0,4.97,0.01,7.45,0c4.6-0.02,4.94-0.52,3.2-4.64c-0.06-0.15-0.18-0.28-0.25-0.42
		c-1.98-4.07-5.83-5.55-11.9-4.58c-4.53,0.73-8.99,4.6-9.31,8.27c-0.04,0.43,0.88,1.32,1.38,1.34
		C418.68,49.93,421.83,49.87,424.97,49.87z"/>
	<path class="st1" d="M74.89,57.42c0-9.91-0.01-19.83,0.01-29.74c0.01-3.63,0.04-3.64,3.85-3.64c4.49-0.01,8.97,0,13.46,0.01
		c1.22,0,2.82-0.64,2.75,1.63c0,0.07,1.67,0.52,2.27,0.22c4.11-2.05,8.5-2.47,13-2.69c14.53-0.71,23.64,7.58,27.04,20.45
		c0.87,3.31,1.19,6.83,1.24,10.26c0.15,11.07,0.05,22.14,0.06,33.21c0,4.73,0.31,4.07-4.36,4.09c-3.82,0.02-7.64,0.01-11.46,0
		c-4.05-0.01-4.08-0.02-4.09-3.89c-0.03-11.07,0.11-22.14-0.14-33.21c-0.06-2.85-1.02-5.77-2.02-8.49c-1.37-3.7-4.66-5.33-8.32-5.05
		c-3.21,0.25-6.44,1.3-9.45,2.51c-2.78,1.12-3.97,3.38-3.91,6.7c0.22,12.06,0.09,24.12,0.09,36.18c0,5.26,0,5.26-5.08,5.25
		c-3.99,0-7.98-0.17-11.96,0.06c-2.57,0.14-3.03-0.91-3.01-3.15C74.94,77.91,74.89,67.66,74.89,57.42z"/>
	<path class="st2" d="M331.06,57.59c0,10.08,0.02,20.16-0.01,30.24c-0.01,3.36-0.06,3.38-3.54,3.4c-4.15,0.02-8.31,0.1-12.46-0.04
		c-1.52-0.05-3.95,1.2-4.05-1.96c-0.68,0.02-1.48-0.18-2.02,0.1c-5.2,2.7-10.8,2.94-16.46,2.72c-10.04-0.4-17.07-5.32-21.41-14.22
		c-2.73-5.58-3.68-11.59-3.79-17.68c-0.18-10.9,0.02-21.81-0.12-32.71c-0.03-2.52,0.53-3.53,3.24-3.41c4.48,0.2,8.97,0.2,13.45,0
		c2.57-0.12,3.41,0.56,3.37,3.24c-0.16,10.41-0.14,20.82-0.02,31.23c0.03,2.77,0.37,5.6,1.03,8.29c1.47,6,6.29,8.92,12.36,7.77
		c1.3-0.25,2.62-0.45,3.86-0.88c5.55-1.9,6.63-3.44,6.63-9.29c0-12.06,0-24.12,0-36.18c0-4.92-0.22-4.07,4.33-4.11
		c4.15-0.04,8.32,0.2,12.45-0.06c2.79-0.17,3.24,0.91,3.21,3.35C330.99,37.43,331.06,47.51,331.06,57.59z"/>
	<path class="st3" d="M61.94,57.76c0,10.08-0.07,20.16,0.05,30.24c0.03,2.5-0.54,3.45-3.26,3.3c-4.47-0.25-8.97-0.02-13.45-0.1
		c-1.3-0.02-3.14,0.7-3.48-1.65c-0.01-0.08-1.65-0.17-2.35,0.14c-6.62,2.93-13.66,3.27-20.47,1.84C8.6,89.35,2.65,82.01,0,72.13
		c-1.01-3.77-1.31-7.81-1.37-11.73C-1.55,49.33-1.36,38.26-1.5,27.19c-0.03-2.59,0.61-3.37,3.32-3.2c4.47,0.29,8.97,0.22,13.45,0.02
		c2.51-0.11,3.04,0.84,3.01,3.13c-0.1,10.24-0.16,20.49,0.04,30.73c0.07,3.4,0.51,6.94,1.57,10.16c1.82,5.51,5.99,7.61,11.71,6.5
		c1.77-0.34,3.54-0.83,5.22-1.45c3.59-1.33,5.32-3.58,5.22-7.81c-0.3-12.55-0.12-25.11-0.1-37.67c0.01-3.46,0.05-3.49,3.52-3.52
		c4.48-0.04,8.98,0.12,13.45-0.06c2.39-0.1,3.11,0.6,3.08,3.02C61.87,37.27,61.95,47.52,61.94,57.76z"/>
	<path class="st4" d="M348.16,55.2c0-4.96-0.07-9.92,0.03-14.87c0.04-2.02-0.43-3.16-2.74-2.81c-1.73,0.27-2.35-0.59-2.32-2.27
		c0.07-3.47,0.1-6.94,0.02-10.41c-0.04-1.77,0.73-2.48,2.38-2.23c2.34,0.35,2.71-0.84,2.67-2.82c-0.1-5.62,0.03-11.24-0.07-16.86
		c-0.04-2.05,0.46-3.01,2.76-2.93c4.65,0.16,9.31,0.18,13.95,0.04c2.15-0.07,2.47,0.9,2.45,2.66c-0.06,5.78,0.07,11.57-0.07,17.35
		c-0.05,2.02,0.69,2.63,2.56,2.57c2.66-0.07,5.32,0.1,7.97-0.05c1.79-0.1,2.32,0.53,2.27,2.23c-0.09,3.47-0.14,6.95,0.01,10.41
		c0.1,2.16-0.99,2.42-2.72,2.36c-2.32-0.09-4.66,0.1-6.98-0.08c-2.43-0.19-3.17,0.72-3.13,3.1c0.12,7.1,0.03,14.21,0.03,21.32
		c0,2.31-0.11,4.64,0.05,6.94c0.35,5.17,3.41,6.83,8.14,4.72c1.71-0.76,2.77-3.37,4.9-2.42c1.56,0.7,2.66,2.42,3.97,3.68
		c0.72,0.69,1.44,1.37,2.16,2.05c3.7,3.52,3.61,3.46,0.39,7.64c-5.65,7.33-13.14,10.14-21.96,7.94
		c-9.17-2.29-14.81-8.53-15.95-17.99c-0.77-6.37-0.75-12.84-1.09-19.26C347.97,55.21,348.07,55.21,348.16,55.2z"/>
	<path class="st5" d="M109.6,112.74c8.44-0.01,16.88-0.04,25.32,0c3.49,0.02,3.56,0.08,3.58,3.53c0.04,7.08-0.07,14.16,0.06,21.23
		c0.04,2.41-0.8,3.1-3.15,3.07c-8.6-0.12-17.21-0.07-25.81-0.09C109.6,131.24,109.6,121.99,109.6,112.74z"/>
	<path class="st6" d="M84.51,113.72c0.05,8.1,0.06,16.2,0.2,24.3c0.03,1.94-0.64,2.57-2.57,2.54c-8.81-0.13-17.61-0.14-26.42-0.19
		c0.01-7.77,0.11-15.55-0.03-23.32c-0.05-2.6,0.8-3.41,3.4-3.37C67.55,113.82,76.03,113.73,84.51,113.72z"/>
	<path class="st7" d="M29.78,140.32c-9.3,0.02-18.61,0.04-27.91,0.06c0-7.75,0.07-15.5-0.05-23.25c-0.04-2.46,0.56-3.52,3.29-3.45
		c7.12,0.17,14.26,0.16,21.38,0.01c2.63-0.06,3.4,0.83,3.36,3.39C29.7,124.82,29.78,132.57,29.78,140.32z"/>
	<path class="st8" d="M29.78,140.32c0-7.75-0.08-15.5,0.06-23.24c0.05-2.55-0.72-3.45-3.36-3.39c-7.12,0.15-14.26,0.17-21.38-0.01
		c-2.73-0.07-3.33,0.99-3.29,3.45c0.12,7.75,0.05,15.5,0.05,23.25c-1.32,0.18-1.77-0.52-1.76-1.71c0.01-7.75,0-15.51,0.01-23.26
		c0-1.92,0.88-3.37,2.85-3.35c8.61,0.08,17.21,0.32,25.82,0.5c1.43,0.03,2.07,0.75,2.06,2.17c-0.04,8.25-0.04,16.49-0.12,24.74
		C30.73,139.75,30.11,140.04,29.78,140.32z"/>
	<path class="st9" d="M420.91,122.12c0,2.14,0.05,4.29-0.04,6.43c-0.02,0.55-0.39,1.43-0.78,1.55c-0.49,0.15-1.4-0.16-1.73-0.58
		c-1.31-1.68-2.43-3.51-3.69-5.23c-1.73-2.35-3.53-4.66-5.3-6.98c-0.14,2.83-0.3,5.67-0.42,8.5c-0.04,0.99,0.08,1.99-0.07,2.96
		c-0.07,0.47-0.62,0.86-0.95,1.28c-0.33-0.5-0.94-1-0.95-1.5c-0.07-4.28-0.06-8.57,0.04-12.85c0.02-0.65,0.52-1.69,1.01-1.83
		c0.56-0.16,1.61,0.3,2,0.82c2.46,3.29,4.78,6.69,7.19,10.02c0.41,0.57,1.06,0.97,1.6,1.45c0.05-0.65,0.15-1.3,0.15-1.95
		c0.03-2.97-0.02-5.93,0.08-8.89c0.02-0.5,0.6-0.98,0.93-1.47c0.31,0.45,0.86,0.89,0.88,1.35
		C420.95,117.51,420.9,119.82,420.91,122.12C420.9,122.12,420.9,122.12,420.91,122.12z"/>
	<path class="st10" d="M317.04,121.91c0-1.98-0.06-3.97,0.03-5.95c0.03-0.73,0.42-1.44,0.64-2.17c0.82,0.41,1.91,0.62,2.41,1.27
		c2.22,2.87,4.24,5.89,6.4,8.8c0.65,0.88,1.52,1.59,2.29,2.38c0.07-1.11,0.18-2.22,0.19-3.34c0.03-2.48-0.06-4.96,0.07-7.44
		c0.03-0.58,0.73-1.12,1.12-1.68c0.29,0.51,0.81,1.02,0.82,1.54c0.06,4.3,0.06,8.6-0.04,12.9c-0.02,0.68-0.66,1.35-1.01,2.02
		c-0.67-0.39-1.56-0.63-1.98-1.21c-2.54-3.45-4.96-6.99-7.45-10.48c-0.36-0.5-0.86-0.89-1.29-1.33c-0.07,0.63-0.18,1.26-0.19,1.89
		c-0.03,2.48,0.08,4.97-0.06,7.44c-0.07,1.19-0.58,2.36-0.89,3.54c-0.35-1.24-0.86-2.46-1.01-3.72
		C316.9,124.91,317.04,123.4,317.04,121.91z"/>
	<path class="st11" d="M347.01,127.23c0.03-1.38-0.01-2.78,0.12-4.15c0.5-5.27-3.92-9.16-9.1-7.86c-0.48,0.12-1,1.14-1.03,1.76
		c-0.11,2.62-0.07,5.25-0.04,7.87c0.04,3.84,0.76,4.39,4.67,3.65c1.66-0.31,3.33-0.59,5-0.88c-2.81,3.07-6.54,2.62-10.12,2.47
		c-0.52-0.02-1.4-1.26-1.42-1.97c-0.14-4.09,0-8.2-0.1-12.29c-0.05-1.81,0.75-2.28,2.36-2.15c0.98,0.08,1.98,0.01,2.97,0.01
		c3.54,0,6.54,1.16,8.03,4.54C349.73,121.41,349.74,124.57,347.01,127.23z"/>
	<path class="st12" d="M393.12,121.89c-0.01-8.81-0.01-8.82,8.76-8.22c0.61,0.04,1.21,0.31,1.81,0.48c-0.6,0.41-1.17,1.05-1.82,1.16
		c-1.13,0.19-2.31,0.02-3.47,0.04c-3.38,0.07-3.86,0.51-3.32,3.58c0.11,0.64,1.08,1.49,1.76,1.59c1.62,0.24,3.31,0.05,4.96,0.14
		c0.38,0.02,0.74,0.47,1.11,0.72c-0.4,0.41-0.77,1.14-1.2,1.18c-1.65,0.14-3.31,0.1-4.97,0.05c-2.23-0.07-1.76,1.54-1.68,2.75
		c0.09,1.26-0.87,3.22,1.75,3.18c1.99-0.03,3.98-0.03,5.97,0.06c0.33,0.01,0.63,0.5,0.95,0.77c-0.33,0.3-0.65,0.86-0.99,0.87
		c-2.65,0.1-5.31,0.23-7.95,0.04c-0.6-0.04-1.51-1.23-1.59-1.96C392.98,126.19,393.12,124.03,393.12,121.89z"/>
	<path class="st13" d="M248.18,121.97c0-0.16,0-0.33,0-0.49c-0.01-8.46-0.01-8.47,8.59-7.79c0.55,0.04,1.08,0.41,1.62,0.62
		c-0.63,0.34-1.24,0.92-1.91,0.99c-1.47,0.16-2.98,0.17-4.47,0.07c-2.15-0.15-1.83,1.32-1.86,2.59c-0.03,1.3-0.35,2.75,1.8,2.66
		c1.65-0.07,3.32-0.02,4.97,0.08c0.37,0.02,0.71,0.47,1.06,0.72c-0.28,0.37-0.53,1-0.85,1.05c-1.14,0.15-2.31,0.1-3.47,0.13
		c-3.31,0.08-4.55,1.74-3.42,4.85c0.19,0.52,1.17,0.99,1.82,1.05c1.81,0.15,3.64,0.04,5.46,0.11c0.41,0.02,0.81,0.33,1.21,0.51
		c-0.29,0.36-0.57,1.04-0.88,1.05c-2.81,0.09-5.63,0.14-8.44-0.01c-0.44-0.02-1.13-1.12-1.18-1.75c-0.15-2.13-0.06-4.28-0.06-6.43
		C248.19,121.97,248.18,121.97,248.18,121.97z"/>
	<path class="st10" d="M185.83,121.58c0.27-2.56,0.54-5.12,0.81-7.69c2.82-0.06,5.63-0.15,8.45-0.16c0.37,0,0.74,0.39,1.11,0.6
		c-0.32,0.31-0.63,0.86-0.96,0.87c-1.82,0.09-3.66,0.12-5.48,0.03c-2.33-0.11-2.11,1.45-2.18,2.97c-0.07,1.55,0.23,2.55,2.12,2.45
		c1.65-0.09,3.32-0.03,4.98,0.07c0.33,0.02,0.93,0.55,0.89,0.77c-0.06,0.38-0.49,0.99-0.8,1.01c-1.65,0.11-3.32,0.14-4.98,0.06
		c-2.78-0.13-2.05,1.86-2.2,3.38c-0.18,1.8,0.29,2.93,2.4,2.64c0.16-0.02,0.34-0.04,0.5,0c1.86,0.54,4.13-1.24,5.68,0.99
		c-1.89,0.22-3.78,0.6-5.68,0.63c-4.33,0.06-4.34-0.01-4.39-4.15c-0.02-1.48,0-2.97,0-4.45
		C186.01,121.59,185.92,121.59,185.83,121.58z"/>
	<path class="st14" d="M172.35,122.01c0-1.15-0.16-2.33,0.04-3.45c0.28-1.61-1.14-4.19,1.09-4.65c2.61-0.53,5.66-0.97,8.03,1.25
		c1.73,1.63,1.58,5.09-0.78,6.32c-2.07,1.08-1.8,1.77-0.75,3.23c0.94,1.33,1.73,2.77,2.49,4.22c0.17,0.33-0.03,0.86-0.06,1.3
		c-0.42-0.14-1.03-0.16-1.23-0.45c-0.93-1.33-1.76-2.74-2.62-4.12c-0.51-0.83-0.83-1.86-1.54-2.45c-0.52-0.44-1.6-0.57-2.28-0.36
		c-0.43,0.13-0.77,1.12-0.83,1.76c-0.14,1.47-0.02,2.96-0.14,4.44c-0.03,0.36-0.54,0.69-0.83,1.03c-0.18-0.37-0.38-0.74-0.54-1.13
		c-0.06-0.14-0.04-0.33-0.04-0.49c0-2.14,0-4.28,0-6.43C172.34,122.01,172.34,122.01,172.35,122.01z M176.14,120.77
		c3.12,0.07,4.62-0.82,4.74-2.62c0.12-1.72-1.89-2.9-4.7-3.12c-2.52-0.19-2.4,1.31-2.56,3.05
		C173.41,120.31,174.33,121.04,176.14,120.77z"/>
	<path class="st15" d="M294.27,128.68c-4.68,2.75-7.88,2.64-11.09-0.39c-2.85-2.68-3.59-6.8-1.87-10.38
		c2.11-4.38,6.66-5.62,12.03-3.27c-0.38,0.27-0.77,0.53-1.15,0.8c-4.35-0.98-6.91-0.25-8.74,2.5c-1.68,2.54-1.57,5.75,0.29,8.35
		c1.88,2.61,4.54,3.04,9.44,1.5C293.54,128.09,293.9,128.38,294.27,128.68z"/>
	<path class="st16" d="M208.19,117.74c1.68,3.71,3.38,7.41,5.01,11.14c0.14,0.32-0.22,0.86-0.34,1.3c-0.42-0.19-0.95-0.28-1.23-0.59
		c-0.31-0.34-0.34-0.93-0.61-1.33c-0.61-0.87-1.23-2.33-1.96-2.4c-2.43-0.23-4.95-0.17-7.34,0.25c-0.66,0.12-0.96,1.93-1.57,2.88
		c-0.32,0.49-0.95,0.79-1.43,1.18c-0.11-0.62-0.49-1.34-0.28-1.83c1.66-3.89,3.43-7.73,5.16-11.58c0.28,0.35,0.56,0.7,0.84,1.04
		c-0.31,0.9-0.58,1.81-0.93,2.7c-1.61,4.07-1.62,4.07,3.01,3.97c2.92-0.06,2.91-0.06,1.76-2.99c-0.35-0.89-0.62-1.8-0.93-2.7
		C207.61,118.44,207.9,118.09,208.19,117.74z"/>
	<path class="st17" d="M84.51,113.72c-8.48,0.01-16.96,0.1-25.44-0.04c-2.6-0.04-3.44,0.76-3.4,3.37
		c0.14,7.77,0.04,15.54,0.03,23.32c-0.35-0.6-1-1.21-1.01-1.81c-0.06-7.76,0.02-15.52-0.07-23.29c-0.03-2.1,0.55-2.84,2.78-2.81
		c8.3,0.12,16.6,0.01,24.9,0.1C83.05,112.56,83.78,113.32,84.51,113.72z"/>
	<path class="st14" d="M427.69,128.69c-3.64-3.65-4.4-7.63-2.14-11.31c2.1-3.44,5.85-4.88,9.77-3.63c0.89,0.28,1.69,0.89,2.48,1.43
		c0.21,0.15,0.36,0.82,0.29,0.87c-0.36,0.22-0.79,0.41-1.2,0.42c-0.27,0-0.54-0.34-0.81-0.53c-2.71-1.85-5.25-1.5-7.61,0.61
		c-2.55,2.29-3.13,5.17-1.61,8.45c0.47,1.01,1.27,1.88,1.92,2.81C428.42,128.1,428.06,128.39,427.69,128.69z"/>
	<path class="st18" d="M241.36,124.84c-0.04,0.49,0.07,1.07-0.15,1.46c-0.78,1.37-1.67,2.67-2.52,3.99
		c-0.8-1.37-1.78-2.68-2.38-4.14c-1.43-3.47-2.7-7.01-3.97-10.54c-0.19-0.52-0.01-1.16,0-1.75c0.61,0.41,1.55,0.69,1.78,1.26
		c1.28,3.18,2.37,6.44,3.55,9.66c0.23,0.61,0.61,1.17,0.92,1.75c0.48-0.65,0.97-1.28,1.42-1.95c0.18-0.27,0.27-0.6,0.4-0.91
		C240.74,124.07,241.05,124.46,241.36,124.84z"/>
	<path class="st16" d="M303.71,127.79c5.58,1.9,7.3,0.74,7.37-4.99c0.03-2.64-0.01-5.29,0.06-7.93c0.01-0.37,0.48-0.73,0.74-1.1
		c0.4,0.39,1.14,0.78,1.15,1.18c0.07,3.3,0.34,6.65-0.09,9.9c-0.75,5.61-5.1,7.22-10.05,4C303.17,128.5,303.44,128.14,303.71,127.79
		z"/>
	<path class="st19" d="M375.97,122.55c0.06,0.32,0.2,1.28,0.39,2.24c0.18,0.88,0.42,1.75,0.63,2.62c-0.72-0.66-1.72-1.19-2.12-2
		c-1.71-3.53-0.92-7.36,1.83-9.9c2.4-2.21,7.29-2.89,10.16-1.26c0.51,0.29,0.65,1.21,0.96,1.84c-0.52-0.09-1.08-0.08-1.55-0.28
		C380.68,113.5,376,116.25,375.97,122.55z"/>
	<path class="st19" d="M219,113.79c1.82,0,3.65-0.02,5.47,0.02c0.21,0,0.58,0.36,0.57,0.52c-0.02,0.25-0.3,0.5-0.5,0.71
		c-0.1,0.11-0.29,0.15-0.45,0.18c-4.59,0.81-4.59,0.81-4.59,5.49c0,2.64,0.06,5.29-0.01,7.93c-0.01,0.5-0.49,1-0.76,1.5
		c-0.19-0.44-0.54-0.88-0.55-1.33c-0.05-3.3-0.01-6.61-0.04-9.92c-0.03-3.4-0.05-3.38-3.36-3.74c-0.73-0.08-1.44-0.43-2.16-0.65
		c0.8-0.27,1.58-0.68,2.39-0.76c1.32-0.13,2.66-0.03,3.98-0.03C219,113.74,219,113.77,219,113.79z"/>
	<path class="st11" d="M365.93,114.86c1.34,2.94,2.68,5.88,4.03,8.82c-0.39,0.69-0.77,1.37-1.16,2.06
		c-0.99-0.01-1.98,0.07-2.96-0.04c-3.12-0.34-5.87-0.15-6.84,3.61c-0.09,0.37-0.95,0.54-1.46,0.81c0.01-0.55-0.13-1.15,0.07-1.63
		c0.79-1.95,1.69-3.86,2.54-5.78c0.66,0.63,1.32,1.25,1.97,1.88c1.33-0.05,2.66-0.2,3.98-0.13c2.17,0.12,2.04-0.91,1.46-2.42
		c-0.64-1.67-1.15-3.39-1.71-5.09c-0.01-0.5-0.03-0.99-0.04-1.49C365.84,115.26,365.87,115.06,365.93,114.86z"/>
	<path class="st11" d="M380.92,128.79c1.16-0.05,2.33-0.03,3.47-0.18c2.32-0.31,3.85-3.79,2.32-5.52c-0.49-0.56-1.81-0.34-2.69-0.66
		c-0.35-0.13-0.53-0.75-0.78-1.14c1.24-0.21,2.49-0.63,3.71-0.56c0.69,0.04,1.79,0.81,1.91,1.4c0.29,1.43,0.01,2.96,0.13,4.44
		c0.16,2.03-0.75,2.88-2.7,3.38c-2.26,0.58-4.4,1.51-6.52-0.24C380.15,129.4,380.53,129.09,380.92,128.79z"/>
	<path class="st20" d="M229.34,122.08c0,2.45,0.03,4.91-0.04,7.36c-0.01,0.24-0.56,0.57-0.92,0.65c-0.17,0.04-0.61-0.36-0.66-0.6
		c-0.14-0.79-0.2-1.61-0.2-2.42c0-4.09,0.01-8.18,0.09-12.27c0.01-0.32,0.55-0.79,0.92-0.89c0.21-0.05,0.83,0.51,0.84,0.81
		c0.07,2.45,0.04,4.91,0.04,7.36C229.39,122.08,229.37,122.08,229.34,122.08z"/>
	<path class="st16" d="M292.18,115.44c0.38-0.27,0.77-0.53,1.15-0.8c5.44,3.93,5.79,9.18,0.94,14.04c-0.37-0.29-0.73-0.59-1.1-0.88
		C297.22,122.35,297.03,119.99,292.18,115.44z"/>
	<path class="st21" d="M109.6,112.74c0,9.25-0.01,18.49-0.01,27.74c-0.34-0.66-0.97-1.32-0.97-1.99c-0.07-7.92-0.07-15.83,0-23.75
		C108.63,114.08,109.26,113.41,109.6,112.74z"/>
	<path class="st11" d="M157.27,127.85c-4.14-5-3.76-8.97,1.24-13c0.32,0.29,0.64,0.58,0.95,0.86c-3.83,4.79-3.97,6.25-1.07,11.41
		C158.02,127.37,157.64,127.61,157.27,127.85z"/>
	<path class="st10" d="M241.36,124.84c-0.31-0.38-0.62-0.77-0.93-1.15c1.07-2.87,2.09-5.76,3.27-8.59c0.23-0.54,1.12-0.8,1.71-1.19
		c-0.03,0.55,0.1,1.16-0.1,1.65C244.03,118.67,242.69,121.75,241.36,124.84z"/>
	<path class="st19" d="M273.98,122.77c-5.18-1.29-6.25-2.26-5.81-5.57c0.08-0.61,0.84-1.13,1.28-1.69c0.16,0.53,0.47,1.06,0.44,1.58
		c-0.22,3.79,3.34,3.37,5.27,4.76C274.77,122.16,274.38,122.46,273.98,122.77z"/>
	<path class="st16" d="M302.89,128.86c-0.58-0.75-1.61-1.47-1.65-2.26c-0.23-3.92-0.21-7.86-0.22-11.8c0-0.27,0.5-0.54,0.77-0.82
		c0.16,0.27,0.46,0.53,0.46,0.8c0.05,2.13-0.14,4.28,0.1,6.39c0.25,2.23,0.88,4.41,1.35,6.61
		C303.44,128.14,303.17,128.5,302.89,128.86z"/>
	<path class="st9" d="M362.13,124.59c-0.66-0.63-1.32-1.25-1.97-1.88c1.26-2.69,2.51-5.38,3.77-8.08c0.63,0.28,1.26,0.55,1.89,0.83
		c0.01,0.5,0.03,0.99,0.04,1.49c-0.46-0.07-1.31-0.26-1.34-0.19C363.68,119.36,362.91,121.98,362.13,124.59z"/>
	<path class="st4" d="M159.46,115.72c-0.32-0.29-0.64-0.58-0.95-0.86c2.99-2.24,6.07-1.74,9.12-0.18c0.39,0.2,0.48,0.99,0.71,1.51
		c-0.54,0-1.28,0.22-1.6-0.05C164.38,114.18,161.96,114.51,159.46,115.72z"/>
	<path class="st9" d="M427.69,128.69c0.36-0.3,0.72-0.59,1.08-0.89c2.29,0.25,4.57,0.49,6.86,0.74c0.38,0.29,0.75,0.58,1.13,0.88
		C433.55,131.49,430.54,131.06,427.69,128.69z"/>
	<path class="st10" d="M447.74,119.6c1.01-1.8,1.97-3.64,3.09-5.37c0.2-0.31,1.08-0.19,1.64-0.27c-0.03,0.4,0.09,0.9-0.11,1.2
		c-1.24,1.86-2.55,3.68-3.83,5.52C448.27,120.32,448.01,119.96,447.74,119.6z"/>
	<path class="st19" d="M444.44,121.03c-1.41-1.98-2.84-3.95-4.2-5.96c-0.18-0.27-0.02-0.78-0.01-1.18c0.44,0.06,1.12-0.05,1.28,0.19
		c1.38,2.01,2.67,4.08,3.98,6.14C445.14,120.49,444.79,120.76,444.44,121.03z"/>
	<path class="st19" d="M447.74,119.6c0.27,0.36,0.53,0.72,0.8,1.08c-1.85,2.22-1.5,4.88-1.56,7.48c-0.01,0.63-0.53,1.26-0.81,1.89
		c-0.18-0.56-0.47-1.11-0.54-1.68c-0.25-2.09-0.43-4.18-0.64-6.27c0.38-0.25,0.76-0.51,1.14-0.76
		C446.67,120.75,447.2,120.17,447.74,119.6z"/>
	<path class="st18" d="M273.98,122.77c0.39-0.31,0.79-0.61,1.18-0.92c3.86,2.83,3.97,3.43,1.25,7c-0.36-0.27-0.71-0.54-1.07-0.81
		C277.44,125.64,275.4,124.28,273.98,122.77z"/>
	<path class="st18" d="M276.42,128.85c-3.4,2.24-5.4,2.34-7.74,0.33c-0.29-0.25-0.33-0.79-0.49-1.19c0.42-0.11,0.99-0.44,1.23-0.28
		c1.93,1.3,3.89,1.36,5.93,0.34C275.7,128.32,276.06,128.58,276.42,128.85z"/>
	<path class="st22" d="M368.8,125.74c0.39-0.69,0.77-1.37,1.16-2.06c0.85,1.72,1.73,3.42,2.51,5.17c0.15,0.33-0.1,0.83-0.17,1.25
		c-0.51-0.18-1.26-0.21-1.49-0.57C370.04,128.33,369.46,127.01,368.8,125.74z"/>
	<path class="st19" d="M273.1,113.2c1.15,0.25,2.02,0.29,2.72,0.65c0.62,0.32,1.04,1.01,1.55,1.54c-0.69,0.03-1.4,0.16-2.07,0.05
		c-0.76-0.12-1.48-0.49-2.24-0.66c-0.88-0.21-1.79-0.32-2.69-0.48C271.38,113.9,272.37,113.5,273.1,113.2z"/>
	<path class="st15" d="M208.19,117.74c-0.29,0.35-0.58,0.7-0.86,1.04c-1-0.25-0.85-3.87-2.91-0.98c-0.28-0.35-0.56-0.7-0.84-1.04
		c0.22-0.58,0.45-1.17,0.68-1.75c0.72-1.82,1.79-1.66,2.73-0.3C207.58,115.59,207.8,116.73,208.19,117.74z"/>
	<path class="st15" d="M161.46,128.76c1.84-0.35,3.69-0.71,5.53-1.06c0.23,0.39,0.47,0.79,0.7,1.18c-2.28,1.94-4.71,2.67-7.42,0.85
		C160.66,129.4,161.06,129.08,161.46,128.76z"/>
	<path class="st22" d="M436.76,129.42c-0.38-0.29-0.75-0.58-1.13-0.88c0.3-0.35,0.54-0.84,0.92-1.03c0.59-0.3,1.28-0.41,1.93-0.61
		c-0.29,0.72-0.53,1.47-0.9,2.15C437.48,129.26,437.05,129.3,436.76,129.42z"/>
	<path class="st11" d="M161.46,128.76c-0.4,0.32-0.8,0.65-1.19,0.97c-1-0.62-2-1.25-2.99-1.87c0.37-0.24,0.75-0.48,1.12-0.72
		C159.41,127.67,160.44,128.21,161.46,128.76z"/>
	<path class="st0" d="M365.82,115.47c-0.63-0.28-1.26-0.55-1.89-0.83c0.83-1.35,1.52-1.43,2.01,0.23
		C365.87,115.06,365.84,115.26,365.82,115.47z"/>
	<path class="st15" d="M166.99,127.69c0.57-0.24,1.15-0.48,1.72-0.71c-0.34,0.63-0.68,1.26-1.02,1.89
		C167.45,128.48,167.22,128.09,166.99,127.69z"/>
	<path class="st19" d="M380.92,128.79c-0.38,0.31-0.77,0.61-1.15,0.92c-0.6-0.32-1.2-0.64-1.79-0.96c0.54-0.12,1.07-0.32,1.61-0.32
		C380.03,128.42,380.47,128.66,380.92,128.79z"/>
	<path class="st19" d="M444.99,122.09c-0.19-0.35-0.37-0.71-0.56-1.06c0.35-0.27,0.7-0.54,1.05-0.81c0.21,0.37,0.43,0.74,0.64,1.11
		C445.75,121.58,445.37,121.83,444.99,122.09z"/>
</g>
</svg>
