<?xml version="1.0" encoding="utf-8"?>
<!-- Generator: Adobe Illustrator 26.0.1, SVG Export Plug-In . SVG Version: 6.00 Build 0)  -->
<svg version="1.1" id="Lag_1" xmlns="http://www.w3.org/2000/svg" xmlns:xlink="http://www.w3.org/1999/xlink" x="0px" y="0px"
	 viewBox="0 0 285.52 288.09" style="enable-background:new 0 0 285.52 288.09;" xml:space="preserve">
<g>
	<path d="M183.21,231.09c1.02,0.74,1.52,1.7,2.18,2.51c0.73,0.89,1.42,1.82,2.13,2.74c0.66,0.85,1.31,1.71,1.97,2.57
		c0.71,0.92,1.41,1.83,2.12,2.74c0.66,0.85,1.32,1.71,1.98,2.56c0.71,0.92,1.41,1.83,2.11,2.75c0.66,0.85,1.32,1.71,1.98,2.56
		c0.71,0.91,1.41,1.83,2.12,2.74c0.66,0.85,1.32,1.71,1.97,2.56c0.71,0.92,1.38,1.85,2.12,2.74c0.68,0.81,1.16,1.81,2.14,2.47
		c0.33-0.38,0.66-0.7,0.93-1.06c5.45-7.18,10.89-14.37,16.37-21.52c0.74-0.97,1.15-1.94,1.07-3.17c-0.07-1.07-0.01-2.16-0.01-3.24
		c0-43.69,0-87.37,0-131.06c0-0.99-0.02-1.99-0.04-3.09c-0.53-0.12-0.95-0.26-1.38-0.31c-0.46-0.05-0.92-0.02-1.39-0.02
		c-12.4,0-24.81,0-37.21,0.01c-0.74,0-1.51-0.14-2.49,0.31c0.81,0.56,1.4,0.99,2.01,1.39c5.13,3.4,8.32,8.13,9.61,14.14
		c0.58,2.73,0.74,5.5,0.59,8.28c-0.19,3.4-0.69,6.74-1.85,9.96c-2.21,6.1-6.25,10.53-12.16,13.24c-0.62,0.29-1.26,0.55-1.88,0.81
		c-0.04,0.94,0.75,0.95,1.23,1.21c5.71,3.09,10.12,7.48,13.31,13.13c1.87,3.31,3.18,6.84,4.13,10.5c1.11,4.27,1.56,8.63,1.81,13.02
		c0.04,0.76,0.01,1.53,0.01,2.37c-1.38,0.63-2.72,0.42-4.01,0.23c-0.54-0.67-0.37-1.39-0.38-2.06c-0.06-4.02-0.54-7.99-1.46-11.9
		c-1.1-4.61-2.83-8.95-5.64-12.81c-4.56-6.27-10.72-10.04-18.27-11.6c-1.2-0.25-2.42-0.39-3.62-0.58c-0.41-1.56-0.39-2.22,0.14-4
		c1.91-0.13,3.83-0.21,5.73-0.39c2.95-0.27,5.74-1.13,8.35-2.51c3.9-2.07,6.62-5.21,8.28-9.28c1-2.45,1.58-5,1.78-7.62
		c0.21-2.77,0.28-5.54-0.2-8.3c-1.12-6.31-4.67-10.76-10.35-13.6c-3.34-1.68-6.92-2.56-10.58-3.13c-3.51-0.54-7.06-0.61-10.61-0.48
		c-0.45,0.02-0.89,0.11-1.44,0.18c-0.07,0.53-0.17,0.97-0.19,1.41c-0.03,0.77-0.01,1.54-0.01,2.31c0,27.12,0,54.24,0,81.36
		c0,0.91-0.03,1.83-0.05,2.87c-1.5,0.47-2.91,0.34-4.51,0.11c-12.19-29.39-24.32-58.85-36.56-88.35c-0.58-0.08-1.1-0.18-1.62-0.21
		c-0.54-0.04-1.08-0.01-1.62-0.01c-22.73,0-45.46,0-68.19,0c-0.92,0-1.84,0-2.55,0c-0.96,0.55-1.07,1.37-1.35,2.06
		c-4.83,11.66-9.65,23.33-14.47,35c-6.47,15.65-12.93,31.31-19.4,46.96c-0.29,0.7-0.56,1.41-0.9,2.27c0.47,0.14,0.8,0.31,1.14,0.33
		c0.77,0.05,1.54,0.03,2.31,0.03c21.27,0,42.53,0,63.8,0.01c0.98,0,1.98-0.1,3.06,0.2c0.25,1.27,0.19,2.48,0.05,3.81
		c-0.43,0.08-0.86,0.21-1.29,0.23c-0.69,0.04-1.39,0.01-2.08,0.01c-21.5,0-42.99,0-64.49,0c-0.91,0-1.82,0.04-2.76,0.07
		c-0.4,0.92-0.28,1.77-0.28,2.6c-0.01,9.48-0.01,18.95-0.01,28.43c0,3.16-0.01,6.32,0.01,9.48c0,0.75,0.07,1.5,0.11,2.34
		c2.42,0.34,4.72,0.13,7.01,0.16c2.39,0.04,4.78,0.01,7.17,0.01c2.31,0,4.62-0.01,6.93,0c2.3,0.01,4.6-0.05,6.86,0.05
		c0.51,1.74,0.51,2.27,0.08,4.22c-2.25,0.29-4.56,0.1-6.85,0.13c-2.39,0.04-4.78,0.01-7.17,0.01c-2.31,0-4.62-0.01-6.93,0
		c-2.29,0.01-4.59-0.04-7.01,0.04c-0.08,0.61-0.17,1.05-0.18,1.49c-0.03,0.77-0.01,1.54-0.01,2.31c0,15.41,0,30.82,0,46.23
		c0,0.91,0.1,1.83-0.2,2.81c-1.32,0.36-2.59,0.27-4.01,0.05c-0.06-0.5-0.13-0.93-0.15-1.37c-0.03-0.54-0.01-1.08-0.01-1.62
		c0-33.05,0.01-66.11-0.02-99.16c0-1.73,0.31-3.32,0.97-4.92c12.4-29.94,24.78-59.9,37.16-89.85C50.3,61.53,62.47,32.07,74.65,2.62
		c0.32-0.78,0.69-1.54,1.04-2.34c1.31-0.45,2.59-0.25,4.01-0.14c0.29,0.61,0.62,1.21,0.88,1.84c6.71,16.22,13.41,32.44,20.11,48.66
		c5.47,13.23,10.93,26.47,16.4,39.7c0.26,0.63,0.58,1.24,0.91,1.94c55.78,0,111.47,0,167.19,0c0.49,1.4,0.36,2.66,0.13,4.05
		c-0.57,0.08-1.09,0.21-1.6,0.21c-1.77,0.03-3.54,0.01-5.32,0.01c-15.56,0-31.13,0-46.69,0.01c-0.91,0-1.85-0.19-2.88,0.37
		c-0.13,2.76-0.04,5.6-0.06,8.44c-0.01,2.85,0,5.7,0,8.55c0,2.93,0,5.86,0,8.78c0,2.85,0,5.7,0,8.55s0,5.7,0,8.55s0,5.7,0,8.55
		c0,2.93,0,5.86,0,8.78c0,2.85,0,5.7,0,8.55s0,5.7,0,8.55c0,2.85,0,5.7,0,8.55c0,2.93,0,5.86,0,8.78c0,2.85,0,5.7,0,8.55
		s0,5.7,0,8.55c0,2.85,0,5.7,0,8.55s0,5.7,0,8.55c0,2.93,0.01,5.86,0.01,8.78c0,2.85,0,5.7,0,8.55s0,5.7,0,8.55c0,2.85,0,5.7,0,8.55
		c0,2.93,0,5.86,0,8.78c0,2.85,0,5.7,0,8.55c0,2.84,0,5.68,0,8.61c-1.46,0.52-2.79,0.4-4.11,0.16c-0.5-0.85-0.3-1.72-0.3-2.54
		c-0.02-9.79-0.01-19.57-0.01-29.36c0-2.93,0.01-5.86-0.01-8.78c0-0.51-0.09-1.01-0.17-1.8c-1.12,0.81-1.6,1.78-2.25,2.58
		c-0.69,0.83-1.3,1.72-1.95,2.58c-0.65,0.86-1.31,1.72-1.96,2.57c-0.65,0.86-1.31,1.71-1.96,2.57c-0.7,0.92-1.39,1.84-2.09,2.77
		c-0.65,0.86-1.31,1.72-1.96,2.58c-0.65,0.86-1.31,1.72-1.96,2.58c-0.65,0.86-1.29,1.73-1.96,2.57c-0.67,0.83-1.19,1.79-2.15,2.57
		c-1.66-1.89-3.07-3.89-4.58-5.82c-1.57-2-3.11-4.02-4.66-6.04c-1.51-1.95-3-3.91-4.52-5.85c-1.49-1.91-2.92-3.87-4.72-6.04
		c-0.38,1.49-0.21,2.55-0.24,3.59c-0.03,1.08-0.01,2.16-0.01,3.24c0,1.08,0,2.16,0,3.24c0,1.08,0,2.16,0,3.24s0,2.16,0,3.24
		c0,1.08,0,2.16,0,3.24c0,1.16,0,2.31,0,3.47c0,1.08,0,2.16,0,3.24s0,2.16,0,3.24c0,1.08,0,2.16,0,3.24s0,2.16,0,3.24s0,2.16,0,3.24
		c0,1.07,0,2.14,0,3.27c-1.38,0.58-2.65,0.32-4.03,0.23c-0.09-0.49-0.19-0.92-0.24-1.36c-0.04-0.38-0.02-0.77-0.02-1.15
		c0-16.8,0-33.59,0-50.39C182.94,232.76,182.83,232,183.21,231.09z M78.03,7.27c-0.23,0.08-0.32,0.08-0.38,0.13
		c-0.12,0.09-0.28,0.17-0.33,0.3c-11.5,27.81-23,55.61-34.49,83.43c-0.11,0.27-0.15,0.57-0.2,0.78c0.13,0.15,0.17,0.24,0.22,0.24
		c0.3,0.05,0.61,0.12,0.91,0.12c22.87-0.01,45.75-0.04,68.62-0.06c0.07,0,0.16-0.03,0.22-0.07c0.06-0.04,0.09-0.11,0.16-0.2
		c0-0.19,0.07-0.44-0.01-0.63C101.21,63.27,89.61,35.26,78.03,7.27z M120,96.81c0.47,1.89,28.89,71.1,31,75.52
		c0.08,0.17,0.26,0.3,0.41,0.46c0.14-0.19,0.3-0.3,0.3-0.41c0.02-24.89,0.03-49.77,0.03-74.66c0-0.29-0.11-0.59-0.19-0.97
		c-0.55-0.07-1.08-0.18-1.6-0.19C141.06,96.32,122.18,96.46,120,96.81z"/>
	<path d="M140.51,262.43c8.33,6.02,10.77,14.35,10.98,23.87c-1.65,0.32-3.08,0.26-4.47,0.1c-0.58-0.53-0.41-1.18-0.45-1.77
		c-0.2-2.93-0.6-5.82-1.61-8.59c-2.27-6.23-6.5-10.33-13.02-11.92c-0.29-0.07-0.57-0.2-0.92-0.33c-0.3-1.49,0.11-2.9,0.32-4.44
		c0.54-0.08,1.05-0.13,1.56-0.22c1.43-0.26,2.9-0.42,4.28-0.84c3.1-0.95,5.08-3.12,6.06-6.16c0.82-2.53,0.92-5.16,0.49-7.77
		c-0.48-2.9-2.12-5.06-4.66-6.55c-2.24-1.31-4.69-1.93-7.22-2.23c-1.44-0.17-2.9-0.36-4.49-0.08c-0.08,0.44-0.21,0.87-0.22,1.3
		c-0.03,1.54-0.01,3.08-0.01,4.62c0,14.01,0,28.03,0,42.04c0,0.91-0.04,1.82-0.06,2.68c-1.83,0.5-2.75,0.51-4.72,0.05
		c-0.04-0.63-0.11-1.31-0.12-1.99c-0.18-21.83-0.05-51.48,0.25-53.16c0.4-0.12,0.83-0.33,1.28-0.37c5.03-0.43,10-0.31,14.8,1.5
		c1.14,0.43,2.27,0.96,3.32,1.59c4.03,2.42,6.28,6.06,6.86,10.68c0.35,2.76,0.19,5.54-0.54,8.25c-1.03,3.8-3.07,6.85-6.49,8.91
		C141.36,261.8,141.07,262.03,140.51,262.43z"/>
	<path d="M46.04,286.33c0.12-0.47,0.17-0.85,0.31-1.2c7.56-18.01,15.13-36.02,22.71-54.05c0.86,0.29,0.91,0.98,1.11,1.51
		c2.29,5.8,4.55,11.61,6.82,17.41c4.37,11.18,8.74,22.37,13.1,33.55c0.33,0.85,0.62,1.71,0.99,2.74c-1.65,0.37-3.14,0.26-4.78,0.08
		c-2.92-7.17-5.63-14.44-8.5-21.52c-1.97-0.26-14.34-0.33-17.53-0.12c-0.72,0.52-0.86,1.4-1.18,2.16
		c-2.49,5.88-4.94,11.78-7.42,17.67c-0.24,0.56-0.51,1.11-0.81,1.77C49.29,286.61,47.73,286.62,46.04,286.33z M69.01,243.2
		c-2.3,5.52-4.49,10.76-6.66,16.01c-0.08,0.19-0.01,0.44-0.01,0.69c0.27,0.06,0.48,0.16,0.7,0.16c4.07-0.01,8.15-0.03,12.22-0.05
		c0.07,0,0.16-0.03,0.21-0.08c0.05-0.04,0.08-0.11,0.12-0.17C75.14,257.7,70.22,245.17,69.01,243.2z"/>
</g>
</svg>
